<svg id="Gross" xmlns="http://www.w3.org/2000/svg" viewBox="0 0 1200 1200"><defs><style>.cls-1{fill:#d1d1d1;}.cls-2,.cls-7{fill:#fff;}.cls-3{fill:#aaa;}.cls-4{fill:#7dc300;}.cls-4,.cls-5,.cls-7{opacity:0.6;}.cls-5{fill:#ff6400;}.cls-6,.cls-8{fill:none;}.cls-6{stroke:#666;stroke-miterlimit:10;stroke-width:0.6px;}.cls-9{opacity:0.08;}.cls-10{fill:#666;}.cls-11,.cls-12{opacity:0.1;}</style></defs><title>1OG</title><g id="H1"><g id="Rooms-2" data-name="Rooms"><g id="H1Flur01"><polygon class="cls-1" points="375.28 777.07 375.28 639.52 326.95 639.52 326.95 903.22 960.96 903.22 960.96 1007.73 960.96 1019.07 960.96 1019.29 1014.28 1019.29 1014.28 854.4 587.29 854.4 587.29 788.41 587.12 788.41 551.87 788.41 551.87 854.57 405.94 854.57 405.94 848.9 430.77 848.9 430.77 788.41 380.95 788.41 380.95 851.74 375.28 851.74 375.28 788.41 375.28 777.07"/></g><g id="H1Flur02"><path class="cls-1" d="M327,639.52h48.33V407.86l6-36.23,5.59.93-6,35.77v44.22l7.64,1.35,90.52,16,13.28-30.79,3.54-8.21,22.22-129.27L300.94,264.35l-26.33-4.6L252.18,385.89,327,399.31ZM428,388.93l40.73,7-6,33.58-40.58-7Z"/></g><g id="H1Flur03"><polygon class="cls-1" points="523.72 302.7 515.83 348.68 798.75 397.22 783.88 480.83 830.55 488.92 835.12 489.71 835.13 489.67 836.15 483.76 858.07 359.57 755.28 342.44 523.72 302.7"/><polygon class="cls-2" points="705.76 387.35 692.42 464.99 716.72 469.2 777.97 479.81 791.78 402.12 705.76 387.35"/></g><g id="H119"><rect class="cls-3" x="723.95" y="908.91" width="169.33" height="98.84"/></g><g id="H117"><rect class="cls-4" x="436.95" y="908.91" width="211.33" height="98.84"/></g><g id="H116"><path class="cls-4" d="M214.12,908.91v98.64c.88.1,1.59.17,2,.2H431.28V908.91Z"/></g><g id="H103"><polygon class="cls-5" points="1007.28 468.09 844.74 468.09 839.96 495.04 839.95 495.07 839.95 500.09 839.95 572.75 1007.28 572.75 1007.28 468.09"/></g><g id="H104"><polygon class="cls-5" points="845.8 462.09 1007.28 462.09 1007.28 333.43 868.61 333.43 845.8 462.09"/></g><g id="H105"><path class="cls-3" d="M864.92,322.09h19.16l5.69-7.1c2.82-3.51,4.51-7.05,4.51-9.46,0-12.54-7.85-16.62-12.54-17.94l-9.6-2.7L873.6,275l4.31-29.32-35-46.59L782,188.65l-55.62,38.86-3.73,2.61-16.85,98.07,50.43,8.67L859.06,354Z"/></g><g id="H106"><polygon class="cls-5" points="700.22 327.23 717.06 229.24 504.86 192.78 488.29 290.82 700.22 327.23"/></g><g id="H107"><polygon class="cls-4" points="123.14 127.18 108.85 210.4 192.91 224.84 190.4 239.28 301.9 258.79 340.5 265.42 357.33 167.43 123.14 127.18"/></g></g><g id="Grundriss-3" data-name="Grundriss"><g id="Treppe"><line class="cls-6" x1="381.03" y1="840.74" x2="430.77" y2="840.74"/><line class="cls-6" x1="381.03" y1="836.74" x2="430.77" y2="836.74"/><line class="cls-6" x1="381.03" y1="832.74" x2="430.77" y2="832.74"/><line class="cls-6" x1="381.03" y1="828.74" x2="430.77" y2="828.74"/><line class="cls-6" x1="381.03" y1="824.74" x2="430.77" y2="824.74"/><line class="cls-6" x1="381.03" y1="820.74" x2="430.77" y2="820.74"/><line class="cls-6" x1="381.03" y1="816.74" x2="430.77" y2="816.74"/><line class="cls-6" x1="381.03" y1="812.74" x2="430.77" y2="812.74"/><line class="cls-6" x1="381.03" y1="808.74" x2="430.77" y2="808.74"/><line class="cls-6" x1="381.03" y1="804.74" x2="430.77" y2="804.74"/><line class="cls-6" x1="405.94" y1="854.57" x2="405.94" y2="804.74"/><line class="cls-6" x1="446.55" y1="424.51" x2="438.76" y2="469.85"/><line class="cls-6" x1="442.61" y1="423.84" x2="434.82" y2="469.17"/><line class="cls-6" x1="438.66" y1="423.16" x2="430.87" y2="468.49"/><line class="cls-6" x1="434.72" y1="422.48" x2="426.93" y2="467.82"/><line class="cls-6" x1="430.78" y1="421.8" x2="422.99" y2="467.14"/><line class="cls-6" x1="426.84" y1="421.13" x2="419.05" y2="466.46"/><line class="cls-6" x1="458.38" y1="426.55" x2="450.59" y2="471.88"/><line class="cls-6" x1="454.43" y1="425.87" x2="446.64" y2="471.2"/><line class="cls-6" x1="450.49" y1="425.19" x2="442.7" y2="470.53"/><line class="cls-6" x1="457.38" y1="425.19" x2="497.63" y2="432.33"/><line class="cls-6" x1="458.88" y1="421.62" x2="498.31" y2="428.39"/><line class="cls-6" x1="459.56" y1="417.68" x2="498.98" y2="424.45"/><line class="cls-6" x1="460.24" y1="413.73" x2="499.66" y2="420.51"/><line class="cls-6" x1="460.92" y1="409.79" x2="500.34" y2="416.57"/><line class="cls-6" x1="461.59" y1="405.85" x2="501.02" y2="412.62"/><line class="cls-6" x1="462.27" y1="401.91" x2="501.69" y2="408.68"/><line class="cls-6" x1="427.38" y1="391.99" x2="384.92" y2="384.46"/><line class="cls-6" x1="426.82" y1="395.73" x2="384.33" y2="388.43"/><line class="cls-6" x1="426.14" y1="399.68" x2="383.66" y2="392.37"/><line class="cls-6" x1="425.47" y1="403.62" x2="382.98" y2="396.31"/><line class="cls-6" x1="424.79" y1="407.56" x2="382.3" y2="400.25"/><line class="cls-6" x1="424.11" y1="411.5" x2="381.62" y2="404.2"/><line class="cls-6" x1="423.44" y1="415.44" x2="380.95" y2="408.14"/><line class="cls-6" x1="446.55" y1="424.51" x2="438.76" y2="469.85"/><line class="cls-6" x1="442.61" y1="423.84" x2="434.82" y2="469.17"/><line class="cls-6" x1="438.66" y1="423.16" x2="430.87" y2="468.49"/><line class="cls-6" x1="434.72" y1="422.48" x2="426.93" y2="467.82"/><line class="cls-6" x1="430.78" y1="421.8" x2="422.99" y2="467.14"/><line class="cls-6" x1="426.84" y1="421.13" x2="419.05" y2="466.46"/><line class="cls-6" x1="458.38" y1="426.55" x2="450.59" y2="471.88"/><line class="cls-6" x1="454.43" y1="425.87" x2="446.64" y2="471.2"/><line class="cls-6" x1="450.49" y1="425.19" x2="442.7" y2="470.53"/><line class="cls-6" x1="457.38" y1="425.19" x2="497.63" y2="432.33"/><line class="cls-6" x1="458.88" y1="421.62" x2="498.31" y2="428.39"/><line class="cls-6" x1="459.56" y1="417.68" x2="498.98" y2="424.45"/><line class="cls-6" x1="460.24" y1="413.73" x2="499.66" y2="420.51"/><line class="cls-6" x1="460.92" y1="409.79" x2="500.34" y2="416.57"/><line class="cls-6" x1="461.59" y1="405.85" x2="501.02" y2="412.62"/><line class="cls-6" x1="462.27" y1="401.91" x2="501.69" y2="408.68"/><line class="cls-6" x1="462.95" y1="397.96" x2="502.37" y2="404.74"/><line class="cls-6" x1="426.82" y1="395.73" x2="384.33" y2="388.43"/><line class="cls-6" x1="426.14" y1="399.68" x2="383.66" y2="392.37"/><line class="cls-6" x1="425.47" y1="403.62" x2="382.98" y2="396.31"/><line class="cls-6" x1="424.79" y1="407.56" x2="382.3" y2="400.25"/><line class="cls-6" x1="424.11" y1="411.5" x2="381.62" y2="404.2"/><line class="cls-6" x1="423.44" y1="415.44" x2="380.95" y2="408.14"/><line class="cls-6" x1="423.1" y1="419.63" x2="380.61" y2="412.32"/></g><g id="H108"><polygon class="cls-7" points="269.02 258.79 183.84 243.89 186.35 229.47 107.89 215.98 83.71 356.68 204.73 377.47 214.15 379.09 214.15 379.09 246.6 384.91 269.02 258.79"/></g><g id="H122"><rect class="cls-2" x="724.95" y="756.43" width="214.33" height="92.33"/></g><g id="Wand"><rect class="cls-2" x="944.95" y="756.43" width="69.33" height="92.33"/><polygon class="cls-2" points="592.96 756.43 592.96 777.09 592.96 788.43 592.96 788.43 592.96 848.75 648.28 848.75 648.28 756.43 592.96 756.43"/><rect class="cls-2" x="653.95" y="756.43" width="65.33" height="92.33"/><rect class="cls-2" x="436.44" y="788.43" width="109.76" height="60.5"/><polygon class="cls-2" points="462.17 400.6 432.64 395.5 428.74 417.98 458.17 423.02 462.17 400.6"/><rect class="cls-2" x="653.95" y="908.91" width="64.33" height="98.84"/><polygon class="cls-2" points="954.62 1007.75 955.29 1007.75 955.29 908.91 898.95 908.91 898.95 1007.75 954.62 1007.75"/><polygon class="cls-2" points="321.28 404.08 214.15 384.85 214.14 501.75 321.28 501.75 321.28 404.08"/><rect class="cls-2" x="214.14" y="507.42" width="107.14" height="81.33"/><rect class="cls-2" x="214.12" y="820.42" width="107.16" height="82.82"/><polygon class="cls-2" points="321.28 594.42 214.14 594.42 214.13 814.75 321.28 814.75 321.28 594.42"/><polygon class="cls-2" points="482.7 289.86 499.28 191.81 486.91 189.69 448.48 183.09 442.75 182.1 425.91 280.1 482.7 289.86"/><rect class="cls-2" x="341.91" y="186.1" width="99.43" height="75.33" transform="translate(104.77 571.84) rotate(-80.25)"/><line class="cls-8" x1="326.95" y1="399.34" x2="214.15" y2="379.09"/><polygon class="cls-2" points="501.52 431.93 625.06 453.33 686.83 464.02 700.17 386.39 514.81 354.59 501.52 431.93"/><line class="cls-9" x1="326.95" y1="399.34" x2="214.15" y2="379.09"/><g id="Wand-2" data-name="Wand"><path class="cls-10" d="M945,745.09H581.62v32h-195v-312L486,482.69l16.83-39,325.82,56.43v84h190v-262h-120c3.21-4,7-10.16,7-16.56,0-17.8-11.25-26.16-20.81-28.85l5-34-40.51-54-70-12-59.45,41.53-231.06-39.7-38.43-6.61L113.89,114.09,70.62,365.93l132.19,22.71,0,512v118.45h11.34V1019c1,.1,1.55.13,1.66.14H961V903.24H327V399.34l-74.77-13.42,22.43-126.15,26.33,4.61,217.21,37.31L495.93,431l-3.54,8.21L479.11,470l-90.52-16L381,452.57V408.35l6-35.77-5.59-.93-6,36.23V851.76H381V788.43h49.82v60.49H405.94v5.67H551.87V788.43h35.42v66h427v164.67h11.34v-274ZM692.42,465l13.34-77.64,86,14.76L778,479.81Zm91.46,15.84,14.87-83.61-92-15.78,7.9-46,40.61,7,102.79,17.12-23,130.14Zm223.4,91.92H840V495.07l4.79-27h162.54Zm0-239.32V462.09H845.8l22.81-128.66ZM722.66,230.12l3.73-2.61L782,188.65,843,199.12l35,46.59L873.6,275l-1.46,9.86,9.6,2.7c4.69,1.32,12.54,5.4,12.54,17.94,0,2.41-1.69,6-4.51,9.46l-5.69,7.1H864.92L859.06,354,756.24,336.86l-50.43-8.67ZM899,908.91h56.34v98.84H899Zm-175,0H893.28v98.84H724Zm-70,0h64.33v98.84H654Zm-217,0H648.28v98.84H437Zm-5.67,0v98.84H216.17c-.46,0-1.16-.1-2-.2V908.91Zm-110-314.49V814.75H214.12l0-220.33Zm-107.14-5.67V507.42H321.28v81.33ZM321.28,820.42v82.82H214.12V820.42Zm0-416.34v97.67H214.14V384.85ZM246.6,384.91l-32.45-5.82-9.42-1.62-121-20.79L107.89,216l78.46,13.49-2.51,14.42L269,258.79Zm55.3-126.12-111.5-19.5,2.51-14.45L108.85,210.4l14.29-83.22,234.2,40.25-16.84,98Zm44.18,7.59,16.84-98,74.25,12.75-16.84,98Zm79.83,13.72,16.84-98,5.73,1,38.43,6.6,12.37,2.13-16.58,98Zm62.38,10.72,16.57-98,212.2,36.46-16.84,98Zm35.44,11.83,185.35,31.86-7.9,46-185.36-31.8Zm-8.92,51.94,185.36,31.8L686.83,464,501.52,431.93ZM546.2,848.92H436.44V788.43H546.2Zm102.08-.17H593V756.43h55.33Zm71,0H654V756.43h65.33Zm220,0H725V756.43H939.28Zm75,0H945V756.43h69.33Z"/><path class="cls-10" d="M428,388.74l-5.84,33.65,40.58,6.95,6-33.58Zm30.15,34.06-29.43-5,3.9-22.47,29.53,5.09Z"/><rect class="cls-10" x="809.69" y="312.99" width="13" height="13" transform="translate(1269.28 -430.81) rotate(99.75)"/><rect class="cls-10" x="760.41" y="304.52" width="13" height="13" transform="translate(1203.31 -392.14) rotate(99.75)"/><rect class="cls-10" x="317.22" y="362.3" width="13" height="13" transform="translate(742.02 112.21) rotate(99.75)"/><rect class="cls-10" x="255.13" y="351.63" width="13" height="13" transform="translate(658.9 160.93) rotate(99.75)"/></g></g><g id="Schatten"><polygon class="cls-11" points="607.95 808.43 607.95 797.09 607.95 776.43 648.28 776.43 648.28 756.43 592.95 756.43 592.95 777.09 592.95 788.43 592.95 848.75 607.95 848.75 607.95 808.43"/><polygon class="cls-11" points="451.44 808.43 546.2 808.43 546.2 788.43 436.44 788.43 436.44 848.92 451.44 848.92 451.44 808.43"/><polygon class="cls-11" points="774.4 336.33 759.4 316.33 772.22 318.53 774.42 305.72 789.42 325.72 787.22 338.53 774.4 336.33"/><polygon class="cls-11" points="823.68 344.8 808.68 324.8 821.49 327 823.69 314.18 838.69 334.18 836.49 347 823.68 344.8"/><polygon class="cls-11" points="331.22 394.11 316.22 374.11 329.03 376.31 331.23 363.5 346.23 383.5 344.03 396.31 331.22 394.11"/><polygon class="cls-11" points="380.95 452.55 391.43 454.34 391.43 409.94 397.51 386.69 386.91 372.56 380.95 408.33 380.95 452.55"/><polygon class="cls-11" points="587.29 854.4 602.29 874.4 1014.28 874.4 1014.28 854.4 587.29 854.4"/><polygon class="cls-11" points="960.96 1007.73 960.96 1019.07 960.96 1019.29 975.96 1019.29 975.96 923.22 960.96 903.22 960.96 1007.73"/><polygon class="cls-11" points="326.95 903.22 341.95 903.22 341.95 419.31 326.95 399.31 326.95 903.22"/><polygon class="cls-11" points="551.87 788.41 551.87 854.57 405.94 854.57 420.94 874.57 566.87 874.57 566.87 808.41 587.29 808.41 587.29 788.41 587.12 788.41 551.87 788.41"/><polygon class="cls-11" points="518.15 301.67 300.94 264.36 274.61 259.75 256.11 363.78 254.13 363.44 255.78 365.65 252.18 385.89 270.16 389.12 271.11 383.78 281.94 385.64 284.14 372.83 275.18 360.89 289.61 279.75 315.94 284.36 515.24 318.6 518.15 301.67"/><polygon class="cls-11" points="519.86 212.78 714.15 246.16 717.06 229.24 504.86 192.78 488.29 290.82 506.15 293.89 519.86 212.78"/><path class="cls-11" d="M888.49,287.65l-16.35-2.76,15,20,7,2a7.28,7.28,0,0,0,.16-1.33C894.28,298.72,891.36,290.38,888.49,287.65Z"/><polygon class="cls-11" points="737.66 250.12 741.39 247.51 797.01 208.65 857.95 219.12 877.91 245.72 877.91 245.71 842.95 199.12 782.01 188.65 726.39 227.51 722.66 230.12 705.81 328.19 723.72 331.27 737.66 250.12"/><polygon class="cls-11" points="854.95 520.09 854.95 515.07 854.96 515.04 859.74 488.09 1007.28 488.09 1007.28 468.09 844.74 468.09 839.96 495.04 839.95 495.07 839.95 500.09 839.95 572.75 854.95 572.75 854.95 520.09"/><polygon class="cls-11" points="883.61 353.43 1007.28 353.43 1007.28 333.43 868.61 333.43 845.8 462.09 864.35 462.09 883.61 353.43"/><polygon class="cls-11" points="959.95 776.43 1014.28 776.43 1014.28 756.43 944.95 756.43 944.95 848.75 959.95 848.75 959.95 776.43"/><polygon class="cls-11" points="451.95 928.91 648.28 928.91 648.28 908.91 436.95 908.91 436.95 1007.75 451.95 1007.75 451.95 928.91"/><polygon class="cls-11" points="668.95 776.43 719.28 776.43 719.28 756.43 653.95 756.43 653.95 848.75 668.95 848.75 668.95 776.43"/><g class="cls-12"><polygon points="738.95 928.91 893.28 928.91 893.28 908.91 723.95 908.91 723.95 1007.75 738.95 1007.75 738.95 928.91"/></g><polygon class="cls-11" points="668.95 928.91 718.28 928.91 718.28 908.91 653.95 908.91 653.95 1007.75 668.95 1007.75 668.95 928.91"/><polygon class="cls-11" points="913.95 928.91 955.28 928.91 955.28 908.91 898.95 908.91 898.95 1007.75 913.95 1007.75 913.95 928.91"/><polygon class="cls-11" points="739.95 776.43 939.28 776.43 939.28 756.43 724.95 756.43 724.95 848.75 739.95 848.75 739.95 776.43"/><polygon class="cls-11" points="229.14 527.42 321.28 527.42 321.28 507.42 214.14 507.42 214.14 588.75 229.14 588.75 229.14 527.42"/><polygon class="cls-11" points="229.12 840.42 321.28 840.42 321.28 820.42 214.12 820.42 214.12 903.24 229.12 903.24 229.12 840.42"/><polygon class="cls-11" points="229.14 614.42 321.28 614.42 321.28 594.42 214.14 594.42 214.13 814.75 229.13 814.75 229.14 614.42"/><line class="cls-11" x1="341.95" y1="419.34" x2="229.15" y2="399.09"/><path class="cls-11" d="M229.12,928.91H431.28v-20H214.12v98.64c.88.1,1.59.17,2,.2h13Z"/><polygon class="cls-11" points="122.89 235.98 186.04 246.84 198.84 263.89 266.03 275.65 269.02 258.79 183.84 243.89 186.35 229.47 107.89 215.98 83.71 356.68 101.62 359.75 122.89 235.98"/><polygon class="cls-11" points="457.75 202.1 463.48 203.09 496.41 208.75 499.27 191.81 486.91 189.69 448.48 183.09 442.75 182.1 425.91 280.1 443.82 283.18 457.75 202.1"/><polygon class="cls-11" points="138.15 147.18 354.43 184.35 357.33 167.43 123.14 127.18 108.85 210.4 126.75 213.47 138.15 147.18"/><polygon class="cls-11" points="377.92 188.38 434.26 198.06 437.17 181.14 362.92 168.38 346.08 266.38 363.99 269.46 377.92 188.38"/><polygon class="cls-11" points="529.81 374.59 697.26 403.32 700.17 386.39 514.81 354.59 501.52 431.93 519.42 435.03 529.81 374.59"/><g class="cls-12"><polygon points="538.72 322.7 770.28 362.44 855.07 376.57 858.07 359.57 755.28 342.44 523.72 302.7 515.83 348.68 533.73 351.75 538.72 322.7"/><polygon points="813.75 417.22 798.75 397.22 783.88 480.83 801.88 483.95 813.75 417.22"/></g><polygon class="cls-11" points="720.76 407.35 788.78 419.02 791.78 402.12 705.76 387.35 692.42 464.99 710.32 468.09 720.76 407.35"/><polygon class="cls-11" points="229.15 404.85 321.28 421.38 321.28 404.08 214.15 384.85 214.14 501.75 229.14 501.75 229.15 404.85"/><g class="cls-12"><polygon points="416.62 505.09 515.97 522.69 532.8 483.66 828.62 534.89 828.62 500.09 502.81 443.66 485.97 482.69 386.62 465.09 386.62 777.09 416.62 777.09 416.62 505.09"/><polygon points="1048.62 362.09 1018.62 322.09 1018.62 584.09 828.62 584.09 858.62 624.09 1048.62 624.09 1048.62 362.09"/><path d="M889.81,242.7l-5,34c9.56,2.69,20.81,11.05,20.81,28.85,0,6.4-3.79,12.55-7,16.56h26.72a29.56,29.56,0,0,0-10.53-5.41l5-34Z"/><path d="M1025.62,745.09v274l-64.67,0v0H202.78l30,40H991v0l64.67,0v-274Z"/><polygon points="202.81 388.64 70.62 365.93 100.62 405.93 202.81 423.49 202.81 388.64"/></g><polygon class="cls-11" points="390.28 788.5 380.95 788.5 380.95 851.74 375.28 851.74 390.28 871.74 395.95 871.74 395.95 840.74 388.69 804.74 388.69 798.5 430.38 798.5 430.38 788.5 390.28 788.5"/></g></g></g></svg>