<svg id="Gross" xmlns="http://www.w3.org/2000/svg" viewBox="0 0 1200 1200"><defs><style>.cls-1{fill:#d1d1d1;}.cls-2{fill:#aaa;}.cls-3{fill:#f7f7f7;}.cls-4{fill:none;stroke:#666;stroke-miterlimit:10;stroke-width:0.6px;}.cls-5{fill:#fcfffd;}.cls-6{fill:#fff;}.cls-7{fill:#666;}.cls-8,.cls-9{opacity:0.1;}</style></defs><title>1UG</title><g id="Hu"><g id="Rooms"><g id="HuFlur01"><rect class="cls-1" x="784.21" y="854.5" width="277.32" height="45.33"/></g><g id="HuFlur02"><polygon class="cls-1" points="422.53 801.83 422.53 788.43 422.53 777.09 422.53 600 373.3 600 373.3 801.83 382.47 801.83 382.47 807.5 373.3 807.5 373.3 906.41 519.47 906.41 519.47 903.24 690.53 903.24 690.53 854.5 452.63 854.5 452.63 848.83 458.3 848.83 458.3 848.83 477.63 848.83 477.63 788.43 428.77 788.43 428.2 788.43 428.2 851.67 422.53 851.67 422.53 807.5 415.47 807.5 415.47 801.83 422.53 801.83"/></g><g id="HuFlur03"><polygon class="cls-1" points="311.09 322.02 385.24 334.71 373.3 401.23 373.3 600 422.53 600 422.53 465.09 422.53 451.56 430.62 453 435.85 453.92 526.37 469.96 539.65 439.17 543.19 430.96 553.82 365.43 522.5 359.71 517.11 391.02 515.63 399.62 510.41 430.02 436.84 417.13 437.1 415.63 437.06 415.63 449.8 341.8 515.88 353.15 525.95 295.68 236.62 245.98 229.78 285.75 314.72 301.34 311.09 322.02"/></g><g id="HuMet01"><g id="HuMet01-2" data-name="HuMet01"><polygon class="cls-2" points="996.87 1007.75 1002.53 1007.75 1002.53 905.5 898.3 905.5 898.34 1007.75 996.87 1007.75"/></g></g><g id="HuMet02"><polygon class="cls-2" points="1061.53 848.83 1061.53 756.43 935.21 756.43 935.21 781.09 935.21 792.43 935.2 792.43 935.2 848.83 1061.53 848.83"/></g><g id="HuMet03"><rect class="cls-2" x="784.21" y="792.43" width="82.42" height="56.41"/></g><g id="HuMet04"><rect class="cls-2" x="596.3" y="908.91" width="94.23" height="98.84"/></g><g id="HuMet05"><rect class="cls-2" x="546.3" y="908.91" width="44.33" height="98.84"/></g><g id="HuMet06"><polygon class="cls-2" points="519.47 908.91 519.47 906.41 373.3 906.41 373.3 908.91 346.3 908.91 346.3 1007.75 540.63 1007.75 540.63 908.91 519.47 908.91"/></g><g id="HuMet06-2" data-name="HuMet06"><polygon class="cls-2" points="367.63 599.5 261.39 599.5 261.38 903.24 367.63 903.24 367.63 599.5"/></g><g id="HuGips01"><polygon class="cls-2" points="454.43 348.35 443.43 412.52 505.78 423.45 516.91 358.75 454.43 348.35"/></g><g id="HuGips02"><polygon class="cls-2" points="261.4 379.09 293.32 384.64 308.16 305.9 228.82 291.34 227.28 300.35 227.2 300.34 214.47 371.02 251.99 377.47 261.4 379.09 261.4 379.09"/></g><g id="HuGips03"><polygon class="cls-2" points="223.11 291.12 233.57 230.24 155 216.78 130.97 356.68 208.88 370.06 223.11 291.12"/></g><g id="HuGips04"><polygon class="cls-2" points="254.55 141.64 237.58 240.4 289.24 249.25 387.71 266.18 404.68 167.44 254.55 141.64"/></g><g id="HuAussen"><polygon id="HuAussen-2" data-name="HuAussen" class="cls-3" points="772.87 745.09 701.87 745.09 701.87 1019.09 772.87 1019.09 772.87 781.09 923.87 781.09 923.87 745.09 772.87 745.09"/></g></g><g id="Grundriss"><g id="Treppe"><line class="cls-4" x1="427.72" y1="840.67" x2="477.46" y2="840.67"/><line class="cls-4" x1="427.72" y1="836.67" x2="477.46" y2="836.67"/><line class="cls-4" x1="427.72" y1="832.67" x2="477.46" y2="832.67"/><line class="cls-4" x1="427.72" y1="828.67" x2="477.46" y2="828.67"/><line class="cls-4" x1="427.72" y1="824.67" x2="477.46" y2="824.67"/><line class="cls-4" x1="427.72" y1="820.67" x2="477.46" y2="820.67"/><line class="cls-4" x1="427.72" y1="816.67" x2="477.46" y2="816.67"/><line class="cls-4" x1="427.72" y1="812.67" x2="477.46" y2="812.67"/><line class="cls-4" x1="427.72" y1="808.67" x2="477.46" y2="808.67"/><line class="cls-4" x1="427.72" y1="804.67" x2="477.46" y2="804.67"/><line class="cls-4" x1="452.63" y1="854.5" x2="452.63" y2="804.67"/><line class="cls-4" x1="492.73" y1="424.31" x2="484.94" y2="469.65"/><line class="cls-4" x1="488.79" y1="423.64" x2="481" y2="468.97"/><line class="cls-4" x1="484.84" y1="422.96" x2="477.05" y2="468.3"/><line class="cls-4" x1="480.9" y1="422.28" x2="473.11" y2="467.62"/><line class="cls-4" x1="476.96" y1="421.61" x2="469.17" y2="466.94"/><line class="cls-4" x1="473.02" y1="420.93" x2="465.23" y2="466.26"/><line class="cls-4" x1="469.08" y1="420.25" x2="461.29" y2="465.59"/><line class="cls-4" x1="465.13" y1="419.57" x2="457.34" y2="464.91"/><line class="cls-4" x1="461.19" y1="418.9" x2="453.4" y2="464.23"/><line class="cls-4" x1="457.25" y1="418.22" x2="449.46" y2="463.55"/><line class="cls-4" x1="453.31" y1="417.54" x2="445.52" y2="462.88"/><line class="cls-4" x1="449.36" y1="416.86" x2="441.57" y2="462.2"/><line class="cls-4" x1="445.42" y1="416.19" x2="437.63" y2="461.52"/><line class="cls-4" x1="441.48" y1="415.51" x2="433.69" y2="460.84"/><line class="cls-4" x1="437.54" y1="414.83" x2="429.75" y2="460.17"/><line class="cls-4" x1="507.47" y1="425.67" x2="548.47" y2="432.67"/><line class="cls-4" x1="508.98" y1="422.1" x2="548.4" y2="428.87"/><line class="cls-4" x1="509.65" y1="418.15" x2="549.08" y2="424.93"/><line class="cls-4" x1="510.33" y1="414.21" x2="549.75" y2="420.99"/><line class="cls-4" x1="511.01" y1="410.27" x2="550.43" y2="417.04"/><line class="cls-4" x1="511.69" y1="406.33" x2="551.11" y2="413.1"/><line class="cls-4" x1="512.36" y1="402.39" x2="551.79" y2="409.16"/><line class="cls-4" x1="513.04" y1="398.44" x2="552.46" y2="405.22"/><line class="cls-4" x1="513.72" y1="394.5" x2="553.14" y2="401.27"/><line class="cls-4" x1="514.4" y1="390.56" x2="553.82" y2="397.33"/><line class="cls-4" x1="504.56" y1="426.35" x2="496.77" y2="471.68"/><line class="cls-4" x1="500.61" y1="425.67" x2="492.82" y2="471.01"/><line class="cls-4" x1="496.67" y1="424.99" x2="488.88" y2="470.33"/></g><g id="Wand"><path class="cls-5" d="M1054.53,333.43H922.24L937,315c2.82-3.51,4.51-7.05,4.51-9.46,0-12.54-7.86-16.62-12.54-17.94l-9.6-2.7,1.45-9.86,4.32-29.33-35-46.58-60.94-10.47-55.63,38.86-3.82,2.67-4.59-.79L549.48,192.32l-17,98.74h0l-11.06,63.05,39.55,6.8-1,5.59L454.43,348.35l-11,64.17,62.39,10.93L510,398.66l2.22.38,1.26-8.36,42.06,7-5.76,34.39,2.18.38,325.81,56.43,9.4,1.63v82.2h167.32Z"/><path class="cls-5" d="M1054.53,333.43H922.24L937,315c2.82-3.51,4.51-7.05,4.51-9.46,0-12.54-7.86-16.62-12.54-17.94l-9.6-2.7,1.45-9.86,4.32-29.33-35-46.58-60.94-10.47-55.63,38.86-3.82,2.67-4.59-.79L549.48,192.32l-17,98.74h0l-11.06,63.05,39.55,6.8-1,5.59L454.43,348.35l-11,64.17,62.39,10.93L510,398.66l2.22.38,1.26-8.36,42.06,7-5.76,34.39,2.18.38,325.81,56.43,9.4,1.63v82.2h167.32Z"/><polygon class="cls-5" points="437.06 415.63 437.1 415.63 449.8 341.8 437.06 415.63"/><polygon class="cls-5" points="929.53 848.83 929.53 792.43 923.87 792.43 872.3 792.43 872.3 848.83 929.53 848.83"/><polygon class="cls-5" points="1008.2 905.5 1008.2 1007.75 1008.21 1007.75 1008.21 1019.09 1008.21 1019.09 1061.53 1019.09 1061.53 905.5 1008.2 905.5"/><polygon class="cls-5" points="784.21 905.5 784.21 1007.75 892.67 1007.75 892.63 905.5 784.21 905.5"/><polygon class="cls-5" points="483.3 788.43 483.3 848.83 690.53 848.83 690.53 756.43 640.21 756.43 640.21 777.09 640.21 788.43 628.87 788.43 483.3 788.43"/><polygon class="cls-5" points="393.3 267.13 526.92 290.1 543.89 191.36 534.17 189.69 495.73 183.09 410.26 168.4 393.3 267.13"/><path class="cls-5" d="M340.63,1007.75V908.91H261.38l-7.88,2.53a66.85,66.85,0,0,0-23.91,13.11c-10.24,9.1-15.22,20.66-15.22,35.32,0,18.11,8.27,31.8,24.58,40.7a64.31,64.31,0,0,0,24.48,7.18Z"/><polygon class="cls-5" points="261.39 593.83 367.63 593.83 367.63 403.33 261.4 384.84 261.39 593.83"/><path class="cls-5" d="M220.15,917.84l0,0Z"/><path class="cls-5" d="M1054.53,333.43H922.24L937,315c2.82-3.51,4.51-7.05,4.51-9.46,0-12.54-7.86-16.62-12.54-17.94l-9.6-2.7,1.45-9.86,4.32-29.33-35-46.58-60.94-10.47-55.63,38.86-3.82,2.67-4.59-.79L549.48,192.32l-17,98.74h0l-11.06,63.05,39.55,6.8-1,5.59L454.43,348.35l-11,64.17,62.39,10.93L510,398.66l2.22.38,1.26-8.36,42.06,7-5.76,34.39,2.18.38,325.81,56.43,9.4,1.63v82.2h167.32Z"/><path class="cls-5" d="M1054.53,333.43H922.24L937,315c2.82-3.51,4.51-7.05,4.51-9.46,0-12.54-7.86-16.62-12.54-17.94l-9.6-2.7,1.45-9.86,4.32-29.33-35-46.58-60.94-10.47-55.63,38.86-3.82,2.67-4.59-.79L549.48,192.32l-17,98.74h0l-11.06,63.05,39.55,6.8-1,5.59L454.43,348.35l-11,64.17,62.39,10.93L510,398.66l2.22.38,1.26-8.36,42.06,7-5.76,34.39,2.18.38,325.81,56.43,9.4,1.63v82.2h167.32Z"/><polygon class="cls-5" points="437.06 415.63 437.1 415.63 449.8 341.8 437.06 415.63"/><path class="cls-5" d="M1054.53,333.43H922.24L937,315c2.82-3.51,4.51-7.05,4.51-9.46,0-12.54-7.86-16.62-12.54-17.94l-9.6-2.7,1.45-9.86,4.32-29.33-35-46.58-60.94-10.47-55.63,38.86-3.82,2.67-4.59-.79L549.48,192.32l-17,98.74h0l-11.06,63.05,39.55,6.8-1,5.59L454.43,348.35l-11,64.17,62.39,10.93L510,398.66l2.22.38,1.26-8.36,42.06,7-5.76,34.39,2.18.38,325.81,56.43,9.4,1.63v82.2h167.32Z"/><path class="cls-5" d="M1054.53,333.43H922.24L937,315c2.82-3.51,4.51-7.05,4.51-9.46,0-12.54-7.86-16.62-12.54-17.94l-9.6-2.7,1.45-9.86,4.32-29.33-35-46.58-60.94-10.47-55.63,38.86-3.82,2.67-4.59-.79L549.48,192.32l-17,98.74h0l-11.06,63.05,39.55,6.8-1,5.59L454.43,348.35l-11,64.17,62.39,10.93L510,398.66l2.22.38,1.26-8.36,42.06,7-5.76,34.39,2.18.38,325.81,56.43,9.4,1.63v82.2h167.32Z"/><polygon class="cls-5" points="437.06 415.63 437.1 415.63 449.8 341.8 437.06 415.63"/><polygon class="cls-5" points="215.64 221.42 215.64 221.41 234.53 224.65 248.96 140.68 170.4 127.18 155.97 211.2 215.64 221.42"/><polygon class="cls-6" points="310.11 327.61 298.91 385.61 368.23 397.68 378.52 339.31 310.11 327.61"/><g id="Wand-2" data-name="Wand"><path class="cls-7" d="M628.87,777.09h-195v-312l99.36,17.6,16.83-39,325.81,56.43v84h190v-262h-120c3.22-4,7-10.16,7-16.56,0-17.8-11.25-26.16-20.8-28.85l5-34-40.5-54-70-12-59.45,41.53-231.06-39.7-38.44-6.61-336.5-57.82L117.87,365.93l132.19,22.71,0,512c-11.95,3.84-47,17.57-47,59.23,0,28.58,17,43.28,30.48,50.66a76.26,76.26,0,0,0,29.51,8.56l438.84,3.41V745.09h-73Zm-133.14-594,38.44,6.6,9.72,1.67-17,98.74-133.62-23,17-98.74Zm-91.05-15.65-17,98.74-98.47-16.93-51.66-8.86,17-98.75ZM170.4,127.18,249,140.68l-14.43,84-18.89-3.24h0L156,211.2ZM155,216.79l78.56,13.45-10.46,60.88-14.23,78.94L131,356.68ZM214.47,371l12.73-70.68h.08l1.54-9,79.34,14.56-14.84,78.74-31.92-5.55h0L252,377.47Zm46.92,222.81v-209l106.23,18.49v190.5Zm106.24,5.67V903.24H261.38V599.5ZM298.91,385.61l11.2-58,68.42,11.7-10.3,58.37Zm41.72,622.14h-77.2a64.31,64.31,0,0,1-24.48-7.18c-16.31-8.9-24.58-22.59-24.58-40.7,0-14.66,5-26.22,15.22-35.32a66.85,66.85,0,0,1,23.91-13.11l7.88-2.53h79.25Zm250,0H546.3V908.91h44.33Zm99.9,0H596.3V908.91h94.23Zm0-104.51H519.47v5.67h21.16v98.84H346.3V908.91h27V807.5h9.17v-5.67H373.3V401.23l11.94-66.52L311.09,322l3.63-20.68-84.94-15.59L236.62,246,526,295.68l-10.07,57.47L449.8,341.8l-13,75.33L510.41,430l12.09-70.31-5.59-1-11.13,64.7-62.39-10.93,11-64.17L560.05,366.5l1-5.59-39.55-6.8,11.06-63.05h0l17-98.74,215.75,37.07,4.59.79,3.82-2.67,55.63-38.86,60.94,10.47,35,46.58L920.85,275l-1.45,9.86,9.6,2.7c4.68,1.32,12.54,5.4,12.54,17.94,0,2.41-1.69,6-4.51,9.46l-5.69,7.1H914.46l-2.1,11.34h142.17V572.75H887.21v-82.2l-9.4-1.63L552,432.49,543.19,431l-3.54,8.21L526.37,470l-90.52-16-13.32-2.36V788.43h0v13.4h-7.06v5.67h7.06v44.17h5.67V788.43h49.43v60.4h-25v5.67h237.9ZM640.21,777.09V756.43h50.32v92.4H483.3v-60.4H640.21Z"/><path class="cls-7" d="M923.87,745.09v36h-151v238h235.34v-11.34h0V905.5h53.33v113.59h11.34v-274ZM872.3,792.43h57.23v56.4H872.3Zm-88.09,0h82.42v56.4H784.21Zm0,215.32V905.5H892.63l0,102.25Zm218.32,0H898.34l0-102.25h104.23Zm59-107.92H784.21V854.5h277.32Zm0-51H935.2v-56.4h0v-36h126.32Z"/><rect class="cls-7" x="856.54" y="312.57" width="13" height="13" transform="translate(402.42 1115.61) rotate(-80.25)"/><polygon class="cls-7" points="821.27 305.3 817.82 304.7 838.67 183.37 832.75 182.35 811.9 303.69 808.46 303.09 806.25 315.91 819.07 318.11 821.27 305.3"/><path class="cls-7" d="M892.41,461.67l18.67-106.29L753.33,328.44l20-107-5.9-1.1-20,107.11-214.9-36.37-1,5.58,33.75,5.77L541.77,439.25l5.92,1,10.09-58.78,254,43.64-9.14,53.2,5.77,1.83,9.75-56.69,9.93,1.71,2.2-12.81-9.93-1.71,10.8-62.85,73,12.47L881,492.23l5.91,1,4.49-25.6h171.12v-6Zm-79.64-42.45-65-11.16,1.65-9.58-12.81-2.2L735,405.86l-99.54-17.11,1.65-9.58L624.28,377l-1.64,9.58-63.84-11,12.4-72.16,254,43.38Z"/><polygon class="cls-7" points="603.79 194.59 597.88 193.57 589.41 242.85 540.78 234.49 539.77 240.41 594.31 249.78 603.79 194.59"/></g></g><g id="Schatten"><g class="cls-8"><path d="M952.87,305.53c0,6.4-3.78,12.55-7,16.56h15.9a17.54,17.54,0,0,0,.36-3.47c0-11.69-9.77-28.24-15.8-32.85C947.36,288.91,952.87,301.43,952.87,305.53Z"/><polygon points="875.87 500.09 550.06 443.66 533.23 482.69 433.87 465.09 433.87 777.09 443.13 777.09 443.13 478.18 542.48 495.79 559.32 456.75 875.87 511.58 875.87 500.09"/><path d="M932.07,276.68a29.46,29.46,0,0,1,10.4,5.31l3.86-26.22L937,243.32Z"/><polygon points="1065.87 322.09 1065.87 584.09 875.87 584.09 885.13 597.18 1075.13 597.18 1075.13 335.18 1065.87 322.09"/><polygon points="250.06 388.64 117.87 365.93 127.13 379.02 250.06 400.15 250.06 388.64"/><path d="M701.87,1022.5,263,1019.09a76.26,76.26,0,0,1-29.51-8.56c-5-2.76-17.3-15.76-22.24-20.89,6.13,12.36,22.88,29.28,31.5,34a75.77,75.77,0,0,0,29.51,8.56l438.84,3.41V758.18l-9.26-13.09Z"/></g><polygon class="cls-9" points="1072.87 745.09 1072.87 1019.09 1061.53 1019.09 1061.53 1019.09 772.87 1019.09 782.13 1032.18 1070.79 1032.18 1070.79 1032.18 1082.13 1032.18 1082.13 758.18 1072.87 745.09"/><polygon class="cls-9" points="546.54 316.64 562.38 319.35 565.29 302.4 531.54 296.64 521.46 354.11 539.43 357.2 546.54 316.64"/><polygon class="cls-9" points="586.2 323.42 822.3 363.74 825.21 346.8 571.2 303.42 558.8 375.58 576.71 378.66 586.2 323.42"/><polygon class="cls-9" points="469.43 368.35 514 376.02 516.91 359.1 454.43 348.35 443.39 412.52 461.29 415.65 469.43 368.35"/><polygon class="cls-9" points="902.21 520.09 902.21 511.25 906.35 487.67 1054.53 487.67 1054.53 467.67 891.35 467.67 887.21 491.25 887.21 500.09 887.21 572.75 902.21 572.75 902.21 520.09"/><polygon class="cls-9" points="833.13 443.47 843.06 445.18 845.26 432.37 837.29 419.22 846.13 367.81 901.15 377.21 904.12 360.28 831.13 347.81 820.33 410.66 830.26 412.37 828.06 425.18 818.13 423.47 808.93 476.99 826.83 480.09 833.13 443.47"/><polygon class="cls-9" points="570.01 417.63 570.01 417.63 572.78 401.49 808.84 442.06 811.75 425.13 557.78 381.49 555.01 397.63 549.11 431.99 552 432.49 567.08 435.1 570.01 417.63"/><polygon class="cls-9" points="564.48 212.32 593.79 217.36 596.7 200.44 549.48 192.32 542.19 234.73 560.1 237.81 564.48 212.32"/><polygon class="cls-9" points="556.17 260.65 609.31 269.78 617.61 221.45 762.56 246.36 765.72 229.48 765.23 229.39 602.61 201.45 594.31 249.78 541.17 240.65 532.51 291.06 532.52 291.06 550.43 294.09 556.17 260.65"/><polygon class="cls-9" points="937.24 353.43 960.87 353.43 1054.53 353.43 1054.53 333.43 912.36 333.43 937.24 353.43"/><polygon class="cls-9" points="817.82 304.7 821.27 305.3 819.07 318.11 806.25 315.91 821.25 335.91 834.07 338.11 836.27 325.3 833.51 320.66 852.52 210.07 905.21 219.12 925.16 245.72 925.17 245.71 890.21 199.12 837.52 190.07 832.97 216.55 817.82 304.7"/><path class="cls-9" d="M935.87,288.5l-16.47-3.61,15,20,7,2a7.28,7.28,0,0,0,.16-1.33C941.54,298.72,938.74,291.23,935.87,288.5Z"/><polygon class="cls-9" points="926.08 375.38 911.08 355.38 892.41 461.67 910.92 461.67 926.08 375.38"/><polygon class="cls-9" points="786.97 248.69 788.64 247.51 826.05 221.38 831.6 189.05 829.27 188.65 773.64 227.51 771.97 228.69 753.33 328.44 771.49 331.54 786.97 248.69"/><polygon class="cls-9" points="885.54 333.76 870.54 313.76 868.34 326.58 855.53 324.37 870.53 344.37 883.34 346.58 885.54 333.76"/><polygon class="cls-9" points="645.59 390.49 637.1 379.17 635.45 388.75 645.59 390.49"/><polygon class="cls-9" points="757.94 409.8 749.45 398.48 747.8 408.06 757.94 409.8"/><polygon class="cls-9" points="887.3 812.43 929.53 812.43 929.53 792.43 923.87 792.43 872.3 792.43 872.3 848.83 887.3 848.83 887.3 812.43"/><polygon class="cls-9" points="950.2 812.43 950.21 812.43 950.21 801.09 950.21 776.43 1061.53 776.43 1061.53 756.43 935.21 756.43 935.21 781.09 935.21 792.43 935.2 792.43 935.2 848.83 950.2 848.83 950.2 812.43"/><polygon class="cls-9" points="1023.2 1019.09 1023.2 925.5 1061.53 925.5 1061.53 905.5 1008.2 905.5 1008.2 1007.75 1008.21 1007.75 1008.21 1019.09 1023.2 1019.09"/><polygon class="cls-9" points="799.21 812.43 866.63 812.43 866.63 792.43 784.21 792.43 784.21 848.83 799.21 848.83 799.21 812.43"/><polygon class="cls-9" points="913.3 925.5 1002.53 925.5 1002.53 905.5 898.3 905.5 898.34 1007.75 913.33 1007.75 913.3 925.5"/><polygon class="cls-9" points="799.21 874.5 1061.53 874.5 1061.53 854.5 784.21 854.5 784.21 899.83 799.21 899.83 799.21 874.5"/><polygon class="cls-9" points="799.21 925.5 892.64 925.5 892.63 905.5 784.21 905.5 784.21 1007.75 799.21 1007.75 799.21 925.5"/><polygon class="cls-9" points="611.3 928.91 690.53 928.91 690.53 908.91 596.3 908.91 596.3 1007.75 611.3 1007.75 611.3 928.91"/><polygon class="cls-9" points="498.3 808.43 643.87 808.43 655.21 808.43 655.21 797.09 655.21 776.43 690.53 776.43 690.53 756.43 640.21 756.43 640.21 777.09 640.21 788.43 628.87 788.43 483.3 788.43 483.3 848.83 498.3 848.83 498.3 808.43"/><polygon class="cls-9" points="276.39 619.5 367.63 619.5 367.63 599.5 261.39 599.5 261.38 903.24 276.38 903.24 276.39 619.5"/><polygon class="cls-9" points="561.3 928.91 590.63 928.91 590.63 908.91 546.3 908.91 546.3 1007.75 561.3 1007.75 561.3 928.91"/><polygon class="cls-9" points="425.26 188.4 510.73 203.09 540.99 208.28 543.89 191.36 534.17 189.69 495.73 183.09 410.26 168.4 393.3 267.13 411.21 270.21 425.26 188.4"/><path class="cls-9" d="M229.37,979.87c0-14.66,5-26.22,15.22-35.32a66.85,66.85,0,0,1,23.91-13.11l7.88-2.53h64.25v-20H261.38l-7.88,2.53a66.85,66.85,0,0,0-23.91,13.11c-10.24,9.1-15.21,20.66-15.22,35.32,0,15.31,5.94,27.45,17.63,36.22A48.45,48.45,0,0,1,229.37,979.87Z"/><polygon class="cls-9" points="269.55 161.64 401.77 184.36 404.68 167.44 254.55 141.64 237.58 240.4 255.49 243.47 269.55 161.64"/><polygon class="cls-9" points="276.4 404.84 367.63 420.72 367.63 403.33 261.4 384.84 261.39 593.83 276.39 593.83 276.4 404.84"/><polygon class="cls-9" points="251.62 265.98 522.99 312.6 525.95 295.68 236.62 245.98 229.78 285.75 247.66 289.03 251.62 265.98"/><polygon class="cls-9" points="437.53 788.43 428.2 788.43 428.2 851.67 422.53 851.67 437.53 871.67 443.2 871.67 443.2 840.67 435.95 804.67 435.95 798.43 477.63 798.43 477.63 788.43 437.53 788.43"/><polygon class="cls-9" points="467.63 874.5 690.53 874.5 690.53 854.5 451.82 854.5 467.63 874.5"/><polygon class="cls-9" points="329.72 321.34 314.72 301.34 311.09 322.02 329.06 325.1 329.72 321.34"/><polygon class="cls-9" points="388.3 827.5 397.47 827.5 397.47 821.83 388.3 808.67 388.3 421.23 400.24 354.71 385.24 334.71 373.3 401.23 373.3 801.83 382.47 801.83 382.47 807.5 373.3 807.5 373.3 906.41 388.3 906.41 388.3 827.5"/><polygon class="cls-9" points="242.2 320.34 242.28 320.35 243.82 311.34 305.02 322.57 308.16 305.9 228.82 291.34 227.28 300.35 227.2 300.34 214.47 371.02 232.51 374.12 242.2 320.34"/><polygon class="cls-9" points="323.48 356.61 323.56 356.62 325.11 347.61 375.58 356.01 378.52 339.31 310.11 327.61 308.56 336.62 308.48 336.61 298.91 385.61 316.95 388.71 323.48 356.61"/><polygon class="cls-9" points="185.4 147.18 246.05 157.61 248.96 140.68 170.4 127.18 155.97 211.2 173.88 214.26 185.4 147.18"/><polygon class="cls-9" points="170 236.78 230.66 247.17 233.57 230.24 155 216.78 130.97 356.68 148.88 359.75 170 236.78"/><polygon class="cls-9" points="388.3 906.41 373.3 906.41 373.3 908.91 346.3 908.91 346.3 1007.75 361.3 1007.75 361.3 928.91 388.3 928.91 388.3 926.41 388.3 906.41"/><polygon class="cls-9" points="540.63 928.91 540.63 908.91 519.47 908.91 534.47 928.91 540.63 928.91"/><polygon class="cls-9" points="502.73 436.97 451.84 437.13 436.84 417.13 510.41 430.02 517.11 391.02 519.91 427.79 517.91 440.02 502.73 436.97"/></g></g></g></svg>