<svg id="Gross" xmlns="http://www.w3.org/2000/svg" viewBox="0 0 1200 1200"><defs><style>.cls-1{fill:#d1d1d1;}.cls-2{fill:#aaa;}.cls-3,.cls-6{fill:none;}.cls-3{stroke:#666;stroke-miterlimit:10;stroke-width:0.6px;}.cls-4{fill:#fff;}.cls-5{fill:#fcfffd;}.cls-7{fill:#666;}.cls-8{fill:#7c7c7c;}.cls-10,.cls-9{opacity:0.1;}</style></defs><title>2OG</title><g id="H2"><g id="Rooms-3" data-name="Rooms"><g id="H2Flur01"><polygon class="cls-1" points="410.15 777.09 410.15 610.37 361.83 610.37 361.83 903.24 990.16 903.24 990.16 903.23 995.83 903.23 995.83 1007.75 995.83 1019.09 1049.15 1019.09 1049.15 854.42 622.16 854.42 622.16 788.43 622 788.43 586.75 788.43 586.75 854.6 440.79 854.6 440.79 848.92 465.62 848.92 465.62 788.43 415.82 788.43 415.82 851.76 410.15 851.76 410.15 788.43 410.15 777.09"/></g><g id="H2Flur02"><path class="cls-1" d="M361.83,438.92V610.37h48.32V407.88l6-36.23,5.59.93-6,36.23.08,43.76L418,453l96,17,13.28-30.79,3.54-8.21L553,301.7,379.56,271.91,356.3,404.17,249,384.85v32.46L359.86,437Zm101.06-50,40.74,7-6,33.58-40.57-7Z"/></g><g id="H218"><rect class="cls-2" x="688.83" y="908.91" width="163.33" height="98.84"/></g><g id="H216"><path class="cls-2" d="M249,908.91v98.64c.87.1,1.57.17,2,.2H456.16V908.91Z"/></g><g id="H210"><polygon class="cls-2" points="392.18 167.42 158.02 127.18 118.59 356.68 239.6 377.47 249.02 379.09 249.02 379.09 351.7 397.58 392.18 167.42"/></g><g id="H2CAD01"><polygon class="cls-2" points="356.16 646.42 249.01 646.42 249 814.75 356.16 814.75 356.16 646.42"/></g><g id="H2CAD02"><polygon class="cls-2" points="356.16 465.42 249.02 465.42 249.01 640.75 356.16 640.75 356.16 465.42"/></g><g id="H2CAD03"><polygon class="cls-2" points="735.1 327.23 751.94 229.24 539.74 192.78 523.16 290.82 735.1 327.23"/></g></g><g id="Grundriss-4" data-name="Grundriss"><g id="Treppen"><line class="cls-3" x1="415.88" y1="840.76" x2="465.62" y2="840.76"/><line class="cls-3" x1="415.88" y1="836.76" x2="465.62" y2="836.76"/><line class="cls-3" x1="415.88" y1="832.76" x2="465.62" y2="832.76"/><line class="cls-3" x1="415.88" y1="828.76" x2="465.62" y2="828.76"/><line class="cls-3" x1="415.88" y1="824.76" x2="465.62" y2="824.76"/><line class="cls-3" x1="415.88" y1="820.76" x2="465.62" y2="820.76"/><line class="cls-3" x1="415.88" y1="816.76" x2="465.62" y2="816.76"/><line class="cls-3" x1="415.88" y1="812.76" x2="465.62" y2="812.76"/><line class="cls-3" x1="415.88" y1="808.76" x2="465.62" y2="808.76"/><line class="cls-3" x1="415.88" y1="804.76" x2="465.62" y2="804.76"/><line class="cls-3" x1="440.79" y1="854.59" x2="440.79" y2="804.76"/><line class="cls-3" x1="481.42" y1="424.53" x2="473.63" y2="469.87"/><line class="cls-3" x1="477.48" y1="423.86" x2="469.69" y2="469.19"/><line class="cls-3" x1="473.54" y1="423.18" x2="465.75" y2="468.52"/><line class="cls-3" x1="469.6" y1="422.5" x2="461.81" y2="467.84"/><line class="cls-3" x1="465.65" y1="421.83" x2="457.86" y2="467.16"/><line class="cls-3" x1="461.71" y1="421.15" x2="453.92" y2="466.48"/><line class="cls-3" x1="493.25" y1="426.57" x2="485.46" y2="471.9"/><line class="cls-3" x1="489.31" y1="425.89" x2="481.52" y2="471.23"/><line class="cls-3" x1="485.37" y1="425.21" x2="477.58" y2="470.55"/><line class="cls-3" x1="492.25" y1="425.21" x2="532.5" y2="432.36"/><line class="cls-3" x1="493.76" y1="421.64" x2="533.18" y2="428.41"/><line class="cls-3" x1="494.44" y1="417.7" x2="533.86" y2="424.47"/><line class="cls-3" x1="495.11" y1="413.75" x2="534.54" y2="420.53"/><line class="cls-3" x1="495.79" y1="409.81" x2="535.21" y2="416.59"/><line class="cls-3" x1="496.47" y1="405.87" x2="535.89" y2="412.64"/><line class="cls-3" x1="497.15" y1="401.93" x2="536.57" y2="408.7"/><line class="cls-3" x1="462.25" y1="392.01" x2="419.8" y2="384.48"/><line class="cls-3" x1="461.7" y1="395.75" x2="419.21" y2="388.45"/><line class="cls-3" x1="461.02" y1="399.7" x2="418.53" y2="392.39"/><line class="cls-3" x1="460.34" y1="403.64" x2="417.85" y2="396.33"/><line class="cls-3" x1="459.67" y1="407.58" x2="417.18" y2="400.28"/><line class="cls-3" x1="458.99" y1="411.52" x2="416.5" y2="404.22"/><line class="cls-3" x1="458.31" y1="415.47" x2="415.82" y2="408.16"/><line class="cls-3" x1="481.42" y1="424.53" x2="473.63" y2="469.87"/><line class="cls-3" x1="477.48" y1="423.86" x2="469.69" y2="469.19"/><line class="cls-3" x1="473.54" y1="423.18" x2="465.75" y2="468.52"/><line class="cls-3" x1="469.6" y1="422.5" x2="461.81" y2="467.84"/><line class="cls-3" x1="465.65" y1="421.83" x2="457.86" y2="467.16"/><line class="cls-3" x1="461.71" y1="421.15" x2="453.92" y2="466.48"/><line class="cls-3" x1="493.25" y1="426.57" x2="485.46" y2="471.9"/><line class="cls-3" x1="489.31" y1="425.89" x2="481.52" y2="471.23"/><line class="cls-3" x1="485.37" y1="425.21" x2="477.58" y2="470.55"/><line class="cls-3" x1="492.25" y1="425.21" x2="532.5" y2="432.36"/><line class="cls-3" x1="493.76" y1="421.64" x2="533.18" y2="428.41"/><line class="cls-3" x1="494.44" y1="417.7" x2="533.86" y2="424.47"/><line class="cls-3" x1="495.11" y1="413.75" x2="534.54" y2="420.53"/><line class="cls-3" x1="495.79" y1="409.81" x2="535.21" y2="416.59"/><line class="cls-3" x1="496.47" y1="405.87" x2="535.89" y2="412.64"/><line class="cls-3" x1="497.15" y1="401.93" x2="536.57" y2="408.7"/><line class="cls-3" x1="497.82" y1="397.99" x2="537.25" y2="404.76"/><line class="cls-3" x1="461.7" y1="395.75" x2="419.21" y2="388.45"/><line class="cls-3" x1="461.02" y1="399.7" x2="418.53" y2="392.39"/><line class="cls-3" x1="460.34" y1="403.64" x2="417.85" y2="396.33"/><line class="cls-3" x1="459.67" y1="407.58" x2="417.18" y2="400.28"/><line class="cls-3" x1="458.99" y1="411.52" x2="416.5" y2="404.22"/><line class="cls-3" x1="458.31" y1="415.47" x2="415.82" y2="408.16"/><line class="cls-3" x1="457.97" y1="419.65" x2="415.48" y2="412.34"/></g><g id="H217"><rect class="cls-4" x="461.83" y="908.91" width="221.33" height="98.84"/></g><rect class="cls-5" x="759.83" y="756.43" width="214.33" height="92.33"/><rect class="cls-5" x="249" y="820.42" width="107.16" height="82.82"/><polygon class="cls-5" points="356.16 442.05 249.02 423.07 249.02 459.75 356.16 459.75 356.16 442.05"/><polygon class="cls-5" points="989.5 1007.75 990.16 1007.75 990.16 908.91 857.83 908.91 857.83 1007.75 989.5 1007.75"/><polygon class="cls-5" points="497.05 400.6 467.51 395.5 463.62 417.98 493.04 423.02 497.05 400.6"/><polygon class="cls-5" points="749.55 335.47 727.29 464.99 865.43 488.92 870 489.71 892.28 359.84 790.16 342.44 749.55 335.47"/><polygon class="cls-5" points="721.71 464.02 743.96 334.51 558.61 302.66 536.39 431.93 721.71 464.02"/><polygon class="cls-5" points="380.54 266.32 455.2 279.15 472.04 181.14 397.77 168.38 380.54 266.32"/><rect class="cls-5" x="471.29" y="788.43" width="109.79" height="60.5"/><rect class="cls-5" x="688.83" y="756.43" width="65.33" height="92.33"/><polygon class="cls-5" points="627.83 756.43 627.83 777.09 627.83 788.43 627.83 788.43 627.83 848.75 683.16 848.75 683.16 756.43 627.83 756.43"/><rect class="cls-5" x="979.83" y="756.43" width="69.33" height="92.33"/><polygon class="cls-5" points="517.58 289.87 534.15 191.81 521.79 189.69 483.35 183.09 477.63 182.1 460.79 280.11 517.58 289.87"/><line class="cls-6" x1="249.02" y1="379.09" x2="351.7" y2="397.58"/><polygon class="cls-5" points="933.49 333.43 930.49 333.43 930.49 333.43 902.73 333.43 898.36 357.93 874.83 495.07 874.83 500.09 874.83 572.75 1042.15 572.75 1042.15 333.43 933.49 333.43"/><path class="cls-5" d="M897,333.43l0-.21,1.2-6.68h0l.83-4.45H919l5.69-7.1c2.82-3.51,4.5-7.05,4.5-9.46,0-12.54-7.85-16.62-12.53-17.94l-9.6-2.7,1.45-9.86,4.31-29.32-34.95-46.59-60.94-10.47-55.63,38.86-3.72,2.61-16.85,98.07,50.42,8.67,102.14,17.4L897,333.43Z"/><g id="Wand"><path class="cls-7" d="M979.83,745.09H616.49v32h-195v-312l99.35,17.6,16.84-39,325.81,56.43v84h190v-262h-120c3.22-4,7-10.16,7-16.56,0-17.8-11.25-26.16-20.8-28.85l5-34-40.5-54-70-12-59.44,41.53-231.06-39.7-38.44-6.61-336.5-57.82L105.49,365.93l132.19,22.71,0,512v118.45H249V1019c.95.09,1.52.12,1.63.13H995.83V903.23h-634V438.92l-2-2L249,417.31V384.85L356.3,404.17l23.26-132.26L553,301.7,530.81,431l-3.54,8.21L514,470l-96-17-2.15-.38-.08-43.76,1.22-7.29,4.82-28.94-5.59-.93-6,36.23V851.76h5.67V788.43h49.8v60.49H440.79v5.67h146V788.43h35.41v66h427v164.67h11.34v-274ZM865.43,488.92,727.29,465l22.26-129.52,40.61,7,102.12,17.39L870,489.71Zm65.06-155.49h111.66V572.75H874.83V495.07l23.53-137.14,4.37-24.5Zm-173-103.31,3.72-2.61,55.63-38.86,60.94,10.47,34.95,46.59L908.47,275,907,284.89l9.6,2.7c4.68,1.32,12.53,5.4,12.53,17.94,0,2.41-1.68,6-4.5,9.46l-5.69,7.1H899.08l-.83,4.45h0l-1.2,6.69,0,.2h0l-3.72,20.83-102.14-17.4-50.42-8.67ZM249,900.64V820.42H356.16v82.82H249v-2.6ZM356.16,646.42V814.75H249V646.42ZM249,640.75V465.42H356.16V640.75ZM857.83,908.91H990.16v98.84H857.83Zm-396,0H852.16v98.84H688.83V908.91h-5.67v98.84H461.83Zm-5.67,0v98.84H251.05c-.46,0-1.15-.1-2-.2V908.91Zm-100-466.86v17.7H249V423.07Zm-4.46-44.47L249,379.09l-9.42-1.62-121-20.79L158,127.18l234.16,40.24Zm28.84-131.26,17.23-97.94L472,181.14l-16.84,98Zm80.25,13.79,16.84-98,5.72,1,38.44,6.6,12.36,2.13-16.57,98Zm62.37,10.71,16.58-98,212.2,36.46-16.84,98Zm35.45,11.84L744,334.51,721.7,464,536.39,431.93Zm22.47,546.26H471.29V788.43H581.08Zm102.08-.17H627.83V756.43h55.33Zm71,0H688.83V756.43h65.33Zm220,0H759.83V756.43H974.16Zm75,0H979.83V756.43h69.32Z"/><rect class="cls-8" x="844.56" y="316.99" width="13" height="13" transform="translate(1314 -460.5) rotate(99.75)"/><rect class="cls-8" x="795.29" y="308.52" width="13" height="13" transform="translate(1248.04 -421.83) rotate(99.75)"/><rect class="cls-8" x="804.28" y="415.59" width="13" height="13" transform="translate(1364.08 -305.5) rotate(99.75)"/><path class="cls-8" d="M462.9,389l-5.84,33.64,40.57,7,6-33.58ZM493,423l-29.42-5,3.89-22.48,29.54,5.1Z"/></g><g id="Schatten"><line class="cls-9" x1="249.02" y1="379.09" x2="351.7" y2="397.58"/><polygon class="cls-9" points="774.83 776.43 974.16 776.43 974.16 756.43 759.83 756.43 759.83 848.75 774.83 848.75 774.83 776.43"/><polygon class="cls-9" points="264.01 666.42 356.16 666.42 356.16 646.42 249.01 646.42 249 814.75 264 814.75 264.01 666.42"/><polygon class="cls-9" points="264.02 485.42 356.16 485.42 356.16 465.42 249.02 465.42 249.01 640.75 264.01 640.75 264.02 485.42"/><polygon class="cls-9" points="264 840.42 356.16 840.42 356.16 820.42 249 820.42 249 903.24 264 903.24 264 840.42"/><polygon class="cls-9" points="173.02 147.18 389.21 184.33 392.18 167.42 158.02 127.18 118.59 356.68 136.5 359.75 173.02 147.18"/><polygon class="cls-9" points="264.02 443.07 356.16 459.4 356.16 442.05 249.02 423.07 249.02 459.75 264.02 459.75 264.02 443.07"/><polygon class="cls-9" points="637.16 874.42 1049.15 874.42 1049.15 854.42 622.16 854.42 637.16 874.42"/><polygon class="cls-9" points="440.79 854.6 455.79 874.6 601.75 874.6 601.75 808.43 622.16 808.43 622.16 788.43 622 788.43 586.75 788.43 586.75 854.6 440.79 854.6"/><polygon class="cls-9" points="376.83 458.92 374.87 456.95 361.83 454.64 361.83 903.24 376.83 903.24 376.83 458.92"/><polygon class="cls-9" points="1010.83 923.23 995.83 903.23 995.83 1007.75 995.83 1019.09 1010.83 1019.09 1010.83 923.23"/><polygon class="cls-9" points="264.02 404.85 371.3 424.17 394.56 291.91 550.11 318.63 553.02 301.7 379.56 271.91 356.3 404.17 249.02 384.85 249.02 417.31 264.02 419.97 264.02 404.85"/><polygon class="cls-9" points="872.83 928.91 990.16 928.91 990.16 908.91 857.83 908.91 857.83 1007.75 872.83 1007.75 872.83 928.91"/><polygon class="cls-9" points="476.83 928.91 683.16 928.91 683.16 908.91 461.83 908.91 461.83 1007.75 476.83 1007.75 476.83 928.91"/><polygon class="cls-9" points="703.83 928.91 852.16 928.91 852.16 908.91 688.83 908.91 688.83 1007.75 703.83 1007.75 703.83 928.91"/><polygon class="cls-9" points="764.55 355.47 805.16 362.44 889.37 376.79 892.28 359.84 790.16 342.44 749.55 335.47 727.29 464.99 745.2 468.09 764.55 355.47"/><polygon class="cls-9" points="573.61 322.66 741.05 351.43 743.96 334.51 558.61 302.66 536.39 431.93 554.3 435.03 573.61 322.66"/><polygon class="cls-9" points="412.77 188.38 469.13 198.06 472.04 181.14 397.77 168.38 380.54 266.32 398.52 269.41 412.77 188.38"/><polygon class="cls-9" points="486.29 808.43 581.08 808.43 581.08 788.43 471.29 788.43 471.29 848.92 486.29 848.92 486.29 808.43"/><polygon class="cls-9" points="703.83 776.43 754.16 776.43 754.16 756.43 688.83 756.43 688.83 848.75 703.83 848.75 703.83 776.43"/><polygon class="cls-9" points="642.83 808.43 642.83 797.09 642.83 776.43 683.16 776.43 683.16 756.43 627.83 756.43 627.83 777.09 627.83 788.43 627.83 848.75 642.83 848.75 642.83 808.43"/><polygon class="cls-9" points="994.83 776.43 1049.15 776.43 1049.15 756.43 979.83 756.43 979.83 848.75 994.83 848.75 994.83 776.43"/><polygon class="cls-9" points="492.63 202.1 498.35 203.09 531.29 208.75 534.15 191.81 521.79 189.69 483.35 183.09 477.63 182.1 460.79 280.11 478.7 283.19 492.63 202.1"/><polygon class="cls-9" points="554.74 212.78 749.03 246.16 751.94 229.24 539.74 192.78 523.16 290.82 541.03 293.89 554.74 212.78"/><polygon class="cls-9" points="889.83 520.09 889.83 515.07 913.36 377.93 917.73 353.43 945.49 353.43 945.49 353.43 948.49 353.43 1042.15 353.43 1042.15 333.43 933.49 333.43 930.49 333.43 930.49 333.43 902.73 333.43 898.36 357.93 874.83 495.07 874.83 500.09 874.83 572.75 889.83 572.75 889.83 520.09"/><g class="cls-10"><path d="M923.84,288.43,907,284.89l15,20,7,2a6.5,6.5,0,0,0,.16-1.33C929.15,298.72,926.71,291.17,923.84,288.43Z"/><polygon points="772.54 250.12 776.26 247.51 831.89 208.65 892.83 219.12 912.78 245.72 912.78 245.71 877.83 199.12 816.89 188.65 761.26 227.51 757.54 230.12 740.69 328.19 758.6 331.27 772.54 250.12"/></g><path class="cls-9" d="M264,928.91H456.16v-20H249v98.64c.87.1,1.57.17,2,.2h13Z"/><polygon class="cls-9" points="818.28 447.4 803.28 427.4 816.09 429.6 818.29 416.79 833.29 436.79 831.09 449.6 818.28 447.4"/><polygon class="cls-9" points="858.56 348.8 843.56 328.8 856.37 331 858.57 318.18 873.57 338.18 871.37 351 858.56 348.8"/><polygon class="cls-9" points="809.28 340.33 794.28 320.33 807.09 322.53 809.29 309.72 824.29 329.72 822.09 342.53 809.28 340.33"/><g class="cls-10"><polygon points="458.99 515.09 558.34 532.69 575.18 493.66 863.49 543.59 863.49 500.09 537.68 443.66 520.84 482.69 421.49 465.09 421.49 777.09 458.99 777.09 458.99 515.09"/><polygon points="1090.99 372.09 1053.49 322.09 1053.49 584.09 863.49 584.09 900.99 634.09 1090.99 634.09 1090.99 372.09"/><polygon points="237.68 388.64 105.49 365.93 142.99 415.93 237.68 432.2 237.68 388.64"/><path d="M1060.49,745.09v274H237.66l37.5,47.83v2.17h11.36V1069c1,.09,1.52.12,1.63.13H1098v-274Z"/><path d="M919.69,276.68c9.55,2.69,20.8,11.05,20.8,28.85,0,6.4-3.78,12.55-7,16.56h24.37l4.33-29.41-37.5-50Z"/></g><polygon class="cls-9" points="425.15 788.52 415.82 788.52 415.82 851.76 410.15 851.76 425.15 871.76 429.21 854.39 429.21 823.39 423.57 804.76 423.57 798.52 465.25 798.52 465.25 788.52 425.15 788.52"/><polygon class="cls-9" points="415.82 452.57 426.3 454.37 426.3 409.96 432.38 386.71 421.78 372.58 415.82 408.35 415.82 452.57"/></g></g></g></svg>