<svg id="Gross" xmlns="http://www.w3.org/2000/svg" viewBox="0 0 1200 1200"><defs><style>.cls-1{fill:#d1d1d1;}.cls-2{fill:#aaa;}.cls-10,.cls-3,.cls-6{fill:none;}.cls-10,.cls-3{stroke:#666;stroke-miterlimit:10;}.cls-3{stroke-width:0.6px;}.cls-4{fill:#7c7c7c;}.cls-5{fill:#fff;}.cls-7{fill:#666;}.cls-8{opacity:0.1;}.cls-9{fill:#fdfefd;}.cls-10{stroke-width:2px;}</style></defs><title>3OG</title><g id="H3"><g id="Rooms-4" data-name="Rooms"><g id="H3Flur"><path class="cls-1" d="M775.21,318.94l-40.61-7L729,311,423.4,258.48,401,388.19v40.89l7.58,1.34,90.51,16,13.29-30.79,3.54-8.21,13.37-77.86,5.59,1-1.41,8.23,76,12.95-12.1,69.83,109.42,18.95L718.88,370l5.54.95,70.19,11.8h0L867.42,395l10-58.44ZM482.69,406.06l-40.57-7L448,365.45l40.74,7Z"/></g><g id="H3Senat"><polygon class="cls-2" points="720.16 303.73 737 205.74 524.79 169.27 508.22 267.32 720.16 303.73"/></g><g id="H3Bib"><path class="cls-2" d="M882.17,309.93l.71-3.83.5-2.83h0l.87-4.68H904l5.69-7.1c2.83-3.52,4.51-7.06,4.51-9.47,0-12.53-7.85-16.61-12.54-17.93l-9.59-2.7,1.45-9.86,4.31-29.33-35-46.58-60.94-10.47L746.32,204l-3.72,2.6-16.86,98.08,50.43,8.67,102.27,17.57,3.75-21Z"/></g></g><g id="Grundriss-5" data-name="Grundriss"><g id="Treppe"><line class="cls-3" x1="466.48" y1="401.03" x2="458.69" y2="446.37"/><line class="cls-3" x1="462.54" y1="400.36" x2="454.75" y2="445.69"/><line class="cls-3" x1="458.6" y1="399.68" x2="450.81" y2="445.01"/><line class="cls-3" x1="454.65" y1="399" x2="446.86" y2="444.34"/><line class="cls-3" x1="450.71" y1="398.32" x2="442.92" y2="443.66"/><line class="cls-3" x1="446.77" y1="397.65" x2="438.98" y2="442.98"/><line class="cls-3" x1="478.31" y1="403.06" x2="470.52" y2="448.4"/><line class="cls-3" x1="474.37" y1="402.39" x2="466.57" y2="447.72"/><line class="cls-3" x1="470.42" y1="401.71" x2="462.63" y2="447.05"/><line class="cls-3" x1="477.31" y1="401.71" x2="517.56" y2="408.85"/><line class="cls-3" x1="478.82" y1="398.14" x2="518.24" y2="404.91"/><line class="cls-3" x1="479.49" y1="394.19" x2="518.92" y2="400.97"/><line class="cls-3" x1="480.17" y1="390.25" x2="519.59" y2="397.03"/><line class="cls-3" x1="480.85" y1="386.31" x2="520.27" y2="393.08"/><line class="cls-3" x1="481.53" y1="382.37" x2="520.95" y2="389.14"/><line class="cls-3" x1="482.2" y1="378.43" x2="521.63" y2="385.2"/><line class="cls-3" x1="447.31" y1="368.51" x2="404.86" y2="360.98"/><line class="cls-3" x1="446.75" y1="372.25" x2="404.27" y2="364.95"/><line class="cls-3" x1="446.08" y1="376.2" x2="403.59" y2="368.89"/><line class="cls-3" x1="445.4" y1="380.14" x2="402.91" y2="372.83"/><line class="cls-3" x1="444.72" y1="384.08" x2="402.23" y2="376.77"/><line class="cls-3" x1="444.04" y1="388.02" x2="401.56" y2="380.72"/><line class="cls-3" x1="443.37" y1="391.96" x2="400.88" y2="384.66"/><line class="cls-3" x1="466.48" y1="401.03" x2="458.69" y2="446.37"/><line class="cls-3" x1="462.54" y1="400.36" x2="454.75" y2="445.69"/><line class="cls-3" x1="458.6" y1="399.68" x2="450.81" y2="445.01"/><line class="cls-3" x1="454.65" y1="399" x2="446.86" y2="444.34"/><line class="cls-3" x1="450.71" y1="398.32" x2="442.92" y2="443.66"/><line class="cls-3" x1="446.77" y1="397.65" x2="438.98" y2="442.98"/><line class="cls-3" x1="478.31" y1="403.06" x2="470.52" y2="448.4"/><line class="cls-3" x1="474.37" y1="402.39" x2="466.57" y2="447.72"/><line class="cls-3" x1="470.42" y1="401.71" x2="462.63" y2="447.05"/><line class="cls-3" x1="477.31" y1="401.71" x2="517.56" y2="408.85"/><line class="cls-3" x1="478.82" y1="398.14" x2="518.24" y2="404.91"/><line class="cls-3" x1="479.49" y1="394.19" x2="518.92" y2="400.97"/><line class="cls-3" x1="480.17" y1="390.25" x2="519.59" y2="397.03"/><line class="cls-3" x1="480.85" y1="386.31" x2="520.27" y2="393.08"/><line class="cls-3" x1="481.53" y1="382.37" x2="520.95" y2="389.14"/><line class="cls-3" x1="482.2" y1="378.43" x2="521.63" y2="385.2"/><line class="cls-3" x1="482.88" y1="374.48" x2="522.3" y2="381.26"/><line class="cls-3" x1="446.75" y1="372.25" x2="404.27" y2="364.95"/><line class="cls-3" x1="446.08" y1="376.2" x2="403.59" y2="368.89"/><line class="cls-3" x1="445.4" y1="380.14" x2="402.91" y2="372.83"/><line class="cls-3" x1="444.72" y1="384.08" x2="402.23" y2="376.77"/><line class="cls-3" x1="444.04" y1="388.02" x2="401.56" y2="380.72"/><line class="cls-3" x1="443.37" y1="391.96" x2="400.88" y2="384.66"/><line class="cls-3" x1="443.03" y1="396.15" x2="400.54" y2="388.84"/></g><g id="Wand"><path class="cls-4" d="M395.21,439.58,505.9,459.19l16.84-39,325.81,56.43v84h190v-262h-120c3.21-4,7-10.16,7-16.57,0-17.79-11.25-26.16-20.8-28.84l5-34-40.5-54-70-12-59.44,41.54L508.77,155l-38.44-6.6L133.82,90.59,90.55,342.43l143.53,24.66v-5.5h0L395.4,390.41Zm-52.87-64.5L364.62,248.4l53.19,9.12-22,127.2Zm179.11,33.35,11-64.05,70.42,12L591.75,420.6Zm75.89,13.14,12.1-69.83-76-12.95,1.41-8.23-5.59-1-13.37,77.86-3.54,8.21L499,446.46l-90.51-16L401,429.08V388.19L423.4,258.48,729,311h0l46.19,7.93,102.25,17.57-10,58.44-72.81-12.23h0l-70.19-11.8-5.53-.95-12.13,70.55Zm115,19.92,11.11-65,64.6,10.8-11.15,65.36Zm138.13,23.92-68-11.77,11.14-65.33,72.82,12.23-11.28,65.69Zm65.2-155.48h111.53V549.25H859.89V472.57h0l23.7-137.91L888,309.93ZM742.6,206.61l3.72-2.6,55.62-38.86,60.94,10.47,35,46.58-4.31,29.33-1.45,9.86,9.59,2.7c4.69,1.32,12.54,5.4,12.54,17.93,0,2.41-1.68,6-4.51,9.47l-5.69,7.1H884.27l-.87,4.68h0l-.5,2.83-.71,3.83h0l-3.75,21L776.17,313.36l-50.43-8.67Zm-5.61-.87-16.83,98L508.22,267.32l16.58-98ZM468.41,159.58l38.44,6.61,12.36,2.12-16.58,98.05-56.79-9.75,16.85-98Zm-11.31-1.94-16.84,98L365.6,242.82l17.22-97.94ZM103.64,333.17l39.44-229.49,234.16,40.24L336.75,374.08,234.08,355.59,224.66,354Z"/><polygon class="cls-5" points="502.63 266.36 519.21 168.31 506.85 166.19 468.41 159.58 462.69 158.6 445.85 256.61 502.63 266.36"/><polygon class="cls-5" points="377.24 143.92 143.08 103.68 103.64 333.17 224.66 353.97 234.08 355.59 234.08 355.59 336.75 374.08 377.24 143.92"/><polygon class="cls-5" points="342.34 375.08 395.81 384.72 417.81 257.52 364.62 248.4 342.34 375.08"/><polygon class="cls-5" points="532.46 344.38 521.45 408.43 591.75 420.6 602.88 356.35 532.46 344.38"/><polygon class="cls-5" points="365.6 242.82 440.26 255.65 457.1 157.64 382.82 144.88 365.6 242.82"/><polygon class="cls-5" points="723.46 376.51 712.35 441.49 776.91 452.67 788.06 387.31 723.46 376.51"/><polygon class="cls-5" points="918.55 309.93 915.68 309.93 915.68 309.93 887.95 309.93 883.54 334.65 859.84 472.56 859.89 472.57 859.89 476.59 859.89 549.25 1027.21 549.25 1027.21 309.93 918.55 309.93"/><polygon class="cls-5" points="850.48 465.42 855.17 466.23 866.46 400.54 793.64 388.31 782.5 453.64 850.48 465.42"/><line class="cls-6" x1="521.45" y1="408.43" x2="534.83" y2="330.56"/><line class="cls-6" x1="235.08" y1="355.76" x2="396.82" y2="384.89"/><line class="cls-6" x1="336.75" y1="374.08" x2="343.7" y2="334.61"/><line class="cls-6" x1="395.81" y1="384.72" x2="400.73" y2="354.99"/><path class="cls-4" d="M448,365.45l-5.83,33.65,40.57,7,6-33.58Zm30.15,34.07-29.43-5,3.9-22.47,29.53,5.1Z"/><rect class="cls-7" x="829.62" y="289.49" width="13" height="13" transform="translate(1269.43 -477.93) rotate(99.75)"/><rect class="cls-7" x="780.34" y="281.02" width="13" height="13" transform="translate(1203.46 -439.27) rotate(99.75)"/><path class="cls-7" d="M395.21,439.58,505.9,459.19l16.84-39,325.81,56.43v84h190v-262h-120c3.21-4,7-10.16,7-16.57,0-17.79-11.25-26.16-20.8-28.84l5-34-40.5-54-70-12-59.44,41.54L508.77,155l-38.44-6.6L133.82,90.59,90.55,342.43l143.53,24.66v-5.5h0L395.4,390.41Zm-52.87-64.5L364.62,248.4l53.19,9.12-22,127.2Zm179.11,33.35,11-64.05,70.42,12L591.75,420.6Zm75.89,13.14,12.1-69.83-76-12.95,1.41-8.23-5.59-1-13.37,77.86-3.54,8.21L499,446.46l-90.51-16L401,429.08V388.19L423.4,258.48,729,311h0l46.19,7.93,102.25,17.57-10,58.44-72.81-12.23h0l-70.19-11.8-5.53-.95-12.13,70.55Zm115,19.92,11.11-65,64.6,10.8-11.15,65.36Zm138.13,23.92-68-11.77,11.14-65.33,72.82,12.23-11.28,65.69Zm65.2-155.48h111.53V549.25H859.89V472.57h0l23.7-137.91L888,309.93ZM742.6,206.61l3.72-2.6,55.62-38.86,60.94,10.47,35,46.58-4.31,29.33-1.45,9.86,9.59,2.7c4.69,1.32,12.54,5.4,12.54,17.93,0,2.41-1.68,6-4.51,9.47l-5.69,7.1H884.27l-.87,4.68h0l-.5,2.83-.71,3.83h0l-3.75,21L776.17,313.36l-50.43-8.67Zm-5.61-.87-16.83,98L508.22,267.32l16.58-98ZM468.41,159.58l38.44,6.61,12.36,2.12-16.58,98.05-56.79-9.75,16.85-98Zm-11.31-1.94-16.84,98L365.6,242.82l17.22-97.94ZM103.64,333.17l39.44-229.49,234.16,40.24L336.75,374.08,234.08,355.59,224.66,354Z"/><path class="cls-7" d="M448,365.45l-5.83,33.65,40.57,7,6-33.58Zm30.15,34.07-29.43-5,3.9-22.47,29.53,5.1Z"/></g><g id="Schatten"><polygon class="cls-8" points="1083.55 358.59 1038.55 298.59 1038.55 560.59 848.55 560.59 893.55 620.59 1083.55 620.59 1083.55 358.59"/><polygon class="cls-8" points="451.55 501.59 550.9 519.19 567.74 480.16 848.55 528.79 848.55 476.59 522.74 420.16 505.9 459.19 406.55 441.59 406.55 721.59 451.55 721.59 451.55 501.59"/><path class="cls-8" d="M904.75,253.18c9.55,2.68,20.8,11.05,20.8,28.84,0,6.41-3.79,12.56-7,16.57h33.34l2.86-19.41-40.5-54-4.5-6Z"/><polygon class="cls-8" points="1045.55 721.59 1045.55 995.59 969.55 995.59 224.84 993.33 267.71 1055.17 1014.55 1055.59 1090.55 1055.59 1090.55 781.59 1045.55 721.59"/><polygon class="cls-8" points="222.74 365.14 90.55 342.43 135.55 402.43 222.74 417.41 222.74 365.14"/><polygon class="cls-8" points="477.69 178.6 483.41 179.58 516.35 185.24 519.21 168.31 506.85 166.19 468.41 159.58 462.69 158.6 445.84 256.61 463.75 259.68 477.69 178.6"/><polygon class="cls-8" points="539.79 189.27 734.09 222.66 737 205.74 524.79 169.27 508.22 267.32 526.08 270.39 539.79 189.27"/><polygon class="cls-8" points="165.58 133.68 372.77 169.28 377.24 143.92 143.08 103.68 103.64 333.17 130.5 337.79 165.58 133.68"/><polygon class="cls-8" points="379.62 268.4 414.89 274.45 417.81 257.52 364.62 248.4 342.34 375.08 360.29 378.31 379.62 268.4"/><polygon class="cls-8" points="547.46 364.38 599.95 373.3 602.88 356.35 532.46 344.38 521.45 408.43 539.36 411.53 547.46 364.38"/><polygon class="cls-8" points="397.82 164.88 454.19 174.56 457.1 157.64 382.82 144.88 365.6 242.82 383.57 245.91 397.82 164.88"/><polygon class="cls-8" points="738.46 396.51 785.16 404.32 788.06 387.31 723.46 376.51 712.35 441.49 730.24 444.59 738.46 396.51"/><polygon class="cls-8" points="808.64 408.31 863.54 417.53 866.46 400.54 793.64 388.31 782.5 453.64 800.38 456.74 808.64 408.31"/><polygon class="cls-8" points="859.89 549.25 874.89 549.25 874.89 496.59 874.89 492.57 874.84 492.56 898.54 354.65 902.95 329.93 930.68 329.93 930.68 329.93 933.55 329.93 1027.21 329.93 1027.21 309.93 918.55 309.93 915.68 309.93 915.68 309.93 887.95 309.93 883.54 334.65 859.84 472.56 859.89 472.57 859.89 476.59 859.89 549.25"/><path class="cls-8" d="M908.26,265.57l-16.18-4.18,15,20,7,2a6.5,6.5,0,0,0,.16-1.33C914.21,275.21,911.13,268.3,908.26,265.57Z"/><polygon class="cls-8" points="757.6 226.61 761.32 224.01 816.94 185.15 877.88 195.62 897.84 222.21 897.84 222.2 862.88 175.62 801.94 165.15 746.32 204.01 742.6 206.61 725.74 304.69 743.65 307.77 757.6 226.61"/><polygon class="cls-8" points="415.95 408.19 438.4 278.48 744.02 331.01 749.6 331.97 790.21 338.94 874.56 353.44 877.46 336.51 775.21 318.94 734.6 311.97 729.02 311.01 423.4 258.48 400.95 388.19 400.95 429.08 408.53 430.42 415.95 431.74 415.95 408.19"/><polygon class="cls-8" points="624.44 371.74 609.44 351.74 597.34 421.57 615.26 424.68 624.44 371.74"/><polygon class="cls-8" points="843.61 321.29 828.61 301.29 841.42 303.49 843.63 290.68 858.63 310.68 856.42 323.49 843.61 321.29"/><polygon class="cls-8" points="794.34 312.82 779.34 292.82 792.15 295.03 794.35 282.21 809.35 302.21 807.15 315.03 794.34 312.82"/><polygon class="cls-8" points="542.33 340.56 534.83 330.56 533.42 338.79 542.33 340.56"/></g><g id="Dach"><polygon class="cls-9" points="969.55 993.59 224.71 993.17 224.71 862.92 224.74 356.31 404.55 384.76 404.55 723.59 1043.55 723.59 1043.55 993.59 969.55 993.59"/><path class="cls-7" d="M226.74,358.65l175.81,27.82V725.59h639v266h-72l-742.84-.42V862.92l0-504.27m-4-4.68,0,508.95V995.17l746.84.42h76v-274h-639V383.05L222.74,354Z"/><polyline class="cls-10" points="910.55 857.59 360.55 857.59 224.84 993.33"/><line class="cls-3" x1="482.05" y1="858.59" x2="482.05" y2="991.59"/><line class="cls-3" x1="488.05" y1="858.59" x2="488.05" y2="991.59"/><line class="cls-3" x1="494.05" y1="858.59" x2="494.05" y2="991.59"/><line class="cls-3" x1="500.05" y1="858.59" x2="500.05" y2="991.59"/><line class="cls-3" x1="506.05" y1="858.59" x2="506.05" y2="991.59"/><line class="cls-3" x1="512.05" y1="858.59" x2="512.05" y2="991.59"/><line class="cls-3" x1="518.05" y1="858.59" x2="518.05" y2="991.59"/><line class="cls-3" x1="524.05" y1="858.59" x2="524.05" y2="991.59"/><line class="cls-3" x1="530.05" y1="858.59" x2="530.05" y2="991.59"/><line class="cls-3" x1="536.05" y1="858.59" x2="536.05" y2="991.59"/><line class="cls-3" x1="542.05" y1="858.59" x2="542.05" y2="991.59"/><line class="cls-3" x1="548.05" y1="858.59" x2="548.05" y2="991.59"/><line class="cls-3" x1="554.05" y1="858.59" x2="554.05" y2="991.59"/><line class="cls-3" x1="560.05" y1="858.59" x2="560.05" y2="991.59"/><line class="cls-3" x1="566.05" y1="858.59" x2="566.05" y2="991.59"/><line class="cls-3" x1="572.05" y1="858.59" x2="572.05" y2="991.59"/><line class="cls-3" x1="578.05" y1="858.59" x2="578.05" y2="991.59"/><line class="cls-3" x1="584.05" y1="858.59" x2="584.05" y2="991.59"/><line class="cls-3" x1="590.05" y1="858.59" x2="590.05" y2="991.59"/><line class="cls-3" x1="596.05" y1="858.59" x2="596.05" y2="991.59"/><line class="cls-3" x1="602.05" y1="858.59" x2="602.05" y2="991.59"/><line class="cls-3" x1="608.05" y1="858.59" x2="608.05" y2="991.59"/><line class="cls-3" x1="614.05" y1="858.59" x2="614.05" y2="991.59"/><line class="cls-3" x1="620.05" y1="858.59" x2="620.05" y2="991.59"/><line class="cls-3" x1="626.05" y1="858.59" x2="626.05" y2="991.59"/><line class="cls-3" x1="632.05" y1="858.59" x2="632.05" y2="991.59"/><line class="cls-3" x1="638.05" y1="858.59" x2="638.05" y2="991.59"/><line class="cls-3" x1="644.05" y1="858.59" x2="644.05" y2="991.59"/><line class="cls-3" x1="650.05" y1="858.59" x2="650.05" y2="991.59"/><line class="cls-3" x1="656.05" y1="858.59" x2="656.05" y2="991.59"/><line class="cls-3" x1="662.05" y1="858.59" x2="662.05" y2="991.59"/><line class="cls-3" x1="668.05" y1="858.59" x2="668.05" y2="991.59"/><line class="cls-3" x1="674.05" y1="858.59" x2="674.05" y2="991.59"/><line class="cls-3" x1="680.05" y1="858.59" x2="680.05" y2="991.59"/><line class="cls-3" x1="686.05" y1="858.59" x2="686.05" y2="991.59"/><line class="cls-3" x1="692.05" y1="858.59" x2="692.05" y2="991.59"/><line class="cls-3" x1="698.05" y1="858.59" x2="698.05" y2="991.59"/><line class="cls-3" x1="704.05" y1="858.59" x2="704.05" y2="991.59"/><line class="cls-3" x1="710.05" y1="858.59" x2="710.05" y2="991.59"/><line class="cls-3" x1="716.05" y1="858.59" x2="716.05" y2="991.59"/><line class="cls-3" x1="722.05" y1="858.59" x2="722.05" y2="991.59"/><line class="cls-3" x1="728.05" y1="858.59" x2="728.05" y2="991.59"/><line class="cls-3" x1="734.05" y1="858.59" x2="734.05" y2="991.59"/><line class="cls-3" x1="740.05" y1="858.59" x2="740.05" y2="991.59"/><line class="cls-3" x1="746.05" y1="858.59" x2="746.05" y2="991.59"/><line class="cls-3" x1="752.05" y1="858.59" x2="752.05" y2="991.59"/><line class="cls-3" x1="758.05" y1="858.59" x2="758.05" y2="991.59"/><line class="cls-3" x1="764.05" y1="858.59" x2="764.05" y2="991.59"/><line class="cls-3" x1="770.05" y1="858.59" x2="770.05" y2="991.59"/><line class="cls-3" x1="776.05" y1="858.59" x2="776.05" y2="991.59"/><line class="cls-3" x1="782.05" y1="858.59" x2="782.05" y2="991.59"/><line class="cls-3" x1="788.05" y1="858.59" x2="788.05" y2="991.59"/><line class="cls-3" x1="794.05" y1="858.59" x2="794.05" y2="991.59"/><line class="cls-3" x1="800.05" y1="858.59" x2="800.05" y2="991.59"/><line class="cls-3" x1="806.05" y1="858.59" x2="806.05" y2="991.59"/><line class="cls-3" x1="812.05" y1="858.59" x2="812.05" y2="991.59"/><line class="cls-3" x1="818.05" y1="858.59" x2="818.05" y2="991.59"/><line class="cls-3" x1="824.05" y1="858.59" x2="824.05" y2="991.59"/><line class="cls-3" x1="830.05" y1="858.59" x2="830.05" y2="991.59"/><line class="cls-3" x1="836.05" y1="858.59" x2="836.05" y2="991.59"/><line class="cls-3" x1="842.05" y1="858.59" x2="842.05" y2="991.59"/><line class="cls-3" x1="848.05" y1="858.59" x2="848.05" y2="991.59"/><line class="cls-3" x1="854.05" y1="858.59" x2="854.05" y2="991.59"/><line class="cls-3" x1="860.05" y1="858.59" x2="860.05" y2="991.59"/><line class="cls-3" x1="866.05" y1="858.59" x2="866.05" y2="991.59"/><line class="cls-3" x1="872.05" y1="858.59" x2="872.05" y2="991.59"/><line class="cls-3" x1="878.05" y1="858.59" x2="878.05" y2="991.59"/><line class="cls-3" x1="884.05" y1="858.59" x2="884.05" y2="991.59"/><line class="cls-3" x1="890.05" y1="858.59" x2="890.05" y2="991.59"/><line class="cls-3" x1="896.05" y1="858.59" x2="896.05" y2="991.59"/><line class="cls-3" x1="902.05" y1="858.59" x2="902.05" y2="991.59"/><line class="cls-3" x1="908.05" y1="858.59" x2="908.05" y2="991.59"/><line class="cls-3" x1="914.05" y1="861.59" x2="914.05" y2="991.59"/><line class="cls-3" x1="920.05" y1="867.59" x2="920.05" y2="991.59"/><line class="cls-3" x1="926.05" y1="873.59" x2="926.05" y2="991.59"/><line class="cls-3" x1="932.05" y1="879.59" x2="932.05" y2="991.59"/><line class="cls-3" x1="938.05" y1="886.59" x2="938.05" y2="991.59"/><line class="cls-3" x1="944.05" y1="891.59" x2="944.05" y2="991.59"/><line class="cls-3" x1="950.05" y1="897.59" x2="950.05" y2="991.59"/><line class="cls-3" x1="956.05" y1="904.59" x2="956.05" y2="991.59"/><line class="cls-3" x1="962.05" y1="909.59" x2="962.05" y2="991.59"/><line class="cls-3" x1="968.05" y1="915.59" x2="968.05" y2="991.59"/><line class="cls-3" x1="974.05" y1="920.59" x2="974.05" y2="991.59"/><line class="cls-3" x1="980.05" y1="927.59" x2="980.05" y2="991.59"/><line class="cls-3" x1="986.05" y1="934.59" x2="986.05" y2="991.59"/><line class="cls-3" x1="992.05" y1="939.59" x2="992.05" y2="991.59"/><line class="cls-3" x1="998.05" y1="945.59" x2="998.05" y2="991.59"/><line class="cls-3" x1="1004.05" y1="951.59" x2="1004.05" y2="991.59"/><line class="cls-3" x1="1010.05" y1="956.59" x2="1010.05" y2="991.59"/><line class="cls-3" x1="1016.05" y1="962.59" x2="1016.05" y2="991.59"/><line class="cls-3" x1="1022.05" y1="968.59" x2="1022.05" y2="991.59"/><line class="cls-3" x1="1028.05" y1="974.59" x2="1028.05" y2="991.59"/><line class="cls-3" x1="1034.05" y1="981.59" x2="1034.05" y2="991.59"/><line class="cls-3" x1="914.05" y1="861.59" x2="1044.05" y2="861.59"/><line class="cls-3" x1="920.05" y1="867.59" x2="1044.05" y2="867.59"/><line class="cls-3" x1="926.05" y1="873.59" x2="1044.05" y2="873.59"/><line class="cls-3" x1="932.05" y1="879.59" x2="1044.05" y2="879.59"/><line class="cls-3" x1="939.05" y1="885.59" x2="1044.05" y2="885.59"/><line class="cls-3" x1="944.05" y1="891.59" x2="1044.05" y2="891.59"/><line class="cls-3" x1="950.05" y1="897.59" x2="1044.05" y2="897.59"/><line class="cls-3" x1="957.05" y1="903.59" x2="1044.05" y2="903.59"/><line class="cls-3" x1="962.05" y1="909.59" x2="1044.05" y2="909.59"/><line class="cls-3" x1="968.05" y1="915.59" x2="1044.05" y2="915.59"/><line class="cls-3" x1="973.05" y1="921.59" x2="1044.05" y2="921.59"/><line class="cls-3" x1="980.05" y1="927.59" x2="1044.05" y2="927.59"/><line class="cls-3" x1="987.05" y1="933.59" x2="1044.05" y2="933.59"/><line class="cls-3" x1="992.05" y1="939.59" x2="1044.05" y2="939.59"/><line class="cls-3" x1="998.05" y1="945.59" x2="1044.05" y2="945.59"/><line class="cls-3" x1="1004.05" y1="951.59" x2="1044.05" y2="951.59"/><line class="cls-3" x1="1009.05" y1="957.59" x2="1044.05" y2="957.59"/><line class="cls-3" x1="1015.05" y1="963.59" x2="1044.05" y2="963.59"/><line class="cls-3" x1="1021.05" y1="969.59" x2="1044.05" y2="969.59"/><line class="cls-3" x1="1027.05" y1="975.59" x2="1044.05" y2="975.59"/><line class="cls-3" x1="1034.05" y1="981.59" x2="1044.05" y2="981.59"/><line class="cls-3" x1="911.88" y1="855.58" x2="1044" y2="855.58"/><line class="cls-3" x1="917.88" y1="849.58" x2="1044" y2="849.58"/><line class="cls-3" x1="923.88" y1="843.58" x2="1044" y2="843.58"/><line class="cls-3" x1="929.88" y1="837.58" x2="1044" y2="837.58"/><line class="cls-3" x1="936.88" y1="831.58" x2="1044" y2="831.58"/><line class="cls-3" x1="941.88" y1="825.58" x2="1044" y2="825.58"/><line class="cls-3" x1="947.88" y1="819.58" x2="1044" y2="819.58"/><line class="cls-3" x1="954.88" y1="813.58" x2="1044" y2="813.58"/><line class="cls-3" x1="959.88" y1="807.58" x2="1044" y2="807.58"/><line class="cls-3" x1="965.88" y1="801.58" x2="1044" y2="801.58"/><line class="cls-3" x1="970.88" y1="795.58" x2="1044" y2="795.58"/><line class="cls-3" x1="977.88" y1="789.58" x2="1044" y2="789.58"/><line class="cls-3" x1="984.88" y1="783.58" x2="1044" y2="783.58"/><line class="cls-3" x1="989.88" y1="777.58" x2="1044" y2="777.58"/><line class="cls-3" x1="995.88" y1="771.58" x2="1044" y2="771.58"/><line class="cls-3" x1="1001.88" y1="765.58" x2="1044" y2="765.58"/><line class="cls-3" x1="1006.88" y1="759.58" x2="1044" y2="759.58"/><line class="cls-3" x1="1012.88" y1="753.58" x2="1044" y2="753.58"/><line class="cls-3" x1="1018.88" y1="747.58" x2="1044" y2="747.58"/><line class="cls-3" x1="1024.88" y1="741.58" x2="1044" y2="741.58"/><line class="cls-3" x1="1031.88" y1="735.58" x2="1044" y2="735.58"/><line class="cls-10" x1="1041.55" y1="725.59" x2="909.55" y2="857.59"/><line class="cls-10" x1="1044.92" y1="992.46" x2="909.55" y2="857.09"/><line class="cls-10" x1="314.55" y1="813.59" x2="314.55" y2="370.33"/><polyline class="cls-10" points="406.55 721.59 314.55 813.59 360.55 857.59"/><line class="cls-3" x1="476.05" y1="858.59" x2="476.05" y2="991.59"/><line class="cls-3" x1="470.05" y1="858.59" x2="470.05" y2="991.59"/><line class="cls-3" x1="464.05" y1="858.59" x2="464.05" y2="991.59"/><line class="cls-3" x1="458.05" y1="858.59" x2="458.05" y2="991.59"/><line class="cls-3" x1="452.05" y1="858.59" x2="452.05" y2="991.59"/><line class="cls-3" x1="446.05" y1="858.59" x2="446.05" y2="991.59"/><line class="cls-3" x1="440.05" y1="858.59" x2="440.05" y2="991.59"/><line class="cls-3" x1="434.05" y1="858.59" x2="434.05" y2="991.59"/><line class="cls-3" x1="428.05" y1="858.59" x2="428.05" y2="991.59"/><line class="cls-3" x1="422.05" y1="858.59" x2="422.05" y2="991.59"/><line class="cls-3" x1="416.05" y1="858.59" x2="416.05" y2="991.59"/><line class="cls-3" x1="410.05" y1="858.59" x2="410.05" y2="991.59"/><line class="cls-3" x1="404.05" y1="858.59" x2="404.05" y2="991.59"/><line class="cls-3" x1="398.05" y1="858.59" x2="398.05" y2="991.59"/><line class="cls-3" x1="392.05" y1="858.59" x2="392.05" y2="991.59"/><line class="cls-3" x1="386.05" y1="858.59" x2="386.05" y2="991.59"/><line class="cls-3" x1="380.05" y1="858.59" x2="380.05" y2="991.59"/><line class="cls-3" x1="374.05" y1="858.59" x2="374.05" y2="991.59"/><line class="cls-3" x1="368.05" y1="858.59" x2="368.05" y2="991.59"/><line class="cls-3" x1="362.05" y1="858.59" x2="362.05" y2="991.59"/><line class="cls-3" x1="356.05" y1="861.59" x2="356.05" y2="991.59"/><line class="cls-3" x1="350.05" y1="867.59" x2="350.05" y2="991.59"/><line class="cls-3" x1="344.05" y1="873.59" x2="344.05" y2="991.59"/><line class="cls-3" x1="338.05" y1="879.59" x2="338.05" y2="991.59"/><line class="cls-3" x1="332.05" y1="886.59" x2="332.05" y2="991.59"/><line class="cls-3" x1="326.05" y1="891.59" x2="326.05" y2="991.59"/><line class="cls-3" x1="320.05" y1="897.59" x2="320.05" y2="991.59"/><line class="cls-3" x1="314.05" y1="904.59" x2="314.05" y2="991.59"/><line class="cls-3" x1="308.05" y1="909.59" x2="308.05" y2="991.59"/><line class="cls-3" x1="302.05" y1="915.59" x2="302.05" y2="991.59"/><line class="cls-3" x1="296.05" y1="920.59" x2="296.05" y2="991.59"/><line class="cls-3" x1="290.05" y1="927.59" x2="290.05" y2="991.59"/><line class="cls-3" x1="284.05" y1="934.59" x2="284.05" y2="991.59"/><line class="cls-3" x1="278.05" y1="939.59" x2="278.05" y2="991.59"/><line class="cls-3" x1="272.05" y1="945.59" x2="272.05" y2="991.59"/><line class="cls-3" x1="266.05" y1="951.59" x2="266.05" y2="991.59"/><line class="cls-3" x1="260.05" y1="956.59" x2="260.05" y2="991.59"/><line class="cls-3" x1="254.05" y1="962.59" x2="254.05" y2="991.59"/><line class="cls-3" x1="248.05" y1="968.59" x2="248.05" y2="991.59"/><line class="cls-3" x1="242.05" y1="974.59" x2="242.05" y2="991.59"/><line class="cls-3" x1="236.05" y1="981.59" x2="236.05" y2="991.59"/><line class="cls-3" x1="404.22" y1="604.99" x2="314.54" y2="604.99"/><line class="cls-3" x1="404.22" y1="610.99" x2="314.54" y2="610.99"/><line class="cls-3" x1="404.22" y1="616.99" x2="314.54" y2="616.99"/><line class="cls-3" x1="404.22" y1="622.99" x2="314.54" y2="622.99"/><line class="cls-3" x1="404.22" y1="628.99" x2="314.54" y2="628.99"/><line class="cls-3" x1="404.22" y1="634.99" x2="314.54" y2="634.99"/><line class="cls-3" x1="404.22" y1="640.99" x2="314.54" y2="640.99"/><line class="cls-3" x1="404.22" y1="646.99" x2="314.54" y2="646.99"/><line class="cls-3" x1="404.22" y1="652.99" x2="314.54" y2="652.99"/><line class="cls-3" x1="404.22" y1="658.99" x2="314.54" y2="658.99"/><line class="cls-3" x1="404.22" y1="664.99" x2="314.54" y2="664.99"/><line class="cls-3" x1="404.22" y1="670.99" x2="314.54" y2="670.99"/><line class="cls-3" x1="404.22" y1="676.99" x2="314.54" y2="676.99"/><line class="cls-3" x1="404.22" y1="682.99" x2="314.54" y2="682.99"/><line class="cls-3" x1="404.22" y1="688.99" x2="314.54" y2="688.99"/><line class="cls-3" x1="404.22" y1="694.99" x2="314.54" y2="694.99"/><line class="cls-3" x1="404.22" y1="700.99" x2="314.54" y2="700.99"/><line class="cls-3" x1="404.22" y1="706.99" x2="314.54" y2="706.99"/><line class="cls-3" x1="404.22" y1="712.99" x2="314.54" y2="712.99"/><line class="cls-3" x1="404.22" y1="718.99" x2="314.54" y2="718.99"/><line class="cls-3" x1="404.22" y1="490.99" x2="314.54" y2="490.99"/><line class="cls-3" x1="404.22" y1="496.99" x2="314.54" y2="496.99"/><line class="cls-3" x1="404.22" y1="502.99" x2="314.54" y2="502.99"/><line class="cls-3" x1="404.22" y1="508.99" x2="314.54" y2="508.99"/><line class="cls-3" x1="404.22" y1="514.99" x2="314.54" y2="514.99"/><line class="cls-3" x1="404.22" y1="520.99" x2="314.54" y2="520.99"/><line class="cls-3" x1="404.22" y1="526.99" x2="314.54" y2="526.99"/><line class="cls-3" x1="404.22" y1="532.99" x2="314.54" y2="532.99"/><line class="cls-3" x1="404.22" y1="538.99" x2="314.54" y2="538.99"/><line class="cls-3" x1="404.22" y1="544.99" x2="314.54" y2="544.99"/><line class="cls-3" x1="404.22" y1="550.99" x2="314.54" y2="550.99"/><line class="cls-3" x1="404.22" y1="556.99" x2="314.54" y2="556.99"/><line class="cls-3" x1="404.22" y1="562.99" x2="314.54" y2="562.99"/><line class="cls-3" x1="404.22" y1="568.99" x2="314.54" y2="568.99"/><line class="cls-3" x1="404.22" y1="574.99" x2="314.54" y2="574.99"/><line class="cls-3" x1="404.22" y1="580.99" x2="314.54" y2="580.99"/><line class="cls-3" x1="404.22" y1="586.99" x2="314.54" y2="586.99"/><line class="cls-3" x1="404.22" y1="592.99" x2="314.54" y2="592.99"/><line class="cls-3" x1="404.22" y1="598.99" x2="314.54" y2="598.99"/><line class="cls-3" x1="390.27" y1="382.99" x2="314.54" y2="382.99"/><line class="cls-3" x1="404.22" y1="388.99" x2="314.54" y2="388.99"/><line class="cls-3" x1="355.59" y1="376.99" x2="314.54" y2="376.99"/><line class="cls-3" x1="404.22" y1="394.99" x2="314.54" y2="394.99"/><line class="cls-3" x1="404.22" y1="400.99" x2="314.54" y2="400.99"/><line class="cls-3" x1="404.22" y1="406.99" x2="314.54" y2="406.99"/><line class="cls-3" x1="404.22" y1="412.99" x2="314.54" y2="412.99"/><line class="cls-3" x1="404.22" y1="418.99" x2="314.54" y2="418.99"/><line class="cls-3" x1="404.22" y1="424.99" x2="314.54" y2="424.99"/><line class="cls-3" x1="404.22" y1="430.99" x2="314.54" y2="430.99"/><line class="cls-3" x1="404.22" y1="436.99" x2="314.54" y2="436.99"/><line class="cls-3" x1="404.22" y1="442.99" x2="314.54" y2="442.99"/><line class="cls-3" x1="404.22" y1="448.99" x2="314.54" y2="448.99"/><line class="cls-3" x1="404.22" y1="454.99" x2="314.54" y2="454.99"/><line class="cls-3" x1="404.22" y1="460.99" x2="314.54" y2="460.99"/><line class="cls-3" x1="404.22" y1="466.99" x2="314.54" y2="466.99"/><line class="cls-3" x1="404.22" y1="472.99" x2="314.54" y2="472.99"/><line class="cls-3" x1="404.22" y1="478.99" x2="314.54" y2="478.99"/><line class="cls-3" x1="404.22" y1="484.99" x2="314.54" y2="484.99"/><line class="cls-3" x1="401.54" y1="724.99" x2="314.54" y2="724.99"/><line class="cls-3" x1="396.54" y1="730.99" x2="314.54" y2="730.99"/><line class="cls-3" x1="390.54" y1="736.99" x2="314.54" y2="736.99"/><line class="cls-3" x1="385.54" y1="742.99" x2="314.54" y2="742.99"/><line class="cls-3" x1="378.54" y1="748.99" x2="314.54" y2="748.99"/><line class="cls-3" x1="371.54" y1="754.99" x2="314.54" y2="754.99"/><line class="cls-3" x1="366.54" y1="760.99" x2="314.54" y2="760.99"/><line class="cls-3" x1="360.54" y1="766.99" x2="314.54" y2="766.99"/><line class="cls-3" x1="354.54" y1="772.99" x2="314.54" y2="772.99"/><line class="cls-3" x1="349.54" y1="778.99" x2="314.54" y2="778.99"/><line class="cls-3" x1="343.54" y1="784.99" x2="314.54" y2="784.99"/><line class="cls-3" x1="337.54" y1="790.99" x2="314.54" y2="790.99"/><line class="cls-3" x1="331.54" y1="796.99" x2="314.54" y2="796.99"/><line class="cls-3" x1="324.54" y1="802.99" x2="314.54" y2="802.99"/></g></g></g></svg>