<svg id="Gross" xmlns="http://www.w3.org/2000/svg" viewBox="0 0 1200 1200"><defs><style>.cls-1{fill:#009bf5;}.cls-1,.cls-2{opacity:0.6;}.cls-2{fill:#463ca0;}.cls-3{fill:#aaa;}.cls-4{fill:#d1d1d1;}.cls-5{fill:#f7f7f7;}.cls-6{fill:#fff;}.cls-7,.cls-8{fill:none;stroke:#666;stroke-miterlimit:10;}.cls-7{stroke-width:0.6px;}.cls-8{stroke-width:0.59px;}.cls-9{fill:#666;}.cls-10{fill:#7c7c7c;}.cls-11,.cls-12{opacity:0.1;}</style></defs><title>EG</title><g id="H0"><g id="Room"><g id="h017"><rect class="cls-1" x="725.71" y="908.91" width="231.33" height="98.84"/></g><g id="H016"><rect class="cls-1" x="532.71" y="908.91" width="187.33" height="98.84"/></g><g id="H014"><path class="cls-1" d="M287.93,1007.75H437V908.91H285.88L278,911.44a66.89,66.89,0,0,0-23.92,13.11c-10.23,9.1-15.21,20.66-15.21,35.32,0,18.11,8.27,31.8,24.58,40.7A64.23,64.23,0,0,0,287.93,1007.75Z"/></g><g id="H012"><polygon class="cls-1" points="285.88 814.75 393.04 814.75 393.04 594.42 285.9 594.42 285.88 814.75"/></g><g id="H007"><polygon class="cls-2" points="194.91 127.18 180.61 210.4 264.67 224.84 262.16 239.28 373.67 258.79 412.26 265.42 429.1 167.43 194.91 127.18"/></g><g id="H005"><polygon class="cls-2" points="771.98 327.23 788.82 229.24 576.62 192.78 560.05 290.82 771.98 327.23"/></g><g id="H0Mensa01"><polygon class="cls-3" points="827.6 475.98 849.87 346.37 595.49 302.65 573.28 431.93 827.6 475.98"/></g><g id="H0Mensa02"><path class="cls-3" d="M798.15,227.51l-3.73,2.61-16.85,98.07,155.49,26.72L938,327.25h13.7L961.53,315c2.82-3.51,4.51-7.05,4.51-9.46,0-12.54-7.85-16.62-12.54-17.94l-9.6-2.7,1.46-9.86,4.31-29.33-35-46.58-60.94-10.47Z"/></g><g id="H0Eingang"><polygon class="cls-4" points="285.9 501.75 393.04 501.75 393.04 404.08 285.91 384.85 285.9 501.75"/></g><g id="H0Flur02"><path class="cls-4" d="M398.71,651.29H447V451.56l13.31,2.36,90.52,16,13.28-30.79,3.54-8.21,22.22-129.27L372.7,264.38l-26.33-4.61L323.91,385.91l74.8,13.42Zm71.34-239,60.28,10.36,4.26-24.8,5.59,1L535,429.24l-65.87-11.32Z"/></g><g id="H0Flur01"><polygon class="cls-4" points="447.04 777.09 447.04 651.29 398.71 651.29 398.71 903.25 1032.71 903.25 1032.71 1019.09 1086.04 1019.09 1086.04 854.42 659.05 854.42 659.05 788.43 658.88 788.43 623.63 788.43 623.63 854.6 477.62 854.6 477.62 848.93 502.08 848.93 502.93 788.43 452.71 788.43 452.71 851.76 447.04 851.76 447.04 788.43 447.04 777.09"/></g><g id="H0Flur03"><polygon class="cls-4" points="554.46 289.86 571.04 191.81 558.67 189.69 520.24 183.09 514.51 182.1 497.67 280.1 554.46 289.86"/></g><g id="H022"><rect class="cls-4" x="725.71" y="756.43" width="143.33" height="92.32"/></g><g id="H0Laser"><rect class="cls-3" x="936.71" y="756.43" width="74.33" height="92.33"/></g><g id="H0Start"><path class="cls-5" d="M142.38,365.93l.78-4.57-2,0A25.79,25.79,0,0,0,116.85,385h-12.2V506.42h11.87A25.79,25.79,0,0,0,140.83,530l30.59-.31v1.32h8.35v-9.21l94.79,1.33V388.64Z"/><rect class="cls-5" x="124.57" y="333.51" width="0.04" height="39.87" transform="translate(-245.05 415.24) rotate(-80.07)"/></g><g id="H0Innenhof"><polygon class="cls-5" points="1069.68 581.07 1069.68 584.09 900.38 584.09 900.38 500.09 574.57 443.66 557.73 482.69 458.38 465.09 458.38 777.09 653.38 777.09 653.38 745.09 1011.04 745.09 1013.75 745.09 1013.75 745.05 1097.38 745.05 1097.38 874.92 1120.48 874.92 1120.48 581.07 1069.68 581.07"/></g></g><g id="Grundriss-2" data-name="Grundriss"><g id="Treppe"><polygon class="cls-6" points="617.96 848.93 617.96 788.43 508.6 788.43 507.75 848.93 617.96 848.93"/><polygon class="cls-6" points="664.72 756.43 664.72 777.09 664.72 788.43 664.72 788.43 664.72 848.75 720.04 848.75 720.04 756.43 664.72 756.43"/><rect class="cls-6" x="413.67" y="186.1" width="99.43" height="75.33" transform="translate(164.38 642.56) rotate(-80.25)"/><rect class="cls-6" x="1016.71" y="756.43" width="69.33" height="92.33"/><rect class="cls-6" x="442.71" y="908.91" width="84.33" height="98.84"/><polygon class="cls-6" points="1026.38 1007.75 1027.05 1007.75 1027.05 908.91 962.71 908.91 962.71 1007.75 1026.38 1007.75"/><polygon class="cls-6" points="285.91 379.09 285.91 379.09 318.35 384.91 340.78 258.79 255.6 243.89 258.11 229.47 179.65 215.98 155.47 356.68 276.49 377.47 285.91 379.09"/><rect class="cls-6" x="285.88" y="820.42" width="107.16" height="82.82"/><rect class="cls-6" x="285.9" y="507.42" width="107.14" height="81.33"/><polygon class="cls-6" points="853.39 425.27 842.39 423.38 839 443.09 915.1 456.17 920.43 425.63 855.25 414.43 853.39 425.27"/><polygon class="cls-6" points="921.46 419.72 931.82 360.45 855.46 347.33 845.27 406.63 921.46 419.72"/><polygon class="cls-6" points="937.73 361.47 920.21 461.76 1079.04 461.76 1079.04 333.43 970.38 333.43 946.75 333.43 942.66 333.43 937.77 360.81 934.77 360.96 937.73 361.47"/><rect class="cls-6" x="1023.8" y="467.76" width="55.24" height="104.99"/><polygon class="cls-6" points="919.16 467.76 918.09 473.94 912.17 472.9 914.07 462.08 837.99 449 833.18 476.94 902.31 488.92 911.72 490.55 911.72 500.09 911.72 572.75 975.79 572.75 975.79 493.76 963.79 493.76 963.79 487.76 990.79 487.76 990.79 493.76 981.79 493.76 981.79 572.75 1017.79 572.75 1017.79 467.76 919.16 467.76"/><line class="cls-7" x1="391.48" y1="855.9" x2="391.48" y2="855.37"/><path class="cls-7" d="M460.6,709.73l-.13-198.64M458.91,714l-.16-247.84"/><path class="cls-7" d="M740.56,697,737,573.51"/><path class="cls-7" d="M622.68,748.43l0,29m4.21-24.76,0,24.76m4.21-20.53,0,20.52M589.55,741.6l-.42-46.53m5.54,51.57-.5-55.88m-129.93,52L464,714.94m.25,27.79,125.31-1.13m-130.34,6.25L458.9,714m.31,33.86,135.46-1.21m-135.46,1.21,0-5.08"/><path class="cls-7" d="M1125.54,874.92l-3.16-.43m-.87-97.2.87,97.2M950,748.44l0-45.71m-297,45.67-30.26,0m30.91,4.21-26.67,0m26.67,4.21-22.43,0m99.57-9.1,4.76-1.45,7-43.16m-1.45,43L747.8,704m-1.38,42.63,6.73-42.16"/><path class="cls-7" d="M109.9,499.66,110,391.72m5.33,107.93.29-107.92m5,98.37.4-88.16m4.6,82.56.38-77.3m4.63,74,.35-70.87m4.35,69.07.34-67.46m5.8,65.38.32-63.3m29.43,65.41-.1-66.46m5.37,66.31.33-66.27m4.92,66.24.34-66.22m5.07,66.13.34-66.1m4.55,66,.33-66m4.9,65.89.33-65.87m4.5,65.79.33-65.76m4.23,65.68.33-65.62m5.08,65.53.33-65.54"/><path class="cls-7" d="M460.44,466.42v-.29m6.84,46.13-6.81-1.17m6.81,1.17,0-36.09"/><path class="cls-7" d="M802.69,481.42a11.66,11.66,0,0,0,3.64-2.58"/><path class="cls-7" d="M104.65,506.44l12.2,0M826.48,484l15.66,2.87m34.91,5.79L896.37,496M730.3,565.42l-5.93.06m-17,8.3.2,22.33m11.65-22.44.07,7.09m0,0-5.93.06"/><path class="cls-8" d="M124.15,507.3a20.07,20.07,0,0,0,17.23,16.2m-.62-39a19.81,19.81,0,0,0-16.61,22.8"/><path class="cls-7" d="M214.87,478.7l-43.59.75m7.9,4.95,35.66-.06m0,0,0-5.64m-43.59.75.06,42.27m7.54-5,.3-32.35m.56,46.65-8.33-.1.07-8.42,8.29.1,0,8.42m-8.4-9.33,102.78,1.45m0-5.39-95.23-1m-7.41,6.42-30.09.33m30,6.23-30.59.31"/><path class="cls-7" d="M116.46,505.56A25.79,25.79,0,0,0,140.83,530m.11-51.51a25.78,25.78,0,0,0-24.48,27"/><path class="cls-7" d="M215.3,408l-37.3-.38M170.75,413l-.06-41.22M178,407.59l-.44-34.67m37.61,40.3.13-5.25m-.13,5.25L170.75,413m-64.94,86.66h11"/><path class="cls-7" d="M1120.26,685.54l-101.16,1.33M707.54,596.11l-5.92,0"/><path class="cls-7" d="M857.2,514.57m-.81,156.83L855,513.57m164,156.37-111.75,1m0,0-50.8.46M950,702.73,753.15,704.5M476,671.17,458.9,714M476,671.17l58.78-147.33m54.36,171.23L479.19,676.85,464,714.94m130.18-24.18L476,671.17m229,20.48,48.32,7.72M701.85,746l8.5-48m-3,48,8.37-47.09M696.36,746l8.63-49.2M712.82,746l8.23-46.23M718.31,746l8.09-45.37m-9.58-7.07-3.55-119.82M723.8,746l8-44.51M705,696.81l48.16,7.69m-48.42-6M730,746.66l7.15-44.33M705,696.81l-3.57-123m27.27,121.62-3.57-121.83"/><path class="cls-7" d="M737,573.51a61.24,61.24,0,0,0-50.88-59.8"/><path class="cls-7" d="M713.27,573.73a37.52,37.52,0,0,0-31.18-36.65"/><path class="cls-7" d="M725.12,573.62a49.37,49.37,0,0,0-41-48.22"/><path class="cls-7" d="M701.42,573.83a25.67,25.67,0,0,0-21.33-25.07"/><path class="cls-7" d="M707.34,573.78a31.59,31.59,0,0,0-26.25-30.86"/><path class="cls-7" d="M719.19,573.67a43.44,43.44,0,0,0-36.1-42.43"/><path class="cls-7" d="M730.37,565.42a55.32,55.32,0,0,0-45.28-45.87"/><path class="cls-7" d="M912.22,583.83l-5.08,0m5.08,0,106.67-1.42M898.34,584l8.8-.12M1024,582.35l96.51-1.28M896.37,496l1.28,92.12m222.11-4.7,1.75,193.89M1018.18,586.21l.92,100.66m-334-167.32-101-17.32m100,23.17L467.25,488.2M686.1,513.71,467.23,476.17m115.88,31.9,1-5.84m97,40.69-67.61-11.6m66.61,17.44-212.81-36.5m217,19.2-85.5-14.66m83.3,20.28L467.26,500.23m145.22,36.94,1-5.85m-15.68-8.7,1-5.82"/><path class="cls-7" d="M897.5,587.87l-41.82.51"/><path class="cls-7" d="M779.65,474.35l34.21,5.86"/><path class="cls-7" d="M877,492.86l-4.32,24.21-34.83-6.27m0,0,4.28-23.92"/><rect class="cls-7" x="140.71" y="477.42" width="8.26" height="8.52"/><line class="cls-7" x1="116.85" y1="384.96" x2="104.65" y2="384.94"/><path class="cls-8" d="M141.38,367.88a20.07,20.07,0,0,0-17.23,16.2m0,0a19.8,19.8,0,0,0,16.61,22.8"/><line class="cls-7" x1="141.38" y1="367.88" x2="143.86" y2="367.91"/><line class="cls-7" x1="140.83" y1="361.34" x2="143.16" y2="361.37"/><path class="cls-7" d="M140.83,361.34a25.79,25.79,0,0,0-24.37,24.48m0,0a25.78,25.78,0,0,0,24.48,27"/><line class="cls-7" x1="116.84" y1="391.73" x2="105.81" y2="391.72"/><rect class="cls-7" x="140.71" y="405.45" width="8.26" height="8.52"/><line class="cls-7" x1="452.71" y1="840.76" x2="502.45" y2="840.76"/><line class="cls-7" x1="452.71" y1="836.76" x2="502.45" y2="836.76"/><line class="cls-7" x1="452.71" y1="832.76" x2="502.45" y2="832.76"/><line class="cls-7" x1="452.71" y1="828.76" x2="502.45" y2="828.76"/><line class="cls-7" x1="452.71" y1="824.76" x2="502.45" y2="824.76"/><line class="cls-7" x1="452.71" y1="820.76" x2="502.45" y2="820.76"/><line class="cls-7" x1="452.71" y1="816.76" x2="502.45" y2="816.76"/><line class="cls-7" x1="452.71" y1="812.76" x2="502.45" y2="812.76"/><line class="cls-7" x1="452.71" y1="808.76" x2="502.45" y2="808.76"/><line class="cls-7" x1="452.71" y1="804.76" x2="502.45" y2="804.76"/><line class="cls-7" x1="477.62" y1="854.59" x2="477.62" y2="804.76"/><line class="cls-7" x1="517.69" y1="424.41" x2="509.9" y2="469.74"/><line class="cls-7" x1="513.75" y1="423.73" x2="505.96" y2="469.06"/><line class="cls-7" x1="509.81" y1="423.05" x2="502.02" y2="468.39"/><line class="cls-7" x1="505.86" y1="422.37" x2="498.07" y2="467.71"/><line class="cls-7" x1="501.92" y1="421.7" x2="494.13" y2="467.03"/><line class="cls-7" x1="497.98" y1="421.02" x2="490.19" y2="466.36"/><line class="cls-7" x1="494.04" y1="420.34" x2="486.25" y2="465.68"/><line class="cls-7" x1="490.09" y1="419.67" x2="482.3" y2="465"/><line class="cls-7" x1="486.15" y1="418.99" x2="478.36" y2="464.32"/><line class="cls-7" x1="482.21" y1="418.31" x2="474.42" y2="463.65"/><line class="cls-7" x1="478.27" y1="417.63" x2="470.48" y2="462.97"/><line class="cls-7" x1="474.33" y1="416.96" x2="466.54" y2="462.29"/><line class="cls-7" x1="470.27" y1="416.96" x2="462.59" y2="461.61"/><line class="cls-7" x1="465.26" y1="422.5" x2="458.65" y2="460.94"/><line class="cls-7" x1="461.31" y1="421.82" x2="454.71" y2="460.26"/><line class="cls-7" x1="532.47" y1="426.95" x2="573.05" y2="432.9"/><line class="cls-7" x1="534.31" y1="422.19" x2="573.73" y2="428.96"/><line class="cls-7" x1="534.98" y1="418.25" x2="574.4" y2="425.02"/><line class="cls-7" x1="535.66" y1="414.3" x2="575.08" y2="421.08"/><line class="cls-7" x1="536.34" y1="410.36" x2="575.76" y2="417.14"/><line class="cls-7" x1="537.01" y1="406.42" x2="576.44" y2="413.19"/><line class="cls-7" x1="537.69" y1="402.48" x2="577.11" y2="409.25"/><line class="cls-7" x1="545.27" y1="399.72" x2="577.79" y2="405.31"/><line class="cls-7" x1="545.95" y1="395.78" x2="578.47" y2="401.37"/><line class="cls-7" x1="546.62" y1="391.84" x2="579.15" y2="397.42"/><line class="cls-7" x1="529.52" y1="426.44" x2="521.73" y2="471.77"/><line class="cls-7" x1="525.57" y1="425.76" x2="517.78" y2="471.1"/><line class="cls-7" x1="521.63" y1="425.08" x2="513.84" y2="470.42"/></g><g id="H021"><rect class="cls-6" x="874.71" y="756.43" width="56.33" height="92.32"/></g><g id="Wand"><path class="cls-9" d="M659.05,788.43v66h427v164.67h11.34v-274h-444v32h-195v-312l99.35,17.6,16.84-39,325.81,56.43v84h190v-262h-120c3.21-4,7-10.16,7-16.56,0-17.8-11.25-26.16-20.81-28.85l5-34-40.51-54-70-12-59.45,41.53-231.06-39.7-38.43-6.61L185.65,114.09,142.38,365.93l132.19,22.71,0,512c-12,3.84-47,17.57-47,59.23,0,28.58,17,43.28,30.49,50.66a76.17,76.17,0,0,0,29.51,8.56h745.17v-11.34h0V903.24h-634V399.33l-74.8-13.42,22.46-126.14,26.33,4.61,217.21,37.31L567.69,431h0l-3.54,8.21L550.87,470l-90.52-16L447,451.56V788.43h0v63.33h5.67V788.43h50.22l-.85,60.5H477.62v5.66h146V788.43h35.42Zm368,120.48v98.84H962.71V908.91Zm-70,0v98.84H725.71V908.91Zm-237,0v98.84H532.71V908.91Zm-193,0v98.84H442.71V908.91Zm-90,0v98.84H287.93a64.23,64.23,0,0,1-24.47-7.18c-16.31-8.9-24.58-22.59-24.58-40.7,0-14.66,5-26.22,15.21-35.32A66.89,66.89,0,0,1,278,911.44l7.87-2.53H437ZM970.38,333.43H1079V572.75H911.71v-82.2l-9.4-1.63-69.13-12,22.28-129.61L934.77,361l3-.15,4.89-27.38h27.72ZM853.77,188.65l60.94,10.47,35,46.58L945.36,275l-1.46,9.86,9.6,2.7c4.69,1.32,12.54,5.4,12.54,17.94,0,2.41-1.69,6-4.51,9.46l-5.69,7.1H939l-1,5.16h0l-.1.59-1,5.59h0l-3.84,21.48L777.57,328.19l16.85-98.07,3.73-2.61ZM393,820.42v82.82H285.88V820.42Zm0-226V814.75H285.88l0-220.33Zm0-87v81.33H285.9V507.42Zm0-103.34v97.67H285.9V384.85Zm-74.69-19.17-32.44-5.82h0l-9.42-1.62-121-20.79L179.65,216l78.46,13.49-2.51,14.42,85.18,14.9Zm55.31-126.12-111.5-19.51,2.51-14.44L180.61,210.4l14.3-83.22L429.1,167.43l-16.84,98Zm44.18,7.59,16.84-98,74.25,12.75-16.84,98Zm79.83,13.72,16.84-98,5.73,1,38.43,6.6L571,191.82l-16.58,98Zm62.38,10.72,16.57-98,212.2,36.46-16.84,98Zm13.23,141.11,22.21-129.28,254.38,43.72L827.6,476ZM1086,756.43v92.32h-69.33V756.43Zm-75,0v92.32H936.71V756.43Zm-80,0v92.32H874.71V756.43Zm-62,0v92.32H725.71V756.43ZM618,848.93H507.75l.85-60.5H618Zm46.75-71.84V756.43H720v92.32H664.71V788.43h0Z"/><polygon class="cls-9" points="920.21 461.76 937.73 361.47 931.82 360.44 921.46 419.72 843.46 406.31 842.78 410.26 842.78 410.26 840.58 423.07 853.39 425.27 855.25 414.43 920.43 425.63 915.1 456.17 837.19 442.78 836.18 448.69 914.07 462.08 912.17 472.9 918.09 473.94 919.16 467.76 1017.79 467.76 1017.79 572.75 1023.79 572.75 1023.79 467.76 1086.8 467.76 1086.8 461.76 920.21 461.76"/><polygon class="cls-9" points="963.79 493.76 975.79 493.76 975.79 579.76 981.79 579.76 981.79 493.76 990.79 493.76 990.79 487.76 963.79 487.76 963.79 493.76"/><polygon class="cls-9" points="469.09 417.92 470.05 412.33 530.33 422.69 534.59 397.89 540.18 398.85 534.96 429.24 469.09 417.92"/><rect class="cls-10" x="533.29" y="386.7" width="13" height="13" transform="translate(1018.73 -72.21) rotate(99.75)"/><rect class="cls-9" x="760.77" y="397.38" width="13" height="13" transform="translate(1295.25 -283.92) rotate(99.75)"/><rect class="cls-9" x="648.42" y="378.07" width="13" height="13" transform="translate(1144.84 -195.76) rotate(99.75)"/><rect class="cls-10" x="463.32" y="374.68" width="13" height="13" transform="translate(925.05 -17.3) rotate(99.75)"/><rect class="cls-9" x="389.4" y="361.97" width="13" height="13" transform="translate(826.1 40.69) rotate(99.75)"/><rect class="cls-9" x="327.31" y="351.31" width="13" height="13" transform="translate(742.98 89.41) rotate(99.75)"/><rect class="cls-9" x="457.39" y="409.17" width="13" height="13" transform="translate(952.12 28.87) rotate(99.75)"/><rect class="cls-9" x="533.29" y="386.7" width="13" height="13" transform="translate(1018.73 -72.21) rotate(99.75)"/><rect class="cls-9" x="463.32" y="374.68" width="13" height="13" transform="translate(925.05 -17.3) rotate(99.75)"/><rect class="cls-9" x="881.87" y="312.66" width="13" height="13" transform="translate(1353.36 -502.33) rotate(99.75)"/><rect class="cls-9" x="832.59" y="304.19" width="13" height="13" transform="matrix(-0.17, 0.99, -0.99, -0.17, 1287.39, -463.66)"/></g><g id="Schatten"><g class="cls-11"><polygon points="1112.88 352.09 1090.38 322.09 1090.38 584.09 900.38 584.09 922.88 614.09 1112.88 614.09 1112.88 352.09"/><polygon points="480.88 495.09 580.23 512.69 597.07 473.66 900.38 526.19 900.38 500.09 574.57 443.66 557.73 482.69 458.38 465.09 458.38 777.09 480.88 777.09 480.88 495.09"/><path d="M1097.38,745.09v274H287.54a76.17,76.17,0,0,1-29.51-8.56c-1.84-1-3.74-2.15-5.65-3.44,5.11,17.59,17.67,27.72,28.15,33.44a76.17,76.17,0,0,0,29.51,8.56h809.84v-274Z"/><polygon points="274.57 388.64 142.38 365.93 164.88 395.93 274.57 414.78 274.57 388.64"/><path d="M961.57,242.69l-5,34c9.56,2.69,20.81,11.05,20.81,28.85,0,6.4-3.79,12.55-7,16.56h26.86a27.8,27.8,0,0,0-18.17-15.41l5-34Z"/></g><polygon class="cls-12" points="523.6 808.43 617.96 808.43 617.96 788.43 508.6 788.43 507.75 848.93 523.03 848.93 523.6 808.43"/><polygon class="cls-12" points="529.51 202.1 535.24 203.09 568.17 208.75 571.04 191.81 558.67 189.69 520.24 183.09 514.51 182.1 497.67 280.1 515.58 283.18 529.51 202.1"/><polygon class="cls-12" points="679.72 808.43 679.72 797.09 679.72 776.43 720.04 776.43 720.04 756.43 664.72 756.43 664.72 777.09 664.72 788.43 664.72 848.75 679.72 848.75 679.72 808.43"/><polygon class="cls-12" points="740.71 776.43 869.04 776.43 869.04 756.43 725.71 756.43 725.71 848.75 740.71 848.75 740.71 776.43"/><polygon class="cls-12" points="889.71 776.43 931.04 776.43 931.04 756.43 874.71 756.43 874.71 848.75 889.71 848.75 889.71 776.43"/><polygon class="cls-12" points="449.68 188.38 506.02 198.06 508.93 181.14 434.68 168.38 417.84 266.38 435.75 269.46 449.68 188.38"/><polygon class="cls-12" points="610.49 322.65 846.96 363.29 849.87 346.37 595.49 302.65 573.28 431.93 591.18 435.03 610.49 322.65"/><polygon class="cls-12" points="1031.71 776.43 1086.04 776.43 1086.04 756.43 1016.71 756.43 1016.71 848.75 1031.71 848.75 1031.71 776.43"/><polygon class="cls-12" points="300.91 404.85 393.04 421.38 393.04 404.08 285.91 384.85 285.9 501.75 300.9 501.75 300.91 404.85"/><polygon class="cls-12" points="951.71 776.43 1011.04 776.43 1011.04 756.43 936.71 756.43 936.71 848.75 951.71 848.75 951.71 776.43"/><polygon class="cls-12" points="457.71 928.91 527.04 928.91 527.04 908.91 442.71 908.91 442.71 1007.75 457.71 1007.75 457.71 928.91"/><polygon class="cls-12" points="977.71 928.91 1027.05 928.91 1027.05 908.91 962.71 908.91 962.71 1007.75 977.71 1007.75 977.71 928.91"/><polygon class="cls-12" points="194.65 235.98 257.8 246.84 270.6 263.89 337.79 275.64 340.78 258.79 255.6 243.89 258.11 229.47 179.65 215.98 155.47 356.68 173.38 359.75 194.65 235.98"/><path class="cls-12" d="M961.49,287.54l-17.59-2.65,15,20,7,2a7.28,7.28,0,0,0,.16-1.33C966,298.72,964.35,290.27,961.49,287.54Z"/><polygon class="cls-12" points="809.42 250.12 813.15 247.51 868.77 208.65 929.71 219.12 949.67 245.72 949.67 245.71 914.71 199.12 853.77 188.65 798.15 227.51 794.42 230.12 777.57 328.19 795.48 331.27 809.42 250.12"/><polygon class="cls-12" points="300.88 840.42 393.04 840.42 393.04 820.42 285.88 820.42 285.88 903.25 300.88 903.25 300.88 840.42"/><polygon class="cls-12" points="300.9 527.42 393.04 527.42 393.04 507.42 285.9 507.42 285.9 588.75 300.9 588.75 300.9 527.42"/><polygon class="cls-12" points="476.55 854.6 492.62 874.6 638.63 874.6 638.63 808.43 659.05 808.43 659.05 788.43 658.88 788.43 623.63 788.43 623.63 854.6 476.55 854.6"/><polygon class="cls-12" points="674.05 874.42 1086.04 874.42 1086.04 854.42 659.05 854.42 674.05 874.42"/><polygon class="cls-12" points="1047.71 923.25 1032.71 903.25 1032.71 1019.09 1047.71 1019.09 1047.71 923.25"/><polygon class="cls-12" points="413.71 419.33 398.71 399.33 398.71 903.25 413.71 903.25 413.71 419.33"/><polygon class="cls-12" points="857.39 443.38 868.39 445.27 870.25 434.43 917.48 442.54 920.43 425.63 855.25 414.43 853.39 425.27 842.39 423.38 839 443.09 856.91 446.17 857.39 443.38"/><polygon class="cls-12" points="870.46 367.33 928.86 377.36 931.82 360.45 855.46 347.33 845.27 406.63 863.17 409.7 870.46 367.33"/><polygon class="cls-12" points="938.71 461.76 952.73 381.47 949.77 380.96 952.77 380.81 957.66 353.43 961.75 353.43 985.38 353.43 1079.04 353.43 1079.04 333.43 970.38 333.43 946.75 333.43 942.66 333.43 937.77 360.81 934.77 360.96 937.73 361.47 920.21 461.76 938.71 461.76"/><polygon class="cls-12" points="1038.8 487.76 1079.04 487.76 1079.04 467.76 1023.79 467.76 1023.79 572.75 1038.8 572.75 1038.8 487.76"/><g class="cls-11"><polygon points="852.99 469 917.57 480.1 927.17 492.9 933.09 493.94 934.16 487.76 963.79 487.76 990.79 487.76 1017.79 487.76 1017.79 467.76 919.16 467.76 918.09 473.94 912.17 472.9 914.07 462.08 837.99 449 833.18 476.94 851.09 480.05 852.99 469"/><polygon points="996.79 572.75 996.79 513.76 1005.79 513.76 1005.79 507.76 990.79 487.76 990.79 493.76 981.79 493.76 981.79 572.75 996.79 572.75"/><polygon points="926.72 520.09 926.72 510.55 911.72 490.55 911.72 507.95 911.72 572.75 926.72 572.75 926.72 520.09"/></g><polygon class="cls-12" points="662.41 409.88 647.41 389.88 660.22 392.08 662.42 379.27 677.42 399.27 675.22 412.08 662.41 409.88"/><polygon class="cls-12" points="774.76 429.18 759.76 409.18 772.58 411.38 774.78 398.57 789.78 418.57 787.58 431.38 774.76 429.18"/><polygon class="cls-12" points="846.58 336 831.58 316 844.39 318.2 846.6 305.39 861.6 325.39 859.39 338.2 846.58 336"/><polygon class="cls-12" points="895.86 344.47 880.86 324.47 893.67 326.67 895.87 313.86 910.87 333.86 908.67 346.67 895.86 344.47"/><polygon class="cls-12" points="403.4 393.78 388.4 373.78 401.21 375.98 403.41 363.17 418.41 383.17 416.21 395.98 403.4 393.78"/><polygon class="cls-12" points="477.31 406.48 462.31 386.48 475.13 388.68 477.33 375.87 492.33 395.87 490.13 408.68 477.31 406.48"/><polygon class="cls-12" points="372.7 264.38 346.37 259.77 327.92 363.39 326.31 363.11 327.65 364.9 323.9 385.91 341.89 389.14 342.92 383.39 354.12 385.31 356.32 372.5 347.05 360.15 361.37 279.77 387.7 284.38 587 318.62 589.91 301.69 372.7 264.38"/><polygon class="cls-12" points="462.04 788.52 452.71 788.52 452.71 851.76 447.04 851.76 462.04 871.76 467.71 871.76 467.71 840.76 460.45 804.76 460.45 798.52 502.14 798.52 502.14 788.52 462.04 788.52"/><polygon class="cls-12" points="474.32 436.19 460.51 426.48 456.38 420.98 469.2 423.18 471.4 410.37 486.15 420.03 483.95 432.85 474.32 436.19"/><polygon class="cls-12" points="740.71 928.91 957.04 928.91 957.04 908.91 725.71 908.91 725.71 1007.75 740.71 1007.75 740.71 928.91"/><polygon class="cls-12" points="547.71 928.91 720.04 928.91 720.04 908.91 532.71 908.91 532.71 1007.75 547.71 1007.75 547.71 928.91"/><path class="cls-12" d="M253.88,979.87c0-14.66,5-26.22,15.21-35.32A66.89,66.89,0,0,1,293,931.44l7.87-2.53H437v-20H285.88L278,911.44a66.89,66.89,0,0,0-23.92,13.11c-10.23,9.1-15.21,20.66-15.21,35.32,0,15.31,5.93,27.45,17.62,36.22A48.45,48.45,0,0,1,253.88,979.87Z"/><polygon class="cls-12" points="300.9 614.42 393.04 614.42 393.04 594.42 285.9 594.42 285.88 814.75 300.89 814.75 300.9 614.42"/><polygon class="cls-12" points="209.91 147.18 426.19 184.35 429.1 167.43 194.91 127.18 180.61 210.4 198.51 213.47 209.91 147.18"/><polygon class="cls-12" points="591.62 212.78 785.91 246.16 788.82 229.24 576.62 192.78 560.05 290.82 577.91 293.88 591.62 212.78"/></g></g></g></svg>