<svg xmlns="http://www.w3.org/2000/svg" viewBox="0 0 600 430"><defs><style>.cls-1,.cls-9{fill:#fff;}.cls-1{opacity:0.95;}.cls-2{fill:#009bf5;}.cls-3{fill:#ff6400;}.cls-4{fill:#232323;}.cls-5{fill:#7dc300;}.cls-6{fill:#463ca0;}.cls-7{fill:#b40097;}.cls-8{fill:#1d1d1b;}.cls-10{fill:#b3b3b3;}.cls-10,.cls-11{opacity:0.65;}.cls-12{fill:#737373;}.cls-13,.cls-16{opacity:0.4;}.cls-14,.cls-16{fill:#d9d9d9;}.cls-15,.cls-17{fill:none;stroke-miterlimit:10;}.cls-15{stroke:#1d1d1b;}.cls-17{stroke:#666;stroke-width:0.3px;}.cls-18{fill:#595959;}.cls-19{fill:#7c7c7c;}.cls-20,.cls-21{opacity:0.1;}</style></defs><title>Zeichenfläche 26</title><g id="Klein"><g id="H0"><g id="H0Hintergrund"><rect class="cls-1" width="600" height="430"/><rect class="cls-2" x="21.91" y="219.77" width="20" height="10"/><rect class="cls-3" x="21.91" y="239.77" width="20" height="10"/><rect class="cls-4" x="21.91" y="199.77" width="20" height="10"/><rect class="cls-5" x="21.91" y="259.77" width="20" height="10"/><rect class="cls-6" x="21.91" y="279.77" width="20" height="10"/><rect class="cls-7" x="21.91" y="299.77" width="20" height="10"/><path class="cls-8" d="M52.27,204.63c0,2.23.95,3.48,2.65,3.48a2.33,2.33,0,0,0,2.55-2.57v-.12H55v-.9h3.43v4.25h-.89v-1.21h0a2.83,2.83,0,0,1-2.63,1.38c-2.12,0-3.7-1.38-3.7-4.34,0-2.75,1.66-4.37,3.84-4.37,1.72,0,3,.87,3.17,2.35H57.15A2,2,0,0,0,55,201C53.21,201,52.27,202.47,52.27,204.63Z"/><path class="cls-8" d="M60.59,203h.93v1.09h0a2.08,2.08,0,0,1,1.83-1.2h.1v1h-.19a1.57,1.57,0,0,0-1.71,1.72v3.16h-1Z"/><path class="cls-8" d="M65.79,206.53a2.09,2.09,0,0,0,.21,1.18,1.07,1.07,0,0,0,.89.39c1.08,0,1.59-.72,1.59-2V203h1v5.8h-1v-1h0a2,2,0,0,1-1.83,1.13,1.68,1.68,0,0,1-1.86-1.9v-4h1Z"/><path class="cls-8" d="M75.21,205.19A2,2,0,0,0,75,204a1.06,1.06,0,0,0-.91-.39,1.47,1.47,0,0,0-1.58,1.64v3.48h-1V203h.94v1h0a2,2,0,0,1,1.87-1.12,1.66,1.66,0,0,1,1.85,1.9v4h-1Z"/><path class="cls-8" d="M82.86,208.77h-.94v-1h0a2.07,2.07,0,0,1-1.83,1.1c-1.23,0-2.37-.77-2.37-3,0-2,1-3.08,2.5-3.08a1.73,1.73,0,0,1,1.66,1h0V200.1h1Zm-1-3.13c0-1.23-.65-2-1.58-2-1.11,0-1.61.88-1.61,2.24s.38,2.27,1.54,2.27a1.69,1.69,0,0,0,1.65-1.87Z"/><path class="cls-8" d="M84.93,200.1h1v8.67h-1Z"/><path class="cls-8" d="M87.7,204.55c0-1,.81-1.72,2.19-1.72S92,203.43,92,205v2.37c0,.46.1.65.53.66v.8h-.12c-.93,0-1.24-.33-1.34-1h0a1.94,1.94,0,0,1-1.86,1.08,1.61,1.61,0,0,1-1.83-1.67,1.54,1.54,0,0,1,.86-1.46,6.82,6.82,0,0,1,2.81-.47V205c0-1-.4-1.45-1.21-1.45a1.05,1.05,0,0,0-1.21,1Zm3.37,1.59V206a4.8,4.8,0,0,0-2.34.42.85.85,0,0,0-.32.72c0,.59.38.91,1,.91A1.68,1.68,0,0,0,91.07,206.14Z"/><path class="cls-8" d="M93.69,209.35h1c.11.49.49.81,1.44.81s1.64-.4,1.64-1.68v-.86h0a2.06,2.06,0,0,1-1.84,1.07c-1.21,0-2.33-.76-2.33-2.9,0-1.92,1-3,2.45-3a1.8,1.8,0,0,1,1.73,1h0V203h.94v5.65c0,1.63-1.06,2.34-2.64,2.34C95,211,93.82,210.55,93.69,209.35Zm4.06-3.8a1.71,1.71,0,0,0-1.65-1.94c-1,0-1.54.87-1.54,2.18s.36,2.15,1.58,2.15a1.68,1.68,0,0,0,1.61-1.8Z"/><path class="cls-8" d="M102.86,208.91c-1.77,0-2.62-1.29-2.62-3s.93-3.06,2.59-3.06,2.42,1.34,2.42,2.8v.51h-4c.06,1.2.55,2,1.63,2a1.19,1.19,0,0,0,1.32-.9h1A2.16,2.16,0,0,1,102.86,208.91Zm1.38-3.62c0-1-.41-1.72-1.42-1.72s-1.43.73-1.55,1.79h3Z"/><path class="cls-8" d="M110.44,205.19a2,2,0,0,0-.21-1.15,1.06,1.06,0,0,0-.91-.39,1.46,1.46,0,0,0-1.57,1.64v3.48h-1V203h.93v1h0a2,2,0,0,1,1.87-1.12,1.66,1.66,0,0,1,1.85,1.9v4h-1Z"/><path class="cls-8" d="M52.61,225.55v3.22h-1v-8.42h2.53c1.63,0,2.9.77,2.9,2.59s-1.26,2.61-3,2.61Zm1.42-.82c1.22,0,1.93-.6,1.93-1.79s-.71-1.76-1.89-1.76H52.61v3.55Z"/><path class="cls-8" d="M58.07,223H59v1.09h0a2.08,2.08,0,0,1,1.83-1.2H61v1h-.18a1.58,1.58,0,0,0-1.72,1.72v3.16h-1Z"/><path class="cls-8" d="M61.74,225.86c0-1.79,1-3,2.61-3s2.59,1.24,2.59,3-1,3-2.61,3S61.74,227.68,61.74,225.86Zm1,0c0,1.42.47,2.28,1.59,2.28s1.55-.86,1.55-2.28-.46-2.28-1.57-2.28S62.77,224.45,62.77,225.86Z"/><path class="cls-8" d="M73.26,228.77h-.94v-1h0a2.05,2.05,0,0,1-1.82,1.1c-1.24,0-2.37-.77-2.37-3,0-2,1-3.08,2.5-3.08a1.73,1.73,0,0,1,1.66,1h0V220.1h1Zm-1-3.13c0-1.23-.65-2-1.57-2-1.11,0-1.62.88-1.62,2.24s.39,2.27,1.54,2.27a1.69,1.69,0,0,0,1.65-1.87Z"/><path class="cls-8" d="M76.29,226.53a2.09,2.09,0,0,0,.21,1.18,1,1,0,0,0,.89.39c1.07,0,1.58-.72,1.58-2V223h1v5.8H79v-1h0a2,2,0,0,1-1.82,1.13,1.67,1.67,0,0,1-1.86-1.9v-4h1Z"/><path class="cls-8" d="M83,228.77H82V220.1h1v5.66L85.43,223h1.15l-1.93,2.18,2.17,3.62H85.67L84,225.91,83,227Z"/><path class="cls-8" d="M89.38,221.29V223h1.43v.76H89.38v3.42c0,.62.25.86.88.86a4.29,4.29,0,0,0,.63-.06v.84a6.82,6.82,0,0,1-.91.06c-1.13,0-1.58-.55-1.58-1.54v-3.58H87.34V223h.18c.78,0,1-.19,1-1.3v-.41Z"/><path class="cls-8" d="M91.88,229.35h1c.11.49.49.81,1.43.81,1.1,0,1.65-.4,1.65-1.68v-.86h0a2.09,2.09,0,0,1-1.85,1.07c-1.21,0-2.32-.76-2.32-2.9,0-1.92,1-3,2.44-3a1.81,1.81,0,0,1,1.74,1h0V223h1v5.65c0,1.63-1.07,2.34-2.64,2.34C93.15,231,92,230.55,91.88,229.35Zm4.06-3.8a1.71,1.71,0,0,0-1.65-1.94c-1,0-1.54.87-1.54,2.18s.37,2.15,1.59,2.15a1.68,1.68,0,0,0,1.6-1.8Z"/><path class="cls-8" d="M101.06,228.91c-1.77,0-2.62-1.29-2.62-3s.92-3.06,2.59-3.06,2.42,1.34,2.42,2.8v.51h-4c.07,1.2.55,2,1.64,2a1.2,1.2,0,0,0,1.32-.9h1A2.17,2.17,0,0,1,101.06,228.91Zm1.37-3.62c0-1-.4-1.72-1.42-1.72s-1.43.73-1.55,1.79h3Z"/><path class="cls-8" d="M107.87,224.42c-.06-.52-.48-.85-1.16-.85a1,1,0,0,0-1.13.94c0,.47.29.69.87.79l.89.13c1.21.19,1.65.69,1.65,1.69,0,1.16-.95,1.79-2.27,1.79s-2.19-.54-2.26-1.78h1c0,.45.3,1,1.33,1,.79,0,1.28-.37,1.28-1,0-.46-.12-.71-.91-.85l-.89-.13c-1-.16-1.59-.59-1.59-1.6s.78-1.76,2.11-1.76,2,.58,2.06,1.59Z"/><path class="cls-8" d="M111.76,221.29V223h1.43v.76h-1.43v3.42c0,.62.25.86.88.86a4.33,4.33,0,0,0,.64-.06v.84a7,7,0,0,1-.91.06c-1.14,0-1.59-.55-1.59-1.54v-3.58h-1.06V223h.18c.78,0,1-.19,1-1.3v-.41Z"/><path class="cls-8" d="M114.75,224.55c0-1,.81-1.72,2.19-1.72s2.15.6,2.15,2.15v2.37c0,.46.1.65.53.66v.8h-.13c-.92,0-1.23-.33-1.33-1h0a1.94,1.94,0,0,1-1.86,1.08,1.62,1.62,0,0,1-1.84-1.67,1.55,1.55,0,0,1,.87-1.46,6.82,6.82,0,0,1,2.81-.47V225c0-1-.4-1.45-1.21-1.45a1.05,1.05,0,0,0-1.21,1Zm3.37,1.59V226a4.8,4.8,0,0,0-2.34.42.85.85,0,0,0-.32.72c0,.59.38.91,1,.91A1.68,1.68,0,0,0,118.12,226.14Z"/><path class="cls-8" d="M121.06,220.1h1v8.67h-1Z"/><path class="cls-8" d="M125.32,221.29V223h1.43v.76h-1.43v3.42c0,.62.26.86.88.86a4.33,4.33,0,0,0,.64-.06v.84a7,7,0,0,1-.91.06c-1.13,0-1.59-.55-1.59-1.54v-3.58h-1V223h.17c.79,0,1-.19,1-1.3v-.41Z"/><path class="cls-8" d="M129.11,226.53a2.09,2.09,0,0,0,.21,1.18,1,1,0,0,0,.89.39c1.08,0,1.58-.72,1.58-2V223h1v5.8h-.94v-1h0a2,2,0,0,1-1.82,1.13,1.68,1.68,0,0,1-1.86-1.9v-4h1Z"/><path class="cls-8" d="M138.52,225.19a2,2,0,0,0-.21-1.15,1,1,0,0,0-.91-.39,1.46,1.46,0,0,0-1.57,1.64v3.48h-1V223h.93v1h0a2,2,0,0,1,1.88-1.12,1.65,1.65,0,0,1,1.84,1.9v4h-1Z"/><path class="cls-8" d="M141.15,229.35h1c.11.49.48.81,1.43.81,1.1,0,1.65-.4,1.65-1.68v-.86h0a2.09,2.09,0,0,1-1.85,1.07c-1.21,0-2.32-.76-2.32-2.9,0-1.92,1-3,2.44-3a1.81,1.81,0,0,1,1.74,1h0V223h.95v5.65c0,1.63-1.07,2.34-2.64,2.34C142.42,231,141.28,230.55,141.15,229.35Zm4.06-3.8a1.71,1.71,0,0,0-1.65-1.94c-1,0-1.54.87-1.54,2.18s.36,2.15,1.58,2.15a1.68,1.68,0,0,0,1.61-1.8Z"/><path class="cls-8" d="M52.61,248.77h-1v-8.42h1v4.32l3.94-4.32h1.24l-3.24,3.53L58,248.77H56.78l-2.93-4.12L52.61,246Z"/><path class="cls-8" d="M58.71,245.86c0-1.79,1-3,2.61-3s2.58,1.24,2.58,3-1,3-2.61,3S58.71,247.68,58.71,245.86Zm1,0c0,1.42.48,2.28,1.6,2.28s1.55-.86,1.55-2.28-.46-2.28-1.58-2.28S59.73,244.45,59.73,245.86Z"/><path class="cls-8" d="M65.46,243h.94v1h0a2,2,0,0,1,1.86-1.12A1.63,1.63,0,0,1,70,244h0a2,2,0,0,1,1.89-1.19,1.66,1.66,0,0,1,1.84,1.9v4h-1v-3.59a2.05,2.05,0,0,0-.21-1.16,1,1,0,0,0-.9-.37,1.46,1.46,0,0,0-1.56,1.64v3.48h-1v-3.59a2,2,0,0,0-.21-1.14,1,1,0,0,0-.91-.39,1.46,1.46,0,0,0-1.56,1.62v3.5h-1Z"/><path class="cls-8" d="M75.79,243h.94v1h0a2,2,0,0,1,1.86-1.12A1.63,1.63,0,0,1,80.36,244h0a2,2,0,0,1,1.89-1.19,1.66,1.66,0,0,1,1.84,1.9v4h-1v-3.59a2.05,2.05,0,0,0-.21-1.16,1,1,0,0,0-.9-.37,1.46,1.46,0,0,0-1.57,1.64v3.48h-1v-3.59a2.05,2.05,0,0,0-.2-1.14,1,1,0,0,0-.91-.39,1.46,1.46,0,0,0-1.56,1.62v3.5h-1Z"/><path class="cls-8" d="M87.08,246.53a2.09,2.09,0,0,0,.21,1.18,1,1,0,0,0,.89.39c1.08,0,1.58-.72,1.58-2V243h1v5.8h-.94v-1h0A2,2,0,0,1,88,248.91,1.68,1.68,0,0,1,86.1,247v-4h1Z"/><path class="cls-8" d="M96.49,245.19a2,2,0,0,0-.21-1.15,1,1,0,0,0-.91-.39,1.46,1.46,0,0,0-1.57,1.64v3.48h-1V243h.93v1h0a2,2,0,0,1,1.87-1.12,1.66,1.66,0,0,1,1.85,1.9v4h-1Z"/><path class="cls-8" d="M99.47,240.58h1v1.07h-1Zm0,2.39h1v5.8h-1Z"/><path class="cls-8" d="M103.55,248.77h-1V240.1h1v5.66L106,243h1.16l-1.94,2.18,2.18,3.62h-1.15l-1.7-2.86-1,1.08Z"/><path class="cls-8" d="M108.43,244.55c0-1,.8-1.72,2.19-1.72s2.14.6,2.14,2.15v2.37c0,.46.1.65.53.66v.8h-.12c-.92,0-1.23-.33-1.33-1h0a2,2,0,0,1-1.86,1.08,1.62,1.62,0,0,1-1.84-1.67,1.54,1.54,0,0,1,.87-1.46,6.77,6.77,0,0,1,2.8-.47V245c0-1-.39-1.45-1.21-1.45a1.07,1.07,0,0,0-1.21,1Zm3.36,1.59V246a4.8,4.8,0,0,0-2.34.42.85.85,0,0,0-.32.72c0,.59.39.91,1,.91A1.68,1.68,0,0,0,111.79,246.14Z"/><path class="cls-8" d="M116,241.29V243h1.43v.76H116v3.42c0,.62.26.86.88.86a4.33,4.33,0,0,0,.64-.06v.84a7,7,0,0,1-.91.06c-1.14,0-1.59-.55-1.59-1.54v-3.58h-1V243h.17c.78,0,1-.19,1-1.3v-.41Z"/><path class="cls-8" d="M118.81,240.58h1v1.07h-1Zm0,2.39h1v5.8h-1Z"/><path class="cls-8" d="M121.38,245.86c0-1.79,1-3,2.61-3s2.59,1.24,2.59,3-1,3-2.61,3S121.38,247.68,121.38,245.86Zm1,0c0,1.42.47,2.28,1.59,2.28s1.55-.86,1.55-2.28-.46-2.28-1.57-2.28S122.41,244.45,122.41,245.86Z"/><path class="cls-8" d="M131.83,245.19a2,2,0,0,0-.21-1.15,1.06,1.06,0,0,0-.92-.39,1.47,1.47,0,0,0-1.57,1.64v3.48h-1V243h.94v1h0a2,2,0,0,1,1.87-1.12,1.66,1.66,0,0,1,1.85,1.9v4h-1Z"/><path class="cls-8" d="M137.69,244.42c-.06-.52-.48-.85-1.16-.85a1,1,0,0,0-1.13.94c0,.47.29.69.87.79l.89.13c1.21.19,1.65.69,1.65,1.69,0,1.16-.95,1.79-2.27,1.79s-2.19-.54-2.26-1.78h1c0,.45.29,1,1.32,1,.79,0,1.28-.37,1.28-1,0-.46-.12-.71-.91-.85l-.89-.13c-1-.16-1.59-.59-1.59-1.6s.79-1.76,2.11-1.76,2,.58,2.06,1.59Z"/><path class="cls-8" d="M140,249.35h1c.11.49.48.81,1.43.81s1.65-.4,1.65-1.68v-.86h0a2.09,2.09,0,0,1-1.85,1.07c-1.21,0-2.32-.76-2.32-2.9,0-1.92,1-3,2.44-3a1.81,1.81,0,0,1,1.74,1h0V243h1v5.65c0,1.63-1.07,2.34-2.64,2.34C141.31,251,140.17,250.55,140,249.35Zm4.06-3.8a1.71,1.71,0,0,0-1.65-1.94c-1,0-1.54.87-1.54,2.18s.36,2.15,1.58,2.15a1.68,1.68,0,0,0,1.61-1.8Z"/><path class="cls-8" d="M149.22,248.91c-1.78,0-2.62-1.29-2.62-3s.92-3.06,2.58-3.06,2.42,1.34,2.42,2.8v.51h-4c.07,1.2.55,2,1.64,2a1.2,1.2,0,0,0,1.32-.9h1A2.17,2.17,0,0,1,149.22,248.91Zm1.37-3.62c0-1-.41-1.72-1.42-1.72s-1.43.73-1.55,1.79h3Z"/><path class="cls-8" d="M156,244.42c-.05-.52-.47-.85-1.15-.85a1,1,0,0,0-1.13.94c0,.47.28.69.87.79l.89.13c1.21.19,1.65.69,1.65,1.69,0,1.16-1,1.79-2.27,1.79s-2.19-.54-2.27-1.78h1c0,.45.3,1,1.32,1,.79,0,1.29-.37,1.29-1,0-.46-.12-.71-.91-.85l-.9-.13c-1-.16-1.58-.59-1.58-1.6s.78-1.76,2.1-1.76,2,.58,2.07,1.59Z"/><path class="cls-8" d="M159.92,241.29V243h1.43v.76h-1.43v3.42c0,.62.25.86.88.86a4.52,4.52,0,0,0,.64-.06v.84a7.08,7.08,0,0,1-.92.06c-1.13,0-1.58-.55-1.58-1.54v-3.58h-1.06V243h.18c.78,0,1-.19,1-1.3v-.41Z"/><path class="cls-8" d="M162.91,244.55c0-1,.8-1.72,2.19-1.72s2.14.6,2.14,2.15v2.37c0,.46.1.65.53.66v.8h-.12c-.92,0-1.23-.33-1.33-1h0a1.94,1.94,0,0,1-1.86,1.08,1.62,1.62,0,0,1-1.84-1.67,1.55,1.55,0,0,1,.87-1.46,6.82,6.82,0,0,1,2.81-.47V245c0-1-.4-1.45-1.21-1.45a1.05,1.05,0,0,0-1.21,1Zm3.37,1.59V246a4.85,4.85,0,0,0-2.35.42.85.85,0,0,0-.32.72c0,.59.39.91,1,.91A1.69,1.69,0,0,0,166.28,246.14Z"/><path class="cls-8" d="M169.21,240.1h1v8.67h-1Z"/><path class="cls-8" d="M173.48,241.29V243h1.43v.76h-1.43v3.42c0,.62.25.86.88.86A4.33,4.33,0,0,0,175,248v.84a7,7,0,0,1-.91.06c-1.14,0-1.59-.55-1.59-1.54v-3.58h-1.05V243h.17c.78,0,1-.19,1-1.3v-.41Z"/><path class="cls-8" d="M177.26,246.53a2.09,2.09,0,0,0,.21,1.18,1.08,1.08,0,0,0,.9.39c1.07,0,1.58-.72,1.58-2V243h1v5.8H180v-1h0a2,2,0,0,1-1.83,1.13,1.67,1.67,0,0,1-1.85-1.9v-4h1Z"/><path class="cls-8" d="M186.68,245.19a2,2,0,0,0-.21-1.15,1.06,1.06,0,0,0-.91-.39,1.46,1.46,0,0,0-1.57,1.64v3.48h-1V243h.93v1h0a2,2,0,0,1,1.87-1.12,1.66,1.66,0,0,1,1.85,1.9v4h-1Z"/><path class="cls-8" d="M189.31,249.35h1c.11.49.48.81,1.43.81,1.1,0,1.65-.4,1.65-1.68v-.86h0a2.06,2.06,0,0,1-1.84,1.07c-1.21,0-2.32-.76-2.32-2.9,0-1.92,1-3,2.44-3a1.83,1.83,0,0,1,1.74,1h0V243h.94v5.65c0,1.63-1.06,2.34-2.64,2.34C190.57,251,189.44,250.55,189.31,249.35Zm4.06-3.8a1.71,1.71,0,0,0-1.65-1.94c-1.05,0-1.54.87-1.54,2.18s.36,2.15,1.58,2.15a1.68,1.68,0,0,0,1.61-1.8Z"/><path class="cls-8" d="M51.59,260.35h1v8.42h-1Z"/><path class="cls-8" d="M58.49,265.19a2,2,0,0,0-.21-1.15,1.06,1.06,0,0,0-.91-.39,1.47,1.47,0,0,0-1.58,1.64v3.48h-1V263h.94v1h0a2,2,0,0,1,1.87-1.12,1.66,1.66,0,0,1,1.85,1.9v4h-1Z"/><path class="cls-8" d="M62.71,261.29V263h1.43v.76H62.71v3.42c0,.62.26.86.88.86a4.33,4.33,0,0,0,.64-.06v.84a7,7,0,0,1-.91.06c-1.14,0-1.59-.55-1.59-1.54v-3.58h-1V263h.17c.78,0,1-.19,1-1.3v-.41Z"/><path class="cls-8" d="M67.7,268.91c-1.78,0-2.62-1.29-2.62-3s.92-3.06,2.58-3.06,2.42,1.34,2.42,2.8v.51h-4c.07,1.2.55,2,1.64,2a1.2,1.2,0,0,0,1.32-.9h1A2.15,2.15,0,0,1,67.7,268.91Zm1.37-3.62c0-1-.41-1.72-1.42-1.72s-1.43.73-1.55,1.79h3Z"/><path class="cls-8" d="M71.59,263h.93v1.09h0a2.08,2.08,0,0,1,1.83-1.2h.1v1h-.19a1.57,1.57,0,0,0-1.71,1.72v3.16h-1Z"/><path class="cls-8" d="M75.56,264.55c0-1,.8-1.72,2.19-1.72s2.14.6,2.14,2.15v2.37c0,.46.1.65.53.66v.8H80.3c-.92,0-1.23-.33-1.33-1h0a1.94,1.94,0,0,1-1.86,1.08,1.62,1.62,0,0,1-1.84-1.67,1.55,1.55,0,0,1,.87-1.46,6.82,6.82,0,0,1,2.81-.47V265c0-1-.4-1.45-1.21-1.45a1.05,1.05,0,0,0-1.21,1Zm3.37,1.59V266a4.85,4.85,0,0,0-2.35.42.85.85,0,0,0-.32.72c0,.59.39.91,1,.91A1.69,1.69,0,0,0,78.93,266.14Z"/><path class="cls-8" d="M82.85,268.77h-1V260.1h1v5.66L85.27,263h1.16l-1.94,2.18,2.18,3.62H85.52l-1.7-2.86-1,1.08Z"/><path class="cls-8" d="M89.22,261.29V263h1.43v.76H89.22v3.42c0,.62.26.86.88.86a4.33,4.33,0,0,0,.64-.06v.84a7,7,0,0,1-.91.06c-1.14,0-1.59-.55-1.59-1.54v-3.58h-1V263h.17c.78,0,1-.19,1-1.3v-.41Z"/><path class="cls-8" d="M92.08,260.58h1v1.07h-1Zm0,2.39h1v5.8h-1Z"/><path class="cls-8" d="M94.66,265.86c0-1.79,1-3,2.6-3s2.59,1.24,2.59,3-1,3.05-2.61,3.05S94.66,267.68,94.66,265.86Zm1,0c0,1.42.47,2.28,1.59,2.28s1.56-.86,1.56-2.28-.47-2.28-1.58-2.28S95.68,264.45,95.68,265.86Z"/><path class="cls-8" d="M105.09,265.19a2.07,2.07,0,0,0-.2-1.15,1.06,1.06,0,0,0-.92-.39,1.46,1.46,0,0,0-1.57,1.64v3.48h-1V263h.93v1h0a2,2,0,0,1,1.87-1.12,1.65,1.65,0,0,1,1.84,1.9v4h-1Z"/><path class="cls-8" d="M111,264.42c-.06-.52-.47-.85-1.16-.85a1,1,0,0,0-1.13.94c0,.47.29.69.87.79l.89.13c1.21.19,1.65.69,1.65,1.69,0,1.16-1,1.79-2.27,1.79s-2.18-.54-2.26-1.78h1c0,.45.29,1,1.32,1,.79,0,1.28-.37,1.28-1s-.12-.71-.91-.85l-.89-.13c-1-.16-1.59-.59-1.59-1.6s.79-1.76,2.11-1.76,2,.58,2.06,1.59Z"/><path class="cls-8" d="M113.31,269.35h1c.11.49.48.81,1.43.81s1.65-.4,1.65-1.68v-.86h0a2.09,2.09,0,0,1-1.85,1.07c-1.21,0-2.32-.76-2.32-2.9,0-1.92,1-3,2.44-3a1.81,1.81,0,0,1,1.74,1.05h0V263h.95v5.65c0,1.63-1.07,2.34-2.64,2.34C114.58,271,113.44,270.55,113.31,269.35Zm4.06-3.8a1.71,1.71,0,0,0-1.65-1.94c-1,0-1.54.87-1.54,2.18s.36,2.15,1.58,2.15a1.68,1.68,0,0,0,1.61-1.8Z"/><path class="cls-8" d="M122.49,268.91c-1.78,0-2.62-1.29-2.62-3s.92-3.06,2.58-3.06,2.42,1.34,2.42,2.8v.51h-4c.07,1.2.55,2,1.64,2a1.2,1.2,0,0,0,1.32-.9h1A2.15,2.15,0,0,1,122.49,268.91Zm1.37-3.62c0-1-.41-1.72-1.42-1.72s-1.43.73-1.55,1.79h3Z"/><path class="cls-8" d="M129.29,264.42c0-.52-.47-.85-1.15-.85a1,1,0,0,0-1.13.94c0,.47.28.69.87.79l.89.13c1.21.19,1.65.69,1.65,1.69,0,1.16-.95,1.79-2.27,1.79s-2.19-.54-2.27-1.78h1c.05.45.3,1,1.32,1,.79,0,1.29-.37,1.29-1s-.12-.71-.91-.85l-.9-.13c-1-.16-1.58-.59-1.58-1.6s.78-1.76,2.1-1.76,2,.58,2.07,1.59Z"/><path class="cls-8" d="M133.19,261.29V263h1.43v.76h-1.43v3.42c0,.62.25.86.88.86a4.33,4.33,0,0,0,.64-.06v.84a7.08,7.08,0,0,1-.92.06c-1.13,0-1.58-.55-1.58-1.54v-3.58h-1.06V263h.18c.78,0,1-.19,1-1.3v-.41Z"/><path class="cls-8" d="M136.18,264.55c0-1,.8-1.72,2.19-1.72s2.14.6,2.14,2.15v2.37c0,.46.1.65.53.66v.8h-.12c-.92,0-1.23-.33-1.33-1h0a1.94,1.94,0,0,1-1.86,1.08,1.62,1.62,0,0,1-1.84-1.67,1.55,1.55,0,0,1,.87-1.46,6.82,6.82,0,0,1,2.81-.47V265c0-1-.4-1.45-1.21-1.45a1.05,1.05,0,0,0-1.21,1Zm3.37,1.59V266a4.85,4.85,0,0,0-2.35.42.85.85,0,0,0-.32.72c0,.59.39.91,1,.91A1.69,1.69,0,0,0,139.55,266.14Z"/><path class="cls-8" d="M142.48,260.1h1v8.67h-1Z"/><path class="cls-8" d="M146.75,261.29V263h1.43v.76h-1.43v3.42c0,.62.25.86.88.86a4.33,4.33,0,0,0,.64-.06v.84a7,7,0,0,1-.91.06c-1.14,0-1.59-.55-1.59-1.54v-3.58h-1.06V263h.18c.78,0,1-.19,1-1.3v-.41Z"/><path class="cls-8" d="M150.53,266.53a2.09,2.09,0,0,0,.21,1.18,1.07,1.07,0,0,0,.89.39c1.08,0,1.59-.72,1.59-2V263h1v5.8h-1v-1h0a2,2,0,0,1-1.83,1.13,1.68,1.68,0,0,1-1.86-1.9v-4h1Z"/><path class="cls-8" d="M160,265.19a2,2,0,0,0-.21-1.15,1.06,1.06,0,0,0-.91-.39,1.47,1.47,0,0,0-1.58,1.64v3.48h-1V263h.94v1h0a2,2,0,0,1,1.87-1.12,1.66,1.66,0,0,1,1.85,1.9v4h-1Z"/><path class="cls-8" d="M162.58,269.35h1c.11.49.48.81,1.43.81,1.1,0,1.65-.4,1.65-1.68v-.86h0a2.09,2.09,0,0,1-1.85,1.07c-1.21,0-2.32-.76-2.32-2.9,0-1.92,1-3,2.44-3a1.82,1.82,0,0,1,1.74,1.05h0V263h.94v5.65c0,1.63-1.06,2.34-2.64,2.34C163.84,271,162.71,270.55,162.58,269.35Zm4.06-3.8a1.71,1.71,0,0,0-1.65-1.94c-1.05,0-1.54.87-1.54,2.18s.36,2.15,1.58,2.15a1.68,1.68,0,0,0,1.61-1.8Z"/><path class="cls-8" d="M51.59,280.35h1v8.42h-1Z"/><path class="cls-8" d="M58.49,285.19a2,2,0,0,0-.21-1.15,1.06,1.06,0,0,0-.91-.39,1.47,1.47,0,0,0-1.58,1.64v3.48h-1V283h.94v1h0a2,2,0,0,1,1.87-1.12,1.66,1.66,0,0,1,1.85,1.9v4h-1Z"/><path class="cls-8" d="M62.71,281.29V283h1.43v.76H62.71v3.42c0,.62.26.86.88.86a4.33,4.33,0,0,0,.64-.06v.84a7,7,0,0,1-.91.06c-1.14,0-1.59-.55-1.59-1.54v-3.58h-1V283h.17c.78,0,1-.19,1-1.3v-.41Z"/><path class="cls-8" d="M67.7,288.91c-1.78,0-2.62-1.29-2.62-3s.92-3.06,2.58-3.06,2.42,1.34,2.42,2.8v.51h-4c.07,1.2.55,2,1.64,2a1.2,1.2,0,0,0,1.32-.9h1A2.15,2.15,0,0,1,67.7,288.91Zm1.37-3.62c0-1-.41-1.72-1.42-1.72s-1.43.73-1.55,1.79h3Z"/><path class="cls-8" d="M71.59,283h.93v1.09h0a2.08,2.08,0,0,1,1.83-1.2h.1v1h-.19a1.57,1.57,0,0,0-1.71,1.72v3.16h-1Z"/><path class="cls-8" d="M79.47,285.19a2,2,0,0,0-.21-1.15,1.06,1.06,0,0,0-.92-.39,1.47,1.47,0,0,0-1.57,1.64v3.48h-1V283h.94v1h0a2,2,0,0,1,1.87-1.12,1.66,1.66,0,0,1,1.85,1.9v4h-1Z"/><path class="cls-8" d="M84.57,288.91c-1.77,0-2.62-1.29-2.62-3s.93-3.06,2.59-3.06,2.42,1.34,2.42,2.8v.51H83c.07,1.2.55,2,1.64,2a1.2,1.2,0,0,0,1.32-.9h1A2.17,2.17,0,0,1,84.57,288.91Zm1.37-3.62c0-1-.4-1.72-1.41-1.72s-1.44.73-1.56,1.79h3Z"/><path class="cls-8" d="M89.74,281.29V283h1.43v.76H89.74v3.42c0,.62.25.86.88.86a4.33,4.33,0,0,0,.64-.06v.84a7.08,7.08,0,0,1-.92.06c-1.13,0-1.58-.55-1.58-1.54v-3.58H87.7V283h.18c.78,0,1-.19,1-1.3v-.41Z"/><path class="cls-8" d="M100.16,288.77h-1v-1h0a2.07,2.07,0,0,1-1.83,1.1c-1.23,0-2.37-.77-2.37-3,0-2,1-3.08,2.5-3.08a1.73,1.73,0,0,1,1.66,1h0V280.1h1Zm-1-3.13c0-1.23-.65-2-1.58-2-1.11,0-1.61.88-1.61,2.24s.38,2.27,1.54,2.27a1.69,1.69,0,0,0,1.65-1.87Z"/><path class="cls-8" d="M104.33,288.91c-1.78,0-2.62-1.29-2.62-3s.92-3.06,2.58-3.06,2.42,1.34,2.42,2.8v.51h-4c.07,1.2.55,2,1.64,2a1.2,1.2,0,0,0,1.32-.9h.95A2.15,2.15,0,0,1,104.33,288.91Zm1.37-3.62c0-1-.41-1.72-1.42-1.72s-1.43.73-1.55,1.79h3Z"/><path class="cls-8" d="M108.22,283h.93v1.09h0a2.08,2.08,0,0,1,1.83-1.2h.1v1h-.19a1.57,1.57,0,0,0-1.71,1.72v3.16h-1Z"/><path class="cls-8" d="M115.62,280.35h2.59c2.3,0,4.07,1.12,4.07,4.1s-1.65,4.32-4,4.32h-2.71Zm2.59,7.54c1.78,0,3-.93,3-3.4s-1.24-3.26-2.94-3.26h-1.63v6.66Z"/><path class="cls-8" d="M124,280.58h1v1.07h-1Zm0,2.39h1v5.8h-1Z"/><path class="cls-8" d="M130.8,285.19a2,2,0,0,0-.21-1.15,1.06,1.06,0,0,0-.91-.39,1.46,1.46,0,0,0-1.57,1.64v3.48h-1V283h.93v1h0a2,2,0,0,1,1.87-1.12,1.66,1.66,0,0,1,1.85,1.9v4h-1Z"/><path class="cls-8" d="M133.43,289.35h1c.11.49.48.81,1.43.81,1.1,0,1.65-.4,1.65-1.68v-.86h0a2.09,2.09,0,0,1-1.85,1.07c-1.21,0-2.32-.76-2.32-2.9,0-1.92,1-3,2.44-3a1.82,1.82,0,0,1,1.74,1.05h0V283h.95v5.65c0,1.63-1.07,2.34-2.65,2.34C134.69,291,133.56,290.55,133.43,289.35Zm4.06-3.8a1.71,1.71,0,0,0-1.65-1.94c-1.05,0-1.54.87-1.54,2.18s.36,2.15,1.58,2.15a1.68,1.68,0,0,0,1.61-1.8Z"/><path class="cls-8" d="M142.6,288.91c-1.77,0-2.61-1.29-2.61-3s.92-3.06,2.58-3.06,2.42,1.34,2.42,2.8v.51h-4c.06,1.2.55,2,1.64,2a1.2,1.2,0,0,0,1.32-.9h.95A2.15,2.15,0,0,1,142.6,288.91Zm1.38-3.62c0-1-.41-1.72-1.42-1.72s-1.43.73-1.55,1.79h3Z"/><path class="cls-8" d="M56.19,302.61A1.62,1.62,0,0,0,54.44,301c-1.14,0-1.76.65-1.76,1.46s.42,1.21,1.41,1.39l1.19.21c1.64.3,2.21,1.1,2.21,2.3,0,1.54-1.05,2.53-3.06,2.53s-3.06-1-3.15-2.53h1.07a1.92,1.92,0,0,0,2.1,1.71c1.5,0,2-.73,2-1.62,0-.73-.39-1.23-1.43-1.41l-1.17-.21c-1.65-.31-2.24-1.19-2.24-2.29,0-1.36,1.12-2.35,2.85-2.35s2.71.95,2.79,2.38Z"/><path class="cls-8" d="M60.56,301.29V303H62v.76H60.56v3.42c0,.62.25.86.88.86a4.29,4.29,0,0,0,.63-.06v.84a6.82,6.82,0,0,1-.91.06c-1.13,0-1.58-.55-1.58-1.54v-3.58H58.52V303h.18c.78,0,.95-.19.95-1.3v-.41Z"/><path class="cls-8" d="M63.38,303h.94v1.09h0a2.08,2.08,0,0,1,1.84-1.2h.1v1h-.19a1.58,1.58,0,0,0-1.72,1.72v3.16h-1Z"/><path class="cls-8" d="M67.35,304.55c0-1,.81-1.72,2.19-1.72s2.15.6,2.15,2.15v2.37c0,.46.1.65.53.66v.8H72.1c-.93,0-1.24-.33-1.34-1h0a1.94,1.94,0,0,1-1.86,1.08,1.61,1.61,0,0,1-1.83-1.67,1.54,1.54,0,0,1,.87-1.46,6.73,6.73,0,0,1,2.8-.47V305c0-1-.4-1.45-1.21-1.45a1.05,1.05,0,0,0-1.21,1Zm3.37,1.59V306a4.8,4.8,0,0,0-2.34.42.85.85,0,0,0-.32.72c0,.59.38.91,1,.91A1.68,1.68,0,0,0,70.72,306.14Z"/><path class="cls-8" d="M74.88,301.29V303h1.43v.76H74.88v3.42c0,.62.25.86.88.86a4.33,4.33,0,0,0,.64-.06v.84a7.08,7.08,0,0,1-.92.06c-1.13,0-1.58-.55-1.58-1.54v-3.58H72.84V303H73c.78,0,1-.19,1-1.3v-.41Z"/><path class="cls-8" d="M79.86,308.91c-1.77,0-2.62-1.29-2.62-3s.93-3.06,2.59-3.06,2.42,1.34,2.42,2.8v.51h-4c.07,1.2.55,2,1.64,2a1.19,1.19,0,0,0,1.32-.9h1A2.17,2.17,0,0,1,79.86,308.91Zm1.38-3.62c0-1-.41-1.72-1.42-1.72s-1.43.73-1.55,1.79h3Z"/><path class="cls-8" d="M83.49,309.35h1c.11.49.48.81,1.43.81,1.1,0,1.65-.4,1.65-1.68v-.86h0a2.09,2.09,0,0,1-1.85,1.07c-1.21,0-2.32-.76-2.32-2.9,0-1.92,1-3,2.44-3a1.82,1.82,0,0,1,1.74,1.05h0V303h1v5.65c0,1.63-1.07,2.34-2.64,2.34C84.75,311,83.62,310.55,83.49,309.35Zm4.06-3.8a1.71,1.71,0,0,0-1.65-1.94c-1.05,0-1.54.87-1.54,2.18s.36,2.15,1.58,2.15a1.68,1.68,0,0,0,1.61-1.8Z"/><path class="cls-8" d="M90.54,300.58h1v1.07h-1Zm0,2.39h1v5.8h-1Z"/><path class="cls-8" d="M96.49,304.42c0-.52-.47-.85-1.15-.85a1,1,0,0,0-1.13.94c0,.47.28.69.86.79l.89.13c1.22.19,1.66.69,1.66,1.69,0,1.16-1,1.79-2.27,1.79s-2.19-.54-2.27-1.78h1c0,.45.3,1,1.32,1,.79,0,1.29-.37,1.29-1s-.12-.71-.91-.85l-.9-.13c-1-.16-1.58-.59-1.58-1.6s.78-1.76,2.1-1.76,2,.58,2.07,1.59Z"/><path class="cls-8" d="M102.63,304.72a1.23,1.23,0,0,0-1.32-1.14c-1,0-1.59.92-1.59,2.27s.4,2.28,1.57,2.28a1.32,1.32,0,0,0,1.42-1.26h.92a2.17,2.17,0,0,1-2.35,2c-1.67,0-2.58-1.17-2.58-3s1-3.06,2.6-3.06a2,2,0,0,1,2.3,1.89Z"/><path class="cls-8" d="M108.75,305.18a2,2,0,0,0-.21-1.14,1.06,1.06,0,0,0-.91-.39,1.47,1.47,0,0,0-1.58,1.64v3.48h-1V300.1h1v3.83h0a1.93,1.93,0,0,1,1.82-1.1,1.66,1.66,0,0,1,1.85,1.9v4h-1Z"/><path class="cls-8" d="M113.85,308.91c-1.77,0-2.62-1.29-2.62-3s.93-3.06,2.59-3.06,2.42,1.34,2.42,2.8v.51h-4c.07,1.2.55,2,1.64,2a1.2,1.2,0,0,0,1.32-.9h1A2.17,2.17,0,0,1,113.85,308.91Zm1.38-3.62c0-1-.41-1.72-1.42-1.72s-1.43.73-1.56,1.79h3Z"/><path class="cls-8" d="M121.58,304.63c0,2.23,1,3.48,2.65,3.48a2.33,2.33,0,0,0,2.55-2.57v-.12h-2.44v-.9h3.44v4.25h-.89v-1.21h0a2.83,2.83,0,0,1-2.63,1.38c-2.12,0-3.71-1.38-3.71-4.34,0-2.75,1.67-4.37,3.84-4.37,1.73,0,3,.87,3.18,2.35h-1.06a2,2,0,0,0-2.12-1.54C122.52,301,121.58,302.47,121.58,304.63Z"/><path class="cls-8" d="M132,308.91c-1.77,0-2.62-1.29-2.62-3s.93-3.06,2.59-3.06,2.42,1.34,2.42,2.8v.51h-4c.07,1.2.55,2,1.64,2a1.2,1.2,0,0,0,1.32-.9h1A2.17,2.17,0,0,1,132,308.91Zm1.38-3.62c0-1-.41-1.72-1.42-1.72s-1.43.73-1.56,1.79h3Z"/><path class="cls-8" d="M138.81,304.42c-.06-.52-.47-.85-1.16-.85a1,1,0,0,0-1.13.94c0,.47.29.69.87.79l.89.13c1.21.19,1.65.69,1.65,1.69,0,1.16-1,1.79-2.27,1.79s-2.18-.54-2.26-1.78h1c0,.45.29,1,1.32,1,.79,0,1.28-.37,1.28-1s-.12-.71-.91-.85l-.89-.13c-1-.16-1.59-.59-1.59-1.6s.79-1.76,2.11-1.76,2,.58,2.06,1.59Z"/><path class="cls-8" d="M142.7,301.29V303h1.43v.76H142.7v3.42c0,.62.26.86.88.86a4.33,4.33,0,0,0,.64-.06v.84a7,7,0,0,1-.91.06c-1.14,0-1.59-.55-1.59-1.54v-3.58h-1.05V303h.17c.78,0,1-.19,1-1.3v-.41Z"/><path class="cls-8" d="M145.69,304.55c0-1,.81-1.72,2.19-1.72s2.15.6,2.15,2.15v2.37c0,.46.1.65.53.66v.8h-.12c-.93,0-1.24-.33-1.34-1h0a1.94,1.94,0,0,1-1.86,1.08,1.61,1.61,0,0,1-1.83-1.67,1.54,1.54,0,0,1,.86-1.46,6.82,6.82,0,0,1,2.81-.47V305c0-1-.4-1.45-1.21-1.45a1.05,1.05,0,0,0-1.21,1Zm3.37,1.59V306a4.8,4.8,0,0,0-2.34.42.85.85,0,0,0-.32.72c0,.59.38.91,1,.91A1.68,1.68,0,0,0,149.06,306.14Z"/><path class="cls-8" d="M152,300.1h1v8.67h-1Z"/><path class="cls-8" d="M156.26,301.29V303h1.44v.76h-1.44v3.42c0,.62.26.86.89.86a4.29,4.29,0,0,0,.63-.06v.84a6.82,6.82,0,0,1-.91.06c-1.13,0-1.58-.55-1.58-1.54v-3.58h-1.06V303h.18c.78,0,1-.19,1-1.3v-.41Z"/><path class="cls-8" d="M160.05,306.53a2.09,2.09,0,0,0,.21,1.18,1.06,1.06,0,0,0,.89.39c1.08,0,1.58-.72,1.58-2V303h1v5.8h-.94v-1h0a2,2,0,0,1-1.82,1.13,1.68,1.68,0,0,1-1.86-1.9v-4h1Z"/><path class="cls-8" d="M169.47,305.19a2,2,0,0,0-.21-1.15,1.06,1.06,0,0,0-.92-.39,1.47,1.47,0,0,0-1.57,1.64v3.48h-1V303h.94v1h0a2,2,0,0,1,1.87-1.12,1.66,1.66,0,0,1,1.85,1.9v4h-1Z"/><path class="cls-8" d="M172.09,309.35h1c.11.49.49.81,1.43.81,1.1,0,1.65-.4,1.65-1.68v-.86h0a2.09,2.09,0,0,1-1.85,1.07c-1.21,0-2.32-.76-2.32-2.9,0-1.92,1-3,2.44-3a1.81,1.81,0,0,1,1.74,1.05h0V303h.95v5.65c0,1.63-1.07,2.34-2.64,2.34C173.36,311,172.23,310.55,172.09,309.35Zm4.06-3.8a1.71,1.71,0,0,0-1.65-1.94c-1,0-1.54.87-1.54,2.18s.37,2.15,1.59,2.15a1.68,1.68,0,0,0,1.6-1.8Z"/><path d="M24.16,27.44c0,2.2.84,3.19,2.26,3.19a2,2,0,0,0,2.14-2.14v-.14H26.42V27.19H30v4.4H28.77V30.43h0a2.69,2.69,0,0,1-2.52,1.34c-2.3,0-3.68-1.56-3.68-4.29s1.62-4.42,3.94-4.42c1.91,0,3.14.92,3.34,2.55H28.25a1.67,1.67,0,0,0-1.78-1.42C25,24.19,24.16,25.38,24.16,27.44Z"/><path d="M31.73,25.73h1.4v1.19h0a2.07,2.07,0,0,1,1.92-1.29h.1V27h-.28c-1,0-1.68.44-1.68,1.57v3H31.73Z"/><path d="M37.68,29.22a1.88,1.88,0,0,0,.19,1,.89.89,0,0,0,.8.36c.88,0,1.31-.6,1.31-1.69v-3.2h1.47v5.86H40v-1h0a2,2,0,0,1-1.84,1.09c-1.31,0-2-.64-2-2v-4h1.47Z"/><path d="M47,28.11a1.84,1.84,0,0,0-.19-1.05.94.94,0,0,0-.81-.35c-.88,0-1.32.56-1.32,1.45v3.43H43.14V25.73h1.42v1h0a2.06,2.06,0,0,1,1.91-1.11c1.31,0,1.94.67,1.94,2.09v3.9H47Z"/><path d="M55.36,31.59H53.94v-.9h0a2,2,0,0,1-1.78,1c-1.44,0-2.45-.9-2.45-3s1.07-3.12,2.55-3.12a1.76,1.76,0,0,1,1.63.95h0V22.93h1.48ZM53.9,28.42c0-1.1-.53-1.76-1.33-1.76s-1.39.7-1.39,2,.38,2,1.33,2a1.43,1.43,0,0,0,1.39-1.61Z"/><path d="M57.06,25.73h1.39v1.19h0a2.06,2.06,0,0,1,1.91-1.29h.1V27h-.28c-1,0-1.68.44-1.68,1.57v3H57.06Z"/><path d="M61.61,23.21h1.51v1.4H61.61Zm0,2.52h1.49v5.86H61.62Z"/><path d="M67.78,27.3c0-.41-.36-.72-1-.72s-.93.31-.93.72.22.59.75.66l1,.14c1.13.15,1.68.67,1.68,1.71,0,1.27-1,1.94-2.45,1.94s-2.4-.66-2.48-1.84h1.38c0,.42.29.85,1.11.85.65,0,1.06-.29,1.06-.77s-.15-.62-.78-.69l-.92-.12c-1.08-.15-1.68-.67-1.68-1.71s.78-1.88,2.32-1.88,2.19.68,2.28,1.71Z"/><path d="M73.55,27.3c0-.41-.37-.72-1-.72s-.92.31-.92.72.21.59.74.66l1,.14c1.13.15,1.68.67,1.68,1.71,0,1.27-1,1.94-2.45,1.94s-2.4-.66-2.47-1.84H71.5c0,.42.3.85,1.11.85.65,0,1.07-.29,1.07-.77s-.16-.62-.78-.69L72,29.18c-1.08-.15-1.68-.67-1.68-1.71s.78-1.88,2.32-1.88,2.19.68,2.28,1.71Z"/><path d="M79.12,23.18h5.49v1.21h-4v2.39h3.7V28h-3.7V30.4h4v1.19H79.12Z"/><path d="M86.16,25.73h1.4v1.19h0a2.07,2.07,0,0,1,1.92-1.29h.09V27h-.27c-1,0-1.68.44-1.68,1.57v3H86.16Z"/><path d="M95.92,31.59H94.5v-.9h0a2,2,0,0,1-1.78,1c-1.44,0-2.46-.9-2.46-3s1.08-3.12,2.56-3.12a1.73,1.73,0,0,1,1.62.95h0V22.93h1.48Zm-1.46-3.17c0-1.1-.53-1.76-1.33-1.76s-1.39.7-1.39,2,.37,2,1.33,2a1.43,1.43,0,0,0,1.39-1.61Z"/><path d="M97.39,32h1.43c.11.47.41.74,1.24.74s1.39-.38,1.39-1.52v-.83h0a1.9,1.9,0,0,1-1.76,1c-1.43,0-2.44-.85-2.44-2.89s1.08-3,2.51-3a1.78,1.78,0,0,1,1.7,1h0v-.85h1.42v5.51c0,1.73-1,2.54-2.85,2.54C98.46,33.78,97.5,33.17,97.39,32Zm4.07-3.71c0-1-.55-1.67-1.37-1.67s-1.35.7-1.35,1.92.38,1.9,1.36,1.9a1.41,1.41,0,0,0,1.36-1.53Z"/><path d="M107,31.74c-1.85,0-2.81-1.23-2.81-3.07A2.77,2.77,0,0,1,107,25.59c1.93,0,2.71,1.32,2.71,3V29h-4c.06,1.11.49,1.7,1.36,1.7a1,1,0,0,0,1.12-.78h1.46C109.43,31.07,108.49,31.74,107,31.74ZM108.17,28c0-.88-.39-1.47-1.21-1.47s-1.17.58-1.27,1.54h2.48Z"/><path d="M114,27.3c0-.41-.36-.72-1-.72s-.92.31-.92.72.22.59.75.66l1,.14c1.14.15,1.69.67,1.69,1.71,0,1.27-1,1.94-2.46,1.94s-2.4-.66-2.47-1.84h1.37c0,.42.3.85,1.11.85.65,0,1.07-.29,1.07-.77s-.15-.62-.78-.69l-.92-.12c-1.08-.15-1.69-.67-1.69-1.71s.78-1.88,2.32-1.88,2.19.68,2.28,1.71Z"/><path d="M120.38,27.72a1.08,1.08,0,0,0-1.12-1.11c-1,0-1.33.91-1.33,2s.26,2,1.32,2a1.13,1.13,0,0,0,1.19-1.17h1.43a2.35,2.35,0,0,1-2.63,2.22c-1.82,0-2.83-1.17-2.83-3.07a2.77,2.77,0,0,1,2.85-3.08c1.43,0,2.51.68,2.58,2.13Z"/><path d="M126.87,28.1a1.89,1.89,0,0,0-.18-1,1,1,0,0,0-.82-.35c-.88,0-1.32.56-1.32,1.45v3.43h-1.48V22.93h1.48v3.75h0a2,2,0,0,1,1.84-1.08c1.31,0,2,.67,2,2.09v3.9h-1.49Z"/><path d="M129.59,28.66a2.76,2.76,0,0,1,2.86-3.07c1.77,0,2.84,1.17,2.84,3.07a2.78,2.78,0,0,1-2.85,3.08C130.62,31.74,129.59,30.55,129.59,28.66Zm1.53,0c0,1.24.38,2,1.33,2s1.31-.83,1.31-2-.36-2.05-1.32-2.05S131.12,27.46,131.12,28.66Z"/><path d="M139.62,27.3c0-.41-.36-.72-1-.72s-.93.31-.93.72.22.59.75.66l1,.14c1.13.15,1.68.67,1.68,1.71,0,1.27-1,1.94-2.45,1.94s-2.4-.66-2.48-1.84h1.38c0,.42.29.85,1.11.85.65,0,1.06-.29,1.06-.77s-.15-.62-.78-.69l-.92-.12c-1.08-.15-1.68-.67-1.68-1.71s.78-1.88,2.32-1.88,2.19.68,2.27,1.71Z"/><path d="M145.39,27.3c0-.41-.37-.72-1-.72s-.93.31-.93.72.22.59.75.66l1,.14c1.13.15,1.68.67,1.68,1.71,0,1.27-1,1.94-2.45,1.94s-2.4-.66-2.48-1.84h1.38c0,.42.3.85,1.11.85.65,0,1.07-.29,1.07-.77s-.16-.62-.78-.69l-.93-.12c-1.08-.15-1.68-.67-1.68-1.71s.78-1.88,2.32-1.88,2.19.68,2.28,1.71Z"/><path class="cls-9" d="M537.1,288.12H384.5v13.44H302.6v-131l41.73,7.39,7.07-16.4,136.84,23.71V220.5H568v-110h-50.4c1.35-1.69,2.94-4.27,2.94-7,0-7.48-4.72-11-8.74-12.12L514,77.1l-17-22.66-29.38-5-25,17.44L345.53,50.15l-16.14-2.77L188.06,23.1,169.88,128.87l55.52,9.54v215c-5,1.61-19.74,7.38-19.74,24.87,0,12,7.13,18.18,12.8,21.28a32,32,0,0,0,12.4,3.6H571V288.12Z"/></g><g id="Room"><g id="h017"><rect class="cls-10" x="414.88" y="356.92" width="97.16" height="41.51"/></g><g id="H016"><rect class="cls-10" x="333.82" y="356.92" width="78.68" height="41.51"/></g><g id="H014"><path class="cls-10" d="M231,398.43h62.63V356.92H230.15l-3.3,1.06a28.09,28.09,0,0,0-10,5.51c-4.3,3.82-6.39,8.67-6.39,14.83,0,7.61,3.48,13.36,10.33,17.1A26.93,26.93,0,0,0,231,398.43Z"/></g><g id="H012"><rect class="cls-10" x="230.16" y="224.84" width="45" height="92.54"/></g><g id="H007"><polygon class="cls-10" points="191.94 28.59 185.94 63.54 221.25 69.61 220.19 75.68 267.02 83.87 283.23 86.66 290.3 45.5 191.94 28.59"/></g><g id="H005"><polygon class="cls-10" points="434.32 112.62 441.39 71.46 352.27 56.14 345.31 97.32 434.32 112.62"/></g><g id="H0Mensa01"><g class="cls-11"><polygon class="cls-12" points="457.68 175.09 467.03 120.65 360.19 102.29 350.86 156.59 457.68 175.09"/></g></g><g id="H0Mensa02"><g class="cls-11"><path class="cls-12" d="M445.31,70.73l-1.57,1.1L436.66,113,502,124.24l2.08-11.62h5.75l4.13-5.14a7.47,7.47,0,0,0,1.89-4c0-5.27-3.3-7-5.26-7.53l-4-1.14.61-4.14L509,78.37,494.26,58.81l-25.59-4.4Z"/></g></g><g id="H0Eingang"><polygon class="cls-10" points="230.16 185.91 275.16 185.91 275.16 144.89 230.16 136.81 230.16 185.91"/></g><g id="H0Flur02"><path class="cls-10" d="M277.54,248.72h20.3V164.84l5.59,1,38,6.73L347,159.63l1.49-3.45,9.32-54.29L266.62,86.22l-11.06-1.94-9.44,53,31.42,5.64Zm30-100.36,25.32,4.35,1.79-10.42,2.35.4-2.19,12.77L307.1,150.7Z"/></g><g id="H0Flur01"><polygon class="cls-10" points="297.84 301.56 297.84 248.72 277.54 248.72 277.54 354.54 543.82 354.54 543.82 403.19 566.22 403.19 566.22 334.04 386.88 334.03 386.88 306.32 386.81 306.32 372.01 306.32 372.01 334.11 310.68 334.11 310.68 331.73 320.96 331.73 321.31 306.32 300.22 306.32 300.22 332.92 297.84 332.92 297.84 306.32 297.84 301.56"/></g><g id="H0Flur03"><polygon class="cls-10" points="342.96 96.92 349.92 55.74 344.73 54.85 328.58 52.07 326.18 51.66 319.11 92.82 342.96 96.92"/></g><g id="H022"><rect class="cls-10" x="414.88" y="292.88" width="60.2" height="38.78"/></g><g id="H0Laser"><g class="cls-11"><rect class="cls-12" x="503.5" y="292.88" width="31.22" height="38.78"/></g></g><g id="H0Start"><g class="cls-13"><path class="cls-14" d="M169.88,128.87l.33-1.92h-.83a10.84,10.84,0,0,0-10.22,9.92H154v51h5a10.83,10.83,0,0,0,10.21,9.92l12.85-.12v.55h3.51v-3.87l39.81.56v-56.5Z"/><rect class="cls-14" x="162.4" y="115.25" width="0.02" height="16.75" transform="translate(12.64 262.29) rotate(-80.07)"/></g><line class="cls-15" x1="190.14" y1="162.59" x2="209.41" y2="162.59"/><polygon class="cls-8" points="206.09 166.68 205.41 165.95 209.02 162.59 205.41 159.24 206.09 158.5 210.49 162.59 206.09 166.68"/></g><g id="H0Innenhof"><polygon class="cls-16" points="559.35 219.23 559.35 220.5 488.24 220.5 488.24 185.22 351.4 161.51 344.33 177.91 302.6 170.51 302.6 301.56 384.5 301.56 384.5 288.12 534.72 288.12 535.86 288.12 535.86 288.1 570.98 288.1 570.98 342.64 580.69 342.64 580.69 219.23 559.35 219.23"/></g></g><g id="Grundriss-2" data-name="Grundriss"><g id="Treppe"><polygon class="cls-9" points="369.63 331.73 369.63 306.32 323.7 306.32 323.34 331.73 369.63 331.73"/><polygon class="cls-9" points="389.26 292.88 389.26 301.56 389.26 306.32 389.26 306.32 389.26 331.65 412.5 331.65 412.5 292.88 389.26 292.88"/><rect class="cls-9" x="283.82" y="53.34" width="41.76" height="31.64" transform="translate(184.94 357.75) rotate(-80.25)"/><rect class="cls-9" x="537.1" y="292.88" width="29.12" height="38.78"/><rect class="cls-9" x="296.02" y="356.92" width="35.42" height="41.51"/><polygon class="cls-9" points="541.16 398.43 541.44 398.43 541.44 356.92 514.42 356.92 514.42 398.43 541.16 398.43"/><polygon class="cls-9" points="230.16 134.4 230.16 134.4 243.79 136.84 253.21 83.87 217.44 77.61 218.49 71.55 185.53 65.89 175.38 124.98 226.21 133.72 230.16 134.4"/><rect class="cls-9" x="230.15" y="319.76" width="45.01" height="34.79"/><rect class="cls-9" x="230.16" y="188.3" width="45" height="34.16"/><polygon class="cls-9" points="468.51 153.79 463.89 153 462.46 161.28 494.43 166.77 496.67 153.94 469.29 149.24 468.51 153.79"/><polygon class="cls-9" points="497.1 151.46 501.45 126.57 469.38 121.06 465.1 145.96 497.1 151.46"/><polygon class="cls-9" points="503.93 127 496.57 169.12 563.28 169.12 563.28 115.22 517.64 115.22 507.72 115.22 506 115.22 503.95 126.72 502.69 126.78 503.93 127"/><rect class="cls-9" x="540.08" y="171.64" width="23.2" height="44.1"/><polygon class="cls-9" points="496.13 171.64 495.68 174.23 493.2 173.8 493.99 169.25 462.04 163.76 460.02 175.5 489.06 180.52 493 181.21 493 185.22 493 215.73 519.92 215.73 519.92 182.56 514.88 182.56 514.88 180.04 526.22 180.04 526.22 182.56 522.44 182.56 522.44 215.73 537.56 215.73 537.56 171.64 496.13 171.64"/><line class="cls-17" x1="274.51" y1="334.66" x2="274.51" y2="334.43"/><path class="cls-17" d="M303.54,273.27l-.06-83.43m-.65,85.21L302.76,171"/><path class="cls-17" d="M421.12,267.93l-1.51-51.88"/><path class="cls-17" d="M371.61,289.52v12.17m1.77-10.39v10.39m1.77-8.62v8.62m-17.49-15-.17-19.54m2.33,21.66-.21-23.47m-54.57,21.82L305,275.45m.11,11.67,52.62-.47M303,289.28l-.13-14.23m.13,14.23,56.9-.51m-56.9.51,0-2.14"/><path class="cls-17" d="M582.81,342.64l-1.32-.18m-.37-40.82.37,40.82m-72.4-52.94,0-19.19M384.32,289.51H371.61m13,1.77h-11.2m11.2,1.76h-9.42M417,289.25m2-.61,2.92-18.13m-.61,18.08,2.86-17.72m-.58,17.91,2.83-17.71"/><path class="cls-17" d="M156.24,185l.06-45.33M158.54,185l.12-45.32M160.77,181l.17-37m1.93,34.68L163,146.2M165,177.29l.15-29.76m1.83,29,.14-28.33m2.44,27.46.13-26.59M182,176.55l0-27.91m2.25,27.84.14-27.83m2.07,27.82.14-27.81m2.13,27.77.14-27.76m1.92,27.73.14-27.72M193,176.36l.14-27.67M195,176.33l.14-27.63m1.78,27.59.13-27.56m2.14,27.52.14-27.52"/><path class="cls-17" d="M303.47,171.07V171m2.87,19.38-2.86-.49m2.86.49,0-15.16"/><path class="cls-17" d="M447.21,177.37a4.73,4.73,0,0,0,1.53-1.08"/><path class="cls-17" d="M154,187.88h5.12m298-9.41,6.57,1.21m14.67,2.43,8.11,1.39m-69.75,29.17-2.49,0m-7.15,3.49.08,9.37m4.9-9.42,0,3m0,0-2.49,0"/><path class="cls-17" d="M162.23,188.24a8.42,8.42,0,0,0,7.23,6.81m-.26-16.38a8.31,8.31,0,0,0-7,9.57"/><path class="cls-17" d="M200.33,176.23l-18.31.32m3.32,2.07,15,0m0,0v-2.37m-18.31.32,0,17.75m3.16-2.09.13-13.59m.23,19.6-3.5-.05,0-3.53,3.49,0,0,3.54m-3.52-3.92,43.17.61m0-2.27-40-.43m-3.11,2.7-12.64.14m12.62,2.62-12.85.12"/><path class="cls-17" d="M159,187.51a10.81,10.81,0,0,0,10.23,10.28m.05-21.63A10.83,10.83,0,0,0,159,187.51"/><path class="cls-17" d="M200.51,146.53l-15.67-.16m-3,2.27,0-17.32m3.07,15.05-.18-14.57m15.8,16.93,0-2.2m0,2.2-18.66-.09M154.52,185h4.64"/><path class="cls-17" d="M580.59,263.11l-42.49.55M407.25,225.54l-2.49,0"/><path class="cls-17" d="M470.11,191.3m-.34,65.87-.6-66.29M538,256.55,491.1,257m0,0-21.33.2m39.3,13.16-82.66.74M310,257.07l-7.18,18m7.18-18,24.69-61.88m22.83,71.92-46.18-7.65-6.38,16m54.68-10.15L310,257.07m96.16,8.6,20.3,3.24m-21.6,19.59,3.57-20.14m-1.27,20.14,3.52-19.78m-8.13,19.78,3.63-20.66m3.29,20.66,3.45-19.42m-1.15,19.41,3.4-19.05m-4-3-1.49-50.33m4.42,72.35,3.34-18.69m-11.24-2,20.23,3.23m-20.34-2.53,10.59,20.24,3-18.63m-13.49-2.31-1.5-51.65m11.45,51.08-1.5-51.17"/><path class="cls-17" d="M419.61,216.05a25.71,25.71,0,0,0-21.36-25.11"/><path class="cls-17" d="M409.66,216.14a15.76,15.76,0,0,0-13.1-15.39"/><path class="cls-17" d="M414.63,216.1a20.73,20.73,0,0,0-17.23-20.26"/><path class="cls-17" d="M404.68,216.19a10.78,10.78,0,0,0-9-10.53"/><path class="cls-17" d="M407.17,216.17a13.28,13.28,0,0,0-11-13"/><path class="cls-17" d="M412.15,216.12A18.25,18.25,0,0,0,397,198.3"/><path class="cls-17" d="M416.84,212.66a23.22,23.22,0,0,0-19-19.27"/><path class="cls-17" d="M493.22,220.39h-2.14m2.14,0,44.8-.6m-50.63.67,3.69-.05m49.07-.65,40.54-.53m-94.13-35.74.54,38.69m93.28-2,.74,81.43m-43.4-80.25.38,42.27M397.82,193.39l-42.41-7.27m42,9.72-91.07-15.62m91.92,10.72-91.93-15.77M355,188.57l.42-2.45m40.73,17.08-28.39-4.87m28,7.33-89.38-15.33m91.15,8.06-35.91-6.16m35,8.52-90.23-15.47m61,15.51.42-2.46m-6.59-3.65.42-2.45"/><path class="cls-17" d="M487,222.08l-17.56.22"/><path class="cls-17" d="M437.54,174.4l14.37,2.47"/><path class="cls-17" d="M478.43,182.18l-1.82,10.17L462,189.71m0,0,1.8-10"/><rect class="cls-17" x="169.18" y="175.69" width="3.47" height="3.58"/><line class="cls-17" x1="159.16" y1="136.86" x2="154.04" y2="136.85"/><path class="cls-17" d="M169.46,129.69a8.42,8.42,0,0,0-7.23,6.8m0,0a8.32,8.32,0,0,0,7,9.58"/><line class="cls-17" x1="169.46" y1="129.69" x2="170.5" y2="129.7"/><line class="cls-17" x1="169.23" y1="126.94" x2="170.21" y2="126.95"/><path class="cls-17" d="M169.23,126.94A10.83,10.83,0,0,0,159,137.22m0,0a10.83,10.83,0,0,0,10.28,11.36"/><line class="cls-17" x1="159.16" y1="139.71" x2="154.52" y2="139.7"/><rect class="cls-17" x="169.18" y="145.47" width="3.47" height="3.58"/><line class="cls-17" x1="300.22" y1="328.3" x2="321.11" y2="328.3"/><line class="cls-17" x1="300.22" y1="326.62" x2="321.11" y2="326.62"/><line class="cls-17" x1="300.22" y1="324.94" x2="321.11" y2="324.94"/><line class="cls-17" x1="300.22" y1="323.26" x2="321.11" y2="323.26"/><line class="cls-17" x1="300.22" y1="321.58" x2="321.11" y2="321.58"/><line class="cls-17" x1="300.22" y1="319.9" x2="321.11" y2="319.9"/><line class="cls-17" x1="300.22" y1="318.22" x2="321.11" y2="318.22"/><line class="cls-17" x1="300.22" y1="316.54" x2="321.11" y2="316.54"/><line class="cls-17" x1="300.22" y1="314.86" x2="321.11" y2="314.86"/><line class="cls-17" x1="300.22" y1="313.18" x2="321.11" y2="313.18"/><line class="cls-17" x1="310.68" y1="334.11" x2="310.68" y2="313.18"/><line class="cls-17" x1="327.51" y1="153.43" x2="324.24" y2="172.47"/><line class="cls-17" x1="325.86" y1="153.14" x2="322.59" y2="172.19"/><line class="cls-17" x1="324.2" y1="152.86" x2="320.93" y2="171.9"/><line class="cls-17" x1="322.55" y1="152.58" x2="319.27" y2="171.62"/><line class="cls-17" x1="320.89" y1="152.29" x2="317.62" y2="171.33"/><line class="cls-17" x1="319.23" y1="152.01" x2="315.96" y2="171.05"/><line class="cls-17" x1="317.58" y1="151.72" x2="314.31" y2="170.76"/><line class="cls-17" x1="315.92" y1="151.44" x2="312.65" y2="170.48"/><line class="cls-17" x1="314.27" y1="151.15" x2="311" y2="170.19"/><line class="cls-17" x1="312.61" y1="150.87" x2="309.34" y2="169.91"/><line class="cls-17" x1="310.96" y1="150.58" x2="307.68" y2="169.62"/><line class="cls-17" x1="309.3" y1="150.3" x2="306.03" y2="169.34"/><line class="cls-17" x1="307.6" y1="150.3" x2="304.37" y2="169.06"/><line class="cls-17" x1="305.49" y1="152.63" x2="302.72" y2="168.77"/><line class="cls-17" x1="303.84" y1="152.34" x2="301.06" y2="168.49"/><line class="cls-17" x1="333.72" y1="154.5" x2="350.77" y2="157"/><line class="cls-17" x1="334.49" y1="152.5" x2="351.05" y2="155.34"/><line class="cls-17" x1="334.78" y1="150.84" x2="351.33" y2="153.69"/><line class="cls-17" x1="335.06" y1="149.19" x2="351.62" y2="152.03"/><line class="cls-17" x1="335.35" y1="147.53" x2="351.9" y2="150.38"/><line class="cls-17" x1="335.63" y1="145.87" x2="352.19" y2="148.72"/><line class="cls-17" x1="335.91" y1="144.22" x2="352.47" y2="147.06"/><line class="cls-17" x1="339.1" y1="143.06" x2="352.76" y2="145.41"/><line class="cls-17" x1="339.38" y1="141.4" x2="353.04" y2="143.75"/><line class="cls-17" x1="339.67" y1="139.75" x2="353.33" y2="142.1"/><line class="cls-17" x1="332.48" y1="154.28" x2="329.21" y2="173.32"/><line class="cls-17" x1="330.83" y1="154" x2="327.55" y2="173.04"/><line class="cls-17" x1="329.17" y1="153.71" x2="325.9" y2="172.75"/></g><g id="H021_Kopie_Kopie" data-name="H021 Kopie Kopie"><rect class="cls-9" x="477.46" y="292.88" width="23.66" height="38.78"/></g><g id="Wand"><path class="cls-18" d="M386.88,306.32V334H566.22V403.2H571V288.12H384.5v13.44H302.6v-131l41.73,7.39,7.07-16.4,136.84,23.71V220.5H568v-110h-50.4c1.35-1.69,2.94-4.27,2.94-7,0-7.48-4.72-11-8.74-12.12L514,77.1l-17-22.66-29.38-5-25,17.44L345.53,50.15l-16.14-2.77L188.06,23.1,169.88,128.87l55.52,9.54v215c-5,1.61-19.74,7.38-19.74,24.87,0,12,7.13,18.18,12.8,21.28a32,32,0,0,0,12.4,3.6h313v-4.77h0V354.54H277.54V142.9l-31.42-5.64,9.44-53,11.06,1.94,91.22,15.67-9.32,54.29h0L347,159.63l-5.58,12.93-38-6.73-5.59-1V306.32h0v26.6h2.38v-26.6h21.09L321,331.73H310.68v2.38H372V306.32h14.87Zm154.56,50.6v41.51h-27V356.92Zm-29.4,0v41.51H414.88V356.92Zm-99.54,0v41.51H333.82V356.92Zm-81.06,0v41.51H296V356.92Zm-37.8,0v41.51H231a26.93,26.93,0,0,1-10.27-3c-6.85-3.74-10.33-9.49-10.33-17.1,0-6.16,2.09-11,6.39-14.83a28.09,28.09,0,0,1,10-5.51l3.3-1.06h63.49Zm224-241.7h45.64V215.73H493V181.21l-3.95-.69-29-5,9.36-54.43,33.31,5.72,1.26-.06,2.05-11.5h11.64Zm-49-60.81,25.59,4.4L509,78.37l-1.82,12.32-.61,4.14,4,1.14c2,.55,5.26,2.26,5.26,7.53a7.47,7.47,0,0,1-1.89,4l-2.39,3h-7.09l-.4,2.16h0l-.05.25-.43,2.35h0l-1.61,9L436.66,113l7.08-41.19,1.57-1.1ZM275.16,319.76v34.78h-45V319.76Zm0-94.92v92.53h-45V224.84Zm0-36.54v34.15h-45V188.3Zm0-43.41v41h-45v-49.1Zm-31.37-8-13.63-2.45h0l-3.95-.67L175.38,125l10.16-59.09,33,5.66-1.06,6.06,35.78,6.26Zm23.23-53-46.83-8.19,1.06-6.07-35.31-6.07,6-34.94L290.3,45.5l-7.07,41.15Zm18.56,3.19,7.07-41.16,31.18,5.36-7.07,41.16Zm33.53,5.76,7.07-41.16,2.4.41,16.15,2.78,5.19.89-7,41.18Zm26.2,4.5,7-41.18,89.12,15.32-7.07,41.16Zm5.55,59.27,9.33-54.3L467,120.65l-9.35,54.44ZM566.22,292.88v38.77H537.1V292.88Zm-31.5,0v38.77H503.5V292.88Zm-33.6,0v38.77H477.46V292.88Zm-26,0v38.77h-60.2V292.88ZM369.63,331.73H323.34l.36-25.41h45.93Zm19.63-30.17v-8.68H412.5v38.77H389.26V306.32h0Z"/><polygon class="cls-18" points="496.57 169.12 503.93 127 501.45 126.56 497.1 151.46 464.34 145.83 464.05 147.49 464.05 147.49 463.13 152.87 468.51 153.79 469.29 149.24 496.67 153.94 494.43 166.77 461.7 161.15 461.28 163.63 493.99 169.25 493.2 173.8 495.68 174.23 496.13 171.64 537.56 171.64 537.56 215.73 540.08 215.73 540.08 171.64 566.54 171.64 566.54 169.12 496.57 169.12"/><polygon class="cls-18" points="514.88 182.56 519.92 182.56 519.92 218.68 522.44 218.68 522.44 182.56 526.22 182.56 526.22 180.04 514.88 180.04 514.88 182.56"/><polygon class="cls-18" points="307.1 150.7 307.5 148.36 332.82 152.71 334.61 142.29 336.96 142.69 334.76 155.46 307.1 150.7"/><rect class="cls-19" x="334.07" y="137.59" width="5.46" height="5.46" transform="translate(532.13 -167.85) rotate(99.75)"/><rect class="cls-18" x="429.61" y="142.08" width="5.46" height="5.46" transform="translate(648.27 -256.76) rotate(99.75)"/><rect class="cls-18" x="382.42" y="133.97" width="5.46" height="5.46" transform="translate(585.1 -219.74) rotate(99.75)"/><rect class="cls-19" x="304.68" y="132.54" width="5.46" height="5.46" transform="translate(492.79 -144.79) rotate(99.75)"/><rect class="cls-18" x="273.63" y="127.21" width="5.46" height="5.46" transform="translate(451.23 -120.43) rotate(99.75)"/><rect class="cls-18" x="247.56" y="122.73" width="5.46" height="5.46" transform="translate(416.31 -99.97) rotate(99.75)"/><rect class="cls-18" x="302.19" y="147.03" width="5.46" height="5.46" transform="translate(504.15 -125.39) rotate(99.75)"/><rect class="cls-18" x="334.07" y="137.59" width="5.46" height="5.46" transform="translate(532.13 -167.85) rotate(99.75)"/><rect class="cls-18" x="304.68" y="132.54" width="5.46" height="5.46" transform="translate(492.79 -144.79) rotate(99.75)"/><rect class="cls-18" x="480.47" y="106.5" width="5.46" height="5.46" transform="translate(672.67 -348.5) rotate(99.75)"/><rect class="cls-18" x="459.77" y="102.94" width="5.46" height="5.46" transform="translate(644.97 -332.26) rotate(99.75)"/></g><g id="Schatten"><g class="cls-20"><polygon points="577.49 123.06 568.04 110.45 568.04 220.5 488.24 220.5 497.69 233.09 577.49 233.09 577.49 123.06"/><polygon points="312.05 183.12 353.78 190.51 360.85 174.12 488.24 196.18 488.24 185.22 351.4 161.51 344.33 177.91 302.6 170.51 302.6 301.56 312.05 301.56 312.05 183.12"/><path d="M571,288.12V403.2H230.85a32,32,0,0,1-12.4-3.6q-1.15-.63-2.37-1.44a23.51,23.51,0,0,0,11.82,14,32,32,0,0,0,12.4,3.6H580.43V300.72Z"/><polygon points="225.4 138.41 169.88 128.87 179.33 141.47 225.4 149.38 225.4 138.41"/><path d="M513.94,77.11l-2.1,14.27c4,1.13,8.74,4.64,8.74,12.12,0,2.69-1.59,5.27-2.94,7h11.29a11.7,11.7,0,0,0-7.64-6.48L523.4,89.7Z"/></g><polygon class="cls-21" points="330 314.72 369.63 314.72 369.63 306.32 323.7 306.32 323.34 331.73 329.76 331.73 330 314.72"/><polygon class="cls-21" points="332.48 60.06 334.88 60.47 348.72 62.85 349.92 55.74 344.73 54.85 328.58 52.07 326.18 51.66 319.11 92.82 326.63 94.11 332.48 60.06"/><polygon class="cls-21" points="395.56 314.72 395.56 309.95 395.56 301.28 412.5 301.28 412.5 292.88 389.26 292.88 389.26 301.56 389.26 306.32 389.26 331.65 395.56 331.65 395.56 314.72"/><polygon class="cls-21" points="421.18 301.28 475.08 301.28 475.08 292.88 414.88 292.88 414.88 331.65 421.18 331.65 421.18 301.28"/><polygon class="cls-21" points="483.76 301.28 501.12 301.28 501.12 292.88 477.46 292.88 477.46 331.65 483.76 331.65 483.76 301.28"/><polygon class="cls-21" points="298.95 54.3 322.61 58.37 323.83 51.26 292.65 45.9 285.58 87.06 293.1 88.35 298.95 54.3"/><polygon class="cls-21" points="366.49 110.69 465.81 127.76 467.03 120.65 360.19 102.29 350.86 156.59 358.38 157.89 366.49 110.69"/><polygon class="cls-21" points="543.4 301.28 566.22 301.28 566.22 292.88 537.1 292.88 537.1 331.65 543.4 331.65 543.4 301.28"/><polygon class="cls-21" points="236.47 145.21 275.16 152.16 275.16 144.89 230.16 136.81 230.16 185.91 236.46 185.91 236.47 145.21"/><polygon class="cls-21" points="509.8 301.28 534.72 301.28 534.72 292.88 503.5 292.88 503.5 331.65 509.8 331.65 509.8 301.28"/><polygon class="cls-21" points="302.32 365.32 331.44 365.32 331.44 356.92 296.02 356.92 296.02 398.43 302.32 398.43 302.32 365.32"/><polygon class="cls-21" points="520.72 365.32 541.44 365.32 541.44 356.92 514.42 356.92 514.42 398.43 520.72 398.43 520.72 365.32"/><polygon class="cls-21" points="191.84 74.29 218.36 78.85 223.74 86.01 251.95 90.95 253.21 83.87 217.44 77.61 218.49 71.55 185.53 65.89 175.38 124.98 182.9 126.27 191.84 74.29"/><path class="cls-21" d="M513.91,95.94l-7.39-1.11,6.3,8.4,2.93.83a3,3,0,0,0,.07-.56C515.82,100.64,515.11,97.09,513.91,95.94Z"/><polygon class="cls-21" points="450.04 80.23 451.61 79.13 474.97 62.81 500.56 67.21 508.94 78.38 508.94 78.37 494.26 58.81 468.67 54.41 445.31 70.73 443.74 71.83 436.66 113.02 444.19 114.31 450.04 80.23"/><polygon class="cls-21" points="236.46 328.16 275.16 328.16 275.16 319.76 230.16 319.76 230.15 354.54 236.45 354.54 236.46 328.16"/><polygon class="cls-21" points="236.46 196.7 275.16 196.7 275.16 188.3 230.16 188.3 230.16 222.46 236.46 222.46 236.46 196.7"/><polygon class="cls-21" points="310.24 334.11 316.98 342.51 378.31 342.51 378.31 314.72 386.88 314.72 386.88 306.32 386.81 306.32 372.01 306.32 372.01 334.11 310.24 334.11"/><polygon class="cls-21" points="393.18 342.43 566.22 342.44 566.22 334.04 386.88 334.03 393.18 342.43"/><polygon class="cls-21" points="550.12 362.94 543.82 354.54 543.82 403.19 550.12 403.19 550.12 362.94"/><polygon class="cls-21" points="283.84 151.3 277.54 142.9 277.54 354.54 283.84 354.54 283.84 151.3"/><polygon class="cls-21" points="470.19 161.4 474.81 162.19 475.59 157.64 495.43 161.05 496.67 153.94 469.29 149.24 468.51 153.79 463.89 153 462.46 161.28 469.99 162.57 470.19 161.4"/><polygon class="cls-21" points="475.68 129.46 500.21 133.67 501.45 126.57 469.38 121.06 465.1 145.96 472.62 147.25 475.68 129.46"/><polygon class="cls-21" points="504.34 169.12 510.23 135.4 508.99 135.18 510.25 135.12 512.3 123.62 514.02 123.62 523.94 123.62 563.28 123.62 563.28 115.22 517.64 115.22 507.72 115.22 506 115.22 503.95 126.72 502.69 126.78 503.93 127 496.57 169.12 504.34 169.12"/><polygon class="cls-21" points="546.38 180.04 563.28 180.04 563.28 171.64 540.08 171.64 540.08 215.73 546.38 215.73 546.38 180.04"/><g class="cls-20"><polygon points="468.34 172.16 495.46 176.82 499.5 182.2 501.98 182.63 502.43 180.04 514.88 180.04 526.22 180.04 537.56 180.04 537.56 171.64 496.13 171.64 495.68 174.23 493.2 173.8 493.99 169.25 462.04 163.76 460.02 175.5 467.54 176.8 468.34 172.16"/><polygon points="528.74 215.73 528.74 190.96 532.52 190.96 532.52 188.44 526.22 180.04 526.22 182.56 522.44 182.56 522.44 215.73 528.74 215.73"/><polygon points="499.3 193.62 499.3 189.61 493 181.21 493 188.52 493 215.73 499.3 215.73 499.3 193.62"/></g><polygon class="cls-21" points="388.3 147.33 382 138.93 387.38 139.85 388.3 134.47 394.6 142.87 393.68 148.25 388.3 147.33"/><polygon class="cls-21" points="435.49 155.43 429.19 147.03 434.57 147.96 435.49 142.58 441.79 150.98 440.87 156.36 435.49 155.43"/><polygon class="cls-21" points="465.65 116.3 459.35 107.9 464.73 108.82 465.65 103.44 471.95 111.84 471.03 117.22 465.65 116.3"/><polygon class="cls-21" points="486.35 119.85 480.05 111.45 485.43 112.38 486.35 107 492.65 115.4 491.73 120.78 486.35 119.85"/><polygon class="cls-21" points="279.51 140.56 273.21 132.16 278.59 133.09 279.52 127.71 285.82 136.11 284.89 141.49 279.51 140.56"/><polygon class="cls-21" points="310.56 145.9 304.25 137.5 309.64 138.43 310.56 133.04 316.86 141.44 315.94 146.82 310.56 145.9"/><polygon class="cls-21" points="266.62 86.22 255.56 84.28 247.81 127.8 247.13 127.68 247.7 128.44 246.12 137.26 253.68 138.62 254.11 136.2 258.81 137.01 259.74 131.63 255.85 126.44 261.86 92.68 272.92 94.62 356.62 109 357.85 101.89 266.62 86.22"/><polygon class="cls-21" points="304.14 306.36 300.22 306.36 300.22 332.92 297.84 332.92 304.14 341.32 306.52 341.32 306.52 328.3 303.48 313.18 303.48 310.56 320.98 310.56 320.98 306.36 304.14 306.36"/><polygon class="cls-21" points="309.3 158.38 303.5 154.3 301.77 151.99 307.15 152.91 308.07 147.53 314.27 151.59 313.34 156.97 309.3 158.38"/><polygon class="cls-21" points="421.18 365.32 512.04 365.32 512.04 356.92 414.88 356.92 414.88 398.43 421.18 398.43 421.18 365.32"/><polygon class="cls-21" points="340.12 365.32 412.5 365.32 412.5 356.92 333.82 356.92 333.82 398.43 340.12 398.43 340.12 365.32"/><path class="cls-21" d="M216.71,386.72c0-6.16,2.09-11,6.39-14.83a28.09,28.09,0,0,1,10.05-5.51l3.3-1.06h57.19v-8.4H230.15l-3.3,1.06a28.09,28.09,0,0,0-10,5.51c-4.3,3.82-6.39,8.67-6.39,14.83a18.08,18.08,0,0,0,7.4,15.22A20.45,20.45,0,0,1,216.71,386.72Z"/><polygon class="cls-21" points="236.46 233.24 275.16 233.24 275.16 224.84 230.16 224.84 230.16 317.38 236.46 317.38 236.46 233.24"/><polygon class="cls-21" points="198.24 36.99 289.08 52.6 290.3 45.5 191.94 28.59 185.94 63.54 193.46 64.84 198.24 36.99"/><polygon class="cls-21" points="358.57 64.54 440.17 78.56 441.39 71.46 352.27 56.14 345.31 97.32 352.81 98.61 358.57 64.54"/></g><g id="Marker-2" data-name="Marker"><rect class="cls-6" x="220.27" y="47.62" width="18" height="18"/><path class="cls-9" d="M228.91,54.79h-1.75V53.73h.24a1.93,1.93,0,0,0,1.29-.39,1.52,1.52,0,0,0,.42-1.2h1.42v8.91h-1.62Z"/><rect class="cls-6" x="240.27" y="47.62" width="18" height="18"/><path class="cls-9" d="M246.24,55a2.85,2.85,0,0,1,3.13-3c2.11,0,3,1.19,3,2.48s-.6,2-2,3.3l-2,1.9v0h4.05v1.32H246V60l3.11-3c1-1,1.51-1.58,1.51-2.42a1.24,1.24,0,0,0-1.32-1.35c-.75,0-1.46.45-1.46,1.78Z"/><rect class="cls-2" x="354.16" y="368.68" width="18" height="18"/><path class="cls-9" d="M365.46,380.06v2h-1.58v-2h-4.19V378.9l3.9-5.68h1.87v5.57h1.11v1.27Zm-1.55-1.26v-4.07h0a5.41,5.41,0,0,1-.53.94l-2.1,3.13Z"/><rect class="cls-2" x="374.16" y="368.68" width="18" height="18"/><path class="cls-9" d="M384.71,375.25a1.17,1.17,0,0,0-1.27-1c-1.22,0-1.82,1.21-1.87,3.22h.05a2.3,2.3,0,0,1,2.13-1.17,2.63,2.63,0,0,1,2.73,2.85,3,3,0,0,1-3.23,3.12c-1.86,0-3.33-1-3.33-4.17,0-3.31,1.25-5,3.54-5,1.8,0,2.63.9,2.76,2.17Zm.11,4a1.54,1.54,0,0,0-1.53-1.74c-.9,0-1.55.57-1.55,1.74a1.55,1.55,0,1,0,3.08,0Z"/><rect class="cls-2" x="233.03" y="368.68" width="18" height="18"/><path class="cls-9" d="M241.38,378.2V377H242a1.33,1.33,0,0,0,1.41-1.34,1.29,1.29,0,0,0-1.37-1.31,1.36,1.36,0,0,0-1.49,1.46h-1.58c0-1.38.93-2.71,3.1-2.71,1.91,0,3,1.06,3,2.39a2.09,2.09,0,0,1-1.49,2v0a2.09,2.09,0,0,1,1.71,2.18c0,1.38-1.12,2.59-3.21,2.59-2.27,0-3.13-1.32-3.21-2.73h1.65a1.53,1.53,0,0,0,1.61,1.46,1.42,1.42,0,0,0,1.55-1.4,1.36,1.36,0,0,0-1.54-1.41Z"/><rect class="cls-2" x="253.03" y="368.68" width="18" height="18"/><path class="cls-9" d="M264.33,380.06v2h-1.59v-2h-4.18V378.9l3.9-5.68h1.87v5.57h1.1v1.27Zm-1.55-1.26v-4.07h0a5.41,5.41,0,0,1-.53.94l-2.1,3.13Z"/><rect class="cls-2" x="243.66" y="252.07" width="18" height="18"/><path class="cls-9" d="M252.29,259.23h-1.75v-1.05h.24a2,2,0,0,0,1.3-.4,1.56,1.56,0,0,0,.42-1.2h1.41v8.91h-1.62Z"/><rect class="cls-2" x="243.66" y="272.07" width="18" height="18"/><path class="cls-9" d="M249.62,279.48a2.86,2.86,0,0,1,3.13-3c2.11,0,3,1.19,3,2.49s-.6,2-2,3.29l-2,1.9v0h4v1.32h-6.33v-1l3.11-3c1-1,1.51-1.58,1.51-2.42a1.24,1.24,0,0,0-1.32-1.34c-.76,0-1.47.44-1.47,1.77Z"/><rect class="cls-6" x="374.29" y="75.38" width="18" height="18"/><path class="cls-9" d="M382.64,84.91V83.68h.58a1.32,1.32,0,0,0,1.4-1.34A1.28,1.28,0,0,0,383.25,81a1.36,1.36,0,0,0-1.48,1.47h-1.59c0-1.38.94-2.72,3.11-2.72,1.91,0,3,1.06,3,2.39a2.07,2.07,0,0,1-1.49,2v0a2.09,2.09,0,0,1,1.72,2.18c0,1.38-1.13,2.59-3.21,2.59-2.27,0-3.14-1.32-3.22-2.73h1.66a1.53,1.53,0,0,0,1.6,1.46,1.42,1.42,0,0,0,1.55-1.4,1.34,1.34,0,0,0-1.53-1.4Z"/><rect class="cls-6" x="394.29" y="75.38" width="18" height="18"/><path class="cls-9" d="M405.59,86.76v2H404v-2h-4.19V85.6l3.9-5.68h1.87v5.57h1.11v1.27ZM404,85.51V81.43h0a5.68,5.68,0,0,1-.53.95l-2.1,3.13Z"/><rect class="cls-4" x="292.06" y="109.46" width="18" height="18"/><path class="cls-9" d="M298.61,118.35c0,2.4.93,3.47,2.47,3.47a2.17,2.17,0,0,0,2.33-2.32v-.16h-2.34v-1.26H305v4.8h-1.35v-1.27h0a3,3,0,0,1-2.75,1.46c-2.5,0-4-1.7-4-4.68s1.76-4.82,4.29-4.82c2.09,0,3.43,1,3.65,2.79h-1.71a1.82,1.82,0,0,0-1.94-1.55C299.5,114.81,298.61,116.1,298.61,118.35Z"/></g></g></g></g></svg>