<svg xmlns="http://www.w3.org/2000/svg" viewBox="0 0 600 430"><defs><style>.cls-1,.cls-23,.cls-37{fill:#fff;}.cls-1{opacity:0.95;}.cls-2{fill:#009bf5;}.cls-3{fill:#ff6400;}.cls-4{fill:#232323;}.cls-5{fill:#7dc300;}.cls-6{fill:#463ca0;}.cls-7{fill:#b40097;}.cls-19,.cls-8{font-size:11px;}.cls-30,.cls-8{fill:#1d1d1b;}.cls-8{font-family:AtlasGrotesk-Regular, Atlas Grotesk;}.cls-9{letter-spacing:0em;}.cls-10{letter-spacing:0em;}.cls-11{letter-spacing:0em;}.cls-12{letter-spacing:-0.04em;}.cls-13{letter-spacing:-0.01em;}.cls-14{letter-spacing:0.01em;}.cls-15{letter-spacing:0.04em;}.cls-16{letter-spacing:0em;}.cls-17{letter-spacing:0.01em;}.cls-18{letter-spacing:0.04em;}.cls-19,.cls-37{font-family:AtlasGrotesk-Medium, Atlas Grotesk;font-weight:500;}.cls-20{letter-spacing:0em;}.cls-21{letter-spacing:-0.01em;}.cls-22{letter-spacing:0.01em;}.cls-24{fill:#b3b3b3;}.cls-24,.cls-25{opacity:0.65;}.cls-26{fill:#737373;}.cls-27,.cls-31{opacity:0.4;}.cls-28,.cls-31{fill:#d9d9d9;}.cls-29,.cls-32{fill:none;stroke-miterlimit:10;}.cls-29{stroke:#1d1d1b;}.cls-32{stroke:#666;stroke-width:0.3px;}.cls-33{fill:#595959;}.cls-34{fill:#7c7c7c;}.cls-35,.cls-36{opacity:0.1;}.cls-37{font-size:12px;}</style></defs><title>Zeichenfläche 26</title><g id="Klein"><g id="H0"><g id="H0Hintergrund"><rect class="cls-1" width="600" height="430"/><rect class="cls-2" x="21.91" y="219.77" width="20" height="10"/><rect class="cls-3" x="21.91" y="239.77" width="20" height="10"/><rect class="cls-4" x="21.91" y="199.77" width="20" height="10"/><rect class="cls-5" x="21.91" y="259.77" width="20" height="10"/><rect class="cls-6" x="21.91" y="279.77" width="20" height="10"/><rect class="cls-7" x="21.91" y="299.77" width="20" height="10"/><text class="cls-8" transform="translate(50.45 208.77)">G<tspan class="cls-9" x="9.11" y="0">r</tspan><tspan class="cls-10" x="13.35" y="0">und</tspan><tspan class="cls-9" x="33.45" y="0">l</tspan><tspan class="cls-11" x="36.44" y="0">a</tspan><tspan x="42.58" y="0">g</tspan><tspan class="cls-9" x="49.28" y="0">e</tspan><tspan x="55.27" y="0">n</tspan><tspan class="cls-12" x="0" y="20">P</tspan><tspan class="cls-13" x="6.59" y="20">r</tspan><tspan class="cls-14" x="10.78" y="20">o</tspan><tspan x="17.13" y="20">duk</tspan><tspan class="cls-14" x="36.67" y="20">t</tspan><tspan x="40.78" y="20">ges</tspan><tspan class="cls-15" x="59.06" y="20">t</tspan><tspan x="63.49" y="20">al</tspan><tspan class="cls-11" x="72.62" y="20">t</tspan><tspan x="76.67" y="20">ung</tspan><tspan class="cls-13" x="0" y="40">K</tspan><tspan class="cls-16" x="7.74" y="40">ommuni</tspan><tspan class="cls-9" x="51.08" y="40">k</tspan><tspan x="57.17" y="40">a</tspan><tspan class="cls-17" x="63.25" y="40">t</tspan><tspan class="cls-16" x="67.35" y="40">ion</tspan><tspan class="cls-11" x="83.35" y="40">s</tspan><tspan x="88.93" y="40">ges</tspan><tspan class="cls-15" x="107.21" y="40">t</tspan><tspan x="111.65" y="40">al</tspan><tspan class="cls-11" x="120.78" y="40">t</tspan><tspan x="124.83" y="40">ung</tspan><tspan x="0" y="60">In</tspan><tspan class="cls-14" x="10.01" y="60">t</tspan><tspan class="cls-9" x="14.11" y="60">e</tspan><tspan class="cls-13" x="20.11" y="60">r</tspan><tspan x="24.3" y="60">ak</tspan><tspan class="cls-14" x="36.52" y="60">t</tspan><tspan x="40.62" y="60">ion</tspan><tspan class="cls-11" x="56.62" y="60">s</tspan><tspan class="cls-16" x="62.2" y="60">ges</tspan><tspan class="cls-18" x="80.49" y="60">t</tspan><tspan x="84.92" y="60">al</tspan><tspan class="cls-11" x="94.05" y="60">t</tspan><tspan x="98.1" y="60">ung</tspan><tspan x="0" y="80">In</tspan><tspan class="cls-14" x="10.01" y="80">t</tspan><tspan class="cls-9" x="14.11" y="80">e</tspan><tspan class="cls-13" x="20.11" y="80">r</tspan><tspan x="24.3" y="80">net d</tspan><tspan class="cls-9" x="50.74" y="80">e</tspan><tspan x="56.74" y="80">r Dinge</tspan><tspan x="0" y="100">S</tspan><tspan class="cls-11" x="7.85" y="100">t</tspan><tspan class="cls-13" x="11.9" y="100">r</tspan><tspan x="16.09" y="100">a</tspan><tspan class="cls-14" x="22.18" y="100">t</tspan><tspan class="cls-11" x="26.28" y="100">e</tspan><tspan x="32.38" y="100">gi</tspan><tspan class="cls-11" x="42.15" y="100">s</tspan><tspan class="cls-9" x="47.74" y="100">c</tspan><tspan x="53.58" y="100">he Ges</tspan><tspan class="cls-18" x="90" y="100">t</tspan><tspan x="94.43" y="100">al</tspan><tspan class="cls-11" x="103.56" y="100">t</tspan><tspan class="cls-10" x="107.61" y="100">ung</tspan></text><text class="cls-19" transform="translate(21.91 31.59)">G<tspan class="cls-20" x="8.98" y="0">r</tspan><tspan class="cls-16" x="13.49" y="0">undriss </tspan><tspan class="cls-21" x="56.26" y="0">Er</tspan><tspan x="67.86" y="0">dge</tspan><tspan class="cls-22" x="88.23" y="0">s</tspan><tspan class="cls-9" x="94.05" y="0">c</tspan><tspan x="100.31" y="0">h</tspan><tspan class="cls-11" x="107.23" y="0">o</tspan><tspan x="113.89" y="0">ss</tspan></text><path class="cls-23" d="M537.1,288.12H384.5v13.44H302.6v-131l41.73,7.39,7.07-16.4,136.84,23.71V220.5H568v-110h-50.4c1.35-1.69,2.94-4.27,2.94-7,0-7.48-4.72-11-8.74-12.12L514,77.1l-17-22.66-29.38-5-25,17.44L345.53,50.15l-16.14-2.77L188.06,23.1,169.88,128.87l55.52,9.54v215c-5,1.61-19.74,7.38-19.74,24.87,0,12,7.13,18.18,12.8,21.28a32,32,0,0,0,12.4,3.6H571V288.12Z"/></g><g id="Room"><g id="h017"><rect class="cls-24" x="414.88" y="356.92" width="97.16" height="41.51"/></g><g id="H016"><rect class="cls-24" x="333.82" y="356.92" width="78.68" height="41.51"/></g><g id="H014"><path class="cls-24" d="M231,398.43h62.63V356.92H230.15l-3.3,1.06a28.09,28.09,0,0,0-10,5.51c-4.3,3.82-6.39,8.67-6.39,14.83,0,7.61,3.48,13.36,10.33,17.1A26.93,26.93,0,0,0,231,398.43Z"/></g><g id="H012"><rect class="cls-24" x="230.16" y="224.84" width="45" height="92.54"/></g><g id="H007"><polygon class="cls-24" points="191.94 28.59 185.94 63.54 221.25 69.61 220.19 75.68 267.02 83.87 283.23 86.66 290.3 45.5 191.94 28.59"/></g><g id="H005"><polygon class="cls-24" points="434.32 112.62 441.39 71.46 352.27 56.14 345.31 97.32 434.32 112.62"/></g><g id="H0Mensa01"><g class="cls-25"><polygon class="cls-26" points="457.68 175.09 467.03 120.65 360.19 102.29 350.86 156.59 457.68 175.09"/></g></g><g id="H0Mensa02"><g class="cls-25"><path class="cls-26" d="M445.31,70.73l-1.57,1.1L436.66,113,502,124.24l2.08-11.62h5.75l4.13-5.14a7.47,7.47,0,0,0,1.89-4c0-5.27-3.3-7-5.26-7.53l-4-1.14.61-4.14L509,78.37,494.26,58.81l-25.59-4.4Z"/></g></g><g id="H0Eingang"><polygon class="cls-24" points="230.16 185.91 275.16 185.91 275.16 144.89 230.16 136.81 230.16 185.91"/></g><g id="H0Flur02"><path class="cls-24" d="M277.54,248.72h20.3V164.84l5.59,1,38,6.73L347,159.63l1.49-3.45,9.32-54.29L266.62,86.22l-11.06-1.94-9.44,53,31.42,5.64Zm30-100.36,25.32,4.35,1.79-10.42,2.35.4-2.19,12.77L307.1,150.7Z"/></g><g id="H0Flur01"><polygon class="cls-24" points="297.84 301.56 297.84 248.72 277.54 248.72 277.54 354.54 543.82 354.54 543.82 403.19 566.22 403.19 566.22 334.04 386.88 334.03 386.88 306.32 386.81 306.32 372.01 306.32 372.01 334.11 310.68 334.11 310.68 331.73 320.96 331.73 321.31 306.32 300.22 306.32 300.22 332.92 297.84 332.92 297.84 306.32 297.84 301.56"/></g><g id="H0Flur03"><polygon class="cls-24" points="342.96 96.92 349.92 55.74 344.73 54.85 328.58 52.07 326.18 51.66 319.11 92.82 342.96 96.92"/></g><g id="H022"><rect class="cls-24" x="414.88" y="292.88" width="60.2" height="38.78"/></g><g id="H0Laser"><g class="cls-25"><rect class="cls-26" x="503.5" y="292.88" width="31.22" height="38.78"/></g></g><g id="H0Start"><g class="cls-27"><path class="cls-28" d="M169.88,128.87l.33-1.92h-.83a10.84,10.84,0,0,0-10.22,9.92H154v51h5a10.83,10.83,0,0,0,10.21,9.92l12.85-.12v.55h3.51v-3.87l39.81.56v-56.5Z"/><rect class="cls-28" x="162.4" y="115.25" width="0.02" height="16.75" transform="translate(12.64 262.29) rotate(-80.07)"/></g><line class="cls-29" x1="190.14" y1="162.59" x2="209.41" y2="162.59"/><polygon class="cls-30" points="206.09 166.68 205.41 165.95 209.02 162.59 205.41 159.24 206.09 158.5 210.49 162.59 206.09 166.68"/></g><g id="H0Innenhof"><polygon class="cls-31" points="559.35 219.23 559.35 220.5 488.24 220.5 488.24 185.22 351.4 161.51 344.33 177.91 302.6 170.51 302.6 301.56 384.5 301.56 384.5 288.12 534.72 288.12 535.86 288.12 535.86 288.1 570.98 288.1 570.98 342.64 580.69 342.64 580.69 219.23 559.35 219.23"/></g></g><g id="Grundriss-2" data-name="Grundriss"><g id="Treppe"><polygon class="cls-23" points="369.63 331.73 369.63 306.32 323.7 306.32 323.34 331.73 369.63 331.73"/><polygon class="cls-23" points="389.26 292.88 389.26 301.56 389.26 306.32 389.26 306.32 389.26 331.65 412.5 331.65 412.5 292.88 389.26 292.88"/><rect class="cls-23" x="283.82" y="53.34" width="41.76" height="31.64" transform="translate(184.94 357.75) rotate(-80.25)"/><rect class="cls-23" x="537.1" y="292.88" width="29.12" height="38.78"/><rect class="cls-23" x="296.02" y="356.92" width="35.42" height="41.51"/><polygon class="cls-23" points="541.16 398.43 541.44 398.43 541.44 356.92 514.42 356.92 514.42 398.43 541.16 398.43"/><polygon class="cls-23" points="230.16 134.4 230.16 134.4 243.79 136.84 253.21 83.87 217.44 77.61 218.49 71.55 185.53 65.89 175.38 124.98 226.21 133.72 230.16 134.4"/><rect class="cls-23" x="230.15" y="319.76" width="45.01" height="34.79"/><rect class="cls-23" x="230.16" y="188.3" width="45" height="34.16"/><polygon class="cls-23" points="468.51 153.79 463.89 153 462.46 161.28 494.43 166.77 496.67 153.94 469.29 149.24 468.51 153.79"/><polygon class="cls-23" points="497.1 151.46 501.45 126.57 469.38 121.06 465.1 145.96 497.1 151.46"/><polygon class="cls-23" points="503.93 127 496.57 169.12 563.28 169.12 563.28 115.22 517.64 115.22 507.72 115.22 506 115.22 503.95 126.72 502.69 126.78 503.93 127"/><rect class="cls-23" x="540.08" y="171.64" width="23.2" height="44.1"/><polygon class="cls-23" points="496.13 171.64 495.68 174.23 493.2 173.8 493.99 169.25 462.04 163.76 460.02 175.5 489.06 180.52 493 181.21 493 185.22 493 215.73 519.92 215.73 519.92 182.56 514.88 182.56 514.88 180.04 526.22 180.04 526.22 182.56 522.44 182.56 522.44 215.73 537.56 215.73 537.56 171.64 496.13 171.64"/><line class="cls-32" x1="274.51" y1="334.66" x2="274.51" y2="334.43"/><path class="cls-32" d="M303.54,273.27l-.06-83.43m-.65,85.21L302.76,171"/><path class="cls-32" d="M421.12,267.93l-1.51-51.88"/><path class="cls-32" d="M371.61,289.52v12.17m1.77-10.39v10.39m1.77-8.62v8.62m-17.49-15-.17-19.54m2.33,21.66-.21-23.47m-54.57,21.82L305,275.45m.11,11.67,52.62-.47M303,289.28l-.13-14.23m.13,14.23,56.9-.51m-56.9.51,0-2.14"/><path class="cls-32" d="M582.81,342.64l-1.32-.18m-.37-40.82.37,40.82m-72.4-52.94,0-19.19M384.32,289.51H371.61m13,1.77h-11.2m11.2,1.76h-9.42M417,289.25m2-.61,2.92-18.13m-.61,18.08,2.86-17.72m-.58,17.91,2.83-17.71"/><path class="cls-32" d="M156.24,185l.06-45.33M158.54,185l.12-45.32M160.77,181l.17-37m1.93,34.68L163,146.2M165,177.29l.15-29.76m1.83,29,.14-28.33m2.44,27.46.13-26.59M182,176.55l0-27.91m2.25,27.84.14-27.83m2.07,27.82.14-27.81m2.13,27.77.14-27.76m1.92,27.73.14-27.72M193,176.36l.14-27.67M195,176.33l.14-27.63m1.78,27.59.13-27.56m2.14,27.52.14-27.52"/><path class="cls-32" d="M303.47,171.07V171m2.87,19.38-2.86-.49m2.86.49,0-15.16"/><path class="cls-32" d="M447.21,177.37a4.73,4.73,0,0,0,1.53-1.08"/><path class="cls-32" d="M154,187.88h5.12m298-9.41,6.57,1.21m14.67,2.43,8.11,1.39m-69.75,29.17-2.49,0m-7.15,3.49.08,9.37m4.9-9.42,0,3m0,0-2.49,0"/><path class="cls-32" d="M162.23,188.24a8.42,8.42,0,0,0,7.23,6.81m-.26-16.38a8.31,8.31,0,0,0-7,9.57"/><path class="cls-32" d="M200.33,176.23l-18.31.32m3.32,2.07,15,0m0,0v-2.37m-18.31.32,0,17.75m3.16-2.09.13-13.59m.23,19.6-3.5-.05,0-3.53,3.49,0,0,3.54m-3.52-3.92,43.17.61m0-2.27-40-.43m-3.11,2.7-12.64.14m12.62,2.62-12.85.12"/><path class="cls-32" d="M159,187.51a10.81,10.81,0,0,0,10.23,10.28m.05-21.63A10.83,10.83,0,0,0,159,187.51"/><path class="cls-32" d="M200.51,146.53l-15.67-.16m-3,2.27,0-17.32m3.07,15.05-.18-14.57m15.8,16.93,0-2.2m0,2.2-18.66-.09M154.52,185h4.64"/><path class="cls-32" d="M580.59,263.11l-42.49.55M407.25,225.54l-2.49,0"/><path class="cls-32" d="M470.11,191.3m-.34,65.87-.6-66.29M538,256.55,491.1,257m0,0-21.33.2m39.3,13.16-82.66.74M310,257.07l-7.18,18m7.18-18,24.69-61.88m22.83,71.92-46.18-7.65-6.38,16m54.68-10.15L310,257.07m96.16,8.6,20.3,3.24m-21.6,19.59,3.57-20.14m-1.27,20.14,3.52-19.78m-8.13,19.78,3.63-20.66m3.29,20.66,3.45-19.42m-1.15,19.41,3.4-19.05m-4-3-1.49-50.33m4.42,72.35,3.34-18.69m-11.24-2,20.23,3.23m-20.34-2.53,10.59,20.24,3-18.63m-13.49-2.31-1.5-51.65m11.45,51.08-1.5-51.17"/><path class="cls-32" d="M419.61,216.05a25.71,25.71,0,0,0-21.36-25.11"/><path class="cls-32" d="M409.66,216.14a15.76,15.76,0,0,0-13.1-15.39"/><path class="cls-32" d="M414.63,216.1a20.73,20.73,0,0,0-17.23-20.26"/><path class="cls-32" d="M404.68,216.19a10.78,10.78,0,0,0-9-10.53"/><path class="cls-32" d="M407.17,216.17a13.28,13.28,0,0,0-11-13"/><path class="cls-32" d="M412.15,216.12A18.25,18.25,0,0,0,397,198.3"/><path class="cls-32" d="M416.84,212.66a23.22,23.22,0,0,0-19-19.27"/><path class="cls-32" d="M493.22,220.39h-2.14m2.14,0,44.8-.6m-50.63.67,3.69-.05m49.07-.65,40.54-.53m-94.13-35.74.54,38.69m93.28-2,.74,81.43m-43.4-80.25.38,42.27M397.82,193.39l-42.41-7.27m42,9.72-91.07-15.62m91.92,10.72-91.93-15.77M355,188.57l.42-2.45m40.73,17.08-28.39-4.87m28,7.33-89.38-15.33m91.15,8.06-35.91-6.16m35,8.52-90.23-15.47m61,15.51.42-2.46m-6.59-3.65.42-2.45"/><path class="cls-32" d="M487,222.08l-17.56.22"/><path class="cls-32" d="M437.54,174.4l14.37,2.47"/><path class="cls-32" d="M478.43,182.18l-1.82,10.17L462,189.71m0,0,1.8-10"/><rect class="cls-32" x="169.18" y="175.69" width="3.47" height="3.58"/><line class="cls-32" x1="159.16" y1="136.86" x2="154.04" y2="136.85"/><path class="cls-32" d="M169.46,129.69a8.42,8.42,0,0,0-7.23,6.8m0,0a8.32,8.32,0,0,0,7,9.58"/><line class="cls-32" x1="169.46" y1="129.69" x2="170.5" y2="129.7"/><line class="cls-32" x1="169.23" y1="126.94" x2="170.21" y2="126.95"/><path class="cls-32" d="M169.23,126.94A10.83,10.83,0,0,0,159,137.22m0,0a10.83,10.83,0,0,0,10.28,11.36"/><line class="cls-32" x1="159.16" y1="139.71" x2="154.52" y2="139.7"/><rect class="cls-32" x="169.18" y="145.47" width="3.47" height="3.58"/><line class="cls-32" x1="300.22" y1="328.3" x2="321.11" y2="328.3"/><line class="cls-32" x1="300.22" y1="326.62" x2="321.11" y2="326.62"/><line class="cls-32" x1="300.22" y1="324.94" x2="321.11" y2="324.94"/><line class="cls-32" x1="300.22" y1="323.26" x2="321.11" y2="323.26"/><line class="cls-32" x1="300.22" y1="321.58" x2="321.11" y2="321.58"/><line class="cls-32" x1="300.22" y1="319.9" x2="321.11" y2="319.9"/><line class="cls-32" x1="300.22" y1="318.22" x2="321.11" y2="318.22"/><line class="cls-32" x1="300.22" y1="316.54" x2="321.11" y2="316.54"/><line class="cls-32" x1="300.22" y1="314.86" x2="321.11" y2="314.86"/><line class="cls-32" x1="300.22" y1="313.18" x2="321.11" y2="313.18"/><line class="cls-32" x1="310.68" y1="334.11" x2="310.68" y2="313.18"/><line class="cls-32" x1="327.51" y1="153.43" x2="324.24" y2="172.47"/><line class="cls-32" x1="325.86" y1="153.14" x2="322.59" y2="172.19"/><line class="cls-32" x1="324.2" y1="152.86" x2="320.93" y2="171.9"/><line class="cls-32" x1="322.55" y1="152.58" x2="319.27" y2="171.62"/><line class="cls-32" x1="320.89" y1="152.29" x2="317.62" y2="171.33"/><line class="cls-32" x1="319.23" y1="152.01" x2="315.96" y2="171.05"/><line class="cls-32" x1="317.58" y1="151.72" x2="314.31" y2="170.76"/><line class="cls-32" x1="315.92" y1="151.44" x2="312.65" y2="170.48"/><line class="cls-32" x1="314.27" y1="151.15" x2="311" y2="170.19"/><line class="cls-32" x1="312.61" y1="150.87" x2="309.34" y2="169.91"/><line class="cls-32" x1="310.96" y1="150.58" x2="307.68" y2="169.62"/><line class="cls-32" x1="309.3" y1="150.3" x2="306.03" y2="169.34"/><line class="cls-32" x1="307.6" y1="150.3" x2="304.37" y2="169.06"/><line class="cls-32" x1="305.49" y1="152.63" x2="302.72" y2="168.77"/><line class="cls-32" x1="303.84" y1="152.34" x2="301.06" y2="168.49"/><line class="cls-32" x1="333.72" y1="154.5" x2="350.77" y2="157"/><line class="cls-32" x1="334.49" y1="152.5" x2="351.05" y2="155.34"/><line class="cls-32" x1="334.78" y1="150.84" x2="351.33" y2="153.69"/><line class="cls-32" x1="335.06" y1="149.19" x2="351.62" y2="152.03"/><line class="cls-32" x1="335.35" y1="147.53" x2="351.9" y2="150.38"/><line class="cls-32" x1="335.63" y1="145.87" x2="352.19" y2="148.72"/><line class="cls-32" x1="335.91" y1="144.22" x2="352.47" y2="147.06"/><line class="cls-32" x1="339.1" y1="143.06" x2="352.76" y2="145.41"/><line class="cls-32" x1="339.38" y1="141.4" x2="353.04" y2="143.75"/><line class="cls-32" x1="339.67" y1="139.75" x2="353.33" y2="142.1"/><line class="cls-32" x1="332.48" y1="154.28" x2="329.21" y2="173.32"/><line class="cls-32" x1="330.83" y1="154" x2="327.55" y2="173.04"/><line class="cls-32" x1="329.17" y1="153.71" x2="325.9" y2="172.75"/></g><g id="H021_Kopie_Kopie" data-name="H021 Kopie Kopie"><rect class="cls-23" x="477.46" y="292.88" width="23.66" height="38.78"/></g><g id="Wand"><path class="cls-33" d="M386.88,306.32V334H566.22V403.2H571V288.12H384.5v13.44H302.6v-131l41.73,7.39,7.07-16.4,136.84,23.71V220.5H568v-110h-50.4c1.35-1.69,2.94-4.27,2.94-7,0-7.48-4.72-11-8.74-12.12L514,77.1l-17-22.66-29.38-5-25,17.44L345.53,50.15l-16.14-2.77L188.06,23.1,169.88,128.87l55.52,9.54v215c-5,1.61-19.74,7.38-19.74,24.87,0,12,7.13,18.18,12.8,21.28a32,32,0,0,0,12.4,3.6h313v-4.77h0V354.54H277.54V142.9l-31.42-5.64,9.44-53,11.06,1.94,91.22,15.67-9.32,54.29h0L347,159.63l-5.58,12.93-38-6.73-5.59-1V306.32h0v26.6h2.38v-26.6h21.09L321,331.73H310.68v2.38H372V306.32h14.87Zm154.56,50.6v41.51h-27V356.92Zm-29.4,0v41.51H414.88V356.92Zm-99.54,0v41.51H333.82V356.92Zm-81.06,0v41.51H296V356.92Zm-37.8,0v41.51H231a26.93,26.93,0,0,1-10.27-3c-6.85-3.74-10.33-9.49-10.33-17.1,0-6.16,2.09-11,6.39-14.83a28.09,28.09,0,0,1,10-5.51l3.3-1.06h63.49Zm224-241.7h45.64V215.73H493V181.21l-3.95-.69-29-5,9.36-54.43,33.31,5.72,1.26-.06,2.05-11.5h11.64Zm-49-60.81,25.59,4.4L509,78.37l-1.82,12.32-.61,4.14,4,1.14c2,.55,5.26,2.26,5.26,7.53a7.47,7.47,0,0,1-1.89,4l-2.39,3h-7.09l-.4,2.16h0l-.05.25-.43,2.35h0l-1.61,9L436.66,113l7.08-41.19,1.57-1.1ZM275.16,319.76v34.78h-45V319.76Zm0-94.92v92.53h-45V224.84Zm0-36.54v34.15h-45V188.3Zm0-43.41v41h-45v-49.1Zm-31.37-8-13.63-2.45h0l-3.95-.67L175.38,125l10.16-59.09,33,5.66-1.06,6.06,35.78,6.26Zm23.23-53-46.83-8.19,1.06-6.07-35.31-6.07,6-34.94L290.3,45.5l-7.07,41.15Zm18.56,3.19,7.07-41.16,31.18,5.36-7.07,41.16Zm33.53,5.76,7.07-41.16,2.4.41,16.15,2.78,5.19.89-7,41.18Zm26.2,4.5,7-41.18,89.12,15.32-7.07,41.16Zm5.55,59.27,9.33-54.3L467,120.65l-9.35,54.44ZM566.22,292.88v38.77H537.1V292.88Zm-31.5,0v38.77H503.5V292.88Zm-33.6,0v38.77H477.46V292.88Zm-26,0v38.77h-60.2V292.88ZM369.63,331.73H323.34l.36-25.41h45.93Zm19.63-30.17v-8.68H412.5v38.77H389.26V306.32h0Z"/><polygon class="cls-33" points="496.57 169.12 503.93 127 501.45 126.56 497.1 151.46 464.34 145.83 464.05 147.49 464.05 147.49 463.13 152.87 468.51 153.79 469.29 149.24 496.67 153.94 494.43 166.77 461.7 161.15 461.28 163.63 493.99 169.25 493.2 173.8 495.68 174.23 496.13 171.64 537.56 171.64 537.56 215.73 540.08 215.73 540.08 171.64 566.54 171.64 566.54 169.12 496.57 169.12"/><polygon class="cls-33" points="514.88 182.56 519.92 182.56 519.92 218.68 522.44 218.68 522.44 182.56 526.22 182.56 526.22 180.04 514.88 180.04 514.88 182.56"/><polygon class="cls-33" points="307.1 150.7 307.5 148.36 332.82 152.71 334.61 142.29 336.96 142.69 334.76 155.46 307.1 150.7"/><rect class="cls-34" x="334.07" y="137.59" width="5.46" height="5.46" transform="translate(532.13 -167.85) rotate(99.75)"/><rect class="cls-33" x="429.61" y="142.08" width="5.46" height="5.46" transform="translate(648.27 -256.76) rotate(99.75)"/><rect class="cls-33" x="382.42" y="133.97" width="5.46" height="5.46" transform="translate(585.1 -219.74) rotate(99.75)"/><rect class="cls-34" x="304.68" y="132.54" width="5.46" height="5.46" transform="translate(492.79 -144.79) rotate(99.75)"/><rect class="cls-33" x="273.63" y="127.21" width="5.46" height="5.46" transform="translate(451.23 -120.43) rotate(99.75)"/><rect class="cls-33" x="247.56" y="122.73" width="5.46" height="5.46" transform="translate(416.31 -99.97) rotate(99.75)"/><rect class="cls-33" x="302.19" y="147.03" width="5.46" height="5.46" transform="translate(504.15 -125.39) rotate(99.75)"/><rect class="cls-33" x="334.07" y="137.59" width="5.46" height="5.46" transform="translate(532.13 -167.85) rotate(99.75)"/><rect class="cls-33" x="304.68" y="132.54" width="5.46" height="5.46" transform="translate(492.79 -144.79) rotate(99.75)"/><rect class="cls-33" x="480.47" y="106.5" width="5.46" height="5.46" transform="translate(672.67 -348.5) rotate(99.75)"/><rect class="cls-33" x="459.77" y="102.94" width="5.46" height="5.46" transform="translate(644.97 -332.26) rotate(99.75)"/></g><g id="Schatten"><g class="cls-35"><polygon points="577.49 123.06 568.04 110.45 568.04 220.5 488.24 220.5 497.69 233.09 577.49 233.09 577.49 123.06"/><polygon points="312.05 183.12 353.78 190.51 360.85 174.12 488.24 196.18 488.24 185.22 351.4 161.51 344.33 177.91 302.6 170.51 302.6 301.56 312.05 301.56 312.05 183.12"/><path d="M571,288.12V403.2H230.85a32,32,0,0,1-12.4-3.6q-1.15-.63-2.37-1.44a23.51,23.51,0,0,0,11.82,14,32,32,0,0,0,12.4,3.6H580.43V300.72Z"/><polygon points="225.4 138.41 169.88 128.87 179.33 141.47 225.4 149.38 225.4 138.41"/><path d="M513.94,77.11l-2.1,14.27c4,1.13,8.74,4.64,8.74,12.12,0,2.69-1.59,5.27-2.94,7h11.29a11.7,11.7,0,0,0-7.64-6.48L523.4,89.7Z"/></g><polygon class="cls-36" points="330 314.72 369.63 314.72 369.63 306.32 323.7 306.32 323.34 331.73 329.76 331.73 330 314.72"/><polygon class="cls-36" points="332.48 60.06 334.88 60.47 348.72 62.85 349.92 55.74 344.73 54.85 328.58 52.07 326.18 51.66 319.11 92.82 326.63 94.11 332.48 60.06"/><polygon class="cls-36" points="395.56 314.72 395.56 309.95 395.56 301.28 412.5 301.28 412.5 292.88 389.26 292.88 389.26 301.56 389.26 306.32 389.26 331.65 395.56 331.65 395.56 314.72"/><polygon class="cls-36" points="421.18 301.28 475.08 301.28 475.08 292.88 414.88 292.88 414.88 331.65 421.18 331.65 421.18 301.28"/><polygon class="cls-36" points="483.76 301.28 501.12 301.28 501.12 292.88 477.46 292.88 477.46 331.65 483.76 331.65 483.76 301.28"/><polygon class="cls-36" points="298.95 54.3 322.61 58.37 323.83 51.26 292.65 45.9 285.58 87.06 293.1 88.35 298.95 54.3"/><polygon class="cls-36" points="366.49 110.69 465.81 127.76 467.03 120.65 360.19 102.29 350.86 156.59 358.38 157.89 366.49 110.69"/><polygon class="cls-36" points="543.4 301.28 566.22 301.28 566.22 292.88 537.1 292.88 537.1 331.65 543.4 331.65 543.4 301.28"/><polygon class="cls-36" points="236.47 145.21 275.16 152.16 275.16 144.89 230.16 136.81 230.16 185.91 236.46 185.91 236.47 145.21"/><polygon class="cls-36" points="509.8 301.28 534.72 301.28 534.72 292.88 503.5 292.88 503.5 331.65 509.8 331.65 509.8 301.28"/><polygon class="cls-36" points="302.32 365.32 331.44 365.32 331.44 356.92 296.02 356.92 296.02 398.43 302.32 398.43 302.32 365.32"/><polygon class="cls-36" points="520.72 365.32 541.44 365.32 541.44 356.92 514.42 356.92 514.42 398.43 520.72 398.43 520.72 365.32"/><polygon class="cls-36" points="191.84 74.29 218.36 78.85 223.74 86.01 251.95 90.95 253.21 83.87 217.44 77.61 218.49 71.55 185.53 65.89 175.38 124.98 182.9 126.27 191.84 74.29"/><path class="cls-36" d="M513.91,95.94l-7.39-1.11,6.3,8.4,2.93.83a3,3,0,0,0,.07-.56C515.82,100.64,515.11,97.09,513.91,95.94Z"/><polygon class="cls-36" points="450.04 80.23 451.61 79.13 474.97 62.81 500.56 67.21 508.94 78.38 508.94 78.37 494.26 58.81 468.67 54.41 445.31 70.73 443.74 71.83 436.66 113.02 444.19 114.31 450.04 80.23"/><polygon class="cls-36" points="236.46 328.16 275.16 328.16 275.16 319.76 230.16 319.76 230.15 354.54 236.45 354.54 236.46 328.16"/><polygon class="cls-36" points="236.46 196.7 275.16 196.7 275.16 188.3 230.16 188.3 230.16 222.46 236.46 222.46 236.46 196.7"/><polygon class="cls-36" points="310.24 334.11 316.98 342.51 378.31 342.51 378.31 314.72 386.88 314.72 386.88 306.32 386.81 306.32 372.01 306.32 372.01 334.11 310.24 334.11"/><polygon class="cls-36" points="393.18 342.43 566.22 342.44 566.22 334.04 386.88 334.03 393.18 342.43"/><polygon class="cls-36" points="550.12 362.94 543.82 354.54 543.82 403.19 550.12 403.19 550.12 362.94"/><polygon class="cls-36" points="283.84 151.3 277.54 142.9 277.54 354.54 283.84 354.54 283.84 151.3"/><polygon class="cls-36" points="470.19 161.4 474.81 162.19 475.59 157.64 495.43 161.05 496.67 153.94 469.29 149.24 468.51 153.79 463.89 153 462.46 161.28 469.99 162.57 470.19 161.4"/><polygon class="cls-36" points="475.68 129.46 500.21 133.67 501.45 126.57 469.38 121.06 465.1 145.96 472.62 147.25 475.68 129.46"/><polygon class="cls-36" points="504.34 169.12 510.23 135.4 508.99 135.18 510.25 135.12 512.3 123.62 514.02 123.62 523.94 123.62 563.28 123.62 563.28 115.22 517.64 115.22 507.72 115.22 506 115.22 503.95 126.72 502.69 126.78 503.93 127 496.57 169.12 504.34 169.12"/><polygon class="cls-36" points="546.38 180.04 563.28 180.04 563.28 171.64 540.08 171.64 540.08 215.73 546.38 215.73 546.38 180.04"/><g class="cls-35"><polygon points="468.34 172.16 495.46 176.82 499.5 182.2 501.98 182.63 502.43 180.04 514.88 180.04 526.22 180.04 537.56 180.04 537.56 171.64 496.13 171.64 495.68 174.23 493.2 173.8 493.99 169.25 462.04 163.76 460.02 175.5 467.54 176.8 468.34 172.16"/><polygon points="528.74 215.73 528.74 190.96 532.52 190.96 532.52 188.44 526.22 180.04 526.22 182.56 522.44 182.56 522.44 215.73 528.74 215.73"/><polygon points="499.3 193.62 499.3 189.61 493 181.21 493 188.52 493 215.73 499.3 215.73 499.3 193.62"/></g><polygon class="cls-36" points="388.3 147.33 382 138.93 387.38 139.85 388.3 134.47 394.6 142.87 393.68 148.25 388.3 147.33"/><polygon class="cls-36" points="435.49 155.43 429.19 147.03 434.57 147.96 435.49 142.58 441.79 150.98 440.87 156.36 435.49 155.43"/><polygon class="cls-36" points="465.65 116.3 459.35 107.9 464.73 108.82 465.65 103.44 471.95 111.84 471.03 117.22 465.65 116.3"/><polygon class="cls-36" points="486.35 119.85 480.05 111.45 485.43 112.38 486.35 107 492.65 115.4 491.73 120.78 486.35 119.85"/><polygon class="cls-36" points="279.51 140.56 273.21 132.16 278.59 133.09 279.52 127.71 285.82 136.11 284.89 141.49 279.51 140.56"/><polygon class="cls-36" points="310.56 145.9 304.25 137.5 309.64 138.43 310.56 133.04 316.86 141.44 315.94 146.82 310.56 145.9"/><polygon class="cls-36" points="266.62 86.22 255.56 84.28 247.81 127.8 247.13 127.68 247.7 128.44 246.12 137.26 253.68 138.62 254.11 136.2 258.81 137.01 259.74 131.63 255.85 126.44 261.86 92.68 272.92 94.62 356.62 109 357.85 101.89 266.62 86.22"/><polygon class="cls-36" points="304.14 306.36 300.22 306.36 300.22 332.92 297.84 332.92 304.14 341.32 306.52 341.32 306.52 328.3 303.48 313.18 303.48 310.56 320.98 310.56 320.98 306.36 304.14 306.36"/><polygon class="cls-36" points="309.3 158.38 303.5 154.3 301.77 151.99 307.15 152.91 308.07 147.53 314.27 151.59 313.34 156.97 309.3 158.38"/><polygon class="cls-36" points="421.18 365.32 512.04 365.32 512.04 356.92 414.88 356.92 414.88 398.43 421.18 398.43 421.18 365.32"/><polygon class="cls-36" points="340.12 365.32 412.5 365.32 412.5 356.92 333.82 356.92 333.82 398.43 340.12 398.43 340.12 365.32"/><path class="cls-36" d="M216.71,386.72c0-6.16,2.09-11,6.39-14.83a28.09,28.09,0,0,1,10.05-5.51l3.3-1.06h57.19v-8.4H230.15l-3.3,1.06a28.09,28.09,0,0,0-10,5.51c-4.3,3.82-6.39,8.67-6.39,14.83a18.08,18.08,0,0,0,7.4,15.22A20.45,20.45,0,0,1,216.71,386.72Z"/><polygon class="cls-36" points="236.46 233.24 275.16 233.24 275.16 224.84 230.16 224.84 230.16 317.38 236.46 317.38 236.46 233.24"/><polygon class="cls-36" points="198.24 36.99 289.08 52.6 290.3 45.5 191.94 28.59 185.94 63.54 193.46 64.84 198.24 36.99"/><polygon class="cls-36" points="358.57 64.54 440.17 78.56 441.39 71.46 352.27 56.14 345.31 97.32 352.81 98.61 358.57 64.54"/></g><g id="Marker-2" data-name="Marker"><rect class="cls-6" x="220.27" y="47.62" width="18" height="18"/><text class="cls-37" transform="translate(226.71 61.05)">1</text><rect class="cls-6" x="240.27" y="47.62" width="18" height="18"/><text class="cls-37" transform="translate(245.49 61.05)">2</text><rect class="cls-2" x="354.16" y="368.68" width="18" height="18"/><text class="cls-37" transform="translate(359.25 382.1)">4</text><rect class="cls-2" x="374.16" y="368.68" width="18" height="18"/><text class="cls-37" transform="translate(379.23 382.1)">6</text><rect class="cls-2" x="233.03" y="368.68" width="18" height="18"/><text class="cls-37" transform="translate(238.17 382.1)">3</text><rect class="cls-2" x="253.03" y="368.68" width="18" height="18"/><text class="cls-37" transform="translate(258.11 382.1)">4</text><rect class="cls-2" x="243.66" y="252.07" width="18" height="18"/><text class="cls-37" transform="translate(250.1 265.49)">1</text><rect class="cls-2" x="243.66" y="272.07" width="18" height="18"/><text class="cls-37" transform="translate(248.88 285.49)">2</text><rect class="cls-6" x="374.29" y="75.38" width="18" height="18"/><text class="cls-37" transform="translate(379.44 88.8)">3</text><rect class="cls-6" x="394.29" y="75.38" width="18" height="18"/><text class="cls-37" transform="translate(399.38 88.8)">4</text><rect class="cls-4" x="292.06" y="109.46" width="18" height="18"/><text class="cls-37" transform="translate(296.17 122.88)">G</text></g></g></g></g></svg>