<svg xmlns="http://www.w3.org/2000/svg" viewBox="0 0 600 430"><defs><style>.cls-1,.cls-23,.cls-28,.cls-34{fill:#fff;}.cls-1{opacity:0.95;}.cls-2{fill:#009bf5;}.cls-3{fill:#ff6400;}.cls-4{fill:#232323;}.cls-5{fill:#7dc300;}.cls-6{fill:#463ca0;}.cls-7{fill:#b40097;}.cls-19,.cls-8{font-size:11px;}.cls-8{fill:#1d1d1b;font-family:AtlasGrotesk-Regular, Atlas Grotesk;}.cls-9{letter-spacing:0em;}.cls-10{letter-spacing:0em;}.cls-11{letter-spacing:0em;}.cls-12{letter-spacing:-0.04em;}.cls-13{letter-spacing:-0.01em;}.cls-14{letter-spacing:0.01em;}.cls-15{letter-spacing:0.04em;}.cls-16{letter-spacing:0em;}.cls-17{letter-spacing:0.01em;}.cls-18{letter-spacing:0.04em;}.cls-19,.cls-34{font-family:AtlasGrotesk-Medium, Atlas Grotesk;font-weight:500;}.cls-20{letter-spacing:0em;}.cls-21{letter-spacing:-0.01em;}.cls-22{letter-spacing:0.01em;}.cls-24{fill:#b3b3b3;}.cls-24,.cls-25{opacity:0.65;}.cls-26{fill:#737373;}.cls-27,.cls-29{fill:none;}.cls-27{stroke:#666;stroke-miterlimit:10;stroke-width:0.3px;}.cls-28{opacity:0.6;}.cls-30{opacity:0.08;}.cls-31{fill:#595959;}.cls-32,.cls-33{opacity:0.1;}.cls-34{font-size:12px;}</style></defs><title>Zeichenfläche 27</title><g id="Klein"><g id="H1"><g id="H1Hintergurnd"><rect class="cls-1" width="600" height="430"/><rect class="cls-2" x="21.91" y="219.77" width="20" height="10"/><rect class="cls-3" x="21.91" y="239.77" width="20" height="10"/><rect class="cls-4" x="21.91" y="199.77" width="20" height="10"/><rect class="cls-5" x="21.91" y="259.77" width="20" height="10"/><rect class="cls-6" x="21.91" y="279.77" width="20" height="10"/><rect class="cls-7" x="21.91" y="299.77" width="20" height="10"/><text class="cls-8" transform="translate(50.45 208.77)">G<tspan class="cls-9" x="9.11" y="0">r</tspan><tspan class="cls-10" x="13.35" y="0">und</tspan><tspan class="cls-9" x="33.45" y="0">l</tspan><tspan class="cls-11" x="36.44" y="0">a</tspan><tspan x="42.58" y="0">g</tspan><tspan class="cls-9" x="49.28" y="0">e</tspan><tspan x="55.27" y="0">n</tspan><tspan class="cls-12" x="0" y="20">P</tspan><tspan class="cls-13" x="6.59" y="20">r</tspan><tspan class="cls-14" x="10.78" y="20">o</tspan><tspan x="17.13" y="20">duk</tspan><tspan class="cls-14" x="36.67" y="20">t</tspan><tspan x="40.78" y="20">ges</tspan><tspan class="cls-15" x="59.06" y="20">t</tspan><tspan x="63.49" y="20">al</tspan><tspan class="cls-11" x="72.62" y="20">t</tspan><tspan x="76.67" y="20">ung</tspan><tspan class="cls-13" x="0" y="40">K</tspan><tspan class="cls-16" x="7.74" y="40">ommuni</tspan><tspan class="cls-9" x="51.08" y="40">k</tspan><tspan x="57.17" y="40">a</tspan><tspan class="cls-17" x="63.25" y="40">t</tspan><tspan class="cls-16" x="67.35" y="40">ion</tspan><tspan class="cls-11" x="83.35" y="40">s</tspan><tspan x="88.93" y="40">ges</tspan><tspan class="cls-15" x="107.21" y="40">t</tspan><tspan x="111.65" y="40">al</tspan><tspan class="cls-11" x="120.78" y="40">t</tspan><tspan x="124.83" y="40">ung</tspan><tspan x="0" y="60">In</tspan><tspan class="cls-14" x="10.01" y="60">t</tspan><tspan class="cls-9" x="14.11" y="60">e</tspan><tspan class="cls-13" x="20.11" y="60">r</tspan><tspan x="24.3" y="60">ak</tspan><tspan class="cls-14" x="36.52" y="60">t</tspan><tspan x="40.62" y="60">ion</tspan><tspan class="cls-11" x="56.62" y="60">s</tspan><tspan class="cls-16" x="62.2" y="60">ges</tspan><tspan class="cls-18" x="80.49" y="60">t</tspan><tspan x="84.92" y="60">al</tspan><tspan class="cls-11" x="94.05" y="60">t</tspan><tspan x="98.1" y="60">ung</tspan><tspan x="0" y="80">In</tspan><tspan class="cls-14" x="10.01" y="80">t</tspan><tspan class="cls-9" x="14.11" y="80">e</tspan><tspan class="cls-13" x="20.11" y="80">r</tspan><tspan x="24.3" y="80">net d</tspan><tspan class="cls-9" x="50.74" y="80">e</tspan><tspan x="56.74" y="80">r Dinge</tspan><tspan x="0" y="100">S</tspan><tspan class="cls-11" x="7.85" y="100">t</tspan><tspan class="cls-13" x="11.9" y="100">r</tspan><tspan x="16.09" y="100">a</tspan><tspan class="cls-14" x="22.18" y="100">t</tspan><tspan class="cls-11" x="26.28" y="100">e</tspan><tspan x="32.38" y="100">gi</tspan><tspan class="cls-11" x="42.15" y="100">s</tspan><tspan class="cls-9" x="47.74" y="100">c</tspan><tspan x="53.58" y="100">he Ges</tspan><tspan class="cls-18" x="90" y="100">t</tspan><tspan x="94.43" y="100">al</tspan><tspan class="cls-11" x="103.56" y="100">t</tspan><tspan class="cls-10" x="107.61" y="100">ung</tspan></text><text class="cls-19" transform="translate(21.91 31.59)">G<tspan class="cls-20" x="8.98" y="0">r</tspan><tspan class="cls-16" x="13.49" y="0">undriss </tspan><tspan class="cls-21" x="56.26" y="0">ers</tspan><tspan class="cls-22" x="72.84" y="0">t</tspan><tspan class="cls-21" x="77.15" y="0">e</tspan><tspan class="cls-10" x="83.51" y="0">r S</tspan><tspan class="cls-11" x="98.5" y="0">to</tspan><tspan class="cls-9" x="109.48" y="0">c</tspan><tspan x="115.74" y="0">k</tspan></text><path class="cls-23" d="M543.87,403.19v.09h22.4v-.08H571V288.12H384.55v13.44h-81.9v-131l41.73,7.39,7.07-16.39,136.84,23.7V220.5h79.8v-110h-50.4c1.35-1.69,2.94-4.27,2.94-7,0-7.48-4.72-11-8.74-12.12L514,77.1,497,54.44l-29.39-5-25,17.44L345.58,50.15l-16.14-2.77L188.11,23.1,169.93,128.87l55.52,9.54V403.2h4.76v-.06l.7.06h313m-313.6-4.84.79.07Z"/></g><g id="Rooms-2" data-name="Rooms"><g id="H1Flur01"><polygon class="cls-24" points="297.89 301.55 297.89 243.78 277.59 243.78 277.59 354.53 543.87 354.53 543.87 398.42 543.87 403.19 543.87 403.28 566.27 403.28 566.27 334.03 386.93 334.03 386.93 306.31 386.86 306.31 372.06 306.31 372.06 334.1 310.77 334.1 310.77 331.72 321.19 331.72 321.19 306.31 300.27 306.31 300.27 332.91 297.89 332.91 297.89 306.31 297.89 301.55"/></g><g id="H1Flur02"><path class="cls-24" d="M277.59,243.69h20.3v-97.3l2.53-15.21,2.35.39-2.5,15v18.67l4.4.74,36.83,6.56,5.58-13,1.48-3.45,9.33-54.29L266.67,86.12l-11.06-1.93-9.42,53,31.4,5.64Zm40.24-106.63,17.11,3-2.52,14.1-17-2.92Z"/></g><g id="H1Flur03"><polygon class="cls-24" points="360.24 102.31 356.92 121.62 475.75 142.01 469.5 177.13 489.1 180.52 491.02 180.86 491.03 180.84 491.45 178.36 500.66 126.2 457.49 119 360.24 102.31"/><polygon class="cls-23" points="436.69 137.87 431.09 170.47 441.29 172.24 467.02 176.7 472.82 144.07 436.69 137.87"/></g><g id="H119"><g class="cls-25"><rect class="cls-26" x="444.33" y="356.92" width="71.12" height="41.51"/></g></g><g id="H117"><rect class="cls-24" x="323.79" y="356.92" width="88.76" height="41.51"/></g><g id="H116"><path class="cls-24" d="M230.2,398.35h0l.86.08h90.35V356.92H230.2Z"/></g><g id="H103"><polygon class="cls-24" points="563.33 171.78 495.06 171.78 493.06 183.09 493.05 183.11 493.05 185.22 493.05 215.73 563.33 215.73 563.33 171.78"/></g><g id="H104"><polygon class="cls-24" points="495.51 169.34 563.33 169.34 563.33 115.3 505.09 115.3 495.51 169.34"/></g><g id="H105"><g class="cls-25"><path class="cls-26" d="M503.54,110.46h8l2.39-3a7.47,7.47,0,0,0,1.89-4c0-5.27-3.3-7-5.27-7.53l-4-1.14.61-4.14L509,78.37,494.31,58.81l-25.59-4.4L445.36,70.73l-1.57,1.1L436.71,113l21.18,3.64,43.19,7.19Z"/></g></g><g id="H106"><polygon class="cls-24" points="434.37 112.62 441.44 71.46 352.31 56.14 345.35 97.32 434.37 112.62"/></g><g id="H107"><polygon class="cls-24" points="191.99 28.59 185.99 63.54 221.3 69.61 220.24 75.68 267.07 83.87 283.28 86.66 290.35 45.5 191.99 28.59"/></g><g id="H122"><g class="cls-25"><rect class="cls-26" x="444.75" y="292.88" width="90.02" height="38.78"/></g></g></g><g id="Grundriss-3" data-name="Grundriss"><g id="Treppe"><line class="cls-27" x1="300.3" y1="328.29" x2="321.2" y2="328.29"/><line class="cls-27" x1="300.3" y1="326.61" x2="321.2" y2="326.61"/><line class="cls-27" x1="300.3" y1="324.93" x2="321.2" y2="324.93"/><line class="cls-27" x1="300.3" y1="323.25" x2="321.2" y2="323.25"/><line class="cls-27" x1="300.3" y1="321.57" x2="321.2" y2="321.57"/><line class="cls-27" x1="300.3" y1="319.89" x2="321.2" y2="319.89"/><line class="cls-27" x1="300.3" y1="318.21" x2="321.2" y2="318.21"/><line class="cls-27" x1="300.3" y1="316.53" x2="321.2" y2="316.53"/><line class="cls-27" x1="300.3" y1="314.85" x2="321.2" y2="314.85"/><line class="cls-27" x1="300.3" y1="313.17" x2="321.2" y2="313.17"/><line class="cls-27" x1="310.77" y1="334.1" x2="310.77" y2="313.17"/><line class="cls-27" x1="325.65" y1="151.56" x2="322.38" y2="170.6"/><line class="cls-27" x1="323.99" y1="151.27" x2="320.72" y2="170.31"/><line class="cls-27" x1="322.34" y1="150.99" x2="319.06" y2="170.03"/><line class="cls-27" x1="320.68" y1="150.7" x2="317.41" y2="169.75"/><line class="cls-27" x1="319.03" y1="150.42" x2="315.75" y2="169.46"/><line class="cls-27" x1="317.37" y1="150.14" x2="314.1" y2="169.18"/><line class="cls-27" x1="330.62" y1="152.41" x2="327.34" y2="171.45"/><line class="cls-27" x1="328.96" y1="152.13" x2="325.69" y2="171.17"/><line class="cls-27" x1="327.3" y1="151.84" x2="324.03" y2="170.88"/><line class="cls-27" x1="332.17" y1="153.72" x2="349.08" y2="156.72"/><line class="cls-27" x1="332.81" y1="152.22" x2="349.37" y2="155.07"/><line class="cls-27" x1="333.09" y1="150.56" x2="349.65" y2="153.41"/><line class="cls-27" x1="333.38" y1="148.91" x2="349.93" y2="151.75"/><line class="cls-27" x1="333.66" y1="147.25" x2="350.22" y2="150.1"/><line class="cls-27" x1="333.95" y1="145.6" x2="350.5" y2="148.44"/><line class="cls-27" x1="334.23" y1="143.94" x2="350.79" y2="146.79"/><line class="cls-27" x1="319.77" y1="139.82" x2="301.94" y2="136.65"/><line class="cls-27" x1="319.54" y1="141.39" x2="301.69" y2="138.32"/><line class="cls-27" x1="319.25" y1="143.04" x2="301.41" y2="139.97"/><line class="cls-27" x1="318.97" y1="144.7" x2="301.12" y2="141.63"/><line class="cls-27" x1="318.68" y1="146.35" x2="300.84" y2="143.28"/><line class="cls-27" x1="318.4" y1="148.01" x2="300.55" y2="144.94"/><line class="cls-27" x1="318.12" y1="149.66" x2="300.27" y2="146.6"/><line class="cls-27" x1="325.65" y1="151.56" x2="322.38" y2="170.6"/><line class="cls-27" x1="323.99" y1="151.27" x2="320.72" y2="170.31"/><line class="cls-27" x1="322.34" y1="150.99" x2="319.06" y2="170.03"/><line class="cls-27" x1="320.68" y1="150.7" x2="317.41" y2="169.75"/><line class="cls-27" x1="319.03" y1="150.42" x2="315.75" y2="169.46"/><line class="cls-27" x1="317.37" y1="150.14" x2="314.1" y2="169.18"/><line class="cls-27" x1="330.62" y1="152.41" x2="327.34" y2="171.45"/><line class="cls-27" x1="328.96" y1="152.13" x2="325.69" y2="171.17"/><line class="cls-27" x1="327.3" y1="151.84" x2="324.03" y2="170.88"/><line class="cls-27" x1="332.17" y1="153.72" x2="349.08" y2="156.72"/><line class="cls-27" x1="332.81" y1="152.22" x2="349.37" y2="155.07"/><line class="cls-27" x1="333.09" y1="150.56" x2="349.65" y2="153.41"/><line class="cls-27" x1="333.38" y1="148.91" x2="349.93" y2="151.75"/><line class="cls-27" x1="333.66" y1="147.25" x2="350.22" y2="150.1"/><line class="cls-27" x1="333.95" y1="145.6" x2="350.5" y2="148.44"/><line class="cls-27" x1="334.23" y1="143.94" x2="350.79" y2="146.79"/><line class="cls-27" x1="334.51" y1="142.29" x2="351.07" y2="145.13"/><line class="cls-27" x1="319.54" y1="141.39" x2="301.69" y2="138.32"/><line class="cls-27" x1="319.25" y1="143.04" x2="301.41" y2="139.97"/><line class="cls-27" x1="318.97" y1="144.7" x2="301.12" y2="141.63"/><line class="cls-27" x1="318.68" y1="146.35" x2="300.84" y2="143.28"/><line class="cls-27" x1="318.4" y1="148.01" x2="300.55" y2="144.94"/><line class="cls-27" x1="318.12" y1="149.66" x2="300.27" y2="146.6"/><line class="cls-27" x1="317.97" y1="151.42" x2="300.13" y2="148.35"/></g><g id="H108_Kopie_Kopie" data-name="H108 Kopie Kopie"><polygon class="cls-28" points="253.26 83.87 217.48 77.61 218.54 71.55 185.58 65.89 175.43 124.98 226.26 133.72 230.21 134.4 230.21 134.4 243.84 136.84 253.26 83.87"/></g><g id="Wand"><rect class="cls-23" x="537.15" y="292.88" width="29.12" height="38.78"/><polygon class="cls-23" points="389.31 292.88 389.31 301.56 389.31 306.32 389.31 306.32 389.31 331.65 412.55 331.65 412.55 292.88 389.31 292.88"/><rect class="cls-23" x="414.93" y="292.88" width="27.44" height="38.78"/><rect class="cls-23" x="323.58" y="306.32" width="46.1" height="25.41"/><polygon class="cls-23" points="332.17 142.05 319.77 139.91 318.13 149.34 330.49 151.46 332.17 142.05"/><rect class="cls-23" x="414.93" y="356.92" width="27.02" height="41.51"/><polygon class="cls-23" points="541.21 398.43 541.49 398.43 541.49 356.92 517.83 356.92 517.83 398.43 541.21 398.43"/><polygon class="cls-23" points="275.21 144.89 230.21 136.81 230.21 185.91 275.21 185.91 275.21 144.89"/><rect class="cls-23" x="230.21" y="188.3" width="45" height="34.16"/><rect class="cls-23" x="230.2" y="319.76" width="45.01" height="34.78"/><rect class="cls-23" x="230.21" y="224.84" width="45" height="92.54"/><polygon class="cls-23" points="343.01 96.92 349.97 55.74 344.78 54.85 328.63 52.07 326.23 51.66 319.16 92.82 343.01 96.92"/><rect class="cls-23" x="283.87" y="53.34" width="41.76" height="31.64" transform="matrix(0.17, -0.99, 0.99, 0.17, 184.99, 357.8)"/><line class="cls-29" x1="277.59" y1="142.9" x2="230.21" y2="134.4"/><polygon class="cls-23" points="350.91 156.59 402.8 165.57 428.74 170.07 434.34 137.46 356.49 124.11 350.91 156.59"/><line class="cls-30" x1="277.59" y1="142.9" x2="230.21" y2="134.4"/><g id="Wand-2" data-name="Wand"><path class="cls-31" d="M537.15,288.12H384.55v13.44h-81.9v-131l41.73,7.39,7.07-16.39,136.84,23.7V220.5h79.8v-110h-50.4c1.35-1.69,2.94-4.27,2.94-7,0-7.48-4.72-11-8.74-12.12L514,77.1,497,54.44l-29.39-5-25,17.44L345.58,50.15l-16.14-2.77L188.11,23.1,169.93,128.87l55.52,9.54V403.2h4.76v-.06l.7.06h313V354.54H277.59V142.9l-31.4-5.64,9.42-53,11.06,1.94,91.22,15.67-9.33,54.29-1.48,3.45-5.58,12.93-38-6.73-3.21-.57V146.68l2.5-15-2.34-.39-2.54,15.22V332.92h2.38v-26.6H321.2v25.41H310.77v2.38h61.29V306.32h14.87V334H566.27V403.2H571V288.12ZM431.09,170.47l5.6-32.6,36.13,6.2L467,176.7Zm38.41,6.66L475.75,142l-38.63-6.63,3.31-19.31L457.49,119l43.17,7.19L491,180.86Zm93.83,38.6H493.05V183.11l2-11.33h68.27Zm0-100.51v54H495.51l9.58-54ZM443.79,71.83l1.57-1.1,23.36-16.32,25.59,4.4L509,78.37l-1.81,12.32-.61,4.14,4,1.14c2,.55,5.27,2.26,5.27,7.53a7.47,7.47,0,0,1-1.89,4l-2.39,3h-8l-2.46,13.39-43.19-7.19L436.71,113Zm74,285.09h23.66v41.51H517.83Zm-73.5,0h71.12v41.51H444.33Zm-29.4,0h27v41.51h-27Zm-91.14,0h88.76v41.51H323.79Zm-2.38,0v41.51H231.06l-.86-.08V356.92Zm-46.2-132.08v92.53h-45V224.84Zm-45-2.39V188.3h45v34.15Zm45,97.31v34.78h-45V319.76Zm0-174.87v41h-45v-49.1Zm-31.37-8-13.63-2.44-4-.68L175.43,125l10.15-59.09,33,5.66-1.06,6.06,35.78,6.26Zm23.23-53-46.83-8.19,1.06-6.07L186,63.54l6-34.94,98.36,16.9-7.07,41.15Zm18.56,3.19L292.7,45.9l31.18,5.36-7.07,41.16Zm33.53,5.76,7.07-41.16,2.4.41,16.15,2.78,5.19.89-7,41.18Zm26.19,4.5,7-41.18,89.13,15.32-7.07,41.16Zm14.89,5,77.85,13.38L434.77,135l-77.85-13.36Zm-3.75,21.82,77.85,13.35-5.6,32.61-77.83-13.48Zm13.19,207.62h-46.1V306.32h46.1Zm42.87-.08H389.31V292.88h23.24Zm29.82,0H414.93V292.88h27.44Zm92.4,0h-90V292.88h90Zm31.5,0H537.15V292.88h29.12Z"/><path class="cls-31" d="M317.83,137.06l-2.45,14.14,17,2.92,2.52-14.1Zm12.66,14.31-12.36-2.12,1.64-9.43,12.4,2.13Z"/><rect class="cls-31" x="480.34" y="106.63" width="5.46" height="5.46" transform="translate(672.66 -348.21) rotate(99.75)"/><rect class="cls-31" x="459.64" y="103.08" width="5.46" height="5.46" transform="matrix(-0.17, 0.99, -0.99, -0.17, 644.95, -331.97)"/><rect class="cls-31" x="273.51" y="127.35" width="5.46" height="5.46" transform="translate(451.21 -120.14) rotate(99.75)"/><rect class="cls-31" x="247.43" y="122.86" width="5.46" height="5.46" transform="translate(416.3 -99.68) rotate(99.75)"/></g></g><g id="Schatten"><polygon class="cls-32" points="395.61 314.72 395.61 309.95 395.61 301.28 412.55 301.28 412.55 292.88 389.31 292.88 389.31 301.56 389.31 306.32 389.31 331.65 395.61 331.65 395.61 314.72"/><polygon class="cls-32" points="329.88 314.72 369.68 314.72 369.68 306.32 323.58 306.32 323.58 331.73 329.88 331.73 329.88 314.72"/><polygon class="cls-32" points="465.52 116.44 459.22 108.03 464.6 108.96 465.53 103.58 471.83 111.98 470.9 117.36 465.52 116.44"/><polygon class="cls-32" points="486.22 119.99 479.92 111.59 485.3 112.52 486.22 107.14 492.52 115.53 491.6 120.92 486.22 119.99"/><polygon class="cls-32" points="279.38 140.7 273.08 132.3 278.46 133.23 279.39 127.85 285.69 136.25 284.76 141.63 279.38 140.7"/><polygon class="cls-32" points="300.27 165.25 304.67 166 304.67 147.35 307.23 137.59 302.77 131.65 300.27 146.68 300.27 165.25"/><polygon class="cls-32" points="386.93 334.03 393.23 342.43 566.27 342.43 566.27 334.03 386.93 334.03"/><polygon class="cls-32" points="543.87 398.42 543.87 403.19 543.87 403.28 550.17 403.28 550.17 362.93 543.87 354.53 543.87 398.42"/><polygon class="cls-32" points="277.59 354.53 283.89 354.53 283.89 151.29 277.59 142.89 277.59 354.53"/><polygon class="cls-32" points="372.06 306.31 372.06 334.1 310.77 334.1 317.07 342.5 378.36 342.5 378.36 314.71 386.93 314.71 386.93 306.31 386.86 306.31 372.06 306.31"/><polygon class="cls-32" points="357.89 101.88 266.67 86.21 255.61 84.27 247.84 127.97 247 127.82 247.7 128.75 246.19 137.25 253.74 138.61 254.14 136.37 258.69 137.15 259.61 131.77 255.85 126.75 261.91 92.67 272.97 94.61 356.67 108.99 357.89 101.88"/><polygon class="cls-32" points="358.62 64.54 440.22 78.56 441.44 71.46 352.31 56.14 345.35 97.32 352.86 98.61 358.62 64.54"/><path class="cls-32" d="M513.44,96l-6.87-1.16,6.3,8.4,2.93.83a3,3,0,0,0,.07-.56C515.87,100.64,514.64,97.14,513.44,96Z"/><polygon class="cls-32" points="450.09 80.23 451.65 79.13 475.02 62.81 500.61 67.21 508.99 78.38 508.99 78.37 494.31 58.81 468.72 54.41 445.36 70.73 443.79 71.83 436.71 113.02 444.23 114.31 450.09 80.23"/><polygon class="cls-32" points="499.35 193.62 499.35 191.51 499.36 191.49 501.36 180.18 563.33 180.18 563.33 171.78 495.06 171.78 493.06 183.09 493.05 183.11 493.05 185.22 493.05 215.73 499.35 215.73 499.35 193.62"/><polygon class="cls-32" points="511.39 123.62 563.33 123.62 563.33 115.22 505.09 115.22 495.51 169.25 503.3 169.25 511.39 123.62"/><polygon class="cls-32" points="543.45 301.28 566.27 301.28 566.27 292.88 537.15 292.88 537.15 331.65 543.45 331.65 543.45 301.28"/><polygon class="cls-32" points="330.09 365.32 412.55 365.32 412.55 356.92 323.79 356.92 323.79 398.43 330.09 398.43 330.09 365.32"/><polygon class="cls-32" points="421.23 301.28 442.37 301.28 442.37 292.88 414.93 292.88 414.93 331.65 421.23 331.65 421.23 301.28"/><g class="cls-33"><polygon points="450.63 365.32 515.45 365.32 515.45 356.92 444.33 356.92 444.33 398.43 450.63 398.43 450.63 365.32"/></g><polygon class="cls-32" points="421.23 365.32 441.95 365.32 441.95 356.92 414.93 356.92 414.93 398.43 421.23 398.43 421.23 365.32"/><polygon class="cls-32" points="524.13 365.32 541.49 365.32 541.49 356.92 517.83 356.92 517.83 398.43 524.13 398.43 524.13 365.32"/><polygon class="cls-32" points="451.05 301.28 534.77 301.28 534.77 292.88 444.75 292.88 444.75 331.65 451.05 331.65 451.05 301.28"/><polygon class="cls-32" points="236.51 196.7 275.21 196.7 275.21 188.3 230.21 188.3 230.21 222.46 236.51 222.46 236.51 196.7"/><polygon class="cls-32" points="236.5 328.16 275.21 328.16 275.21 319.76 230.2 319.76 230.2 354.54 236.5 354.54 236.5 328.16"/><polygon class="cls-32" points="236.51 233.24 275.21 233.24 275.21 224.84 230.21 224.84 230.21 317.38 236.5 317.38 236.51 233.24"/><line class="cls-32" x1="283.89" y1="151.3" x2="236.51" y2="142.8"/><path class="cls-32" d="M236.5,365.32h84.91v-8.4H230.2v41.43l.86.08h5.44Z"/><polygon class="cls-32" points="191.88 74.29 218.41 78.85 223.78 86.01 252 90.95 253.26 83.87 217.48 77.61 218.54 71.55 185.58 65.89 175.43 124.98 182.95 126.27 191.88 74.29"/><polygon class="cls-32" points="332.53 60.06 334.93 60.47 348.77 62.85 349.97 55.74 344.78 54.85 328.63 52.07 326.23 51.66 319.16 92.82 326.68 94.11 332.53 60.06"/><polygon class="cls-32" points="198.29 36.99 289.13 52.6 290.35 45.5 191.99 28.59 185.99 63.54 193.51 64.84 198.29 36.99"/><polygon class="cls-32" points="299 54.3 322.66 58.37 323.88 51.26 292.7 45.9 285.63 87.06 293.15 88.35 299 54.3"/><polygon class="cls-32" points="362.79 132.51 433.12 144.57 434.34 137.46 356.49 124.11 350.91 156.59 358.43 157.89 362.79 132.51"/><g class="cls-33"><polygon points="366.54 110.71 463.79 127.41 499.4 133.34 500.66 126.2 457.49 119 360.24 102.31 356.92 121.62 364.44 122.91 366.54 110.71"/><polygon points="482.05 150.41 475.75 142.01 469.5 177.13 477.06 178.44 482.05 150.41"/></g><polygon class="cls-32" points="442.99 146.27 471.56 151.17 472.82 144.07 436.69 137.87 431.09 170.47 438.61 171.78 442.99 146.27"/><polygon class="cls-32" points="236.51 145.21 275.21 152.16 275.21 144.89 230.21 136.81 230.21 185.91 236.51 185.91 236.51 145.21"/><g class="cls-33"><polygon points="315.25 187.31 356.98 194.71 364.05 178.31 488.29 199.83 488.29 185.22 351.45 161.51 344.38 177.91 302.65 170.51 302.65 301.56 315.25 301.56 315.25 187.31"/><polygon points="580.69 127.25 568.09 110.45 568.09 220.5 488.29 220.5 500.89 237.29 580.69 237.29 580.69 127.25"/><path d="M514,77.11l-2.1,14.27c4,1.13,8.74,4.64,8.74,12.12,0,2.69-1.59,5.27-2.94,7h11.22a12.46,12.46,0,0,0-4.42-2.28l2.1-14.28Z"/><path d="M571,288.12V403.2H225.44L238,420H583.63V304.92Z"/><polygon points="225.45 138.41 169.93 128.87 182.53 145.67 225.45 153.04 225.45 138.41"/></g><polygon class="cls-32" points="304.19 306.35 300.27 306.35 300.27 332.91 297.89 332.91 304.19 341.31 306.57 341.31 306.57 328.29 303.52 313.17 303.52 310.55 321.03 310.55 321.03 306.35 304.19 306.35"/></g><g id="Marker-3" data-name="Marker"><rect class="cls-4" x="292.11" y="109.45" width="18" height="18"/><text class="cls-34" transform="translate(296.21 122.87)">G</text><rect class="cls-2" x="460.89" y="368.68" width="18" height="18"/><text class="cls-34" transform="translate(465.98 382.1)">4</text><rect class="cls-2" x="480.89" y="368.68" width="18" height="18"/><text class="cls-34" transform="translate(485.96 382.1)">6</text><rect class="cls-5" x="340.68" y="368.68" width="18" height="18"/><text class="cls-34" transform="translate(345.75 382.1)">6</text><rect class="cls-3" x="360.68" y="368.68" width="18" height="18"/><text class="cls-34" transform="translate(365.75 382.1)">6</text><rect class="cls-6" x="380.68" y="368.68" width="18" height="18"/><text class="cls-34" transform="translate(385.75 382.1)">6</text><rect class="cls-5" x="246.4" y="368.68" width="18" height="18"/><text class="cls-34" transform="translate(251.49 382.1)">4</text><rect class="cls-3" x="266.4" y="368.68" width="18" height="18"/><text class="cls-34" transform="translate(271.49 382.1)">4</text><rect class="cls-6" x="286.4" y="368.68" width="18" height="18"/><text class="cls-34" transform="translate(291.49 382.1)">4</text><rect class="cls-3" x="520.19" y="184.75" width="18" height="18"/><text class="cls-34" transform="translate(525.26 198.18)">6</text><rect class="cls-3" x="520.19" y="133.32" width="18" height="18"/><text class="cls-34" transform="translate(525.28 146.75)">4</text><rect class="cls-3" x="374.34" y="75.38" width="18" height="18"/><text class="cls-34" transform="translate(380.78 88.8)">1</text><rect class="cls-3" x="394.34" y="75.38" width="18" height="18"/><text class="cls-34" transform="translate(399.56 88.8)">2</text><rect class="cls-5" x="220.32" y="47.62" width="18" height="18"/><text class="cls-34" transform="translate(226.76 61.05)">1</text><rect class="cls-5" x="240.32" y="47.62" width="18" height="18"/><text class="cls-34" transform="translate(245.54 61.05)">2</text></g></g></g></g></svg>