<svg xmlns="http://www.w3.org/2000/svg" viewBox="0 0 600 430"><defs><style>.cls-1,.cls-14,.cls-9{fill:#fff;}.cls-1{opacity:0.95;}.cls-2{fill:#009bf5;}.cls-3{fill:#ff6400;}.cls-4{fill:#232323;}.cls-5{fill:#7dc300;}.cls-6{fill:#463ca0;}.cls-7{fill:#b40097;}.cls-8{fill:#1d1d1b;}.cls-10{fill:#b3b3b3;}.cls-10,.cls-11{opacity:0.65;}.cls-12{fill:#737373;}.cls-13,.cls-15{fill:none;}.cls-13{stroke:#666;stroke-miterlimit:10;stroke-width:0.3px;}.cls-14{opacity:0.6;}.cls-16{opacity:0.08;}.cls-17{fill:#595959;}.cls-18,.cls-19{opacity:0.1;}</style></defs><title>Zeichenfläche 27</title><g id="Klein"><g id="H1"><g id="H1Hintergurnd"><rect class="cls-1" width="600" height="430"/><rect class="cls-2" x="21.91" y="219.77" width="20" height="10"/><rect class="cls-3" x="21.91" y="239.77" width="20" height="10"/><rect class="cls-4" x="21.91" y="199.77" width="20" height="10"/><rect class="cls-5" x="21.91" y="259.77" width="20" height="10"/><rect class="cls-6" x="21.91" y="279.77" width="20" height="10"/><rect class="cls-7" x="21.91" y="299.77" width="20" height="10"/><path class="cls-8" d="M52.27,204.63c0,2.23.95,3.48,2.66,3.48a2.33,2.33,0,0,0,2.54-2.57v-.12H55v-.9h3.43v4.25h-.89v-1.21h0a2.83,2.83,0,0,1-2.63,1.38c-2.12,0-3.7-1.38-3.7-4.34,0-2.75,1.66-4.37,3.84-4.37,1.72,0,3,.87,3.18,2.35H57.15A2,2,0,0,0,55,201C53.21,201,52.27,202.47,52.27,204.63Z"/><path class="cls-8" d="M60.59,203h.93v1.09h0a2.08,2.08,0,0,1,1.83-1.2h.1v1H63.3a1.58,1.58,0,0,0-1.72,1.72v3.16h-1Z"/><path class="cls-8" d="M65.79,206.53a2.09,2.09,0,0,0,.21,1.18,1.07,1.07,0,0,0,.89.39c1.08,0,1.59-.72,1.59-2V203h1v5.8h-1v-1h0a2,2,0,0,1-1.83,1.13,1.68,1.68,0,0,1-1.86-1.9v-4h1Z"/><path class="cls-8" d="M75.21,205.19A2,2,0,0,0,75,204a1.06,1.06,0,0,0-.91-.39,1.47,1.47,0,0,0-1.58,1.64v3.48h-1V203h.94v1h0a2,2,0,0,1,1.87-1.12,1.66,1.66,0,0,1,1.85,1.9v4h-1Z"/><path class="cls-8" d="M82.86,208.77h-.94v-1h0a2.07,2.07,0,0,1-1.83,1.1c-1.23,0-2.37-.77-2.37-3,0-2,1-3.08,2.5-3.08a1.73,1.73,0,0,1,1.66,1h0V200.1h1Zm-1-3.13c0-1.23-.65-2-1.58-2-1.11,0-1.61.88-1.61,2.24s.38,2.27,1.54,2.27a1.69,1.69,0,0,0,1.65-1.87Z"/><path class="cls-8" d="M84.93,200.1h1v8.67h-1Z"/><path class="cls-8" d="M87.7,204.55c0-1,.81-1.72,2.19-1.72S92,203.43,92,205v2.37c0,.46.1.65.53.66v.8h-.12c-.93,0-1.24-.33-1.34-1h0a1.94,1.94,0,0,1-1.86,1.08,1.61,1.61,0,0,1-1.83-1.67,1.54,1.54,0,0,1,.87-1.46,6.73,6.73,0,0,1,2.8-.47V205c0-1-.4-1.45-1.21-1.45a1.05,1.05,0,0,0-1.21,1Zm3.37,1.59V206a4.8,4.8,0,0,0-2.34.42.85.85,0,0,0-.32.72c0,.59.38.91,1,.91A1.68,1.68,0,0,0,91.07,206.14Z"/><path class="cls-8" d="M93.69,209.35h1c.11.49.48.81,1.43.81,1.1,0,1.65-.4,1.65-1.68v-.86h0a2.06,2.06,0,0,1-1.84,1.07c-1.21,0-2.33-.76-2.33-2.9,0-1.92,1-3,2.45-3a1.83,1.83,0,0,1,1.74,1h0V203h.94v5.65c0,1.63-1.06,2.34-2.64,2.34C95,211,93.82,210.55,93.69,209.35Zm4.06-3.8a1.71,1.71,0,0,0-1.65-1.94c-1,0-1.54.87-1.54,2.18s.36,2.15,1.58,2.15a1.68,1.68,0,0,0,1.61-1.8Z"/><path class="cls-8" d="M102.86,208.91c-1.77,0-2.62-1.29-2.62-3s.93-3.06,2.59-3.06,2.42,1.34,2.42,2.8v.51h-4c.06,1.2.55,2,1.64,2a1.2,1.2,0,0,0,1.32-.9h1A2.16,2.16,0,0,1,102.86,208.91Zm1.38-3.62c0-1-.41-1.72-1.42-1.72s-1.43.73-1.55,1.79h3Z"/><path class="cls-8" d="M110.44,205.19a2,2,0,0,0-.21-1.15,1.06,1.06,0,0,0-.91-.39,1.46,1.46,0,0,0-1.57,1.64v3.48h-1V203h.93v1h0a2,2,0,0,1,1.87-1.12,1.66,1.66,0,0,1,1.85,1.9v4h-1Z"/><path class="cls-8" d="M52.61,225.55v3.22h-1v-8.42h2.53c1.63,0,2.9.77,2.9,2.59s-1.26,2.61-3,2.61Zm1.42-.82c1.23,0,1.93-.6,1.93-1.79s-.7-1.76-1.89-1.76H52.61v3.55Z"/><path class="cls-8" d="M58.07,223H59v1.09h0a2.08,2.08,0,0,1,1.83-1.2H61v1h-.18a1.58,1.58,0,0,0-1.72,1.72v3.16h-1Z"/><path class="cls-8" d="M61.74,225.86c0-1.79,1-3,2.61-3s2.59,1.24,2.59,3-1,3-2.61,3S61.74,227.68,61.74,225.86Zm1,0c0,1.42.47,2.28,1.59,2.28s1.55-.86,1.55-2.28-.46-2.28-1.57-2.28S62.77,224.45,62.77,225.86Z"/><path class="cls-8" d="M73.26,228.77h-.94v-1h0a2,2,0,0,1-1.82,1.1c-1.23,0-2.37-.77-2.37-3,0-2,1-3.08,2.5-3.08a1.73,1.73,0,0,1,1.66,1h0V220.1h1Zm-1-3.13c0-1.23-.64-2-1.57-2-1.11,0-1.62.88-1.62,2.24s.39,2.27,1.54,2.27a1.69,1.69,0,0,0,1.65-1.87Z"/><path class="cls-8" d="M76.29,226.53a2.09,2.09,0,0,0,.21,1.18,1,1,0,0,0,.89.39c1.08,0,1.58-.72,1.58-2V223h1v5.8H79v-1h0a2,2,0,0,1-1.82,1.13,1.68,1.68,0,0,1-1.86-1.9v-4h1Z"/><path class="cls-8" d="M83,228.77H82V220.1h1v5.66L85.43,223h1.15l-1.93,2.18,2.17,3.62H85.67L84,225.91,83,227Z"/><path class="cls-8" d="M89.38,221.29V223h1.43v.76H89.38v3.42c0,.62.25.86.88.86a4.52,4.52,0,0,0,.64-.06v.84a7.08,7.08,0,0,1-.92.06c-1.13,0-1.58-.55-1.58-1.54v-3.58H87.34V223h.18c.78,0,1-.19,1-1.3v-.41Z"/><path class="cls-8" d="M91.88,229.35h1c.11.49.49.81,1.43.81,1.1,0,1.65-.4,1.65-1.68v-.86h0a2.09,2.09,0,0,1-1.85,1.07c-1.21,0-2.32-.76-2.32-2.9,0-1.92,1-3,2.44-3a1.81,1.81,0,0,1,1.74,1h0V223h1v5.65c0,1.63-1.07,2.34-2.64,2.34C93.15,231,92,230.55,91.88,229.35Zm4.06-3.8a1.71,1.71,0,0,0-1.65-1.94c-1,0-1.54.87-1.54,2.18s.37,2.15,1.59,2.15a1.68,1.68,0,0,0,1.6-1.8Z"/><path class="cls-8" d="M101.06,228.91c-1.77,0-2.62-1.29-2.62-3s.92-3.06,2.59-3.06,2.42,1.34,2.42,2.8v.51h-4c.07,1.2.55,2,1.64,2a1.2,1.2,0,0,0,1.32-.9h1A2.17,2.17,0,0,1,101.06,228.91Zm1.37-3.62c0-1-.4-1.72-1.41-1.72s-1.44.73-1.56,1.79h3Z"/><path class="cls-8" d="M107.87,224.42c-.06-.52-.47-.85-1.16-.85a1,1,0,0,0-1.13.94c0,.47.29.69.87.79l.89.13c1.21.19,1.65.69,1.65,1.69,0,1.16-.95,1.79-2.27,1.79s-2.19-.54-2.26-1.78h1c0,.45.29,1,1.32,1,.79,0,1.28-.37,1.28-1,0-.46-.12-.71-.91-.85l-.89-.13c-1-.16-1.59-.59-1.59-1.6s.79-1.76,2.11-1.76,2,.58,2.06,1.59Z"/><path class="cls-8" d="M111.76,221.29V223h1.43v.76h-1.43v3.42c0,.62.25.86.88.86a4.33,4.33,0,0,0,.64-.06v.84a7,7,0,0,1-.91.06c-1.14,0-1.59-.55-1.59-1.54v-3.58h-1V223h.17c.78,0,1-.19,1-1.3v-.41Z"/><path class="cls-8" d="M114.75,224.55c0-1,.81-1.72,2.19-1.72s2.15.6,2.15,2.15v2.37c0,.46.1.65.53.66v.8h-.13c-.92,0-1.23-.33-1.33-1h0a1.94,1.94,0,0,1-1.86,1.08,1.62,1.62,0,0,1-1.84-1.67,1.55,1.55,0,0,1,.87-1.46,6.82,6.82,0,0,1,2.81-.47V225c0-1-.4-1.45-1.21-1.45a1.05,1.05,0,0,0-1.21,1Zm3.37,1.59V226a4.8,4.8,0,0,0-2.34.42.85.85,0,0,0-.32.72c0,.59.38.91,1,.91A1.68,1.68,0,0,0,118.12,226.14Z"/><path class="cls-8" d="M121.06,220.1h1v8.67h-1Z"/><path class="cls-8" d="M125.32,221.29V223h1.43v.76h-1.43v3.42c0,.62.26.86.88.86a4.33,4.33,0,0,0,.64-.06v.84a6.82,6.82,0,0,1-.91.06c-1.13,0-1.58-.55-1.58-1.54v-3.58h-1.06V223h.18c.78,0,1-.19,1-1.3v-.41Z"/><path class="cls-8" d="M129.11,226.53a2.09,2.09,0,0,0,.21,1.18,1.06,1.06,0,0,0,.89.39c1.08,0,1.58-.72,1.58-2V223h1v5.8h-.94v-1h0a2,2,0,0,1-1.82,1.13,1.68,1.68,0,0,1-1.86-1.9v-4h1Z"/><path class="cls-8" d="M138.52,225.19a2,2,0,0,0-.21-1.15,1,1,0,0,0-.91-.39,1.46,1.46,0,0,0-1.57,1.64v3.48h-1V223h.93v1h0a2,2,0,0,1,1.87-1.12,1.65,1.65,0,0,1,1.84,1.9v4h-1Z"/><path class="cls-8" d="M141.15,229.35h1c.11.49.48.81,1.43.81,1.1,0,1.65-.4,1.65-1.68v-.86h0a2.09,2.09,0,0,1-1.85,1.07c-1.21,0-2.32-.76-2.32-2.9,0-1.92,1-3,2.44-3a1.81,1.81,0,0,1,1.74,1h0V223h.95v5.65c0,1.63-1.07,2.34-2.64,2.34C142.42,231,141.28,230.55,141.15,229.35Zm4.06-3.8a1.71,1.71,0,0,0-1.65-1.94c-1,0-1.54.87-1.54,2.18s.36,2.15,1.59,2.15a1.68,1.68,0,0,0,1.6-1.8Z"/><path class="cls-8" d="M52.61,248.77h-1v-8.42h1v4.32l3.94-4.32h1.24l-3.24,3.53L58,248.77H56.78l-2.93-4.12L52.61,246Z"/><path class="cls-8" d="M58.71,245.86c0-1.79,1-3,2.61-3s2.58,1.24,2.58,3-1,3-2.61,3S58.71,247.68,58.71,245.86Zm1,0c0,1.42.48,2.28,1.6,2.28s1.55-.86,1.55-2.28-.46-2.28-1.57-2.28S59.73,244.45,59.73,245.86Z"/><path class="cls-8" d="M65.46,243h.94v1h0a2,2,0,0,1,1.86-1.12A1.63,1.63,0,0,1,70,244h0a2,2,0,0,1,1.89-1.19,1.66,1.66,0,0,1,1.84,1.9v4h-1v-3.59a2.05,2.05,0,0,0-.21-1.16,1,1,0,0,0-.9-.37,1.46,1.46,0,0,0-1.56,1.64v3.48h-1v-3.59a2,2,0,0,0-.21-1.14,1,1,0,0,0-.9-.39,1.46,1.46,0,0,0-1.57,1.62v3.5h-1Z"/><path class="cls-8" d="M75.79,243h.94v1h0a2,2,0,0,1,1.86-1.12A1.63,1.63,0,0,1,80.36,244h0a2,2,0,0,1,1.89-1.19,1.66,1.66,0,0,1,1.84,1.9v4h-1v-3.59a2.05,2.05,0,0,0-.21-1.16,1,1,0,0,0-.9-.37,1.46,1.46,0,0,0-1.57,1.64v3.48h-1v-3.59a2.05,2.05,0,0,0-.2-1.14,1,1,0,0,0-.91-.39,1.46,1.46,0,0,0-1.56,1.62v3.5h-1Z"/><path class="cls-8" d="M87.08,246.53a2.09,2.09,0,0,0,.21,1.18,1,1,0,0,0,.89.39c1.08,0,1.58-.72,1.58-2V243h1v5.8h-.94v-1h0A2,2,0,0,1,88,248.91,1.68,1.68,0,0,1,86.1,247v-4h1Z"/><path class="cls-8" d="M96.49,245.19a2,2,0,0,0-.21-1.15,1,1,0,0,0-.91-.39,1.46,1.46,0,0,0-1.57,1.64v3.48h-1V243h.93v1h0a2,2,0,0,1,1.87-1.12,1.65,1.65,0,0,1,1.84,1.9v4h-1Z"/><path class="cls-8" d="M99.47,240.58h1v1.07h-1Zm0,2.39h1v5.8h-1Z"/><path class="cls-8" d="M103.56,248.77h-1V240.1h1v5.66L106,243h1.15l-1.94,2.18,2.18,3.62h-1.15l-1.7-2.86-1,1.08Z"/><path class="cls-8" d="M108.43,244.55c0-1,.8-1.72,2.19-1.72s2.14.6,2.14,2.15v2.37c0,.46.1.65.53.66v.8h-.12c-.92,0-1.23-.33-1.33-1h0a2,2,0,0,1-1.86,1.08,1.62,1.62,0,0,1-1.84-1.67,1.55,1.55,0,0,1,.87-1.46,6.77,6.77,0,0,1,2.8-.47V245c0-1-.39-1.45-1.21-1.45a1.07,1.07,0,0,0-1.21,1Zm3.36,1.59V246a4.8,4.8,0,0,0-2.34.42.85.85,0,0,0-.32.72c0,.59.39.91,1,.91A1.68,1.68,0,0,0,111.79,246.14Z"/><path class="cls-8" d="M116,241.29V243h1.43v.76H116v3.42c0,.62.26.86.88.86a4.33,4.33,0,0,0,.64-.06v.84a7,7,0,0,1-.91.06c-1.14,0-1.59-.55-1.59-1.54v-3.58h-1V243h.17c.78,0,1-.19,1-1.3v-.41Z"/><path class="cls-8" d="M118.81,240.58h1v1.07h-1Zm0,2.39h1v5.8h-1Z"/><path class="cls-8" d="M121.39,245.86c0-1.79,1-3,2.6-3s2.59,1.24,2.59,3-1,3-2.61,3S121.39,247.68,121.39,245.86Zm1,0c0,1.42.47,2.28,1.59,2.28s1.56-.86,1.56-2.28-.47-2.28-1.58-2.28S122.41,244.45,122.41,245.86Z"/><path class="cls-8" d="M131.83,245.19a2,2,0,0,0-.21-1.15,1.06,1.06,0,0,0-.92-.39,1.47,1.47,0,0,0-1.57,1.64v3.48h-1V243h.94v1h0a2,2,0,0,1,1.87-1.12,1.66,1.66,0,0,1,1.85,1.9v4h-1Z"/><path class="cls-8" d="M137.69,244.42c-.06-.52-.47-.85-1.16-.85a1,1,0,0,0-1.13.94c0,.47.29.69.87.79l.89.13c1.21.19,1.65.69,1.65,1.69,0,1.16-.95,1.79-2.27,1.79s-2.18-.54-2.26-1.78h1c0,.45.29,1,1.32,1,.79,0,1.28-.37,1.28-1,0-.46-.12-.71-.91-.85l-.89-.13c-1-.16-1.59-.59-1.59-1.6s.79-1.76,2.11-1.76,2,.58,2.06,1.59Z"/><path class="cls-8" d="M140,249.35h1c.11.49.48.81,1.43.81s1.65-.4,1.65-1.68v-.86h0a2.09,2.09,0,0,1-1.85,1.07c-1.21,0-2.32-.76-2.32-2.9,0-1.92,1-3,2.44-3a1.81,1.81,0,0,1,1.74,1h0V243h1v5.65c0,1.63-1.07,2.34-2.64,2.34C141.31,251,140.17,250.55,140,249.35Zm4.06-3.8a1.71,1.71,0,0,0-1.65-1.94c-1,0-1.54.87-1.54,2.18s.36,2.15,1.58,2.15a1.68,1.68,0,0,0,1.61-1.8Z"/><path class="cls-8" d="M149.22,248.91c-1.78,0-2.62-1.29-2.62-3s.92-3.06,2.58-3.06,2.42,1.34,2.42,2.8v.51h-4c.07,1.2.55,2,1.64,2a1.2,1.2,0,0,0,1.32-.9h1A2.17,2.17,0,0,1,149.22,248.91Zm1.37-3.62c0-1-.41-1.72-1.42-1.72s-1.43.73-1.55,1.79h3Z"/><path class="cls-8" d="M156,244.42c-.05-.52-.47-.85-1.15-.85a1,1,0,0,0-1.13.94c0,.47.28.69.87.79l.89.13c1.21.19,1.65.69,1.65,1.69,0,1.16-1,1.79-2.27,1.79s-2.19-.54-2.27-1.78h1c0,.45.3,1,1.32,1,.79,0,1.29-.37,1.29-1,0-.46-.12-.71-.91-.85l-.89-.13c-1-.16-1.59-.59-1.59-1.6s.78-1.76,2.1-1.76,2,.58,2.07,1.59Z"/><path class="cls-8" d="M159.92,241.29V243h1.43v.76h-1.43v3.42c0,.62.25.86.88.86a4.33,4.33,0,0,0,.64-.06v.84a7.08,7.08,0,0,1-.92.06c-1.13,0-1.58-.55-1.58-1.54v-3.58h-1.06V243h.18c.78,0,1-.19,1-1.3v-.41Z"/><path class="cls-8" d="M162.91,244.55c0-1,.8-1.72,2.19-1.72s2.14.6,2.14,2.15v2.37c0,.46.1.65.53.66v.8h-.12c-.92,0-1.23-.33-1.33-1h0a1.94,1.94,0,0,1-1.86,1.08,1.62,1.62,0,0,1-1.84-1.67,1.55,1.55,0,0,1,.87-1.46,6.82,6.82,0,0,1,2.81-.47V245c0-1-.4-1.45-1.21-1.45a1.05,1.05,0,0,0-1.21,1Zm3.37,1.59V246a4.85,4.85,0,0,0-2.35.42.85.85,0,0,0-.32.72c0,.59.39.91,1,.91A1.69,1.69,0,0,0,166.28,246.14Z"/><path class="cls-8" d="M169.21,240.1h1v8.67h-1Z"/><path class="cls-8" d="M173.48,241.29V243h1.43v.76h-1.43v3.42c0,.62.25.86.88.86A4.33,4.33,0,0,0,175,248v.84a7,7,0,0,1-.91.06c-1.14,0-1.59-.55-1.59-1.54v-3.58h-1.05V243h.17c.78,0,1-.19,1-1.3v-.41Z"/><path class="cls-8" d="M177.27,246.53a2.18,2.18,0,0,0,.2,1.18,1.08,1.08,0,0,0,.9.39c1.07,0,1.58-.72,1.58-2V243h1v5.8H180v-1h0a2,2,0,0,1-1.82,1.13,1.67,1.67,0,0,1-1.86-1.9v-4h1Z"/><path class="cls-8" d="M186.68,245.19a2,2,0,0,0-.21-1.15,1.06,1.06,0,0,0-.91-.39,1.46,1.46,0,0,0-1.57,1.64v3.48h-1V243h.93v1h0a2,2,0,0,1,1.87-1.12,1.66,1.66,0,0,1,1.85,1.9v4h-1Z"/><path class="cls-8" d="M189.31,249.35h1c.11.49.48.81,1.43.81,1.1,0,1.65-.4,1.65-1.68v-.86h0a2.09,2.09,0,0,1-1.85,1.07c-1.21,0-2.32-.76-2.32-2.9,0-1.92,1-3,2.44-3a1.82,1.82,0,0,1,1.74,1h0V243h.94v5.65c0,1.63-1.06,2.34-2.64,2.34C190.57,251,189.44,250.55,189.31,249.35Zm4.06-3.8a1.71,1.71,0,0,0-1.65-1.94c-1.05,0-1.54.87-1.54,2.18s.36,2.15,1.58,2.15a1.68,1.68,0,0,0,1.61-1.8Z"/><path class="cls-8" d="M51.59,260.35h1v8.42h-1Z"/><path class="cls-8" d="M58.49,265.19a2,2,0,0,0-.21-1.15,1.06,1.06,0,0,0-.91-.39,1.47,1.47,0,0,0-1.58,1.64v3.48h-1V263h.94v1h0a2,2,0,0,1,1.87-1.12,1.66,1.66,0,0,1,1.85,1.9v4h-1Z"/><path class="cls-8" d="M62.71,261.29V263h1.43v.76H62.71v3.42c0,.62.26.86.88.86a4.33,4.33,0,0,0,.64-.06v.84a7,7,0,0,1-.91.06c-1.13,0-1.59-.55-1.59-1.54v-3.58h-1V263h.17c.78,0,1-.19,1-1.3v-.41Z"/><path class="cls-8" d="M67.7,268.91c-1.78,0-2.62-1.29-2.62-3s.92-3.06,2.58-3.06,2.42,1.34,2.42,2.8v.51h-4c.07,1.2.55,2,1.64,2a1.2,1.2,0,0,0,1.32-.9h1A2.17,2.17,0,0,1,67.7,268.91Zm1.37-3.62c0-1-.41-1.72-1.42-1.72s-1.43.73-1.55,1.79h3Z"/><path class="cls-8" d="M71.59,263h.93v1.09h0a2.08,2.08,0,0,1,1.83-1.2h.1v1H74.3a1.58,1.58,0,0,0-1.72,1.72v3.16h-1Z"/><path class="cls-8" d="M75.56,264.55c0-1,.8-1.72,2.19-1.72s2.15.6,2.15,2.15v2.37c0,.46.09.65.52.66v.8H80.3c-.92,0-1.23-.33-1.33-1h0a1.94,1.94,0,0,1-1.86,1.08,1.62,1.62,0,0,1-1.84-1.67,1.55,1.55,0,0,1,.87-1.46,6.82,6.82,0,0,1,2.81-.47V265c0-1-.4-1.45-1.21-1.45a1.05,1.05,0,0,0-1.21,1Zm3.37,1.59V266a4.85,4.85,0,0,0-2.35.42.84.84,0,0,0-.31.72c0,.59.38.91,1,.91A1.69,1.69,0,0,0,78.93,266.14Z"/><path class="cls-8" d="M82.85,268.77h-1V260.1h1v5.66L85.27,263h1.16l-1.94,2.18,2.18,3.62H85.52l-1.7-2.86-1,1.08Z"/><path class="cls-8" d="M89.22,261.29V263h1.43v.76H89.22v3.42c0,.62.26.86.88.86a4.33,4.33,0,0,0,.64-.06v.84a7,7,0,0,1-.91.06c-1.14,0-1.59-.55-1.59-1.54v-3.58h-1V263h.17c.78,0,1-.19,1-1.3v-.41Z"/><path class="cls-8" d="M92.08,260.58h1v1.07h-1Zm0,2.39h1v5.8h-1Z"/><path class="cls-8" d="M94.66,265.86c0-1.79,1-3,2.6-3s2.59,1.24,2.59,3-1,3.05-2.61,3.05S94.66,267.68,94.66,265.86Zm1,0c0,1.42.47,2.28,1.59,2.28s1.56-.86,1.56-2.28-.47-2.28-1.58-2.28S95.68,264.45,95.68,265.86Z"/><path class="cls-8" d="M105.1,265.19a2,2,0,0,0-.21-1.15,1.06,1.06,0,0,0-.92-.39,1.47,1.47,0,0,0-1.57,1.64v3.48h-1V263h.94v1h0a2,2,0,0,1,1.87-1.12,1.66,1.66,0,0,1,1.85,1.9v4h-1Z"/><path class="cls-8" d="M111,264.42c-.06-.52-.47-.85-1.16-.85a1,1,0,0,0-1.13.94c0,.47.29.69.87.79l.89.13c1.21.19,1.65.69,1.65,1.69,0,1.16-1,1.79-2.27,1.79s-2.18-.54-2.26-1.78h1c0,.45.29,1,1.32,1,.79,0,1.28-.37,1.28-1s-.12-.71-.91-.85l-.89-.13c-1-.16-1.59-.59-1.59-1.6s.79-1.76,2.11-1.76,2,.58,2.06,1.59Z"/><path class="cls-8" d="M113.31,269.35h1c.11.49.48.81,1.43.81s1.65-.4,1.65-1.68v-.86h0a2.09,2.09,0,0,1-1.85,1.07c-1.21,0-2.32-.76-2.32-2.9,0-1.92,1-3,2.44-3a1.81,1.81,0,0,1,1.74,1.05h0V263h.95v5.65c0,1.63-1.07,2.34-2.64,2.34C114.58,271,113.44,270.55,113.31,269.35Zm4.06-3.8a1.71,1.71,0,0,0-1.65-1.94c-1,0-1.54.87-1.54,2.18s.36,2.15,1.59,2.15a1.68,1.68,0,0,0,1.6-1.8Z"/><path class="cls-8" d="M122.49,268.91c-1.78,0-2.62-1.29-2.62-3s.92-3.06,2.58-3.06,2.42,1.34,2.42,2.8v.51h-4c.07,1.2.55,2,1.64,2a1.2,1.2,0,0,0,1.32-.9h1A2.17,2.17,0,0,1,122.49,268.91Zm1.37-3.62c0-1-.41-1.72-1.42-1.72s-1.43.73-1.55,1.79h3Z"/><path class="cls-8" d="M129.29,264.42c0-.52-.47-.85-1.15-.85a1,1,0,0,0-1.13.94c0,.47.28.69.87.79l.89.13c1.21.19,1.65.69,1.65,1.69,0,1.16-.95,1.79-2.27,1.79s-2.19-.54-2.27-1.78h1c.05.45.3,1,1.32,1,.79,0,1.29-.37,1.29-1s-.12-.71-.91-.85l-.9-.13c-1-.16-1.58-.59-1.58-1.6s.78-1.76,2.1-1.76,2,.58,2.07,1.59Z"/><path class="cls-8" d="M133.19,261.29V263h1.43v.76h-1.43v3.42c0,.62.25.86.88.86a4.33,4.33,0,0,0,.64-.06v.84a7.08,7.08,0,0,1-.92.06c-1.13,0-1.58-.55-1.58-1.54v-3.58h-1.06V263h.18c.78,0,1-.19,1-1.3v-.41Z"/><path class="cls-8" d="M136.18,264.55c0-1,.8-1.72,2.19-1.72s2.14.6,2.14,2.15v2.37c0,.46.1.65.53.66v.8h-.12c-.92,0-1.23-.33-1.33-1h0a1.94,1.94,0,0,1-1.86,1.08,1.62,1.62,0,0,1-1.84-1.67,1.55,1.55,0,0,1,.87-1.46,6.82,6.82,0,0,1,2.81-.47V265c0-1-.4-1.45-1.21-1.45a1.05,1.05,0,0,0-1.21,1Zm3.37,1.59V266a4.85,4.85,0,0,0-2.35.42.85.85,0,0,0-.32.72c0,.59.39.91,1,.91A1.69,1.69,0,0,0,139.55,266.14Z"/><path class="cls-8" d="M142.48,260.1h1v8.67h-1Z"/><path class="cls-8" d="M146.75,261.29V263h1.43v.76h-1.43v3.42c0,.62.25.86.88.86a4.33,4.33,0,0,0,.64-.06v.84a7,7,0,0,1-.91.06c-1.14,0-1.59-.55-1.59-1.54v-3.58h-1.05V263h.17c.78,0,1-.19,1-1.3v-.41Z"/><path class="cls-8" d="M150.53,266.53a2.09,2.09,0,0,0,.21,1.18,1.08,1.08,0,0,0,.9.39c1.07,0,1.58-.72,1.58-2V263h1v5.8h-1v-1h0a2,2,0,0,1-1.83,1.13,1.67,1.67,0,0,1-1.85-1.9v-4h1Z"/><path class="cls-8" d="M160,265.19a2,2,0,0,0-.21-1.15,1.06,1.06,0,0,0-.91-.39,1.46,1.46,0,0,0-1.57,1.64v3.48h-1V263h.93v1h0a2,2,0,0,1,1.87-1.12,1.66,1.66,0,0,1,1.85,1.9v4h-1Z"/><path class="cls-8" d="M162.58,269.35h1c.11.49.48.81,1.43.81,1.1,0,1.65-.4,1.65-1.68v-.86h0a2.09,2.09,0,0,1-1.85,1.07c-1.21,0-2.32-.76-2.32-2.9,0-1.92,1-3,2.44-3a1.82,1.82,0,0,1,1.74,1.05h0V263h1v5.65c0,1.63-1.07,2.34-2.65,2.34C163.84,271,162.71,270.55,162.58,269.35Zm4.06-3.8a1.71,1.71,0,0,0-1.65-1.94c-1.05,0-1.54.87-1.54,2.18s.36,2.15,1.58,2.15a1.68,1.68,0,0,0,1.61-1.8Z"/><path class="cls-8" d="M51.59,280.35h1v8.42h-1Z"/><path class="cls-8" d="M58.49,285.19a2,2,0,0,0-.21-1.15,1.06,1.06,0,0,0-.91-.39,1.47,1.47,0,0,0-1.58,1.64v3.48h-1V283h.94v1h0a2,2,0,0,1,1.87-1.12,1.66,1.66,0,0,1,1.85,1.9v4h-1Z"/><path class="cls-8" d="M62.71,281.29V283h1.43v.76H62.71v3.42c0,.62.26.86.88.86a4.33,4.33,0,0,0,.64-.06v.84a7,7,0,0,1-.91.06c-1.13,0-1.59-.55-1.59-1.54v-3.58h-1V283h.17c.78,0,1-.19,1-1.3v-.41Z"/><path class="cls-8" d="M67.7,288.91c-1.78,0-2.62-1.29-2.62-3s.92-3.06,2.58-3.06,2.42,1.34,2.42,2.8v.51h-4c.07,1.2.55,2,1.64,2a1.2,1.2,0,0,0,1.32-.9h1A2.17,2.17,0,0,1,67.7,288.91Zm1.37-3.62c0-1-.41-1.72-1.42-1.72s-1.43.73-1.55,1.79h3Z"/><path class="cls-8" d="M71.59,283h.93v1.09h0a2.08,2.08,0,0,1,1.83-1.2h.1v1H74.3a1.58,1.58,0,0,0-1.72,1.72v3.16h-1Z"/><path class="cls-8" d="M79.47,285.19a2,2,0,0,0-.21-1.15,1.06,1.06,0,0,0-.92-.39,1.47,1.47,0,0,0-1.57,1.64v3.48h-1V283h.94v1h0a2,2,0,0,1,1.87-1.12,1.66,1.66,0,0,1,1.85,1.9v4h-1Z"/><path class="cls-8" d="M84.57,288.91c-1.77,0-2.62-1.29-2.62-3s.93-3.06,2.59-3.06,2.42,1.34,2.42,2.8v.51H83c.07,1.2.55,2,1.64,2a1.2,1.2,0,0,0,1.32-.9h1A2.17,2.17,0,0,1,84.57,288.91Zm1.37-3.62c0-1-.4-1.72-1.41-1.72s-1.43.73-1.56,1.79h3Z"/><path class="cls-8" d="M89.74,281.29V283h1.43v.76H89.74v3.42c0,.62.25.86.88.86a4.33,4.33,0,0,0,.64-.06v.84a7.08,7.08,0,0,1-.92.06c-1.13,0-1.58-.55-1.58-1.54v-3.58H87.7V283h.18c.78,0,1-.19,1-1.3v-.41Z"/><path class="cls-8" d="M100.16,288.77h-1v-1h0a2.07,2.07,0,0,1-1.83,1.1c-1.23,0-2.37-.77-2.37-3,0-2,1-3.08,2.5-3.08a1.73,1.73,0,0,1,1.66,1h0V280.1h1Zm-1-3.13c0-1.23-.65-2-1.58-2-1.11,0-1.61.88-1.61,2.24s.38,2.27,1.54,2.27a1.69,1.69,0,0,0,1.65-1.87Z"/><path class="cls-8" d="M104.33,288.91c-1.78,0-2.62-1.29-2.62-3s.92-3.06,2.58-3.06,2.42,1.34,2.42,2.8v.51h-4c.07,1.2.55,2,1.64,2a1.2,1.2,0,0,0,1.32-.9h1A2.17,2.17,0,0,1,104.33,288.91Zm1.37-3.62c0-1-.41-1.72-1.42-1.72s-1.43.73-1.55,1.79h3Z"/><path class="cls-8" d="M108.22,283h.93v1.09h0a2.08,2.08,0,0,1,1.83-1.2h.1v1h-.18a1.58,1.58,0,0,0-1.72,1.72v3.16h-1Z"/><path class="cls-8" d="M115.62,280.35h2.59c2.3,0,4.07,1.12,4.07,4.1s-1.65,4.32-4,4.32h-2.71Zm2.59,7.54c1.78,0,3-.93,3-3.4s-1.24-3.26-2.94-3.26h-1.63v6.66Z"/><path class="cls-8" d="M124,280.58h1v1.07h-1Zm0,2.39h1v5.8h-1Z"/><path class="cls-8" d="M130.8,285.19a2,2,0,0,0-.21-1.15,1,1,0,0,0-.91-.39,1.46,1.46,0,0,0-1.57,1.64v3.48h-1V283h.93v1h0a2,2,0,0,1,1.87-1.12,1.66,1.66,0,0,1,1.85,1.9v4h-1Z"/><path class="cls-8" d="M133.43,289.35h1c.11.49.48.81,1.43.81,1.1,0,1.65-.4,1.65-1.68v-.86h0a2.09,2.09,0,0,1-1.85,1.07c-1.21,0-2.32-.76-2.32-2.9,0-1.92,1-3,2.44-3a1.82,1.82,0,0,1,1.74,1.05h0V283h.95v5.65c0,1.63-1.07,2.34-2.64,2.34C134.69,291,133.56,290.55,133.43,289.35Zm4.06-3.8a1.71,1.71,0,0,0-1.65-1.94c-1.05,0-1.54.87-1.54,2.18s.36,2.15,1.58,2.15a1.68,1.68,0,0,0,1.61-1.8Z"/><path class="cls-8" d="M142.61,288.91c-1.78,0-2.62-1.29-2.62-3s.92-3.06,2.58-3.06,2.42,1.34,2.42,2.8v.51h-4c.06,1.2.55,2,1.64,2a1.2,1.2,0,0,0,1.32-.9h.95A2.15,2.15,0,0,1,142.61,288.91Zm1.37-3.62c0-1-.41-1.72-1.42-1.72s-1.43.73-1.55,1.79h3Z"/><path class="cls-8" d="M56.19,302.61A1.62,1.62,0,0,0,54.44,301c-1.14,0-1.76.65-1.76,1.46s.42,1.21,1.41,1.39l1.19.21c1.64.3,2.21,1.1,2.21,2.3,0,1.54-1.05,2.53-3.06,2.53s-3.06-1-3.15-2.53h1.07a1.92,1.92,0,0,0,2.1,1.71c1.5,0,2-.73,2-1.62,0-.73-.39-1.23-1.43-1.41l-1.17-.21c-1.65-.31-2.24-1.19-2.24-2.29,0-1.36,1.13-2.35,2.85-2.35s2.71.95,2.79,2.38Z"/><path class="cls-8" d="M60.56,301.29V303H62v.76H60.56v3.42c0,.62.25.86.88.86a4.29,4.29,0,0,0,.63-.06v.84a6.82,6.82,0,0,1-.91.06c-1.13,0-1.58-.55-1.58-1.54v-3.58H58.52V303h.18c.78,0,.95-.19.95-1.3v-.41Z"/><path class="cls-8" d="M63.38,303h.94v1.09h0a2.08,2.08,0,0,1,1.84-1.2h.1v1h-.19a1.58,1.58,0,0,0-1.72,1.72v3.16h-1Z"/><path class="cls-8" d="M67.36,304.55c0-1,.8-1.72,2.18-1.72s2.15.6,2.15,2.15v2.37c0,.46.1.65.53.66v.8H72.1c-.93,0-1.24-.33-1.33-1h0a1.93,1.93,0,0,1-1.86,1.08,1.61,1.61,0,0,1-1.83-1.67,1.54,1.54,0,0,1,.87-1.46,6.73,6.73,0,0,1,2.8-.47V305c0-1-.4-1.45-1.21-1.45a1.05,1.05,0,0,0-1.21,1Zm3.36,1.59V306a4.8,4.8,0,0,0-2.34.42.85.85,0,0,0-.32.72c0,.59.38.91,1,.91A1.68,1.68,0,0,0,70.72,306.14Z"/><path class="cls-8" d="M74.88,301.29V303h1.43v.76H74.88v3.42c0,.62.25.86.88.86a4.33,4.33,0,0,0,.64-.06v.84a7.08,7.08,0,0,1-.92.06c-1.13,0-1.58-.55-1.58-1.54v-3.58H72.84V303H73c.78,0,1-.19,1-1.3v-.41Z"/><path class="cls-8" d="M79.86,308.91c-1.77,0-2.62-1.29-2.62-3s.93-3.06,2.59-3.06,2.42,1.34,2.42,2.8v.51h-4c.06,1.2.55,2,1.64,2a1.18,1.18,0,0,0,1.31-.9h1A2.16,2.16,0,0,1,79.86,308.91Zm1.38-3.62c0-1-.41-1.72-1.42-1.72s-1.43.73-1.55,1.79h3Z"/><path class="cls-8" d="M83.49,309.35h1c.11.49.48.81,1.43.81,1.1,0,1.65-.4,1.65-1.68v-.86h0a2.09,2.09,0,0,1-1.85,1.07c-1.21,0-2.32-.76-2.32-2.9,0-1.92,1-3,2.44-3a1.81,1.81,0,0,1,1.74,1.05h0V303h1v5.65c0,1.63-1.07,2.34-2.64,2.34C84.76,311,83.62,310.55,83.49,309.35Zm4.06-3.8a1.71,1.71,0,0,0-1.65-1.94c-1,0-1.54.87-1.54,2.18s.36,2.15,1.58,2.15a1.68,1.68,0,0,0,1.61-1.8Z"/><path class="cls-8" d="M90.54,300.58h1v1.07h-1Zm0,2.39h1v5.8h-1Z"/><path class="cls-8" d="M96.49,304.42c0-.52-.47-.85-1.15-.85a1,1,0,0,0-1.13.94c0,.47.28.69.86.79l.9.13c1.21.19,1.65.69,1.65,1.69,0,1.16-1,1.79-2.27,1.79s-2.19-.54-2.27-1.78h1c0,.45.3,1,1.32,1,.79,0,1.29-.37,1.29-1s-.12-.71-.91-.85l-.9-.13c-1-.16-1.58-.59-1.58-1.6s.78-1.76,2.1-1.76,2,.58,2.07,1.59Z"/><path class="cls-8" d="M102.63,304.72a1.23,1.23,0,0,0-1.32-1.14c-1,0-1.59.92-1.59,2.27s.4,2.28,1.57,2.28a1.32,1.32,0,0,0,1.42-1.26h.92a2.17,2.17,0,0,1-2.35,2c-1.67,0-2.58-1.17-2.58-3s1-3.06,2.6-3.06a2,2,0,0,1,2.3,1.89Z"/><path class="cls-8" d="M108.75,305.18a2,2,0,0,0-.21-1.14,1.06,1.06,0,0,0-.91-.39,1.47,1.47,0,0,0-1.58,1.64v3.48h-1V300.1h1v3.83h0a1.93,1.93,0,0,1,1.82-1.1,1.66,1.66,0,0,1,1.85,1.9v4h-1Z"/><path class="cls-8" d="M113.85,308.91c-1.77,0-2.62-1.29-2.62-3s.93-3.06,2.59-3.06,2.42,1.34,2.42,2.8v.51h-4c.07,1.2.55,2,1.64,2a1.19,1.19,0,0,0,1.32-.9h1A2.17,2.17,0,0,1,113.85,308.91Zm1.38-3.62c0-1-.41-1.72-1.42-1.72s-1.43.73-1.55,1.79h3Z"/><path class="cls-8" d="M121.58,304.63c0,2.23,1,3.48,2.65,3.48a2.33,2.33,0,0,0,2.55-2.57v-.12h-2.43v-.9h3.43v4.25h-.89v-1.21h0a2.83,2.83,0,0,1-2.63,1.38c-2.12,0-3.7-1.38-3.7-4.34,0-2.75,1.66-4.37,3.84-4.37,1.72,0,3,.87,3.17,2.35h-1.06a2,2,0,0,0-2.11-1.54C122.52,301,121.58,302.47,121.58,304.63Z"/><path class="cls-8" d="M132,308.91c-1.77,0-2.62-1.29-2.62-3s.93-3.06,2.59-3.06,2.42,1.34,2.42,2.8v.51h-4c.07,1.2.55,2,1.64,2a1.2,1.2,0,0,0,1.32-.9h1A2.17,2.17,0,0,1,132,308.91Zm1.38-3.62c0-1-.41-1.72-1.42-1.72s-1.43.73-1.56,1.79h3Z"/><path class="cls-8" d="M138.81,304.42c-.06-.52-.47-.85-1.16-.85a1,1,0,0,0-1.13.94c0,.47.29.69.87.79l.89.13c1.21.19,1.65.69,1.65,1.69,0,1.16-1,1.79-2.27,1.79s-2.18-.54-2.26-1.78h1c0,.45.29,1,1.32,1,.79,0,1.28-.37,1.28-1s-.12-.71-.91-.85l-.89-.13c-1-.16-1.58-.59-1.58-1.6s.78-1.76,2.1-1.76,2,.58,2.07,1.59Z"/><path class="cls-8" d="M142.7,301.29V303h1.43v.76H142.7v3.42c0,.62.26.86.88.86a4.33,4.33,0,0,0,.64-.06v.84a7,7,0,0,1-.91.06c-1.13,0-1.59-.55-1.59-1.54v-3.58h-1.05V303h.17c.78,0,1-.19,1-1.3v-.41Z"/><path class="cls-8" d="M145.69,304.55c0-1,.81-1.72,2.19-1.72s2.15.6,2.15,2.15v2.37c0,.46.1.65.53.66v.8h-.12c-.93,0-1.24-.33-1.33-1h0a1.94,1.94,0,0,1-1.86,1.08,1.61,1.61,0,0,1-1.83-1.67,1.54,1.54,0,0,1,.87-1.46,6.73,6.73,0,0,1,2.8-.47V305c0-1-.4-1.45-1.21-1.45a1.05,1.05,0,0,0-1.21,1Zm3.37,1.59V306a4.8,4.8,0,0,0-2.34.42.85.85,0,0,0-.32.72c0,.59.38.91,1,.91A1.68,1.68,0,0,0,149.06,306.14Z"/><path class="cls-8" d="M152,300.1h1v8.67h-1Z"/><path class="cls-8" d="M156.27,301.29V303h1.43v.76h-1.43v3.42c0,.62.25.86.88.86a4.29,4.29,0,0,0,.63-.06v.84a6.82,6.82,0,0,1-.91.06c-1.13,0-1.58-.55-1.58-1.54v-3.58h-1.06V303h.18c.78,0,1-.19,1-1.3v-.41Z"/><path class="cls-8" d="M160.05,306.53a2.09,2.09,0,0,0,.21,1.18,1.06,1.06,0,0,0,.89.39c1.08,0,1.58-.72,1.58-2V303h1v5.8h-.94v-1h0a2,2,0,0,1-1.83,1.13,1.68,1.68,0,0,1-1.86-1.9v-4h1Z"/><path class="cls-8" d="M169.47,305.19a2,2,0,0,0-.21-1.15,1.06,1.06,0,0,0-.92-.39,1.47,1.47,0,0,0-1.57,1.64v3.48h-1V303h.94v1h0a2,2,0,0,1,1.87-1.12,1.66,1.66,0,0,1,1.85,1.9v4h-1Z"/><path class="cls-8" d="M172.09,309.35h1c.11.49.49.81,1.43.81,1.1,0,1.65-.4,1.65-1.68v-.86h0a2.09,2.09,0,0,1-1.85,1.07c-1.21,0-2.32-.76-2.32-2.9,0-1.92,1-3,2.44-3a1.81,1.81,0,0,1,1.74,1.05h0V303h.95v5.65c0,1.63-1.07,2.34-2.64,2.34C173.36,311,172.23,310.55,172.09,309.35Zm4.06-3.8a1.71,1.71,0,0,0-1.65-1.94c-1,0-1.54.87-1.54,2.18s.37,2.15,1.59,2.15a1.68,1.68,0,0,0,1.6-1.8Z"/><path d="M24.16,27.44c0,2.2.84,3.19,2.26,3.19a2,2,0,0,0,2.14-2.14v-.14H26.42V27.19H30v4.4H28.77V30.43h0a2.69,2.69,0,0,1-2.52,1.34c-2.3,0-3.68-1.56-3.68-4.29s1.62-4.42,3.94-4.42c1.91,0,3.14.92,3.34,2.55H28.25a1.67,1.67,0,0,0-1.78-1.42C25,24.19,24.16,25.38,24.16,27.44Z"/><path d="M31.73,25.73h1.4v1.19h0a2.07,2.07,0,0,1,1.92-1.29h.1V27h-.28c-1,0-1.68.44-1.68,1.57v3H31.73Z"/><path d="M37.68,29.22a1.88,1.88,0,0,0,.19,1,.89.89,0,0,0,.8.36c.88,0,1.31-.6,1.31-1.69v-3.2h1.47v5.86H40v-1h0a2,2,0,0,1-1.84,1.09c-1.31,0-2-.64-2-2v-4h1.47Z"/><path d="M47,28.11a1.84,1.84,0,0,0-.19-1.05.94.94,0,0,0-.81-.35c-.88,0-1.32.56-1.32,1.45v3.43H43.14V25.73h1.42v1h0a2.06,2.06,0,0,1,1.91-1.11c1.31,0,1.94.67,1.94,2.09v3.9H47Z"/><path d="M55.36,31.59H53.94v-.9h0a2,2,0,0,1-1.78,1c-1.44,0-2.45-.9-2.45-3s1.07-3.12,2.55-3.12a1.76,1.76,0,0,1,1.63.95h0V22.93h1.48ZM53.9,28.42c0-1.1-.53-1.76-1.33-1.76s-1.39.7-1.39,2,.38,2,1.34,2S53.9,30,53.9,29.09Z"/><path d="M57.06,25.73h1.39v1.19h0a2.06,2.06,0,0,1,1.91-1.29h.1V27h-.27c-1,0-1.69.44-1.69,1.57v3H57.06Z"/><path d="M61.61,23.21h1.51v1.4H61.61Zm0,2.52h1.49v5.86H61.62Z"/><path d="M67.78,27.3c0-.41-.36-.72-1-.72s-.93.31-.93.72.22.59.75.66l1,.14c1.13.15,1.68.67,1.68,1.71,0,1.27-1,1.94-2.45,1.94s-2.4-.66-2.48-1.84h1.38c0,.42.29.85,1.11.85.65,0,1.06-.29,1.06-.77s-.15-.62-.78-.69l-.92-.12c-1.08-.15-1.68-.67-1.68-1.71s.78-1.88,2.32-1.88,2.19.68,2.28,1.71Z"/><path d="M73.55,27.3c0-.41-.37-.72-1-.72s-.92.31-.92.72.22.59.74.66l1,.14c1.13.15,1.68.67,1.68,1.71,0,1.27-1,1.94-2.45,1.94s-2.4-.66-2.47-1.84H71.5c0,.42.3.85,1.11.85.65,0,1.07-.29,1.07-.77s-.16-.62-.78-.69L72,29.18c-1.07-.15-1.68-.67-1.68-1.71s.78-1.88,2.32-1.88,2.19.68,2.28,1.71Z"/><path d="M81.43,31.74c-1.84,0-2.8-1.23-2.8-3.07a2.77,2.77,0,0,1,2.79-3.08c1.93,0,2.71,1.32,2.71,3V29h-4c.07,1.11.5,1.7,1.37,1.7a1,1,0,0,0,1.12-.78h1.45C83.88,31.07,82.94,31.74,81.43,31.74ZM82.62,28c-.05-.88-.39-1.47-1.21-1.47s-1.18.58-1.27,1.54h2.48Z"/><path d="M85.38,25.73h1.4v1.19h0a2.07,2.07,0,0,1,1.92-1.29h.09V27h-.27c-1.05,0-1.68.44-1.68,1.57v3H85.38Z"/><path d="M92.86,27.3c0-.41-.36-.72-1-.72s-.92.31-.92.72.22.59.75.66l1,.14c1.13.15,1.68.67,1.68,1.71,0,1.27-1,1.94-2.45,1.94s-2.4-.66-2.48-1.84h1.38c0,.42.29.85,1.11.85.65,0,1.06-.29,1.06-.77s-.15-.62-.78-.69l-.92-.12c-1.08-.15-1.68-.67-1.68-1.71s.78-1.88,2.32-1.88,2.19.68,2.27,1.71Z"/><path d="M97.36,24.07v1.66h1.37v1.06H97.38v2.89c0,.61.23.86.83.86a4,4,0,0,0,.55-.05v1.12a8.43,8.43,0,0,1-1.07.07c-1.15,0-1.77-.51-1.77-1.74V26.79H95v-1h.2c.76,0,.9-.16.9-1.25v-.43Z"/><path d="M102.32,31.74c-1.85,0-2.8-1.23-2.8-3.07a2.77,2.77,0,0,1,2.79-3.08c1.93,0,2.71,1.32,2.71,3V29h-4c.07,1.11.5,1.7,1.37,1.7a1,1,0,0,0,1.12-.78H105C104.77,31.07,103.83,31.74,102.32,31.74ZM103.51,28c-.05-.88-.4-1.47-1.21-1.47s-1.18.58-1.28,1.54h2.49Z"/><path d="M106.27,25.73h1.4v1.19h0a2.07,2.07,0,0,1,1.91-1.29h.1V27h-.27c-1.05,0-1.69.44-1.69,1.57v3h-1.47Z"/><path d="M118,25.46a1.32,1.32,0,0,0-1.44-1.27c-.9,0-1.43.51-1.43,1.17s.34,1,1.21,1.16l1.25.23c1.54.29,2.21,1.08,2.21,2.31,0,1.71-1.16,2.7-3.26,2.7s-3.2-.94-3.29-2.56h1.59a1.58,1.58,0,0,0,1.73,1.42c1.19,0,1.65-.59,1.65-1.3s-.34-1-1.28-1.19l-1.23-.23a2.31,2.31,0,0,1-2.18-2.35c0-1.44,1.13-2.49,3-2.49s2.93,1,3,2.4Z"/><path d="M123,24.07v1.66h1.37v1.06h-1.34v2.89c0,.61.23.86.82.86a4,4,0,0,0,.55-.05v1.12a8.28,8.28,0,0,1-1.07.07c-1.15,0-1.77-.51-1.77-1.74V26.79h-.94v-1h.19c.76,0,.91-.16.91-1.25v-.43Z"/><path d="M125.18,28.66A2.76,2.76,0,0,1,128,25.59c1.77,0,2.84,1.17,2.84,3.07A2.79,2.79,0,0,1,128,31.74C126.21,31.74,125.18,30.55,125.18,28.66Zm1.53,0c0,1.24.38,2,1.33,2s1.31-.83,1.31-2S129,26.61,128,26.61,126.71,27.46,126.71,28.66Z"/><path d="M135.82,27.72a1.09,1.09,0,0,0-1.13-1.11c-.95,0-1.33.91-1.33,2s.27,2,1.32,2a1.13,1.13,0,0,0,1.19-1.17h1.43a2.35,2.35,0,0,1-2.63,2.22c-1.81,0-2.82-1.17-2.82-3.07a2.76,2.76,0,0,1,2.84-3.08c1.43,0,2.51.68,2.58,2.13Z"/><path d="M140,31.59H138.5V22.93H140v5.38l2.16-2.58h1.61l-2,2.27,2.1,3.59h-1.63L140.77,29,140,30Z"/><path class="cls-9" d="M543.87,403.19v.09h22.4v-.08H571V288.12H384.55v13.44h-81.9v-131l41.73,7.39,7.07-16.39,136.84,23.7V220.5h79.8v-110h-50.4c1.35-1.69,2.94-4.27,2.94-7,0-7.48-4.72-11-8.74-12.12L514,77.1,497,54.44l-29.39-5-25,17.44L345.58,50.15l-16.14-2.77L188.11,23.1,169.93,128.87l55.52,9.54V403.2h4.76v-.06l.7.06h313m-313.6-4.84.79.07Z"/></g><g id="Rooms-2" data-name="Rooms"><g id="H1Flur01"><polygon class="cls-10" points="297.89 301.55 297.89 243.78 277.59 243.78 277.59 354.53 543.87 354.53 543.87 398.42 543.87 403.19 543.87 403.28 566.27 403.28 566.27 334.03 386.93 334.03 386.93 306.31 386.86 306.31 372.06 306.31 372.06 334.1 310.77 334.1 310.77 331.72 321.19 331.72 321.19 306.31 300.27 306.31 300.27 332.91 297.89 332.91 297.89 306.31 297.89 301.55"/></g><g id="H1Flur02"><path class="cls-10" d="M277.59,243.69h20.3v-97.3l2.53-15.21,2.35.39-2.5,15v18.67l4.4.74,36.83,6.56,5.58-13,1.48-3.45,9.33-54.29L266.67,86.12l-11.06-1.93-9.42,53,31.4,5.64Zm40.24-106.63,17.11,3-2.52,14.1-17-2.92Z"/></g><g id="H1Flur03"><polygon class="cls-10" points="360.24 102.31 356.92 121.62 475.75 142.01 469.5 177.13 489.1 180.52 491.02 180.86 491.03 180.84 491.45 178.36 500.66 126.2 457.49 119 360.24 102.31"/><polygon class="cls-9" points="436.69 137.87 431.09 170.47 441.29 172.24 467.02 176.7 472.82 144.07 436.69 137.87"/></g><g id="H119"><g class="cls-11"><rect class="cls-12" x="444.33" y="356.92" width="71.12" height="41.51"/></g></g><g id="H117"><rect class="cls-10" x="323.79" y="356.92" width="88.76" height="41.51"/></g><g id="H116"><path class="cls-10" d="M230.2,398.35h0l.86.08h90.35V356.92H230.2Z"/></g><g id="H103"><polygon class="cls-10" points="563.33 171.78 495.06 171.78 493.06 183.09 493.05 183.11 493.05 185.22 493.05 215.73 563.33 215.73 563.33 171.78"/></g><g id="H104"><polygon class="cls-10" points="495.51 169.34 563.33 169.34 563.33 115.3 505.09 115.3 495.51 169.34"/></g><g id="H105"><g class="cls-11"><path class="cls-12" d="M503.54,110.46h8l2.39-3a7.47,7.47,0,0,0,1.89-4c0-5.27-3.3-7-5.27-7.53l-4-1.14.61-4.14L509,78.37,494.31,58.81l-25.59-4.4L445.36,70.73l-1.57,1.1L436.71,113l21.18,3.64,43.19,7.19Z"/></g></g><g id="H106"><polygon class="cls-10" points="434.37 112.62 441.44 71.46 352.31 56.14 345.35 97.32 434.37 112.62"/></g><g id="H107"><polygon class="cls-10" points="191.99 28.59 185.99 63.54 221.3 69.61 220.24 75.68 267.07 83.87 283.28 86.66 290.35 45.5 191.99 28.59"/></g></g><g id="Grundriss-3" data-name="Grundriss"><g id="Treppe"><line class="cls-13" x1="300.3" y1="328.29" x2="321.2" y2="328.29"/><line class="cls-13" x1="300.3" y1="326.61" x2="321.2" y2="326.61"/><line class="cls-13" x1="300.3" y1="324.93" x2="321.2" y2="324.93"/><line class="cls-13" x1="300.3" y1="323.25" x2="321.2" y2="323.25"/><line class="cls-13" x1="300.3" y1="321.57" x2="321.2" y2="321.57"/><line class="cls-13" x1="300.3" y1="319.89" x2="321.2" y2="319.89"/><line class="cls-13" x1="300.3" y1="318.21" x2="321.2" y2="318.21"/><line class="cls-13" x1="300.3" y1="316.53" x2="321.2" y2="316.53"/><line class="cls-13" x1="300.3" y1="314.85" x2="321.2" y2="314.85"/><line class="cls-13" x1="300.3" y1="313.17" x2="321.2" y2="313.17"/><line class="cls-13" x1="310.77" y1="334.1" x2="310.77" y2="313.17"/><line class="cls-13" x1="325.65" y1="151.56" x2="322.38" y2="170.6"/><line class="cls-13" x1="323.99" y1="151.27" x2="320.72" y2="170.31"/><line class="cls-13" x1="322.34" y1="150.99" x2="319.06" y2="170.03"/><line class="cls-13" x1="320.68" y1="150.7" x2="317.41" y2="169.75"/><line class="cls-13" x1="319.03" y1="150.42" x2="315.75" y2="169.46"/><line class="cls-13" x1="317.37" y1="150.14" x2="314.1" y2="169.18"/><line class="cls-13" x1="330.62" y1="152.41" x2="327.34" y2="171.45"/><line class="cls-13" x1="328.96" y1="152.13" x2="325.69" y2="171.17"/><line class="cls-13" x1="327.3" y1="151.84" x2="324.03" y2="170.88"/><line class="cls-13" x1="332.17" y1="153.72" x2="349.08" y2="156.72"/><line class="cls-13" x1="332.81" y1="152.22" x2="349.37" y2="155.07"/><line class="cls-13" x1="333.09" y1="150.56" x2="349.65" y2="153.41"/><line class="cls-13" x1="333.38" y1="148.91" x2="349.93" y2="151.75"/><line class="cls-13" x1="333.66" y1="147.25" x2="350.22" y2="150.1"/><line class="cls-13" x1="333.95" y1="145.6" x2="350.5" y2="148.44"/><line class="cls-13" x1="334.23" y1="143.94" x2="350.79" y2="146.79"/><line class="cls-13" x1="319.77" y1="139.82" x2="301.94" y2="136.65"/><line class="cls-13" x1="319.54" y1="141.39" x2="301.69" y2="138.32"/><line class="cls-13" x1="319.25" y1="143.04" x2="301.41" y2="139.97"/><line class="cls-13" x1="318.97" y1="144.7" x2="301.12" y2="141.63"/><line class="cls-13" x1="318.68" y1="146.35" x2="300.84" y2="143.28"/><line class="cls-13" x1="318.4" y1="148.01" x2="300.55" y2="144.94"/><line class="cls-13" x1="318.12" y1="149.66" x2="300.27" y2="146.6"/><line class="cls-13" x1="325.65" y1="151.56" x2="322.38" y2="170.6"/><line class="cls-13" x1="323.99" y1="151.27" x2="320.72" y2="170.31"/><line class="cls-13" x1="322.34" y1="150.99" x2="319.06" y2="170.03"/><line class="cls-13" x1="320.68" y1="150.7" x2="317.41" y2="169.75"/><line class="cls-13" x1="319.03" y1="150.42" x2="315.75" y2="169.46"/><line class="cls-13" x1="317.37" y1="150.14" x2="314.1" y2="169.18"/><line class="cls-13" x1="330.62" y1="152.41" x2="327.34" y2="171.45"/><line class="cls-13" x1="328.96" y1="152.13" x2="325.69" y2="171.17"/><line class="cls-13" x1="327.3" y1="151.84" x2="324.03" y2="170.88"/><line class="cls-13" x1="332.17" y1="153.72" x2="349.08" y2="156.72"/><line class="cls-13" x1="332.81" y1="152.22" x2="349.37" y2="155.07"/><line class="cls-13" x1="333.09" y1="150.56" x2="349.65" y2="153.41"/><line class="cls-13" x1="333.38" y1="148.91" x2="349.93" y2="151.75"/><line class="cls-13" x1="333.66" y1="147.25" x2="350.22" y2="150.1"/><line class="cls-13" x1="333.95" y1="145.6" x2="350.5" y2="148.44"/><line class="cls-13" x1="334.23" y1="143.94" x2="350.79" y2="146.79"/><line class="cls-13" x1="334.51" y1="142.29" x2="351.07" y2="145.13"/><line class="cls-13" x1="319.54" y1="141.39" x2="301.69" y2="138.32"/><line class="cls-13" x1="319.25" y1="143.04" x2="301.41" y2="139.97"/><line class="cls-13" x1="318.97" y1="144.7" x2="301.12" y2="141.63"/><line class="cls-13" x1="318.68" y1="146.35" x2="300.84" y2="143.28"/><line class="cls-13" x1="318.4" y1="148.01" x2="300.55" y2="144.94"/><line class="cls-13" x1="318.12" y1="149.66" x2="300.27" y2="146.6"/><line class="cls-13" x1="317.97" y1="151.42" x2="300.13" y2="148.35"/></g><g id="H108_Kopie_Kopie" data-name="H108 Kopie Kopie"><polygon class="cls-14" points="253.26 83.87 217.48 77.61 218.54 71.55 185.58 65.89 175.43 124.98 226.26 133.72 230.21 134.4 230.21 134.4 243.84 136.84 253.26 83.87"/></g><g id="Wand"><rect class="cls-9" x="537.15" y="292.88" width="29.12" height="38.78"/><polygon class="cls-9" points="389.31 292.88 389.31 301.56 389.31 306.32 389.31 306.32 389.31 331.65 412.55 331.65 412.55 292.88 389.31 292.88"/><rect class="cls-9" x="414.93" y="292.88" width="27.44" height="38.78"/><rect class="cls-9" x="323.58" y="306.32" width="46.1" height="25.41"/><polygon class="cls-9" points="332.17 142.05 319.77 139.91 318.13 149.34 330.49 151.46 332.17 142.05"/><rect class="cls-9" x="414.93" y="356.92" width="27.02" height="41.51"/><polygon class="cls-9" points="541.21 398.43 541.49 398.43 541.49 356.92 517.83 356.92 517.83 398.43 541.21 398.43"/><polygon class="cls-9" points="275.21 144.89 230.21 136.81 230.21 185.91 275.21 185.91 275.21 144.89"/><rect class="cls-9" x="230.21" y="188.3" width="45" height="34.16"/><rect class="cls-9" x="230.2" y="319.76" width="45.01" height="34.78"/><rect class="cls-9" x="230.21" y="224.84" width="45" height="92.54"/><polygon class="cls-9" points="343.01 96.92 349.97 55.74 344.78 54.85 328.63 52.07 326.23 51.66 319.16 92.82 343.01 96.92"/><rect class="cls-9" x="283.87" y="53.34" width="41.76" height="31.64" transform="matrix(0.17, -0.99, 0.99, 0.17, 184.99, 357.8)"/><line class="cls-15" x1="277.59" y1="142.9" x2="230.21" y2="134.4"/><polygon class="cls-9" points="350.91 156.59 402.8 165.57 428.74 170.07 434.34 137.46 356.49 124.11 350.91 156.59"/><line class="cls-16" x1="277.59" y1="142.9" x2="230.21" y2="134.4"/><g id="Wand-2" data-name="Wand"><path class="cls-17" d="M537.15,288.12H384.55v13.44h-81.9v-131l41.73,7.39,7.07-16.39,136.84,23.7V220.5h79.8v-110h-50.4c1.35-1.69,2.94-4.27,2.94-7,0-7.48-4.72-11-8.74-12.12L514,77.1,497,54.44l-29.39-5-25,17.44L345.58,50.15l-16.14-2.77L188.11,23.1,169.93,128.87l55.52,9.54V403.2h4.76v-.06l.7.06h313V354.54H277.59V142.9l-31.4-5.64,9.42-53,11.06,1.94,91.22,15.67-9.33,54.29-1.48,3.45-5.58,12.93-38-6.73-3.21-.57V146.68l2.5-15-2.34-.39-2.54,15.22V332.92h2.38v-26.6H321.2v25.41H310.77v2.38h61.29V306.32h14.87V334H566.27V403.2H571V288.12ZM431.09,170.47l5.6-32.6,36.13,6.2L467,176.7Zm38.41,6.66L475.75,142l-38.63-6.63,3.31-19.31L457.49,119l43.17,7.19L491,180.86Zm93.83,38.6H493.05V183.11l2-11.33h68.27Zm0-100.51v54H495.51l9.58-54ZM443.79,71.83l1.57-1.1,23.36-16.32,25.59,4.4L509,78.37l-1.81,12.32-.61,4.14,4,1.14c2,.55,5.27,2.26,5.27,7.53a7.47,7.47,0,0,1-1.89,4l-2.39,3h-8l-2.46,13.39-43.19-7.19L436.71,113Zm74,285.09h23.66v41.51H517.83Zm-73.5,0h71.12v41.51H444.33Zm-29.4,0h27v41.51h-27Zm-91.14,0h88.76v41.51H323.79Zm-2.38,0v41.51H231.06l-.86-.08V356.92Zm-46.2-132.08v92.53h-45V224.84Zm-45-2.39V188.3h45v34.15Zm45,97.31v34.78h-45V319.76Zm0-174.87v41h-45v-49.1Zm-31.37-8-13.63-2.44-4-.68L175.43,125l10.15-59.09,33,5.66-1.06,6.06,35.78,6.26Zm23.23-53-46.83-8.19,1.06-6.07L186,63.54l6-34.94,98.36,16.9-7.07,41.15Zm18.56,3.19L292.7,45.9l31.18,5.36-7.07,41.16Zm33.53,5.76,7.07-41.16,2.4.41,16.15,2.78,5.19.89-7,41.18Zm26.19,4.5,7-41.18,89.13,15.32-7.07,41.16Zm14.89,5,77.85,13.38L434.77,135l-77.85-13.36Zm-3.75,21.82,77.85,13.35-5.6,32.61-77.83-13.48Zm13.19,207.62h-46.1V306.32h46.1Zm42.87-.08H389.31V292.88h23.24Zm29.82,0H414.93V292.88h27.44Zm92.4,0h-90V292.88h90Zm31.5,0H537.15V292.88h29.12Z"/><path class="cls-17" d="M317.83,137.06l-2.45,14.14,17,2.92,2.52-14.1Zm12.66,14.31-12.36-2.12,1.64-9.43,12.4,2.13Z"/><rect class="cls-17" x="480.34" y="106.63" width="5.46" height="5.46" transform="translate(672.66 -348.21) rotate(99.75)"/><rect class="cls-17" x="459.64" y="103.08" width="5.46" height="5.46" transform="matrix(-0.17, 0.99, -0.99, -0.17, 644.95, -331.97)"/><rect class="cls-17" x="273.51" y="127.35" width="5.46" height="5.46" transform="translate(451.21 -120.14) rotate(99.75)"/><rect class="cls-17" x="247.43" y="122.86" width="5.46" height="5.46" transform="translate(416.3 -99.68) rotate(99.75)"/></g></g><g id="Schatten"><polygon class="cls-18" points="395.61 314.72 395.61 309.95 395.61 301.28 412.55 301.28 412.55 292.88 389.31 292.88 389.31 301.56 389.31 306.32 389.31 331.65 395.61 331.65 395.61 314.72"/><polygon class="cls-18" points="329.88 314.72 369.68 314.72 369.68 306.32 323.58 306.32 323.58 331.73 329.88 331.73 329.88 314.72"/><polygon class="cls-18" points="465.52 116.44 459.22 108.03 464.6 108.96 465.53 103.58 471.83 111.98 470.9 117.36 465.52 116.44"/><polygon class="cls-18" points="486.22 119.99 479.92 111.59 485.3 112.52 486.22 107.14 492.52 115.53 491.6 120.92 486.22 119.99"/><polygon class="cls-18" points="279.38 140.7 273.08 132.3 278.46 133.23 279.39 127.85 285.69 136.25 284.76 141.63 279.38 140.7"/><polygon class="cls-18" points="300.27 165.25 304.67 166 304.67 147.35 307.23 137.59 302.77 131.65 300.27 146.68 300.27 165.25"/><polygon class="cls-18" points="386.93 334.03 393.23 342.43 566.27 342.43 566.27 334.03 386.93 334.03"/><polygon class="cls-18" points="543.87 398.42 543.87 403.19 543.87 403.28 550.17 403.28 550.17 362.93 543.87 354.53 543.87 398.42"/><polygon class="cls-18" points="277.59 354.53 283.89 354.53 283.89 151.29 277.59 142.89 277.59 354.53"/><polygon class="cls-18" points="372.06 306.31 372.06 334.1 310.77 334.1 317.07 342.5 378.36 342.5 378.36 314.71 386.93 314.71 386.93 306.31 386.86 306.31 372.06 306.31"/><polygon class="cls-18" points="357.89 101.88 266.67 86.21 255.61 84.27 247.84 127.97 247 127.82 247.7 128.75 246.19 137.25 253.74 138.61 254.14 136.37 258.69 137.15 259.61 131.77 255.85 126.75 261.91 92.67 272.97 94.61 356.67 108.99 357.89 101.88"/><polygon class="cls-18" points="358.62 64.54 440.22 78.56 441.44 71.46 352.31 56.14 345.35 97.32 352.86 98.61 358.62 64.54"/><path class="cls-18" d="M513.44,96l-6.87-1.16,6.3,8.4,2.93.83a3,3,0,0,0,.07-.56C515.87,100.64,514.64,97.14,513.44,96Z"/><polygon class="cls-18" points="450.09 80.23 451.65 79.13 475.02 62.81 500.61 67.21 508.99 78.38 508.99 78.37 494.31 58.81 468.72 54.41 445.36 70.73 443.79 71.83 436.71 113.02 444.23 114.31 450.09 80.23"/><polygon class="cls-18" points="499.35 193.62 499.35 191.51 499.36 191.49 501.36 180.18 563.33 180.18 563.33 171.78 495.06 171.78 493.06 183.09 493.05 183.11 493.05 185.22 493.05 215.73 499.35 215.73 499.35 193.62"/><polygon class="cls-18" points="511.39 123.62 563.33 123.62 563.33 115.22 505.09 115.22 495.51 169.25 503.3 169.25 511.39 123.62"/><polygon class="cls-18" points="543.45 301.28 566.27 301.28 566.27 292.88 537.15 292.88 537.15 331.65 543.45 331.65 543.45 301.28"/><polygon class="cls-18" points="330.09 365.32 412.55 365.32 412.55 356.92 323.79 356.92 323.79 398.43 330.09 398.43 330.09 365.32"/><polygon class="cls-18" points="421.23 301.28 442.37 301.28 442.37 292.88 414.93 292.88 414.93 331.65 421.23 331.65 421.23 301.28"/><g class="cls-19"><polygon points="450.63 365.32 515.45 365.32 515.45 356.92 444.33 356.92 444.33 398.43 450.63 398.43 450.63 365.32"/></g><polygon class="cls-18" points="421.23 365.32 441.95 365.32 441.95 356.92 414.93 356.92 414.93 398.43 421.23 398.43 421.23 365.32"/><polygon class="cls-18" points="524.13 365.32 541.49 365.32 541.49 356.92 517.83 356.92 517.83 398.43 524.13 398.43 524.13 365.32"/><polygon class="cls-18" points="451.05 301.28 534.77 301.28 534.77 292.88 444.75 292.88 444.75 331.65 451.05 331.65 451.05 301.28"/><polygon class="cls-18" points="236.51 196.7 275.21 196.7 275.21 188.3 230.21 188.3 230.21 222.46 236.51 222.46 236.51 196.7"/><polygon class="cls-18" points="236.5 328.16 275.21 328.16 275.21 319.76 230.2 319.76 230.2 354.54 236.5 354.54 236.5 328.16"/><polygon class="cls-18" points="236.51 233.24 275.21 233.24 275.21 224.84 230.21 224.84 230.21 317.38 236.5 317.38 236.51 233.24"/><line class="cls-18" x1="283.89" y1="151.3" x2="236.51" y2="142.8"/><path class="cls-18" d="M236.5,365.32h84.91v-8.4H230.2v41.43l.86.08h5.44Z"/><polygon class="cls-18" points="191.88 74.29 218.41 78.85 223.78 86.01 252 90.95 253.26 83.87 217.48 77.61 218.54 71.55 185.58 65.89 175.43 124.98 182.95 126.27 191.88 74.29"/><polygon class="cls-18" points="332.53 60.06 334.93 60.47 348.77 62.85 349.97 55.74 344.78 54.85 328.63 52.07 326.23 51.66 319.16 92.82 326.68 94.11 332.53 60.06"/><polygon class="cls-18" points="198.29 36.99 289.13 52.6 290.35 45.5 191.99 28.59 185.99 63.54 193.51 64.84 198.29 36.99"/><polygon class="cls-18" points="299 54.3 322.66 58.37 323.88 51.26 292.7 45.9 285.63 87.06 293.15 88.35 299 54.3"/><polygon class="cls-18" points="362.79 132.51 433.12 144.57 434.34 137.46 356.49 124.11 350.91 156.59 358.43 157.89 362.79 132.51"/><g class="cls-19"><polygon points="366.54 110.71 463.79 127.41 499.4 133.34 500.66 126.2 457.49 119 360.24 102.31 356.92 121.62 364.44 122.91 366.54 110.71"/><polygon points="482.05 150.41 475.75 142.01 469.5 177.13 477.06 178.44 482.05 150.41"/></g><polygon class="cls-18" points="442.99 146.27 471.56 151.17 472.82 144.07 436.69 137.87 431.09 170.47 438.61 171.78 442.99 146.27"/><polygon class="cls-18" points="236.51 145.21 275.21 152.16 275.21 144.89 230.21 136.81 230.21 185.91 236.51 185.91 236.51 145.21"/><g class="cls-19"><polygon points="315.25 187.31 356.98 194.71 364.05 178.31 488.29 199.83 488.29 185.22 351.45 161.51 344.38 177.91 302.65 170.51 302.65 301.56 315.25 301.56 315.25 187.31"/><polygon points="580.69 127.25 568.09 110.45 568.09 220.5 488.29 220.5 500.89 237.29 580.69 237.29 580.69 127.25"/><path d="M514,77.11l-2.1,14.27c4,1.13,8.74,4.64,8.74,12.12,0,2.69-1.59,5.27-2.94,7h11.22a12.46,12.46,0,0,0-4.42-2.28l2.1-14.28Z"/><path d="M571,288.12V403.2H225.44L238,420H583.63V304.92Z"/><polygon points="225.45 138.41 169.93 128.87 182.53 145.67 225.45 153.04 225.45 138.41"/></g><polygon class="cls-18" points="304.19 306.35 300.27 306.35 300.27 332.91 297.89 332.91 304.19 341.31 306.57 341.31 306.57 328.29 303.52 313.17 303.52 310.55 321.03 310.55 321.03 306.35 304.19 306.35"/></g><g id="Marker-3" data-name="Marker"><rect class="cls-4" x="292.11" y="109.45" width="18" height="18"/><path class="cls-9" d="M298.66,118.34c0,2.4.92,3.48,2.47,3.48a2.18,2.18,0,0,0,2.33-2.33v-.16h-2.34v-1.26H305v4.8h-1.35V121.6h0a2.93,2.93,0,0,1-2.75,1.46c-2.5,0-4-1.7-4-4.67s1.76-4.83,4.29-4.83c2.09,0,3.43,1,3.65,2.79h-1.71a1.82,1.82,0,0,0-1.94-1.55C299.55,114.8,298.66,116.09,298.66,118.34Z"/><rect class="cls-2" x="460.89" y="368.68" width="18" height="18"/><path class="cls-9" d="M472.19,380.06v2h-1.58v-2h-4.19V378.9l3.9-5.68h1.87v5.57h1.1v1.27Zm-1.55-1.26v-4.07h0a5.41,5.41,0,0,1-.53.94L468,378.8Z"/><rect class="cls-2" x="480.89" y="368.68" width="18" height="18"/><path class="cls-9" d="M491.44,375.25a1.17,1.17,0,0,0-1.27-1c-1.22,0-1.82,1.21-1.87,3.22h.05a2.3,2.3,0,0,1,2.13-1.17,2.63,2.63,0,0,1,2.72,2.85,3,3,0,0,1-3.22,3.12c-1.86,0-3.34-1-3.34-4.17,0-3.31,1.26-5,3.55-5,1.8,0,2.63.9,2.76,2.17Zm.11,4a1.54,1.54,0,0,0-1.54-1.74c-.9,0-1.54.57-1.54,1.74a1.55,1.55,0,1,0,3.08,0Z"/><rect class="cls-5" x="340.68" y="368.68" width="18" height="18"/><path class="cls-9" d="M351.23,375.25a1.17,1.17,0,0,0-1.27-1c-1.23,0-1.83,1.21-1.88,3.22h.05a2.32,2.32,0,0,1,2.14-1.17,2.63,2.63,0,0,1,2.72,2.85,3,3,0,0,1-3.23,3.12c-1.86,0-3.33-1-3.33-4.17,0-3.31,1.26-5,3.55-5,1.8,0,2.63.9,2.76,2.17Zm.1,4a1.53,1.53,0,0,0-1.53-1.74c-.9,0-1.55.57-1.55,1.74a1.55,1.55,0,1,0,3.08,0Z"/><rect class="cls-3" x="360.68" y="368.68" width="18" height="18"/><path class="cls-9" d="M371.23,375.25a1.17,1.17,0,0,0-1.27-1c-1.23,0-1.83,1.21-1.88,3.22h.05a2.32,2.32,0,0,1,2.14-1.17,2.63,2.63,0,0,1,2.72,2.85,3,3,0,0,1-3.23,3.12c-1.86,0-3.33-1-3.33-4.17,0-3.31,1.26-5,3.55-5,1.8,0,2.63.9,2.76,2.17Zm.1,4a1.53,1.53,0,0,0-1.53-1.74c-.9,0-1.55.57-1.55,1.74a1.55,1.55,0,1,0,3.08,0Z"/><rect class="cls-6" x="380.68" y="368.68" width="18" height="18"/><path class="cls-9" d="M391.23,375.25a1.17,1.17,0,0,0-1.27-1c-1.23,0-1.83,1.21-1.88,3.22h.05a2.32,2.32,0,0,1,2.14-1.17,2.63,2.63,0,0,1,2.72,2.85,3,3,0,0,1-3.23,3.12c-1.86,0-3.33-1-3.33-4.17,0-3.31,1.26-5,3.55-5,1.8,0,2.63.9,2.76,2.17Zm.1,4a1.53,1.53,0,0,0-1.53-1.74c-.9,0-1.55.57-1.55,1.74a1.55,1.55,0,1,0,3.08,0Z"/><rect class="cls-5" x="246.4" y="368.68" width="18" height="18"/><path class="cls-9" d="M257.7,380.06v2h-1.58v-2h-4.19V378.9l3.9-5.68h1.87v5.57h1.1v1.27Zm-1.55-1.26v-4.07h0a5.41,5.41,0,0,1-.53.94l-2.1,3.13Z"/><rect class="cls-3" x="266.4" y="368.68" width="18" height="18"/><path class="cls-9" d="M277.7,380.06v2h-1.58v-2h-4.19V378.9l3.9-5.68h1.87v5.57h1.1v1.27Zm-1.55-1.26v-4.07h0a5.41,5.41,0,0,1-.53.94l-2.1,3.13Z"/><rect class="cls-6" x="286.4" y="368.68" width="18" height="18"/><path class="cls-9" d="M297.7,380.06v2h-1.58v-2h-4.19V378.9l3.9-5.68h1.87v5.57h1.1v1.27Zm-1.55-1.26v-4.07h0a5.41,5.41,0,0,1-.53.94l-2.1,3.13Z"/><rect class="cls-3" x="520.19" y="184.75" width="18" height="18"/><path class="cls-9" d="M530.74,191.33a1.18,1.18,0,0,0-1.27-1c-1.22,0-1.82,1.22-1.87,3.23h0a2.31,2.31,0,0,1,2.13-1.18,2.63,2.63,0,0,1,2.72,2.86,3,3,0,0,1-3.22,3.12c-1.86,0-3.34-1-3.34-4.18,0-3.31,1.26-5,3.55-5,1.8,0,2.63.9,2.76,2.17Zm.11,4a1.54,1.54,0,0,0-1.54-1.74c-.9,0-1.54.56-1.54,1.74a1.55,1.55,0,1,0,3.08,0Z"/><rect class="cls-3" x="520.19" y="133.32" width="18" height="18"/><path class="cls-9" d="M531.49,144.71v2h-1.58v-2h-4.19v-1.16l3.9-5.69h1.87v5.58h1.1v1.27Zm-1.55-1.26v-4.08h0a5.68,5.68,0,0,1-.53.95l-2.1,3.13Z"/><rect class="cls-3" x="374.34" y="75.38" width="18" height="18"/><path class="cls-9" d="M383,82.54h-1.75V81.49h.24a1.91,1.91,0,0,0,1.3-.4,1.54,1.54,0,0,0,.42-1.2h1.41V88.8H383Z"/><rect class="cls-3" x="394.34" y="75.38" width="18" height="18"/><path class="cls-9" d="M400.3,82.8a2.86,2.86,0,0,1,3.13-3c2.11,0,3,1.19,3,2.49s-.6,2-2,3.3l-2,1.89v0h4V88.8H400.1v-1l3.1-3c1-1,1.52-1.59,1.52-2.43A1.24,1.24,0,0,0,403.4,81c-.76,0-1.47.44-1.47,1.78Z"/><rect class="cls-5" x="220.32" y="47.62" width="18" height="18"/><path class="cls-9" d="M229,54.79H227.2V53.73h.24a1.94,1.94,0,0,0,1.3-.39,1.52,1.52,0,0,0,.42-1.2h1.41v8.91H229Z"/><rect class="cls-5" x="240.32" y="47.62" width="18" height="18"/><path class="cls-9" d="M246.29,55a2.85,2.85,0,0,1,3.13-3c2.11,0,3,1.19,3,2.48s-.6,2-2,3.3l-2,1.9v0h4v1.32h-6.33V60l3.11-3c1-1,1.51-1.58,1.51-2.42a1.24,1.24,0,0,0-1.32-1.35c-.76,0-1.46.45-1.46,1.78Z"/></g></g></g></g></svg>