<svg xmlns="http://www.w3.org/2000/svg" viewBox="0 0 600 430"><defs><style>.cls-1,.cls-23,.cls-34{fill:#fff;}.cls-1{opacity:0.95;}.cls-2{fill:#009bf5;}.cls-3{fill:#ff6400;}.cls-4{fill:#232323;}.cls-5{fill:#7dc300;}.cls-6{fill:#463ca0;}.cls-7{fill:#b40097;}.cls-19,.cls-8{font-size:11px;}.cls-8{fill:#1d1d1b;font-family:AtlasGrotesk-Regular, Atlas Grotesk;}.cls-9{letter-spacing:0em;}.cls-10{letter-spacing:0em;}.cls-11{letter-spacing:0em;}.cls-12{letter-spacing:-0.04em;}.cls-13{letter-spacing:-0.01em;}.cls-14{letter-spacing:0.01em;}.cls-15{letter-spacing:0.04em;}.cls-16{letter-spacing:0em;}.cls-17{letter-spacing:0.01em;}.cls-18{letter-spacing:0.04em;}.cls-19,.cls-34{font-family:AtlasGrotesk-Medium, Atlas Grotesk;font-weight:500;}.cls-20{letter-spacing:0em;}.cls-21{letter-spacing:-0.01em;}.cls-22{letter-spacing:0.01em;}.cls-24{fill:#b3b3b3;}.cls-24,.cls-25{opacity:0.65;}.cls-26{fill:#737373;}.cls-27,.cls-29{fill:none;}.cls-27{stroke:#666;stroke-miterlimit:10;stroke-width:0.25px;}.cls-28{fill:#fcfffd;}.cls-30{fill:#595959;}.cls-31{fill:#7c7c7c;}.cls-32,.cls-33{opacity:0.1;}.cls-34{font-size:12px;}</style></defs><title>Zeichenfläche 28</title><g id="Klein"><g id="H2"><g id="H2Hintergrund"><rect class="cls-1" width="600" height="430"/><rect class="cls-2" x="21.91" y="219.77" width="20" height="10"/><rect class="cls-3" x="21.91" y="239.77" width="20" height="10"/><rect class="cls-4" x="21.91" y="199.77" width="20" height="10"/><rect class="cls-5" x="21.91" y="259.77" width="20" height="10"/><rect class="cls-6" x="21.91" y="279.77" width="20" height="10"/><rect class="cls-7" x="21.91" y="299.77" width="20" height="10"/><text class="cls-8" transform="translate(50.45 208.77)">G<tspan class="cls-9" x="9.11" y="0">r</tspan><tspan class="cls-10" x="13.35" y="0">und</tspan><tspan class="cls-9" x="33.45" y="0">l</tspan><tspan class="cls-11" x="36.44" y="0">a</tspan><tspan x="42.58" y="0">g</tspan><tspan class="cls-9" x="49.28" y="0">e</tspan><tspan x="55.27" y="0">n</tspan><tspan class="cls-12" x="0" y="20">P</tspan><tspan class="cls-13" x="6.59" y="20">r</tspan><tspan class="cls-14" x="10.78" y="20">o</tspan><tspan x="17.13" y="20">duk</tspan><tspan class="cls-14" x="36.67" y="20">t</tspan><tspan x="40.78" y="20">ges</tspan><tspan class="cls-15" x="59.06" y="20">t</tspan><tspan x="63.49" y="20">al</tspan><tspan class="cls-11" x="72.62" y="20">t</tspan><tspan x="76.67" y="20">ung</tspan><tspan class="cls-13" x="0" y="40">K</tspan><tspan class="cls-16" x="7.74" y="40">ommuni</tspan><tspan class="cls-9" x="51.08" y="40">k</tspan><tspan x="57.17" y="40">a</tspan><tspan class="cls-17" x="63.25" y="40">t</tspan><tspan class="cls-16" x="67.35" y="40">ion</tspan><tspan class="cls-11" x="83.35" y="40">s</tspan><tspan x="88.93" y="40">ges</tspan><tspan class="cls-15" x="107.21" y="40">t</tspan><tspan x="111.65" y="40">al</tspan><tspan class="cls-11" x="120.78" y="40">t</tspan><tspan x="124.83" y="40">ung</tspan><tspan x="0" y="60">In</tspan><tspan class="cls-14" x="10.01" y="60">t</tspan><tspan class="cls-9" x="14.11" y="60">e</tspan><tspan class="cls-13" x="20.11" y="60">r</tspan><tspan x="24.3" y="60">ak</tspan><tspan class="cls-14" x="36.52" y="60">t</tspan><tspan x="40.62" y="60">ion</tspan><tspan class="cls-11" x="56.62" y="60">s</tspan><tspan class="cls-16" x="62.2" y="60">ges</tspan><tspan class="cls-18" x="80.49" y="60">t</tspan><tspan x="84.92" y="60">al</tspan><tspan class="cls-11" x="94.05" y="60">t</tspan><tspan x="98.1" y="60">ung</tspan><tspan x="0" y="80">In</tspan><tspan class="cls-14" x="10.01" y="80">t</tspan><tspan class="cls-9" x="14.11" y="80">e</tspan><tspan class="cls-13" x="20.11" y="80">r</tspan><tspan x="24.3" y="80">net d</tspan><tspan class="cls-9" x="50.74" y="80">e</tspan><tspan x="56.74" y="80">r Dinge</tspan><tspan x="0" y="100">S</tspan><tspan class="cls-11" x="7.85" y="100">t</tspan><tspan class="cls-13" x="11.9" y="100">r</tspan><tspan x="16.09" y="100">a</tspan><tspan class="cls-14" x="22.18" y="100">t</tspan><tspan class="cls-11" x="26.28" y="100">e</tspan><tspan x="32.38" y="100">gi</tspan><tspan class="cls-11" x="42.15" y="100">s</tspan><tspan class="cls-9" x="47.74" y="100">c</tspan><tspan x="53.58" y="100">he Ges</tspan><tspan class="cls-18" x="90" y="100">t</tspan><tspan x="94.43" y="100">al</tspan><tspan class="cls-11" x="103.56" y="100">t</tspan><tspan class="cls-10" x="107.61" y="100">ung</tspan></text><text class="cls-19" transform="translate(21.91 31.59)">G<tspan class="cls-20" x="8.98" y="0">r</tspan><tspan class="cls-16" x="13.49" y="0">undriss </tspan><tspan class="cls-11" x="56.26" y="0">z</tspan><tspan class="cls-21" x="62.2" y="0">w</tspan><tspan x="71.43" y="0">ei</tspan><tspan class="cls-11" x="81.04" y="0">t</tspan><tspan class="cls-9" x="85.35" y="0">e</tspan><tspan x="91.71" y="0">r S</tspan><tspan class="cls-22" x="106.7" y="0">to</tspan><tspan class="cls-20" x="117.68" y="0">c</tspan><tspan x="123.94" y="0">k</tspan></text><path class="cls-23" d="M566.53,403.2h4.76V288.12H384.81v13.44h-81.9v-131l41.73,7.39,7.07-16.39,136.84,23.7V220.5h79.8v-110H518c1.35-1.68,2.94-4.27,2.94-7,0-7.47-4.72-11-8.73-12.11l2.1-14.28-17-22.67-29.39-5-25,17.44L345.84,50.16,329.7,47.38,188.37,23.1,170.19,128.87l55.52,9.54V403.2h4.77v-.06l.69.06h313m0,0h22.4m-336.06-4.85h0c.37,0,.67.07.86.09C231.13,398.42,230.84,398.4,230.47,398.35Zm89.38.09h0m166.32,0h0"/></g><g id="Rooms-3" data-name="Rooms"><g id="H2Flur01"><polygon class="cls-24" points="298.15 301.56 298.15 231.54 277.85 231.54 277.85 354.55 541.75 354.55 541.75 354.54 544.13 354.54 544.13 398.44 544.13 403.2 566.53 403.2 566.53 334.04 387.19 334.04 387.19 306.32 387.12 306.32 372.32 306.32 372.32 334.11 311.02 334.11 311.02 331.73 321.45 331.73 321.45 306.32 300.53 306.32 300.53 332.92 298.15 332.92 298.15 306.32 298.15 301.56"/></g><g id="H2Flur02"><path class="cls-24" d="M277.85,159.53v72h20.3v-85l2.54-15.22,2.34.4-2.53,15.21,0,18.38.9.16,40.33,7.15,5.58-12.94,1.49-3.44,9.32-54.29L285.3,89.38l-9.77,55.55-45-8.11v13.63L277,158.7Zm40.24-22.45L335.2,140l-2.52,14.1-17-2.92Z"/></g><g id="H218"><rect class="cls-24" x="415.19" y="356.93" width="68.6" height="41.51"/></g><g id="H216"><path class="cls-24" d="M230.47,356.93v41.42c.37,0,.67.07.86.09h86.14V356.93Z"/></g><g id="H210"><g class="cls-25"><polygon class="cls-26" points="266.11 41.29 266.13 41.2 241.63 36.99 241.65 36.91 217.06 32.68 192.47 28.46 188.33 52.55 184.19 76.65 180.05 100.75 175.91 124.84 200.39 129.14 224.87 133.44 249.34 137.73 273.82 142.03 290.6 45.5 266.11 41.29"/></g></g><g id="H2CAD01"><g class="cls-25"><rect class="cls-26" x="230.47" y="246.68" width="45" height="70.7"/></g></g><g id="H2CAD02"><g class="cls-25"><rect class="cls-26" x="230.47" y="170.66" width="45" height="73.64"/></g></g><g id="H2CAD03"><g class="cls-25"><polygon class="cls-26" points="434.63 112.62 441.7 71.46 352.58 56.15 345.62 97.33 434.63 112.62"/></g></g></g><g id="Grundriss-4" data-name="Grundriss"><g id="Treppen"><line class="cls-27" x1="300.56" y1="328.3" x2="321.45" y2="328.3"/><line class="cls-27" x1="300.56" y1="326.62" x2="321.45" y2="326.62"/><line class="cls-27" x1="300.56" y1="324.94" x2="321.45" y2="324.94"/><line class="cls-27" x1="300.56" y1="323.26" x2="321.45" y2="323.26"/><line class="cls-27" x1="300.56" y1="321.58" x2="321.45" y2="321.58"/><line class="cls-27" x1="300.56" y1="319.9" x2="321.45" y2="319.9"/><line class="cls-27" x1="300.56" y1="318.22" x2="321.45" y2="318.22"/><line class="cls-27" x1="300.56" y1="316.54" x2="321.45" y2="316.54"/><line class="cls-27" x1="300.56" y1="314.86" x2="321.45" y2="314.86"/><line class="cls-27" x1="300.56" y1="313.18" x2="321.45" y2="313.18"/><line class="cls-27" x1="311.02" y1="334.11" x2="311.02" y2="313.18"/><line class="cls-27" x1="332.38" y1="153.77" x2="349.29" y2="156.77"/><line class="cls-27" x1="333.01" y1="152.27" x2="349.57" y2="155.12"/><line class="cls-27" x1="333.3" y1="150.61" x2="349.86" y2="153.46"/><line class="cls-27" x1="333.58" y1="148.96" x2="350.14" y2="151.8"/><line class="cls-27" x1="333.87" y1="147.3" x2="350.42" y2="150.15"/><line class="cls-27" x1="334.15" y1="145.65" x2="350.71" y2="148.49"/><line class="cls-27" x1="334.44" y1="143.99" x2="350.99" y2="146.84"/><line class="cls-27" x1="320.03" y1="139.83" x2="302.2" y2="136.66"/><line class="cls-27" x1="319.8" y1="141.4" x2="301.95" y2="138.33"/><line class="cls-27" x1="319.51" y1="143.06" x2="301.67" y2="139.99"/><line class="cls-27" x1="319.23" y1="144.71" x2="301.38" y2="141.64"/><line class="cls-27" x1="318.95" y1="146.37" x2="301.1" y2="143.3"/><line class="cls-27" x1="318.66" y1="148.02" x2="300.82" y2="144.95"/><line class="cls-27" x1="318.38" y1="149.68" x2="300.53" y2="146.61"/><line class="cls-27" x1="325.91" y1="151.92" x2="322.63" y2="170.96"/><line class="cls-27" x1="324.25" y1="151.63" x2="320.98" y2="170.67"/><line class="cls-27" x1="322.59" y1="151.35" x2="319.32" y2="170.39"/><line class="cls-27" x1="320.94" y1="151.06" x2="317.67" y2="170.11"/><line class="cls-27" x1="319.28" y1="150.78" x2="316.01" y2="169.82"/><line class="cls-27" x1="317.63" y1="150.5" x2="314.36" y2="169.54"/><line class="cls-27" x1="330.87" y1="152.77" x2="327.6" y2="171.81"/><line class="cls-27" x1="329.22" y1="152.49" x2="325.95" y2="171.53"/><line class="cls-27" x1="327.56" y1="152.2" x2="324.29" y2="171.24"/><line class="cls-27" x1="325.91" y1="151.92" x2="322.63" y2="170.96"/><line class="cls-27" x1="324.25" y1="151.63" x2="320.98" y2="170.67"/><line class="cls-27" x1="322.59" y1="151.35" x2="319.32" y2="170.39"/><line class="cls-27" x1="320.94" y1="151.06" x2="317.67" y2="170.11"/><line class="cls-27" x1="319.28" y1="150.78" x2="316.01" y2="169.82"/><line class="cls-27" x1="317.63" y1="150.5" x2="314.36" y2="169.54"/><line class="cls-27" x1="330.87" y1="152.77" x2="327.6" y2="171.81"/><line class="cls-27" x1="329.22" y1="152.49" x2="325.95" y2="171.53"/><line class="cls-27" x1="327.56" y1="152.2" x2="324.29" y2="171.24"/><line class="cls-27" x1="332.38" y1="153.77" x2="349.29" y2="156.77"/><line class="cls-27" x1="333.01" y1="152.27" x2="349.57" y2="155.12"/><line class="cls-27" x1="333.3" y1="150.61" x2="349.86" y2="153.46"/><line class="cls-27" x1="333.58" y1="148.96" x2="350.14" y2="151.8"/><line class="cls-27" x1="333.87" y1="147.3" x2="350.42" y2="150.15"/><line class="cls-27" x1="334.15" y1="145.65" x2="350.71" y2="148.49"/><line class="cls-27" x1="334.44" y1="143.99" x2="350.99" y2="146.84"/><line class="cls-27" x1="334.72" y1="142.34" x2="351.28" y2="145.18"/><line class="cls-27" x1="319.8" y1="141.4" x2="301.95" y2="138.33"/><line class="cls-27" x1="319.51" y1="143.06" x2="301.67" y2="139.99"/><line class="cls-27" x1="319.23" y1="144.71" x2="301.38" y2="141.64"/><line class="cls-27" x1="318.95" y1="146.37" x2="301.1" y2="143.3"/><line class="cls-27" x1="318.66" y1="148.02" x2="300.82" y2="144.95"/><line class="cls-27" x1="318.38" y1="149.68" x2="300.53" y2="146.61"/><line class="cls-27" x1="318.23" y1="151.44" x2="300.39" y2="148.37"/></g><g id="H217"><rect class="cls-23" x="319.85" y="356.93" width="92.96" height="41.51"/></g><rect class="cls-28" x="445.01" y="292.88" width="90.02" height="38.78"/><rect class="cls-28" x="230.47" y="319.76" width="45.01" height="34.78"/><polygon class="cls-28" points="275.47 160.84 230.47 152.87 230.47 168.28 275.47 168.28 275.47 160.84"/><polygon class="cls-28" points="541.47 398.44 541.75 398.44 541.75 356.93 486.17 356.93 486.17 398.44 541.47 398.44"/><polygon class="cls-28" points="332.44 141.97 320.03 139.83 318.39 149.27 330.75 151.38 332.44 141.97"/><polygon class="cls-28" points="440.7 116.08 431.35 170.48 489.37 180.53 491.29 180.86 500.64 126.32 457.75 119.01 440.7 116.08"/><polygon class="cls-28" points="429 170.07 438.35 115.68 360.5 102.3 351.17 156.59 429 170.07"/><polygon class="cls-28" points="285.71 87.04 317.07 92.42 324.14 51.26 292.95 45.9 285.71 87.04"/><rect class="cls-28" x="323.83" y="306.32" width="46.11" height="25.41"/><rect class="cls-28" x="415.19" y="292.88" width="27.44" height="38.78"/><polygon class="cls-28" points="389.57 292.88 389.57 301.56 389.57 306.32 389.57 306.32 389.57 331.66 412.81 331.66 412.81 292.88 389.57 292.88"/><rect class="cls-28" x="537.41" y="292.88" width="29.12" height="38.78"/><polygon class="cls-28" points="343.27 96.92 350.23 55.74 345.04 54.85 328.89 52.08 326.49 51.66 319.42 92.83 343.27 96.92"/><line class="cls-29" x1="230.48" y1="134.4" x2="273.6" y2="142.17"/><polygon class="cls-28" points="517.95 115.22 516.69 115.22 516.69 115.22 505.03 115.22 503.2 125.51 493.31 183.11 493.31 185.22 493.31 215.74 563.59 215.74 563.59 115.22 517.95 115.22"/><path class="cls-28" d="M502.61,115.22l0-.09.5-2.8h0l.35-1.87h8.35l2.39-3a7.44,7.44,0,0,0,1.89-4c0-5.26-3.3-7-5.26-7.53l-4-1.13.61-4.15,1.82-12.31L494.57,58.81,469,54.42,445.62,70.74l-1.57,1.09L437,113l21.18,3.64,42.9,7.31,1.57-8.75Z"/><g id="Wand"><path class="cls-30" d="M537.41,288.12H384.81v13.44h-81.9v-131l41.73,7.39,7.07-16.39,136.84,23.7V220.5h79.8v-110H518c1.35-1.68,2.94-4.27,2.94-7,0-7.47-4.72-11-8.73-12.11l2.1-14.28-17-22.67-29.39-5-25,17.44L345.84,50.16,329.7,47.38,188.37,23.1,170.19,128.87l55.52,9.54V403.2h4.77v-.06l.69.06h313V354.54H277.85v-195l-.82-.83-46.56-8.25V136.82l45,8.11,9.77-55.55,72.85,12.52-9.32,54.29-1.49,3.44-5.58,12.94-40.33-7.15-.9-.16,0-18.38.51-3.06,2-12.15-2.34-.4-2.54,15.22V332.92h2.38v-26.6h20.92v25.41H311v2.38h61.3V306.32h14.87V334H566.53V403.2h4.76V288.12Zm-48-107.59-58-10.05,9.35-54.4L457.75,119l42.89,7.31-9.36,54.54Zm27.32-65.31h46.9V215.74H493.31V183.11l9.89-57.6L505,115.22ZM444.05,71.83l1.57-1.09L469,54.42l25.59,4.39,14.69,19.57-1.82,12.31-.61,4.15,4,1.13c2,.55,5.26,2.27,5.26,7.53a7.44,7.44,0,0,1-1.89,4l-2.39,3H503.5l-.35,1.87h0l-.5,2.81,0,.08h0L501.05,124l-42.9-7.31L437,113ZM230.46,353.45V319.76h45v34.78h-45v-1.09Zm45-106.77v70.7h-45v-70.7Zm-45-2.38V170.66h45V244.3Zm255.7,112.63h55.58v41.51H486.17Zm-166.32,0H483.79v41.51h-68.6V356.93h-2.38v41.51h-93Zm-2.38,0v41.51H231.33c-.2,0-.49,0-.86-.09V356.93Zm-42-196.09v7.44h-45V152.87Zm-1.87-18.67-43.12-7.77-4-.68L175.69,125,192.25,28.6,290.6,45.5ZM285.71,87,293,45.9l31.19,5.36-7.07,41.16Zm33.71,5.79,7.07-41.16,2.4.41L345,54.85l5.19.89-7,41.19Zm26.2,4.5,7-41.18L441.7,71.46l-7.07,41.16Zm14.88,5,77.85,13.38L429,170.07l-77.83-13.48Zm9.44,229.43H323.83V306.32h46.11Zm42.87-.07H389.57V292.88h23.24Zm29.82,0H415.19V292.88h27.44Zm92.4,0H445V292.88h90Zm31.5,0H537.41V292.88h29.12Z"/><rect class="cls-31" x="480.6" y="108.32" width="5.46" height="5.46" transform="translate(674.63 -346.5) rotate(99.75)"/><rect class="cls-31" x="459.91" y="104.76" width="5.46" height="5.46" transform="translate(646.92 -330.26) rotate(99.75)"/><rect class="cls-31" x="463.68" y="149.73" width="5.46" height="5.46" transform="translate(695.66 -281.4) rotate(99.75)"/><path class="cls-30" d="M318.09,137.08l-1.22,7.06-1.23,7.07,8.52,1.46,8.52,1.46,1.26-7L335.2,140l-8.55-1.48Zm12.66,14.3-12.36-2.11,1.64-9.44,12.4,2.14Z"/></g><g id="Schatten"><line class="cls-32" x1="230.48" y1="134.4" x2="273.6" y2="142.17"/><polygon class="cls-32" points="451.31 301.28 535.03 301.28 535.03 292.88 445.01 292.88 445.01 331.66 451.31 331.66 451.31 301.28"/><polygon class="cls-32" points="236.77 255.08 275.47 255.08 275.47 246.68 230.47 246.68 230.47 317.38 236.77 317.38 236.77 255.08"/><polygon class="cls-32" points="236.77 179.06 275.47 179.06 275.47 170.66 230.47 170.66 230.47 244.3 236.77 244.3 236.77 179.06"/><polygon class="cls-32" points="236.77 328.16 275.47 328.16 275.47 319.76 230.47 319.76 230.46 354.55 236.76 354.55 236.77 328.16"/><polygon class="cls-32" points="198.56 37 289.35 52.6 290.6 45.5 192.25 28.6 175.69 124.99 183.21 126.28 198.56 37"/><polygon class="cls-32" points="236.78 161.27 275.47 168.13 275.47 160.84 230.47 152.87 230.47 168.28 236.77 168.28 236.78 161.27"/><polygon class="cls-32" points="393.49 342.44 566.53 342.44 566.53 334.04 387.19 334.04 393.49 342.44"/><polygon class="cls-32" points="311.02 334.11 317.32 342.51 378.62 342.51 378.62 314.72 387.19 314.72 387.19 306.32 387.12 306.32 372.32 306.32 372.32 334.11 311.02 334.11"/><polygon class="cls-32" points="284.15 167.93 283.33 167.1 277.85 166.13 277.85 354.55 284.15 354.55 284.15 167.93"/><polygon class="cls-32" points="550.43 362.94 544.13 354.54 544.13 398.44 544.13 403.2 550.43 403.2 550.43 362.94"/><polygon class="cls-32" points="236.78 145.22 281.83 153.34 291.6 97.78 356.93 109 358.15 101.9 285.3 89.38 275.53 144.94 230.47 136.82 230.47 150.45 236.78 151.57 236.78 145.22"/><polygon class="cls-32" points="492.47 365.33 541.75 365.33 541.75 356.93 486.17 356.93 486.17 398.44 492.47 398.44 492.47 365.33"/><polygon class="cls-32" points="326.15 365.33 412.81 365.33 412.81 356.93 319.85 356.93 319.85 398.44 326.15 398.44 326.15 365.33"/><polygon class="cls-32" points="421.49 365.33 483.79 365.33 483.79 356.93 415.19 356.93 415.19 398.44 421.49 398.44 421.49 365.33"/><polygon class="cls-32" points="447 124.48 464.05 127.41 499.42 133.44 500.64 126.32 457.75 119.01 440.7 116.08 431.35 170.48 438.87 171.78 447 124.48"/><polygon class="cls-32" points="366.8 110.7 437.13 122.78 438.35 115.68 360.5 102.3 351.17 156.59 358.69 157.9 366.8 110.7"/><polygon class="cls-32" points="299.25 54.3 322.92 58.37 324.14 51.26 292.95 45.9 285.71 87.04 293.26 88.33 299.25 54.3"/><polygon class="cls-32" points="330.13 314.72 369.94 314.72 369.94 306.32 323.83 306.32 323.83 331.73 330.13 331.73 330.13 314.72"/><polygon class="cls-32" points="421.49 301.28 442.63 301.28 442.63 292.88 415.19 292.88 415.19 331.66 421.49 331.66 421.49 301.28"/><polygon class="cls-32" points="395.88 314.72 395.88 309.96 395.88 301.28 412.81 301.28 412.81 292.88 389.57 292.88 389.57 301.56 389.57 306.32 389.57 331.66 395.88 331.66 395.88 314.72"/><polygon class="cls-32" points="543.71 301.28 566.53 301.28 566.53 292.88 537.41 292.88 537.41 331.66 543.71 331.66 543.71 301.28"/><polygon class="cls-32" points="332.79 60.06 335.19 60.48 349.03 62.85 350.23 55.74 345.04 54.85 328.89 52.08 326.49 51.66 319.42 92.83 326.94 94.12 332.79 60.06"/><polygon class="cls-32" points="358.88 64.55 440.48 78.57 441.7 71.46 352.58 56.15 345.62 97.33 353.12 98.62 358.88 64.55"/><polygon class="cls-32" points="499.62 193.62 499.62 191.51 509.5 133.91 511.33 123.62 522.99 123.62 522.99 123.62 524.25 123.62 563.59 123.62 563.59 115.22 517.95 115.22 516.69 115.22 516.69 115.22 505.03 115.22 503.2 125.51 493.31 183.11 493.31 185.22 493.31 215.74 499.62 215.74 499.62 193.62"/><g class="cls-33"><path d="M513.9,96.32l-7.07-1.48,6.3,8.4,2.93.82a3,3,0,0,0,.07-.56C516.13,100.64,515.1,97.47,513.9,96.32Z"/><polygon points="450.35 80.23 451.92 79.14 475.28 62.82 500.87 67.21 509.25 78.38 509.26 78.38 494.57 58.81 468.98 54.42 445.62 70.74 444.05 71.83 436.97 113.02 444.5 114.32 450.35 80.23"/></g><path class="cls-32" d="M236.77,365.33h80.7v-8.4h-87v41.42c.37,0,.67.07.86.09h5.44Z"/><polygon class="cls-32" points="469.56 163.09 463.26 154.69 468.64 155.61 469.57 150.23 475.87 158.63 474.94 164.01 469.56 163.09"/><polygon class="cls-32" points="486.48 121.68 480.18 113.28 485.56 114.2 486.49 108.82 492.79 117.22 491.86 122.6 486.48 121.68"/><polygon class="cls-32" points="465.78 118.12 459.48 109.72 464.86 110.64 465.79 105.26 472.09 113.66 471.16 119.04 465.78 118.12"/><g class="cls-33"><polygon points="318.66 191.52 360.39 198.91 367.46 182.52 488.55 203.49 488.55 185.22 351.71 161.52 344.64 177.91 302.91 170.52 302.91 301.56 318.66 301.56 318.66 191.52"/><polygon points="584.1 131.46 568.35 110.46 568.35 220.5 488.55 220.5 504.3 241.5 584.1 241.5 584.1 131.46"/><polygon points="225.71 138.41 170.19 128.87 185.94 149.87 225.71 156.71 225.71 138.41"/><path d="M571.29,288.12V403.2H225.7l15.75,20.09v.91h4.77v-.06l.69.06H587V309.12Z"/><path d="M512.16,91.39c4,1.13,8.73,4.64,8.73,12.11,0,2.69-1.59,5.28-2.94,7h10.24L530,98.11l-15.76-21Z"/></g><polygon class="cls-32" points="304.45 306.36 300.53 306.36 300.53 332.92 298.15 332.92 304.45 341.32 306.15 334.03 306.15 321.01 303.79 313.18 303.79 310.56 321.29 310.56 321.29 306.36 304.45 306.36"/><polygon class="cls-32" points="300.53 165.26 304.93 166.02 304.93 147.37 307.49 137.6 303.04 131.66 300.53 146.69 300.53 165.26"/></g><g id="Marker-3" data-name="Marker"><rect class="cls-7" x="254.97" y="368.68" width="18" height="18"/><text class="cls-34" transform="translate(261.41 382.11)">1</text><rect class="cls-7" x="274.97" y="368.68" width="18" height="18"/><text class="cls-34" transform="translate(280.19 382.11)">2</text><rect class="cls-7" x="430.49" y="368.68" width="18" height="18"/><text class="cls-34" transform="translate(436.93 382.11)">1</text><rect class="cls-7" x="450.49" y="368.68" width="18" height="18"/><text class="cls-34" transform="translate(455.71 382.11)">2</text><rect class="cls-5" x="234.26" y="67.91" width="18" height="18"/><text class="cls-34" transform="translate(239.9 81.33)">7</text><rect class="cls-2" x="214.26" y="67.91" width="18" height="18"/><text class="cls-34" transform="translate(219.9 81.33)">7</text><rect class="cls-3" x="214.26" y="87.91" width="18" height="18"/><text class="cls-34" transform="translate(219.9 101.33)">7</text><rect class="cls-6" x="234.26" y="87.91" width="18" height="18"/><text class="cls-34" transform="translate(239.9 101.33)">7</text></g></g></g></g></svg>