<svg xmlns="http://www.w3.org/2000/svg" viewBox="0 0 600 430"><defs><style>.cls-1,.cls-9{fill:#fff;}.cls-1{opacity:0.95;}.cls-2{fill:#009bf5;}.cls-3{fill:#ff6400;}.cls-4{fill:#232323;}.cls-5{fill:#7dc300;}.cls-6{fill:#463ca0;}.cls-7{fill:#b40097;}.cls-8{fill:#1d1d1b;}.cls-10{fill:#b3b3b3;}.cls-10,.cls-11{opacity:0.65;}.cls-12{fill:#737373;}.cls-13,.cls-15{fill:none;}.cls-13{stroke:#666;stroke-miterlimit:10;stroke-width:0.25px;}.cls-14{fill:#fcfffd;}.cls-16{fill:#595959;}.cls-17{fill:#7c7c7c;}.cls-18,.cls-19{opacity:0.1;}</style></defs><title>Zeichenfläche 28</title><g id="Klein"><g id="H2"><g id="H2Hintergrund"><rect class="cls-1" width="600" height="430"/><rect class="cls-2" x="21.91" y="219.77" width="20" height="10"/><rect class="cls-3" x="21.91" y="239.77" width="20" height="10"/><rect class="cls-4" x="21.91" y="199.77" width="20" height="10"/><rect class="cls-5" x="21.91" y="259.77" width="20" height="10"/><rect class="cls-6" x="21.91" y="279.77" width="20" height="10"/><rect class="cls-7" x="21.91" y="299.77" width="20" height="10"/><path class="cls-8" d="M52.27,204.63c0,2.23.95,3.48,2.66,3.48a2.33,2.33,0,0,0,2.54-2.57v-.12H55v-.9h3.43v4.25h-.89v-1.21h0a2.83,2.83,0,0,1-2.63,1.38c-2.12,0-3.7-1.38-3.7-4.34,0-2.75,1.66-4.37,3.84-4.37,1.72,0,3,.87,3.18,2.35H57.15A2,2,0,0,0,55,201C53.21,201,52.27,202.47,52.27,204.63Z"/><path class="cls-8" d="M60.59,203h.94v1.09h0a2.08,2.08,0,0,1,1.83-1.2h.1v1H63.3a1.58,1.58,0,0,0-1.72,1.72v3.16h-1Z"/><path class="cls-8" d="M65.79,206.53a2.09,2.09,0,0,0,.21,1.18,1.07,1.07,0,0,0,.89.39c1.08,0,1.59-.72,1.59-2V203h1v5.8h-1v-1h0a2,2,0,0,1-1.83,1.13,1.68,1.68,0,0,1-1.86-1.9v-4h1Z"/><path class="cls-8" d="M75.21,205.19A2,2,0,0,0,75,204a1.06,1.06,0,0,0-.91-.39,1.47,1.47,0,0,0-1.58,1.64v3.48h-1V203h.94v1h0a2,2,0,0,1,1.87-1.12,1.66,1.66,0,0,1,1.85,1.9v4h-1Z"/><path class="cls-8" d="M82.87,208.77h-1v-1h0a2.07,2.07,0,0,1-1.83,1.1c-1.23,0-2.37-.77-2.37-3,0-2,1-3.08,2.5-3.08a1.73,1.73,0,0,1,1.66,1h0V200.1h1Zm-1-3.13c0-1.23-.65-2-1.58-2-1.11,0-1.61.88-1.61,2.24s.38,2.27,1.54,2.27a1.69,1.69,0,0,0,1.65-1.87Z"/><path class="cls-8" d="M84.93,200.1h1v8.67h-1Z"/><path class="cls-8" d="M87.7,204.55c0-1,.81-1.72,2.19-1.72S92,203.43,92,205v2.37c0,.46.1.65.53.66v.8h-.12c-.93,0-1.24-.33-1.33-1h0a1.94,1.94,0,0,1-1.86,1.08,1.61,1.61,0,0,1-1.83-1.67,1.54,1.54,0,0,1,.87-1.46,6.73,6.73,0,0,1,2.8-.47V205c0-1-.4-1.45-1.21-1.45a1.05,1.05,0,0,0-1.21,1Zm3.37,1.59V206a4.8,4.8,0,0,0-2.34.42.85.85,0,0,0-.32.72c0,.59.38.91,1,.91A1.68,1.68,0,0,0,91.07,206.14Z"/><path class="cls-8" d="M93.69,209.35h1c.11.49.48.81,1.43.81,1.1,0,1.65-.4,1.65-1.68v-.86h0a2.06,2.06,0,0,1-1.84,1.07c-1.21,0-2.33-.76-2.33-2.9,0-1.92,1-3,2.45-3a1.83,1.83,0,0,1,1.74,1h0V203h.94v5.65c0,1.63-1.06,2.34-2.64,2.34C95,211,93.82,210.55,93.69,209.35Zm4.06-3.8a1.71,1.71,0,0,0-1.65-1.94c-1,0-1.54.87-1.54,2.18s.36,2.15,1.58,2.15a1.68,1.68,0,0,0,1.61-1.8Z"/><path class="cls-8" d="M102.86,208.91c-1.77,0-2.62-1.29-2.62-3s.93-3.06,2.59-3.06,2.42,1.34,2.42,2.8v.51h-4c.06,1.2.55,2,1.64,2a1.2,1.2,0,0,0,1.32-.9h1A2.16,2.16,0,0,1,102.86,208.91Zm1.38-3.62c0-1-.41-1.72-1.42-1.72s-1.43.73-1.55,1.79h3Z"/><path class="cls-8" d="M110.44,205.19a2,2,0,0,0-.21-1.15,1.06,1.06,0,0,0-.91-.39,1.46,1.46,0,0,0-1.57,1.64v3.48h-1V203h.93v1h0a2,2,0,0,1,1.87-1.12,1.66,1.66,0,0,1,1.85,1.9v4h-1Z"/><path class="cls-8" d="M52.62,225.55v3.22h-1v-8.42h2.53c1.63,0,2.9.77,2.9,2.59s-1.26,2.61-3,2.61Zm1.41-.82c1.23,0,1.93-.6,1.93-1.79s-.7-1.76-1.89-1.76H52.62v3.55Z"/><path class="cls-8" d="M58.07,223H59v1.09h0a2.08,2.08,0,0,1,1.84-1.2H61v1h-.18a1.58,1.58,0,0,0-1.72,1.72v3.16h-1Z"/><path class="cls-8" d="M61.74,225.86c0-1.79,1-3,2.61-3s2.59,1.24,2.59,3-1,3-2.61,3S61.74,227.68,61.74,225.86Zm1,0c0,1.42.47,2.28,1.59,2.28s1.55-.86,1.55-2.28-.46-2.28-1.57-2.28S62.77,224.45,62.77,225.86Z"/><path class="cls-8" d="M73.26,228.77h-.94v-1h0a2,2,0,0,1-1.82,1.1c-1.23,0-2.37-.77-2.37-3,0-2,1-3.08,2.5-3.08a1.73,1.73,0,0,1,1.66,1h0V220.1h1Zm-1-3.13c0-1.23-.64-2-1.57-2-1.11,0-1.62.88-1.62,2.24s.39,2.27,1.54,2.27a1.69,1.69,0,0,0,1.65-1.87Z"/><path class="cls-8" d="M76.29,226.53a2.09,2.09,0,0,0,.21,1.18,1,1,0,0,0,.89.39c1.08,0,1.58-.72,1.58-2V223h1v5.8H79v-1h0a2,2,0,0,1-1.82,1.13,1.68,1.68,0,0,1-1.86-1.9v-4h1Z"/><path class="cls-8" d="M83,228.77H82V220.1h1v5.66L85.43,223h1.15l-1.93,2.18,2.18,3.62H85.67L84,225.91,83,227Z"/><path class="cls-8" d="M89.38,221.29V223h1.43v.76H89.38v3.42c0,.62.25.86.88.86a4.52,4.52,0,0,0,.64-.06v.84a7.08,7.08,0,0,1-.92.06c-1.13,0-1.58-.55-1.58-1.54v-3.58H87.34V223h.18c.78,0,1-.19,1-1.3v-.41Z"/><path class="cls-8" d="M91.88,229.35h1c.11.49.49.81,1.43.81,1.1,0,1.65-.4,1.65-1.68v-.86h0a2.09,2.09,0,0,1-1.85,1.07c-1.21,0-2.32-.76-2.32-2.9,0-1.92,1-3,2.44-3a1.81,1.81,0,0,1,1.74,1h0V223h1v5.65c0,1.63-1.07,2.34-2.64,2.34C93.15,231,92,230.55,91.88,229.35Zm4.06-3.8a1.71,1.71,0,0,0-1.65-1.94c-1,0-1.54.87-1.54,2.18s.37,2.15,1.59,2.15a1.68,1.68,0,0,0,1.6-1.8Z"/><path class="cls-8" d="M101.06,228.91c-1.77,0-2.62-1.29-2.62-3s.93-3.06,2.59-3.06,2.42,1.34,2.42,2.8v.51h-4c.07,1.2.55,2,1.64,2a1.2,1.2,0,0,0,1.32-.9h1A2.17,2.17,0,0,1,101.06,228.91Zm1.37-3.62c0-1-.4-1.72-1.41-1.72s-1.44.73-1.56,1.79h3Z"/><path class="cls-8" d="M107.87,224.42c-.06-.52-.47-.85-1.16-.85a1,1,0,0,0-1.13.94c0,.47.29.69.87.79l.89.13c1.21.19,1.65.69,1.65,1.69,0,1.16-.95,1.79-2.27,1.79s-2.19-.54-2.26-1.78h1c0,.45.29,1,1.32,1,.79,0,1.28-.37,1.28-1,0-.46-.12-.71-.91-.85l-.89-.13c-1-.16-1.59-.59-1.59-1.6s.79-1.76,2.11-1.76,2,.58,2.06,1.59Z"/><path class="cls-8" d="M111.76,221.29V223h1.43v.76h-1.43v3.42c0,.62.25.86.88.86a4.33,4.33,0,0,0,.64-.06v.84a7,7,0,0,1-.91.06c-1.14,0-1.59-.55-1.59-1.54v-3.58h-1V223h.17c.78,0,1-.19,1-1.3v-.41Z"/><path class="cls-8" d="M114.75,224.55c0-1,.81-1.72,2.19-1.72s2.15.6,2.15,2.15v2.37c0,.46.1.65.53.66v.8h-.13c-.92,0-1.23-.33-1.33-1h0a1.94,1.94,0,0,1-1.86,1.08,1.61,1.61,0,0,1-1.83-1.67,1.54,1.54,0,0,1,.86-1.46,6.82,6.82,0,0,1,2.81-.47V225c0-1-.4-1.45-1.21-1.45a1.05,1.05,0,0,0-1.21,1Zm3.37,1.59V226a4.8,4.8,0,0,0-2.34.42.85.85,0,0,0-.32.72c0,.59.38.91,1,.91A1.68,1.68,0,0,0,118.12,226.14Z"/><path class="cls-8" d="M121.06,220.1h1v8.67h-1Z"/><path class="cls-8" d="M125.32,221.29V223h1.43v.76h-1.43v3.42c0,.62.26.86.88.86a4.33,4.33,0,0,0,.64-.06v.84a6.82,6.82,0,0,1-.91.06c-1.13,0-1.58-.55-1.58-1.54v-3.58h-1.06V223h.18c.78,0,1-.19,1-1.3v-.41Z"/><path class="cls-8" d="M129.11,226.53a2.09,2.09,0,0,0,.21,1.18,1.06,1.06,0,0,0,.89.39c1.08,0,1.58-.72,1.58-2V223h1v5.8h-.94v-1h0a2,2,0,0,1-1.82,1.13,1.68,1.68,0,0,1-1.86-1.9v-4h1Z"/><path class="cls-8" d="M138.52,225.19a2.07,2.07,0,0,0-.2-1.15,1.06,1.06,0,0,0-.92-.39,1.46,1.46,0,0,0-1.57,1.64v3.48h-1V223h.93v1h0a2,2,0,0,1,1.87-1.12,1.65,1.65,0,0,1,1.84,1.9v4h-1Z"/><path class="cls-8" d="M141.15,229.35h1c.11.49.48.81,1.43.81,1.1,0,1.65-.4,1.65-1.68v-.86h0a2.09,2.09,0,0,1-1.85,1.07c-1.21,0-2.32-.76-2.32-2.9,0-1.92,1-3,2.44-3a1.81,1.81,0,0,1,1.74,1h0V223h.95v5.65c0,1.63-1.07,2.34-2.64,2.34C142.42,231,141.28,230.55,141.15,229.35Zm4.06-3.8a1.71,1.71,0,0,0-1.65-1.94c-1,0-1.54.87-1.54,2.18s.36,2.15,1.59,2.15a1.68,1.68,0,0,0,1.6-1.8Z"/><path class="cls-8" d="M52.62,248.77h-1v-8.42h1v4.32l3.93-4.32h1.24l-3.24,3.53L58,248.77H56.78l-2.93-4.12L52.62,246Z"/><path class="cls-8" d="M58.71,245.86c0-1.79,1-3,2.61-3s2.58,1.24,2.58,3-1,3-2.61,3S58.71,247.68,58.71,245.86Zm1,0c0,1.42.48,2.28,1.6,2.28s1.55-.86,1.55-2.28-.46-2.28-1.57-2.28S59.73,244.45,59.73,245.86Z"/><path class="cls-8" d="M65.46,243h.94v1h0a2,2,0,0,1,1.86-1.12A1.63,1.63,0,0,1,70,244h0a2,2,0,0,1,1.89-1.19,1.66,1.66,0,0,1,1.84,1.9v4h-1v-3.59a2.05,2.05,0,0,0-.21-1.16,1,1,0,0,0-.9-.37,1.46,1.46,0,0,0-1.56,1.64v3.48h-1v-3.59a2,2,0,0,0-.21-1.14,1,1,0,0,0-.9-.39,1.46,1.46,0,0,0-1.57,1.62v3.5h-1Z"/><path class="cls-8" d="M75.79,243h.94v1h0a2,2,0,0,1,1.86-1.12A1.63,1.63,0,0,1,80.36,244h0a2,2,0,0,1,1.89-1.19,1.66,1.66,0,0,1,1.84,1.9v4h-1v-3.59a2.05,2.05,0,0,0-.21-1.16,1,1,0,0,0-.9-.37,1.46,1.46,0,0,0-1.56,1.64v3.48h-1v-3.59a2.05,2.05,0,0,0-.2-1.14,1,1,0,0,0-.91-.39,1.46,1.46,0,0,0-1.56,1.62v3.5h-1Z"/><path class="cls-8" d="M87.08,246.53a2.09,2.09,0,0,0,.21,1.18,1.06,1.06,0,0,0,.89.39c1.08,0,1.58-.72,1.58-2V243h1v5.8h-.94v-1h0A2,2,0,0,1,88,248.91,1.68,1.68,0,0,1,86.1,247v-4h1Z"/><path class="cls-8" d="M96.49,245.19a2,2,0,0,0-.21-1.15,1,1,0,0,0-.91-.39,1.46,1.46,0,0,0-1.57,1.64v3.48h-1V243h.93v1h0a2,2,0,0,1,1.87-1.12,1.65,1.65,0,0,1,1.84,1.9v4h-1Z"/><path class="cls-8" d="M99.47,240.58h1v1.07h-1Zm0,2.39h1v5.8h-1Z"/><path class="cls-8" d="M103.56,248.77h-1V240.1h1v5.66L106,243h1.15l-1.94,2.18,2.18,3.62h-1.15l-1.7-2.86-1,1.08Z"/><path class="cls-8" d="M108.43,244.55c0-1,.8-1.72,2.19-1.72s2.14.6,2.14,2.15v2.37c0,.46.1.65.53.66v.8h-.12c-.92,0-1.23-.33-1.33-1h0a1.94,1.94,0,0,1-1.86,1.08,1.62,1.62,0,0,1-1.84-1.67,1.55,1.55,0,0,1,.87-1.46,6.77,6.77,0,0,1,2.8-.47V245c0-1-.39-1.45-1.21-1.45a1.07,1.07,0,0,0-1.21,1Zm3.36,1.59V246a4.83,4.83,0,0,0-2.34.42.85.85,0,0,0-.32.72c0,.59.39.91,1,.91A1.68,1.68,0,0,0,111.79,246.14Z"/><path class="cls-8" d="M116,241.29V243h1.43v.76H116v3.42c0,.62.26.86.88.86a4.33,4.33,0,0,0,.64-.06v.84a7,7,0,0,1-.91.06c-1.14,0-1.59-.55-1.59-1.54v-3.58h-1V243h.17c.78,0,1-.19,1-1.3v-.41Z"/><path class="cls-8" d="M118.81,240.58h1v1.07h-1Zm0,2.39h1v5.8h-1Z"/><path class="cls-8" d="M121.39,245.86c0-1.79,1-3,2.6-3s2.59,1.24,2.59,3-1,3-2.61,3S121.39,247.68,121.39,245.86Zm1,0c0,1.42.47,2.28,1.59,2.28s1.56-.86,1.56-2.28-.47-2.28-1.58-2.28S122.41,244.45,122.41,245.86Z"/><path class="cls-8" d="M131.83,245.19a2,2,0,0,0-.21-1.15,1.06,1.06,0,0,0-.92-.39,1.47,1.47,0,0,0-1.57,1.64v3.48h-1V243h.94v1h0a2,2,0,0,1,1.87-1.12,1.66,1.66,0,0,1,1.85,1.9v4h-1Z"/><path class="cls-8" d="M137.69,244.42c-.06-.52-.47-.85-1.16-.85a1,1,0,0,0-1.13.94c0,.47.29.69.87.79l.89.13c1.21.19,1.65.69,1.65,1.69,0,1.16-.95,1.79-2.27,1.79s-2.18-.54-2.26-1.78h1c0,.45.29,1,1.32,1,.79,0,1.28-.37,1.28-1,0-.46-.12-.71-.91-.85l-.89-.13c-1-.16-1.59-.59-1.59-1.6s.79-1.76,2.11-1.76,2,.58,2.06,1.59Z"/><path class="cls-8" d="M140,249.35h1c.11.49.48.81,1.43.81s1.65-.4,1.65-1.68v-.86h0a2.09,2.09,0,0,1-1.85,1.07c-1.21,0-2.32-.76-2.32-2.9,0-1.92,1-3,2.44-3a1.81,1.81,0,0,1,1.74,1h0V243h1v5.65c0,1.63-1.07,2.34-2.64,2.34C141.31,251,140.17,250.55,140,249.35Zm4.06-3.8a1.71,1.71,0,0,0-1.65-1.94c-1,0-1.54.87-1.54,2.18s.36,2.15,1.58,2.15a1.68,1.68,0,0,0,1.61-1.8Z"/><path class="cls-8" d="M149.22,248.91c-1.77,0-2.62-1.29-2.62-3s.92-3.06,2.58-3.06,2.42,1.34,2.42,2.8v.51h-4c.07,1.2.55,2,1.64,2a1.2,1.2,0,0,0,1.32-.9h1A2.17,2.17,0,0,1,149.22,248.91Zm1.37-3.62c0-1-.41-1.72-1.42-1.72s-1.43.73-1.55,1.79h3Z"/><path class="cls-8" d="M156,244.42c-.06-.52-.48-.85-1.16-.85a1,1,0,0,0-1.13.94c0,.47.28.69.87.79l.89.13c1.21.19,1.65.69,1.65,1.69,0,1.16-1,1.79-2.27,1.79s-2.19-.54-2.26-1.78h1c0,.45.3,1,1.32,1,.8,0,1.29-.37,1.29-1,0-.46-.12-.71-.91-.85l-.89-.13c-1-.16-1.59-.59-1.59-1.6s.78-1.76,2.1-1.76,2,.58,2.07,1.59Z"/><path class="cls-8" d="M159.92,241.29V243h1.43v.76h-1.43v3.42c0,.62.25.86.88.86a4.33,4.33,0,0,0,.64-.06v.84a7.08,7.08,0,0,1-.92.06c-1.13,0-1.58-.55-1.58-1.54v-3.58h-1.06V243h.18c.78,0,1-.19,1-1.3v-.41Z"/><path class="cls-8" d="M162.91,244.55c0-1,.8-1.72,2.19-1.72s2.14.6,2.14,2.15v2.37c0,.46.1.65.53.66v.8h-.12c-.92,0-1.23-.33-1.33-1h0a1.94,1.94,0,0,1-1.86,1.08,1.62,1.62,0,0,1-1.84-1.67,1.55,1.55,0,0,1,.87-1.46,6.82,6.82,0,0,1,2.81-.47V245c0-1-.4-1.45-1.21-1.45a1.05,1.05,0,0,0-1.21,1Zm3.37,1.59V246a4.85,4.85,0,0,0-2.35.42.84.84,0,0,0-.31.72c0,.59.38.91,1,.91A1.69,1.69,0,0,0,166.28,246.14Z"/><path class="cls-8" d="M169.21,240.1h1v8.67h-1Z"/><path class="cls-8" d="M173.48,241.29V243h1.43v.76h-1.43v3.42c0,.62.26.86.88.86A4.33,4.33,0,0,0,175,248v.84a7,7,0,0,1-.91.06c-1.14,0-1.59-.55-1.59-1.54v-3.58h-1.05V243h.17c.78,0,1-.19,1-1.3v-.41Z"/><path class="cls-8" d="M177.27,246.53a2.18,2.18,0,0,0,.2,1.18,1.08,1.08,0,0,0,.9.39c1.07,0,1.58-.72,1.58-2V243h1v5.8H180v-1h0a2,2,0,0,1-1.82,1.13,1.67,1.67,0,0,1-1.86-1.9v-4h1Z"/><path class="cls-8" d="M186.68,245.19a2,2,0,0,0-.21-1.15,1.06,1.06,0,0,0-.91-.39,1.46,1.46,0,0,0-1.57,1.64v3.48h-1V243h.93v1h0a2,2,0,0,1,1.87-1.12,1.66,1.66,0,0,1,1.85,1.9v4h-1Z"/><path class="cls-8" d="M189.31,249.35h1c.11.49.48.81,1.43.81,1.1,0,1.65-.4,1.65-1.68v-.86h0a2.09,2.09,0,0,1-1.85,1.07c-1.21,0-2.32-.76-2.32-2.9,0-1.92,1-3,2.44-3a1.82,1.82,0,0,1,1.74,1h0V243h.95v5.65c0,1.63-1.07,2.34-2.65,2.34C190.57,251,189.44,250.55,189.31,249.35Zm4.06-3.8a1.71,1.71,0,0,0-1.65-1.94c-1.05,0-1.54.87-1.54,2.18s.36,2.15,1.58,2.15a1.68,1.68,0,0,0,1.61-1.8Z"/><path class="cls-8" d="M51.59,260.35h1v8.42h-1Z"/><path class="cls-8" d="M58.49,265.19a2,2,0,0,0-.21-1.15,1.06,1.06,0,0,0-.91-.39,1.47,1.47,0,0,0-1.58,1.64v3.48h-1V263h.94v1h0a2,2,0,0,1,1.87-1.12,1.66,1.66,0,0,1,1.85,1.9v4h-1Z"/><path class="cls-8" d="M62.71,261.29V263h1.43v.76H62.71v3.42c0,.62.26.86.88.86a4.33,4.33,0,0,0,.64-.06v.84a7,7,0,0,1-.91.06c-1.13,0-1.59-.55-1.59-1.54v-3.58h-1V263h.17c.78,0,1-.19,1-1.3v-.41Z"/><path class="cls-8" d="M67.7,268.91c-1.78,0-2.62-1.29-2.62-3s.92-3.06,2.58-3.06,2.42,1.34,2.42,2.8v.51h-4c.07,1.2.55,2,1.64,2a1.2,1.2,0,0,0,1.32-.9h1A2.17,2.17,0,0,1,67.7,268.91Zm1.37-3.62c0-1-.41-1.72-1.42-1.72s-1.43.73-1.55,1.79h3Z"/><path class="cls-8" d="M71.59,263h.94v1.09h0a2.08,2.08,0,0,1,1.83-1.2h.1v1H74.3a1.58,1.58,0,0,0-1.72,1.72v3.16h-1Z"/><path class="cls-8" d="M75.56,264.55c0-1,.8-1.72,2.19-1.72s2.15.6,2.15,2.15v2.37c0,.46.09.65.52.66v.8H80.3c-.92,0-1.23-.33-1.33-1h0a1.94,1.94,0,0,1-1.86,1.08,1.62,1.62,0,0,1-1.84-1.67,1.55,1.55,0,0,1,.87-1.46,6.82,6.82,0,0,1,2.81-.47V265c0-1-.4-1.45-1.21-1.45a1.05,1.05,0,0,0-1.21,1Zm3.37,1.59V266a4.85,4.85,0,0,0-2.35.42.84.84,0,0,0-.31.72c0,.59.38.91,1,.91A1.69,1.69,0,0,0,78.93,266.14Z"/><path class="cls-8" d="M82.85,268.77h-1V260.1h1v5.66L85.27,263h1.16l-1.94,2.18,2.18,3.62H85.52l-1.7-2.86-1,1.08Z"/><path class="cls-8" d="M89.22,261.29V263h1.43v.76H89.22v3.42c0,.62.26.86.88.86a4.33,4.33,0,0,0,.64-.06v.84a7,7,0,0,1-.91.06c-1.13,0-1.59-.55-1.59-1.54v-3.58h-1V263h.17c.78,0,1-.19,1-1.3v-.41Z"/><path class="cls-8" d="M92.08,260.58h1v1.07h-1Zm0,2.39h1v5.8h-1Z"/><path class="cls-8" d="M94.66,265.86c0-1.79,1-3,2.6-3s2.59,1.24,2.59,3-1,3.05-2.61,3.05S94.66,267.68,94.66,265.86Zm1,0c0,1.42.47,2.28,1.6,2.28s1.55-.86,1.55-2.28-.47-2.28-1.58-2.28S95.68,264.45,95.68,265.86Z"/><path class="cls-8" d="M105.1,265.19a2,2,0,0,0-.21-1.15,1.06,1.06,0,0,0-.92-.39,1.47,1.47,0,0,0-1.57,1.64v3.48h-1V263h.94v1h0a2,2,0,0,1,1.87-1.12,1.66,1.66,0,0,1,1.85,1.9v4h-1Z"/><path class="cls-8" d="M111,264.42c-.06-.52-.47-.85-1.16-.85a1,1,0,0,0-1.13.94c0,.47.29.69.87.79l.89.13c1.21.19,1.65.69,1.65,1.69,0,1.16-1,1.79-2.27,1.79s-2.18-.54-2.26-1.78h1c0,.45.29,1,1.32,1,.79,0,1.28-.37,1.28-1s-.12-.71-.91-.85l-.89-.13c-1-.16-1.58-.59-1.58-1.6s.78-1.76,2.1-1.76,2,.58,2.07,1.59Z"/><path class="cls-8" d="M113.31,269.35h1c.11.49.48.81,1.43.81s1.65-.4,1.65-1.68v-.86h0a2.09,2.09,0,0,1-1.85,1.07c-1.21,0-2.32-.76-2.32-2.9,0-1.92,1-3,2.44-3a1.81,1.81,0,0,1,1.74,1.05h0V263h.95v5.65c0,1.63-1.07,2.34-2.64,2.34C114.58,271,113.44,270.55,113.31,269.35Zm4.06-3.8a1.71,1.71,0,0,0-1.65-1.94c-1,0-1.54.87-1.54,2.18s.36,2.15,1.59,2.15a1.68,1.68,0,0,0,1.6-1.8Z"/><path class="cls-8" d="M122.49,268.91c-1.78,0-2.62-1.29-2.62-3s.92-3.06,2.58-3.06,2.42,1.34,2.42,2.8v.51h-4c.07,1.2.55,2,1.64,2a1.2,1.2,0,0,0,1.32-.9h1A2.17,2.17,0,0,1,122.49,268.91Zm1.37-3.62c0-1-.41-1.72-1.42-1.72s-1.43.73-1.55,1.79h3Z"/><path class="cls-8" d="M129.29,264.42c0-.52-.47-.85-1.15-.85a1,1,0,0,0-1.13.94c0,.47.28.69.87.79l.89.13c1.21.19,1.65.69,1.65,1.69,0,1.16-.95,1.79-2.27,1.79s-2.19-.54-2.27-1.78h1c.05.45.3,1,1.32,1,.79,0,1.29-.37,1.29-1s-.12-.71-.91-.85l-.89-.13c-1-.16-1.59-.59-1.59-1.6s.78-1.76,2.1-1.76,2,.58,2.07,1.59Z"/><path class="cls-8" d="M133.19,261.29V263h1.43v.76h-1.43v3.42c0,.62.25.86.88.86a4.33,4.33,0,0,0,.64-.06v.84a7.08,7.08,0,0,1-.92.06c-1.13,0-1.58-.55-1.58-1.54v-3.58h-1.06V263h.18c.78,0,1-.19,1-1.3v-.41Z"/><path class="cls-8" d="M136.18,264.55c0-1,.8-1.72,2.19-1.72s2.14.6,2.14,2.15v2.37c0,.46.1.65.53.66v.8h-.12c-.92,0-1.23-.33-1.33-1h0a1.94,1.94,0,0,1-1.86,1.08,1.62,1.62,0,0,1-1.84-1.67,1.55,1.55,0,0,1,.87-1.46,6.82,6.82,0,0,1,2.81-.47V265c0-1-.4-1.45-1.21-1.45a1.05,1.05,0,0,0-1.21,1Zm3.37,1.59V266a4.85,4.85,0,0,0-2.35.42.85.85,0,0,0-.32.72c0,.59.39.91,1,.91A1.69,1.69,0,0,0,139.55,266.14Z"/><path class="cls-8" d="M142.48,260.1h1v8.67h-1Z"/><path class="cls-8" d="M146.75,261.29V263h1.43v.76h-1.43v3.42c0,.62.25.86.88.86a4.33,4.33,0,0,0,.64-.06v.84a7,7,0,0,1-.91.06c-1.14,0-1.59-.55-1.59-1.54v-3.58h-1.05V263h.17c.78,0,1-.19,1-1.3v-.41Z"/><path class="cls-8" d="M150.53,266.53a2.09,2.09,0,0,0,.21,1.18,1.08,1.08,0,0,0,.9.39c1.07,0,1.58-.72,1.58-2V263h1v5.8h-1v-1h0a2,2,0,0,1-1.83,1.13,1.67,1.67,0,0,1-1.85-1.9v-4h1Z"/><path class="cls-8" d="M160,265.19a2,2,0,0,0-.21-1.15,1.06,1.06,0,0,0-.91-.39,1.46,1.46,0,0,0-1.57,1.64v3.48h-1V263h.93v1h0a2,2,0,0,1,1.87-1.12,1.66,1.66,0,0,1,1.85,1.9v4h-1Z"/><path class="cls-8" d="M162.58,269.35h1c.11.49.48.81,1.43.81,1.1,0,1.65-.4,1.65-1.68v-.86h0a2.09,2.09,0,0,1-1.85,1.07c-1.21,0-2.32-.76-2.32-2.9,0-1.92,1-3,2.44-3a1.82,1.82,0,0,1,1.74,1.05h0V263h1v5.65c0,1.63-1.07,2.34-2.64,2.34C163.84,271,162.71,270.55,162.58,269.35Zm4.06-3.8a1.71,1.71,0,0,0-1.65-1.94c-1.05,0-1.54.87-1.54,2.18s.36,2.15,1.58,2.15a1.68,1.68,0,0,0,1.61-1.8Z"/><path class="cls-8" d="M51.59,280.35h1v8.42h-1Z"/><path class="cls-8" d="M58.49,285.19a2,2,0,0,0-.21-1.15,1.06,1.06,0,0,0-.91-.39,1.47,1.47,0,0,0-1.58,1.64v3.48h-1V283h.94v1h0a2,2,0,0,1,1.87-1.12,1.66,1.66,0,0,1,1.85,1.9v4h-1Z"/><path class="cls-8" d="M62.71,281.29V283h1.43v.76H62.71v3.42c0,.62.26.86.88.86a4.33,4.33,0,0,0,.64-.06v.84a7,7,0,0,1-.91.06c-1.13,0-1.59-.55-1.59-1.54v-3.58h-1V283h.17c.78,0,1-.19,1-1.3v-.41Z"/><path class="cls-8" d="M67.7,288.91c-1.78,0-2.62-1.29-2.62-3s.92-3.06,2.58-3.06,2.42,1.34,2.42,2.8v.51h-4c.07,1.2.55,2,1.64,2a1.2,1.2,0,0,0,1.32-.9h1A2.17,2.17,0,0,1,67.7,288.91Zm1.37-3.62c0-1-.41-1.72-1.42-1.72s-1.43.73-1.55,1.79h3Z"/><path class="cls-8" d="M71.59,283h.94v1.09h0a2.08,2.08,0,0,1,1.83-1.2h.1v1H74.3a1.58,1.58,0,0,0-1.72,1.72v3.16h-1Z"/><path class="cls-8" d="M79.47,285.19a2,2,0,0,0-.21-1.15,1.06,1.06,0,0,0-.92-.39,1.47,1.47,0,0,0-1.57,1.64v3.48h-1V283h.94v1h0a2,2,0,0,1,1.87-1.12,1.66,1.66,0,0,1,1.85,1.9v4h-1Z"/><path class="cls-8" d="M84.57,288.91c-1.77,0-2.62-1.29-2.62-3s.93-3.06,2.59-3.06,2.42,1.34,2.42,2.8v.51H83c.07,1.2.55,2,1.64,2a1.2,1.2,0,0,0,1.32-.9h1A2.17,2.17,0,0,1,84.57,288.91ZM86,285.29c0-1-.41-1.72-1.42-1.72s-1.43.73-1.56,1.79h3Z"/><path class="cls-8" d="M89.74,281.29V283h1.43v.76H89.74v3.42c0,.62.25.86.88.86a4.33,4.33,0,0,0,.64-.06v.84a7.08,7.08,0,0,1-.92.06c-1.13,0-1.58-.55-1.58-1.54v-3.58H87.7V283h.18c.78,0,1-.19,1-1.3v-.41Z"/><path class="cls-8" d="M100.16,288.77h-1v-1h0a2.07,2.07,0,0,1-1.83,1.1c-1.23,0-2.36-.77-2.36-3,0-2,1-3.08,2.49-3.08a1.73,1.73,0,0,1,1.66,1h0V280.1h1Zm-1-3.13c0-1.23-.65-2-1.57-2-1.12,0-1.62.88-1.62,2.24s.38,2.27,1.54,2.27a1.69,1.69,0,0,0,1.65-1.87Z"/><path class="cls-8" d="M104.33,288.91c-1.78,0-2.62-1.29-2.62-3s.92-3.06,2.58-3.06,2.42,1.34,2.42,2.8v.51h-4c.07,1.2.55,2,1.64,2a1.2,1.2,0,0,0,1.32-.9h1A2.17,2.17,0,0,1,104.33,288.91Zm1.37-3.62c0-1-.41-1.72-1.42-1.72s-1.43.73-1.55,1.79h3Z"/><path class="cls-8" d="M108.22,283h.94v1.09h0a2.08,2.08,0,0,1,1.83-1.2h.1v1h-.18a1.58,1.58,0,0,0-1.72,1.72v3.16h-1Z"/><path class="cls-8" d="M115.62,280.35h2.59c2.3,0,4.07,1.12,4.07,4.1s-1.65,4.32-4,4.32h-2.71Zm2.59,7.54c1.78,0,3-.93,3-3.4s-1.24-3.26-2.94-3.26h-1.63v6.66Z"/><path class="cls-8" d="M124,280.58h1v1.07h-1Zm0,2.39h1v5.8h-1Z"/><path class="cls-8" d="M130.8,285.19a2,2,0,0,0-.21-1.15,1,1,0,0,0-.91-.39,1.46,1.46,0,0,0-1.57,1.64v3.48h-1V283h.93v1h0a2,2,0,0,1,1.87-1.12,1.66,1.66,0,0,1,1.85,1.9v4h-1Z"/><path class="cls-8" d="M133.43,289.35h1c.11.49.48.81,1.43.81,1.1,0,1.65-.4,1.65-1.68v-.86h0a2.09,2.09,0,0,1-1.85,1.07c-1.21,0-2.32-.76-2.32-2.9,0-1.92,1-3,2.44-3a1.82,1.82,0,0,1,1.74,1.05h0V283h.95v5.65c0,1.63-1.07,2.34-2.64,2.34C134.7,291,133.56,290.55,133.43,289.35Zm4.06-3.8a1.71,1.71,0,0,0-1.65-1.94c-1.05,0-1.54.87-1.54,2.18s.36,2.15,1.58,2.15a1.68,1.68,0,0,0,1.61-1.8Z"/><path class="cls-8" d="M142.61,288.91c-1.78,0-2.62-1.29-2.62-3s.92-3.06,2.58-3.06,2.42,1.34,2.42,2.8v.51h-4c.07,1.2.55,2,1.64,2a1.2,1.2,0,0,0,1.32-.9h.95A2.15,2.15,0,0,1,142.61,288.91Zm1.37-3.62c0-1-.41-1.72-1.42-1.72s-1.43.73-1.55,1.79h3Z"/><path class="cls-8" d="M56.19,302.61A1.62,1.62,0,0,0,54.44,301c-1.14,0-1.76.65-1.76,1.46s.42,1.21,1.41,1.39l1.19.21c1.64.3,2.21,1.1,2.21,2.3,0,1.54-1.05,2.53-3.06,2.53s-3.06-1-3.15-2.53h1.07a1.92,1.92,0,0,0,2.1,1.71c1.5,0,2-.73,2-1.62,0-.73-.39-1.23-1.43-1.41l-1.17-.21c-1.65-.31-2.24-1.19-2.24-2.29,0-1.36,1.13-2.35,2.85-2.35s2.71.95,2.79,2.38Z"/><path class="cls-8" d="M60.56,301.29V303H62v.76H60.56v3.42c0,.62.25.86.88.86a4.52,4.52,0,0,0,.64-.06v.84a7.08,7.08,0,0,1-.92.06c-1.13,0-1.58-.55-1.58-1.54v-3.58H58.52V303h.18c.78,0,1-.19,1-1.3v-.41Z"/><path class="cls-8" d="M63.38,303h.94v1.09h0a2.08,2.08,0,0,1,1.84-1.2h.1v1h-.19a1.58,1.58,0,0,0-1.72,1.72v3.16h-1Z"/><path class="cls-8" d="M67.36,304.55c0-1,.8-1.72,2.18-1.72s2.15.6,2.15,2.15v2.37c0,.46.1.65.53.66v.8H72.1c-.93,0-1.24-.33-1.33-1h0a1.93,1.93,0,0,1-1.86,1.08,1.61,1.61,0,0,1-1.83-1.67,1.54,1.54,0,0,1,.87-1.46,6.73,6.73,0,0,1,2.8-.47V305c0-1-.39-1.45-1.21-1.45a1.05,1.05,0,0,0-1.21,1Zm3.36,1.59V306a4.8,4.8,0,0,0-2.34.42.85.85,0,0,0-.32.72c0,.59.38.91,1,.91A1.68,1.68,0,0,0,70.72,306.14Z"/><path class="cls-8" d="M74.88,301.29V303h1.43v.76H74.88v3.42c0,.62.25.86.88.86a4.33,4.33,0,0,0,.64-.06v.84a7.08,7.08,0,0,1-.92.06c-1.13,0-1.58-.55-1.58-1.54v-3.58H72.84V303H73c.78,0,1-.19,1-1.3v-.41Z"/><path class="cls-8" d="M79.86,308.91c-1.77,0-2.62-1.29-2.62-3s.93-3.06,2.59-3.06,2.42,1.34,2.42,2.8v.51h-4c.06,1.2.55,2,1.64,2a1.18,1.18,0,0,0,1.31-.9h1A2.16,2.16,0,0,1,79.86,308.91Zm1.38-3.62c0-1-.41-1.72-1.42-1.72s-1.43.73-1.55,1.79h3Z"/><path class="cls-8" d="M83.49,309.35h1c.11.49.48.81,1.43.81,1.1,0,1.65-.4,1.65-1.68v-.86h0a2.09,2.09,0,0,1-1.85,1.07c-1.21,0-2.32-.76-2.32-2.9,0-1.92,1-3,2.44-3a1.81,1.81,0,0,1,1.74,1.05h0V303h1v5.65c0,1.63-1.07,2.34-2.64,2.34C84.76,311,83.62,310.55,83.49,309.35Zm4.06-3.8a1.71,1.71,0,0,0-1.65-1.94c-1,0-1.54.87-1.54,2.18s.36,2.15,1.58,2.15a1.68,1.68,0,0,0,1.61-1.8Z"/><path class="cls-8" d="M90.54,300.58h1v1.07h-1Zm0,2.39h1v5.8h-1Z"/><path class="cls-8" d="M96.49,304.42c0-.52-.47-.85-1.15-.85a1,1,0,0,0-1.13.94c0,.47.28.69.87.79l.89.13c1.21.19,1.65.69,1.65,1.69,0,1.16-1,1.79-2.27,1.79s-2.19-.54-2.27-1.78h1c0,.45.3,1,1.32,1,.79,0,1.29-.37,1.29-1s-.12-.71-.91-.85l-.9-.13c-1-.16-1.58-.59-1.58-1.6s.78-1.76,2.1-1.76,2,.58,2.07,1.59Z"/><path class="cls-8" d="M102.63,304.72a1.23,1.23,0,0,0-1.32-1.14c-1,0-1.59.92-1.59,2.27s.4,2.28,1.57,2.28a1.32,1.32,0,0,0,1.42-1.26h.92a2.17,2.17,0,0,1-2.35,2c-1.67,0-2.58-1.17-2.58-3s1-3.06,2.6-3.06a2,2,0,0,1,2.3,1.89Z"/><path class="cls-8" d="M108.75,305.18a2,2,0,0,0-.21-1.14,1.06,1.06,0,0,0-.91-.39,1.47,1.47,0,0,0-1.58,1.64v3.48h-1V300.1h1v3.83h0a1.93,1.93,0,0,1,1.82-1.1,1.66,1.66,0,0,1,1.85,1.9v4h-1Z"/><path class="cls-8" d="M113.85,308.91c-1.77,0-2.62-1.29-2.62-3s.93-3.06,2.59-3.06,2.42,1.34,2.42,2.8v.51h-4c.07,1.2.55,2,1.64,2a1.19,1.19,0,0,0,1.32-.9h1A2.17,2.17,0,0,1,113.85,308.91Zm1.38-3.62c0-1-.41-1.72-1.42-1.72s-1.43.73-1.55,1.79h3Z"/><path class="cls-8" d="M121.58,304.63c0,2.23,1,3.48,2.66,3.48a2.33,2.33,0,0,0,2.54-2.57v-.12h-2.43v-.9h3.43v4.25h-.89v-1.21h0a2.83,2.83,0,0,1-2.63,1.38c-2.12,0-3.7-1.38-3.7-4.34,0-2.75,1.66-4.37,3.84-4.37,1.72,0,3,.87,3.18,2.35h-1.07a2,2,0,0,0-2.11-1.54C122.52,301,121.58,302.47,121.58,304.63Z"/><path class="cls-8" d="M132,308.91c-1.77,0-2.62-1.29-2.62-3s.93-3.06,2.59-3.06,2.42,1.34,2.42,2.8v.51h-4c.07,1.2.55,2,1.64,2a1.2,1.2,0,0,0,1.32-.9h1A2.17,2.17,0,0,1,132,308.91Zm1.38-3.62c0-1-.41-1.72-1.42-1.72s-1.43.73-1.55,1.79h3Z"/><path class="cls-8" d="M138.81,304.42c-.06-.52-.47-.85-1.16-.85a1,1,0,0,0-1.13.94c0,.47.29.69.87.79l.89.13c1.21.19,1.65.69,1.65,1.69,0,1.16-.94,1.79-2.27,1.79s-2.18-.54-2.26-1.78h1c0,.45.29,1,1.32,1,.79,0,1.28-.37,1.28-1s-.12-.71-.91-.85l-.89-.13c-1-.16-1.58-.59-1.58-1.6s.78-1.76,2.1-1.76,2,.58,2.07,1.59Z"/><path class="cls-8" d="M142.7,301.29V303h1.43v.76H142.7v3.42c0,.62.26.86.88.86a4.33,4.33,0,0,0,.64-.06v.84a7,7,0,0,1-.91.06c-1.13,0-1.59-.55-1.59-1.54v-3.58h-1.05V303h.17c.78,0,1-.19,1-1.3v-.41Z"/><path class="cls-8" d="M145.7,304.55c0-1,.8-1.72,2.18-1.72s2.15.6,2.15,2.15v2.37c0,.46.1.65.53.66v.8h-.12c-.93,0-1.24-.33-1.33-1h0a1.93,1.93,0,0,1-1.86,1.08,1.61,1.61,0,0,1-1.83-1.67,1.54,1.54,0,0,1,.87-1.46,6.73,6.73,0,0,1,2.8-.47V305c0-1-.4-1.45-1.21-1.45a1.05,1.05,0,0,0-1.21,1Zm3.36,1.59V306a4.8,4.8,0,0,0-2.34.42.85.85,0,0,0-.32.72c0,.59.38.91,1,.91A1.68,1.68,0,0,0,149.06,306.14Z"/><path class="cls-8" d="M152,300.1h1v8.67h-1Z"/><path class="cls-8" d="M156.27,301.29V303h1.43v.76h-1.43v3.42c0,.62.25.86.88.86a4.29,4.29,0,0,0,.63-.06v.84a6.82,6.82,0,0,1-.91.06c-1.13,0-1.58-.55-1.58-1.54v-3.58h-1.06V303h.18c.78,0,1-.19,1-1.3v-.41Z"/><path class="cls-8" d="M160.05,306.53a2.09,2.09,0,0,0,.21,1.18,1.06,1.06,0,0,0,.89.39c1.08,0,1.58-.72,1.58-2V303h1v5.8h-.94v-1h0a2,2,0,0,1-1.83,1.13,1.68,1.68,0,0,1-1.86-1.9v-4h1Z"/><path class="cls-8" d="M169.47,305.19a2,2,0,0,0-.21-1.15,1.06,1.06,0,0,0-.92-.39,1.47,1.47,0,0,0-1.57,1.64v3.48h-1V303h.94v1h0a2,2,0,0,1,1.87-1.12,1.66,1.66,0,0,1,1.85,1.9v4h-1Z"/><path class="cls-8" d="M172.09,309.35h1c.11.49.49.81,1.43.81,1.1,0,1.65-.4,1.65-1.68v-.86h0a2.09,2.09,0,0,1-1.85,1.07c-1.21,0-2.32-.76-2.32-2.9,0-1.92,1-3,2.44-3a1.81,1.81,0,0,1,1.74,1.05h0V303h.95v5.65c0,1.63-1.07,2.34-2.64,2.34C173.36,311,172.23,310.55,172.09,309.35Zm4.06-3.8a1.71,1.71,0,0,0-1.65-1.94c-1,0-1.54.87-1.54,2.18s.37,2.15,1.59,2.15a1.68,1.68,0,0,0,1.6-1.8Z"/><path d="M24.16,27.44c0,2.2.84,3.19,2.26,3.19a2,2,0,0,0,2.14-2.14v-.14H26.42V27.19H30v4.4H28.77V30.43h0a2.69,2.69,0,0,1-2.52,1.34c-2.3,0-3.68-1.56-3.68-4.29s1.62-4.42,3.94-4.42c1.91,0,3.14.92,3.34,2.55H28.25a1.67,1.67,0,0,0-1.78-1.42C25,24.19,24.16,25.38,24.16,27.44Z"/><path d="M31.73,25.73h1.4v1.19h0a2.07,2.07,0,0,1,1.92-1.29h.1V27h-.28c-1,0-1.68.44-1.68,1.57v3H31.73Z"/><path d="M37.68,29.22a1.88,1.88,0,0,0,.19,1,.89.89,0,0,0,.8.36c.88,0,1.31-.6,1.31-1.69v-3.2h1.47v5.86H40v-1h0a2,2,0,0,1-1.84,1.09c-1.31,0-2-.64-2-2v-4h1.47Z"/><path d="M47,28.11a1.84,1.84,0,0,0-.19-1.05.94.94,0,0,0-.81-.35c-.88,0-1.32.56-1.32,1.45v3.43H43.14V25.73h1.42v1h0a2.06,2.06,0,0,1,1.91-1.11c1.31,0,1.94.67,1.94,2.09v3.9H47Z"/><path d="M55.36,31.59H53.94v-.9h0a2,2,0,0,1-1.78,1c-1.44,0-2.45-.9-2.45-3s1.07-3.12,2.55-3.12a1.76,1.76,0,0,1,1.63.95h0V22.93h1.48ZM53.9,28.42c0-1.1-.53-1.76-1.33-1.76s-1.39.7-1.39,2,.38,2,1.33,2a1.43,1.43,0,0,0,1.39-1.61Z"/><path d="M57.06,25.73h1.39v1.19h0a2.06,2.06,0,0,1,1.91-1.29h.1V27h-.28c-1,0-1.68.44-1.68,1.57v3H57.06Z"/><path d="M61.61,23.21h1.51v1.4H61.61Zm0,2.52h1.49v5.86H61.62Z"/><path d="M67.78,27.3c0-.41-.36-.72-1-.72s-.93.31-.93.72.22.59.75.66l1,.14c1.13.15,1.68.67,1.68,1.71,0,1.27-1,1.94-2.45,1.94s-2.4-.66-2.48-1.84h1.38c0,.42.29.85,1.11.85.65,0,1.06-.29,1.06-.77s-.15-.62-.78-.69l-.92-.12c-1.08-.15-1.68-.67-1.68-1.71s.78-1.88,2.32-1.88,2.19.68,2.27,1.71Z"/><path d="M73.55,27.3c0-.41-.37-.72-1-.72s-.93.31-.93.72.22.59.75.66l1,.14c1.13.15,1.68.67,1.68,1.71,0,1.27-1,1.94-2.45,1.94s-2.4-.66-2.48-1.84H71.5c0,.42.3.85,1.11.85.65,0,1.07-.29,1.07-.77s-.16-.62-.78-.69L72,29.18c-1.08-.15-1.68-.67-1.68-1.71s.78-1.88,2.32-1.88,2.19.68,2.28,1.71Z"/><path d="M78.81,25.73h4.74v1l-3.11,3.71h3.17v1.12H78.69v-1l3.11-3.72h-3Z"/><path d="M84.35,25.73h1.44l.9,3.31c.13.51.21,1.06.21,1.06h0s.11-.55.27-1.06l1-3.31h1.27l1,3.31c.15.51.26,1.06.26,1.06h0s.11-.55.23-1.06l.91-3.31h1.33L91.5,31.59H90l-.83-2.71c-.2-.66-.39-1.6-.39-1.6h0s-.22.95-.42,1.6l-.84,2.71H86.1Z"/><path d="M96.6,31.74c-1.85,0-2.8-1.23-2.8-3.07a2.77,2.77,0,0,1,2.79-3.08c1.93,0,2.71,1.32,2.71,3V29h-4c.07,1.11.5,1.7,1.37,1.7a1,1,0,0,0,1.12-.78h1.45C99,31.07,98.11,31.74,96.6,31.74ZM97.79,28c-.06-.88-.4-1.47-1.21-1.47s-1.18.58-1.28,1.54h2.49Z"/><path d="M100.59,23.21h1.51v1.4h-1.51Zm0,2.52h1.49v5.86H100.6Z"/><path d="M105.56,24.07v1.66h1.36v1.06h-1.34v2.89c0,.61.23.86.82.86a3.79,3.79,0,0,0,.55-.05v1.12a8.23,8.23,0,0,1-1.06.07c-1.16,0-1.78-.51-1.78-1.74V26.79h-.94v-1h.2c.75,0,.9-.16.9-1.25v-.43Z"/><path d="M110.52,31.74c-1.85,0-2.81-1.23-2.81-3.07a2.77,2.77,0,0,1,2.79-3.08c1.93,0,2.71,1.32,2.71,3V29h-4c.06,1.11.49,1.7,1.36,1.7a1,1,0,0,0,1.12-.78h1.46C113,31.07,112,31.74,110.52,31.74ZM111.7,28c0-.88-.39-1.47-1.21-1.47s-1.17.58-1.27,1.54h2.48Z"/><path d="M114.46,25.73h1.4v1.19h0a2.07,2.07,0,0,1,1.92-1.29h.1V27h-.28c-1,0-1.68.44-1.68,1.57v3h-1.48Z"/><path d="M126.22,25.46a1.32,1.32,0,0,0-1.44-1.27c-.9,0-1.43.51-1.43,1.17s.34,1,1.21,1.16l1.26.23c1.54.29,2.21,1.08,2.21,2.31,0,1.71-1.17,2.7-3.27,2.7s-3.2-.94-3.29-2.56h1.6a1.58,1.58,0,0,0,1.72,1.42c1.19,0,1.65-.59,1.65-1.3s-.34-1-1.27-1.19l-1.23-.23a2.31,2.31,0,0,1-2.18-2.35c0-1.44,1.12-2.49,3-2.49s2.93,1,3,2.4Z"/><path d="M131.22,24.07v1.66h1.36v1.06h-1.34v2.89c0,.61.23.86.82.86a4,4,0,0,0,.56-.05v1.12a8.59,8.59,0,0,1-1.07.07c-1.16,0-1.77-.51-1.77-1.74V26.79h-.95v-1h.2c.76,0,.9-.16.9-1.25v-.43Z"/><path d="M133.37,28.66a2.76,2.76,0,0,1,2.86-3.07c1.78,0,2.84,1.17,2.84,3.07a2.78,2.78,0,0,1-2.85,3.08C134.41,31.74,133.37,30.55,133.37,28.66Zm1.53,0c0,1.24.39,2,1.33,2s1.31-.83,1.31-2-.36-2.05-1.32-2.05S134.9,27.46,134.9,28.66Z"/><path d="M144,27.72a1.09,1.09,0,0,0-1.12-1.11c-1,0-1.33.91-1.33,2s.26,2,1.32,2a1.14,1.14,0,0,0,1.19-1.17h1.43a2.35,2.35,0,0,1-2.63,2.22c-1.82,0-2.83-1.17-2.83-3.07a2.77,2.77,0,0,1,2.85-3.08c1.43,0,2.51.68,2.57,2.13Z"/><path d="M148.16,31.59h-1.47V22.93h1.47v5.38l2.15-2.58h1.61L150,28l2.1,3.59h-1.62L149,29l-.8,1Z"/><path class="cls-9" d="M566.53,403.2h4.76V288.12H384.81v13.44h-81.9v-131l41.73,7.39,7.07-16.39,136.84,23.7V220.5h79.8v-110H518c1.35-1.68,2.94-4.27,2.94-7,0-7.47-4.72-11-8.73-12.11l2.1-14.28-17-22.67-29.39-5-25,17.44L345.84,50.16,329.7,47.38,188.37,23.1,170.19,128.87l55.52,9.54V403.2h4.77v-.06l.69.06h313m0,0h22.4m-336.06-4.85h0c.37,0,.67.07.86.09C231.13,398.42,230.84,398.4,230.47,398.35Zm89.38.09h0m166.32,0h0"/></g><g id="Rooms-3" data-name="Rooms"><g id="H2Flur01"><polygon class="cls-10" points="298.15 301.56 298.15 231.54 277.85 231.54 277.85 354.55 541.75 354.55 541.75 354.54 544.13 354.54 544.13 398.44 544.13 403.2 566.53 403.2 566.53 334.04 387.19 334.04 387.19 306.32 387.12 306.32 372.32 306.32 372.32 334.11 311.02 334.11 311.02 331.73 321.45 331.73 321.45 306.32 300.53 306.32 300.53 332.92 298.15 332.92 298.15 306.32 298.15 301.56"/></g><g id="H2Flur02"><path class="cls-10" d="M277.85,159.53v72h20.3v-85l2.54-15.22,2.34.4-2.53,15.21,0,18.38.9.16,40.33,7.15,5.58-12.94,1.49-3.44,9.32-54.29L285.3,89.38l-9.77,55.55-45-8.11v13.63L277,158.7Zm40.24-22.45L335.2,140l-2.52,14.1-17-2.92Z"/></g><g id="H218"><rect class="cls-10" x="415.19" y="356.93" width="68.6" height="41.51"/></g><g id="H216"><path class="cls-10" d="M230.47,356.93v41.42c.37,0,.67.07.86.09h86.14V356.93Z"/></g><g id="H210"><g class="cls-11"><polygon class="cls-12" points="266.11 41.29 266.13 41.2 241.63 36.99 241.65 36.91 217.06 32.68 192.47 28.46 188.33 52.55 184.19 76.65 180.05 100.75 175.91 124.84 200.39 129.14 224.87 133.44 249.34 137.73 273.82 142.03 290.6 45.5 266.11 41.29"/></g></g><g id="H2CAD01"><g class="cls-11"><rect class="cls-12" x="230.47" y="246.68" width="45" height="70.7"/></g></g><g id="H2CAD02"><g class="cls-11"><rect class="cls-12" x="230.47" y="170.66" width="45" height="73.64"/></g></g><g id="H2CAD03"><g class="cls-11"><polygon class="cls-12" points="434.63 112.62 441.7 71.46 352.58 56.15 345.62 97.33 434.63 112.62"/></g></g></g><g id="Grundriss-4" data-name="Grundriss"><g id="Treppen"><line class="cls-13" x1="300.56" y1="328.3" x2="321.45" y2="328.3"/><line class="cls-13" x1="300.56" y1="326.62" x2="321.45" y2="326.62"/><line class="cls-13" x1="300.56" y1="324.94" x2="321.45" y2="324.94"/><line class="cls-13" x1="300.56" y1="323.26" x2="321.45" y2="323.26"/><line class="cls-13" x1="300.56" y1="321.58" x2="321.45" y2="321.58"/><line class="cls-13" x1="300.56" y1="319.9" x2="321.45" y2="319.9"/><line class="cls-13" x1="300.56" y1="318.22" x2="321.45" y2="318.22"/><line class="cls-13" x1="300.56" y1="316.54" x2="321.45" y2="316.54"/><line class="cls-13" x1="300.56" y1="314.86" x2="321.45" y2="314.86"/><line class="cls-13" x1="300.56" y1="313.18" x2="321.45" y2="313.18"/><line class="cls-13" x1="311.02" y1="334.11" x2="311.02" y2="313.18"/><line class="cls-13" x1="332.38" y1="153.77" x2="349.29" y2="156.77"/><line class="cls-13" x1="333.01" y1="152.27" x2="349.57" y2="155.12"/><line class="cls-13" x1="333.3" y1="150.61" x2="349.86" y2="153.46"/><line class="cls-13" x1="333.58" y1="148.96" x2="350.14" y2="151.8"/><line class="cls-13" x1="333.87" y1="147.3" x2="350.42" y2="150.15"/><line class="cls-13" x1="334.15" y1="145.65" x2="350.71" y2="148.49"/><line class="cls-13" x1="334.44" y1="143.99" x2="350.99" y2="146.84"/><line class="cls-13" x1="320.03" y1="139.83" x2="302.2" y2="136.66"/><line class="cls-13" x1="319.8" y1="141.4" x2="301.95" y2="138.33"/><line class="cls-13" x1="319.51" y1="143.06" x2="301.67" y2="139.99"/><line class="cls-13" x1="319.23" y1="144.71" x2="301.38" y2="141.64"/><line class="cls-13" x1="318.95" y1="146.37" x2="301.1" y2="143.3"/><line class="cls-13" x1="318.66" y1="148.02" x2="300.82" y2="144.95"/><line class="cls-13" x1="318.38" y1="149.68" x2="300.53" y2="146.61"/><line class="cls-13" x1="325.91" y1="151.92" x2="322.63" y2="170.96"/><line class="cls-13" x1="324.25" y1="151.63" x2="320.98" y2="170.67"/><line class="cls-13" x1="322.59" y1="151.35" x2="319.32" y2="170.39"/><line class="cls-13" x1="320.94" y1="151.06" x2="317.67" y2="170.11"/><line class="cls-13" x1="319.28" y1="150.78" x2="316.01" y2="169.82"/><line class="cls-13" x1="317.63" y1="150.5" x2="314.36" y2="169.54"/><line class="cls-13" x1="330.87" y1="152.77" x2="327.6" y2="171.81"/><line class="cls-13" x1="329.22" y1="152.49" x2="325.95" y2="171.53"/><line class="cls-13" x1="327.56" y1="152.2" x2="324.29" y2="171.24"/><line class="cls-13" x1="325.91" y1="151.92" x2="322.63" y2="170.96"/><line class="cls-13" x1="324.25" y1="151.63" x2="320.98" y2="170.67"/><line class="cls-13" x1="322.59" y1="151.35" x2="319.32" y2="170.39"/><line class="cls-13" x1="320.94" y1="151.06" x2="317.67" y2="170.11"/><line class="cls-13" x1="319.28" y1="150.78" x2="316.01" y2="169.82"/><line class="cls-13" x1="317.63" y1="150.5" x2="314.36" y2="169.54"/><line class="cls-13" x1="330.87" y1="152.77" x2="327.6" y2="171.81"/><line class="cls-13" x1="329.22" y1="152.49" x2="325.95" y2="171.53"/><line class="cls-13" x1="327.56" y1="152.2" x2="324.29" y2="171.24"/><line class="cls-13" x1="332.38" y1="153.77" x2="349.29" y2="156.77"/><line class="cls-13" x1="333.01" y1="152.27" x2="349.57" y2="155.12"/><line class="cls-13" x1="333.3" y1="150.61" x2="349.86" y2="153.46"/><line class="cls-13" x1="333.58" y1="148.96" x2="350.14" y2="151.8"/><line class="cls-13" x1="333.87" y1="147.3" x2="350.42" y2="150.15"/><line class="cls-13" x1="334.15" y1="145.65" x2="350.71" y2="148.49"/><line class="cls-13" x1="334.44" y1="143.99" x2="350.99" y2="146.84"/><line class="cls-13" x1="334.72" y1="142.34" x2="351.28" y2="145.18"/><line class="cls-13" x1="319.8" y1="141.4" x2="301.95" y2="138.33"/><line class="cls-13" x1="319.51" y1="143.06" x2="301.67" y2="139.99"/><line class="cls-13" x1="319.23" y1="144.71" x2="301.38" y2="141.64"/><line class="cls-13" x1="318.95" y1="146.37" x2="301.1" y2="143.3"/><line class="cls-13" x1="318.66" y1="148.02" x2="300.82" y2="144.95"/><line class="cls-13" x1="318.38" y1="149.68" x2="300.53" y2="146.61"/><line class="cls-13" x1="318.23" y1="151.44" x2="300.39" y2="148.37"/></g><g id="H217"><rect class="cls-9" x="319.85" y="356.93" width="92.96" height="41.51"/></g><rect class="cls-14" x="445.01" y="292.88" width="90.02" height="38.78"/><rect class="cls-14" x="230.47" y="319.76" width="45.01" height="34.78"/><polygon class="cls-14" points="275.47 160.84 230.47 152.87 230.47 168.28 275.47 168.28 275.47 160.84"/><polygon class="cls-14" points="541.47 398.44 541.75 398.44 541.75 356.93 486.17 356.93 486.17 398.44 541.47 398.44"/><polygon class="cls-14" points="332.44 141.97 320.03 139.83 318.39 149.27 330.75 151.38 332.44 141.97"/><polygon class="cls-14" points="440.7 116.08 431.35 170.48 489.37 180.53 491.29 180.86 500.64 126.32 457.75 119.01 440.7 116.08"/><polygon class="cls-14" points="429 170.07 438.35 115.68 360.5 102.3 351.17 156.59 429 170.07"/><polygon class="cls-14" points="285.71 87.04 317.07 92.42 324.14 51.26 292.95 45.9 285.71 87.04"/><rect class="cls-14" x="323.83" y="306.32" width="46.11" height="25.41"/><rect class="cls-14" x="415.19" y="292.88" width="27.44" height="38.78"/><polygon class="cls-14" points="389.57 292.88 389.57 301.56 389.57 306.32 389.57 306.32 389.57 331.66 412.81 331.66 412.81 292.88 389.57 292.88"/><rect class="cls-14" x="537.41" y="292.88" width="29.12" height="38.78"/><polygon class="cls-14" points="343.27 96.92 350.23 55.74 345.04 54.85 328.89 52.08 326.49 51.66 319.42 92.83 343.27 96.92"/><line class="cls-15" x1="230.48" y1="134.4" x2="273.6" y2="142.17"/><polygon class="cls-14" points="517.95 115.22 516.69 115.22 516.69 115.22 505.03 115.22 503.2 125.51 493.31 183.11 493.31 185.22 493.31 215.74 563.59 215.74 563.59 115.22 517.95 115.22"/><path class="cls-14" d="M502.61,115.22l0-.09.5-2.8h0l.35-1.87h8.35l2.39-3a7.44,7.44,0,0,0,1.89-4c0-5.26-3.3-7-5.26-7.53l-4-1.13.61-4.15,1.82-12.31L494.57,58.81,469,54.42,445.62,70.74l-1.57,1.09L437,113l21.18,3.64,42.9,7.31,1.57-8.75Z"/><g id="Wand"><path class="cls-16" d="M537.41,288.12H384.81v13.44h-81.9v-131l41.73,7.39,7.07-16.39,136.84,23.7V220.5h79.8v-110H518c1.35-1.68,2.94-4.27,2.94-7,0-7.47-4.72-11-8.73-12.11l2.1-14.28-17-22.67-29.39-5-25,17.44L345.84,50.16,329.7,47.38,188.37,23.1,170.19,128.87l55.52,9.54V403.2h4.77v-.06l.69.06h313V354.54H277.85v-195l-.82-.83-46.56-8.25V136.82l45,8.11,9.77-55.55,72.85,12.52-9.32,54.29-1.49,3.44-5.58,12.94-40.33-7.15-.9-.16,0-18.38.51-3.06,2-12.15-2.34-.4-2.54,15.22V332.92h2.38v-26.6h20.92v25.41H311v2.38h61.3V306.32h14.87V334H566.53V403.2h4.76V288.12Zm-48-107.59-58-10.05,9.35-54.4L457.75,119l42.89,7.31-9.36,54.54Zm27.32-65.31h46.9V215.74H493.31V183.11l9.89-57.6L505,115.22ZM444.05,71.83l1.57-1.09L469,54.42l25.59,4.39,14.69,19.57-1.82,12.31-.61,4.15,4,1.13c2,.55,5.26,2.27,5.26,7.53a7.44,7.44,0,0,1-1.89,4l-2.39,3H503.5l-.35,1.87h0l-.5,2.81,0,.08h0L501.05,124l-42.9-7.31L437,113ZM230.46,353.45V319.76h45v34.78h-45v-1.09Zm45-106.77v70.7h-45v-70.7Zm-45-2.38V170.66h45V244.3Zm255.7,112.63h55.58v41.51H486.17Zm-166.32,0H483.79v41.51h-68.6V356.93h-2.38v41.51h-93Zm-2.38,0v41.51H231.33c-.2,0-.49,0-.86-.09V356.93Zm-42-196.09v7.44h-45V152.87Zm-1.87-18.67-43.12-7.77-4-.68L175.69,125,192.25,28.6,290.6,45.5ZM285.71,87,293,45.9l31.19,5.36-7.07,41.16Zm33.71,5.79,7.07-41.16,2.4.41L345,54.85l5.19.89-7,41.19Zm26.2,4.5,7-41.18L441.7,71.46l-7.07,41.16Zm14.88,5,77.85,13.38L429,170.07l-77.83-13.48Zm9.44,229.43H323.83V306.32h46.11Zm42.87-.07H389.57V292.88h23.24Zm29.82,0H415.19V292.88h27.44Zm92.4,0H445V292.88h90Zm31.5,0H537.41V292.88h29.12Z"/><rect class="cls-17" x="480.6" y="108.32" width="5.46" height="5.46" transform="translate(674.63 -346.5) rotate(99.75)"/><rect class="cls-17" x="459.91" y="104.76" width="5.46" height="5.46" transform="translate(646.92 -330.26) rotate(99.75)"/><rect class="cls-17" x="463.68" y="149.73" width="5.46" height="5.46" transform="translate(695.66 -281.4) rotate(99.75)"/><path class="cls-16" d="M318.09,137.08l-1.22,7.06-1.23,7.07,8.52,1.46,8.52,1.46,1.26-7L335.2,140l-8.55-1.48Zm12.66,14.3-12.36-2.11,1.64-9.44,12.4,2.14Z"/></g><g id="Schatten"><line class="cls-18" x1="230.48" y1="134.4" x2="273.6" y2="142.17"/><polygon class="cls-18" points="451.31 301.28 535.03 301.28 535.03 292.88 445.01 292.88 445.01 331.66 451.31 331.66 451.31 301.28"/><polygon class="cls-18" points="236.77 255.08 275.47 255.08 275.47 246.68 230.47 246.68 230.47 317.38 236.77 317.38 236.77 255.08"/><polygon class="cls-18" points="236.77 179.06 275.47 179.06 275.47 170.66 230.47 170.66 230.47 244.3 236.77 244.3 236.77 179.06"/><polygon class="cls-18" points="236.77 328.16 275.47 328.16 275.47 319.76 230.47 319.76 230.46 354.55 236.76 354.55 236.77 328.16"/><polygon class="cls-18" points="198.56 37 289.35 52.6 290.6 45.5 192.25 28.6 175.69 124.99 183.21 126.28 198.56 37"/><polygon class="cls-18" points="236.78 161.27 275.47 168.13 275.47 160.84 230.47 152.87 230.47 168.28 236.77 168.28 236.78 161.27"/><polygon class="cls-18" points="393.49 342.44 566.53 342.44 566.53 334.04 387.19 334.04 393.49 342.44"/><polygon class="cls-18" points="311.02 334.11 317.32 342.51 378.62 342.51 378.62 314.72 387.19 314.72 387.19 306.32 387.12 306.32 372.32 306.32 372.32 334.11 311.02 334.11"/><polygon class="cls-18" points="284.15 167.93 283.33 167.1 277.85 166.13 277.85 354.55 284.15 354.55 284.15 167.93"/><polygon class="cls-18" points="550.43 362.94 544.13 354.54 544.13 398.44 544.13 403.2 550.43 403.2 550.43 362.94"/><polygon class="cls-18" points="236.78 145.22 281.83 153.34 291.6 97.78 356.93 109 358.15 101.9 285.3 89.38 275.53 144.94 230.47 136.82 230.47 150.45 236.78 151.57 236.78 145.22"/><polygon class="cls-18" points="492.47 365.33 541.75 365.33 541.75 356.93 486.17 356.93 486.17 398.44 492.47 398.44 492.47 365.33"/><polygon class="cls-18" points="326.15 365.33 412.81 365.33 412.81 356.93 319.85 356.93 319.85 398.44 326.15 398.44 326.15 365.33"/><polygon class="cls-18" points="421.49 365.33 483.79 365.33 483.79 356.93 415.19 356.93 415.19 398.44 421.49 398.44 421.49 365.33"/><polygon class="cls-18" points="447 124.48 464.05 127.41 499.42 133.44 500.64 126.32 457.75 119.01 440.7 116.08 431.35 170.48 438.87 171.78 447 124.48"/><polygon class="cls-18" points="366.8 110.7 437.13 122.78 438.35 115.68 360.5 102.3 351.17 156.59 358.69 157.9 366.8 110.7"/><polygon class="cls-18" points="299.25 54.3 322.92 58.37 324.14 51.26 292.95 45.9 285.71 87.04 293.26 88.33 299.25 54.3"/><polygon class="cls-18" points="330.13 314.72 369.94 314.72 369.94 306.32 323.83 306.32 323.83 331.73 330.13 331.73 330.13 314.72"/><polygon class="cls-18" points="421.49 301.28 442.63 301.28 442.63 292.88 415.19 292.88 415.19 331.66 421.49 331.66 421.49 301.28"/><polygon class="cls-18" points="395.88 314.72 395.88 309.96 395.88 301.28 412.81 301.28 412.81 292.88 389.57 292.88 389.57 301.56 389.57 306.32 389.57 331.66 395.88 331.66 395.88 314.72"/><polygon class="cls-18" points="543.71 301.28 566.53 301.28 566.53 292.88 537.41 292.88 537.41 331.66 543.71 331.66 543.71 301.28"/><polygon class="cls-18" points="332.79 60.06 335.19 60.48 349.03 62.85 350.23 55.74 345.04 54.85 328.89 52.08 326.49 51.66 319.42 92.83 326.94 94.12 332.79 60.06"/><polygon class="cls-18" points="358.88 64.55 440.48 78.57 441.7 71.46 352.58 56.15 345.62 97.33 353.12 98.62 358.88 64.55"/><polygon class="cls-18" points="499.62 193.62 499.62 191.51 509.5 133.91 511.33 123.62 522.99 123.62 522.99 123.62 524.25 123.62 563.59 123.62 563.59 115.22 517.95 115.22 516.69 115.22 516.69 115.22 505.03 115.22 503.2 125.51 493.31 183.11 493.31 185.22 493.31 215.74 499.62 215.74 499.62 193.62"/><g class="cls-19"><path d="M513.9,96.32l-7.07-1.48,6.3,8.4,2.93.82a3,3,0,0,0,.07-.56C516.13,100.64,515.1,97.47,513.9,96.32Z"/><polygon points="450.35 80.23 451.92 79.14 475.28 62.82 500.87 67.21 509.25 78.38 509.26 78.38 494.57 58.81 468.98 54.42 445.62 70.74 444.05 71.83 436.97 113.02 444.5 114.32 450.35 80.23"/></g><path class="cls-18" d="M236.77,365.33h80.7v-8.4h-87v41.42c.37,0,.67.07.86.09h5.44Z"/><polygon class="cls-18" points="469.56 163.09 463.26 154.69 468.64 155.61 469.57 150.23 475.87 158.63 474.94 164.01 469.56 163.09"/><polygon class="cls-18" points="486.48 121.68 480.18 113.28 485.56 114.2 486.49 108.82 492.79 117.22 491.86 122.6 486.48 121.68"/><polygon class="cls-18" points="465.78 118.12 459.48 109.72 464.86 110.64 465.79 105.26 472.09 113.66 471.16 119.04 465.78 118.12"/><g class="cls-19"><polygon points="318.66 191.52 360.39 198.91 367.46 182.52 488.55 203.49 488.55 185.22 351.71 161.52 344.64 177.91 302.91 170.52 302.91 301.56 318.66 301.56 318.66 191.52"/><polygon points="584.1 131.46 568.35 110.46 568.35 220.5 488.55 220.5 504.3 241.5 584.1 241.5 584.1 131.46"/><polygon points="225.71 138.41 170.19 128.87 185.94 149.87 225.71 156.71 225.71 138.41"/><path d="M571.29,288.12V403.2H225.7l15.75,20.09v.91h4.77v-.06l.69.06H587V309.12Z"/><path d="M512.16,91.39c4,1.13,8.73,4.64,8.73,12.11,0,2.69-1.59,5.28-2.94,7h10.24L530,98.11l-15.76-21Z"/></g><polygon class="cls-18" points="304.45 306.36 300.53 306.36 300.53 332.92 298.15 332.92 304.45 341.32 306.15 334.03 306.15 321.01 303.79 313.18 303.79 310.56 321.29 310.56 321.29 306.36 304.45 306.36"/><polygon class="cls-18" points="300.53 165.26 304.93 166.02 304.93 147.37 307.49 137.6 303.04 131.66 300.53 146.69 300.53 165.26"/></g><g id="Marker-3" data-name="Marker"><rect class="cls-7" x="254.97" y="368.68" width="18" height="18"/><path class="cls-9" d="M263.61,375.84h-1.76v-1h.24a1.89,1.89,0,0,0,1.3-.4,1.51,1.51,0,0,0,.42-1.2h1.41v8.92h-1.61Z"/><rect class="cls-7" x="274.97" y="368.68" width="18" height="18"/><path class="cls-9" d="M280.94,376.1a2.85,2.85,0,0,1,3.13-3c2.11,0,3,1.18,3,2.48s-.6,2-2,3.3l-2,1.89v0h4v1.32h-6.33v-1l3.11-3c1-1,1.51-1.58,1.51-2.42a1.24,1.24,0,0,0-1.32-1.35c-.76,0-1.46.45-1.46,1.78Z"/><rect class="cls-7" x="430.49" y="368.68" width="18" height="18"/><path class="cls-9" d="M439.12,375.84h-1.75v-1h.24a1.91,1.91,0,0,0,1.3-.4,1.54,1.54,0,0,0,.42-1.2h1.41v8.92h-1.62Z"/><rect class="cls-7" x="450.49" y="368.68" width="18" height="18"/><path class="cls-9" d="M456.45,376.1a2.86,2.86,0,0,1,3.13-3c2.12,0,3,1.18,3,2.48s-.6,2-2,3.3l-2,1.89v0h4v1.32h-6.33v-1l3.11-3c1-1,1.51-1.58,1.51-2.42a1.24,1.24,0,0,0-1.32-1.35c-.76,0-1.46.45-1.46,1.78Z"/><rect class="cls-5" x="234.26" y="67.91" width="18" height="18"/><path class="cls-9" d="M244.4,73.77h-4.16V72.44h6v1l-3.62,7.94H241Z"/><rect class="cls-2" x="214.26" y="67.91" width="18" height="18"/><path class="cls-9" d="M224.4,73.77h-4.16V72.44h6v1l-3.62,7.94H221Z"/><rect class="cls-3" x="214.26" y="87.91" width="18" height="18"/><path class="cls-9" d="M224.4,93.77h-4.16V92.44h6v1l-3.62,7.94H221Z"/><rect class="cls-6" x="234.26" y="87.91" width="18" height="18"/><path class="cls-9" d="M244.4,93.77h-4.16V92.44h6v1l-3.62,7.94H241Z"/></g></g></g></g></svg>