<svg xmlns="http://www.w3.org/2000/svg" viewBox="0 0 600 430"><defs><style>.cls-1,.cls-9{fill:#fff;}.cls-1{opacity:0.95;}.cls-2{fill:#009bf5;}.cls-3{fill:#ff6400;}.cls-4{fill:#232323;}.cls-5{fill:#7dc300;}.cls-6{fill:#463ca0;}.cls-7{fill:#b40097;}.cls-8{fill:#1d1d1b;}.cls-10{fill:#b3b3b3;}.cls-10,.cls-11{opacity:0.65;}.cls-12{fill:#737373;}.cls-13,.cls-15,.cls-19,.cls-20{fill:none;}.cls-13{stroke:#666;}.cls-13,.cls-19,.cls-20{stroke-miterlimit:10;}.cls-13,.cls-20{stroke-width:0.25px;}.cls-14{fill:#7c7c7c;}.cls-16,.cls-17{fill:#595959;}.cls-17{opacity:0.1;}.cls-18{fill:#fdfefd;}.cls-19,.cls-20{stroke:#595959;}.cls-19{stroke-width:0.84px;}</style></defs><title>Zeichenfläche 29</title><g id="Klein"><g id="H3"><g id="H3Hintergrund"><rect class="cls-1" width="600" height="430"/><rect class="cls-2" x="21.91" y="219.77" width="20" height="10"/><rect class="cls-3" x="21.91" y="239.77" width="20" height="10"/><rect class="cls-4" x="21.91" y="199.77" width="20" height="10"/><rect class="cls-5" x="21.91" y="259.77" width="20" height="10"/><rect class="cls-6" x="21.91" y="279.77" width="20" height="10"/><rect class="cls-7" x="21.91" y="299.77" width="20" height="10"/><path class="cls-8" d="M52.27,204.63c0,2.23.95,3.48,2.65,3.48a2.33,2.33,0,0,0,2.55-2.57v-.12H55v-.9h3.44v4.25h-.89v-1.21h0a2.83,2.83,0,0,1-2.63,1.38c-2.12,0-3.71-1.38-3.71-4.34,0-2.75,1.67-4.37,3.84-4.37,1.73,0,3,.87,3.18,2.35H57.15A2,2,0,0,0,55,201C53.21,201,52.27,202.47,52.27,204.63Z"/><path class="cls-8" d="M60.59,203h.93v1.09h0a2.08,2.08,0,0,1,1.83-1.2h.1v1h-.19a1.57,1.57,0,0,0-1.71,1.72v3.16h-1Z"/><path class="cls-8" d="M65.79,206.53a2.09,2.09,0,0,0,.21,1.18,1.07,1.07,0,0,0,.89.39c1.08,0,1.59-.72,1.59-2V203h1v5.8h-1v-1h0a2,2,0,0,1-1.83,1.13,1.68,1.68,0,0,1-1.86-1.9v-4h1Z"/><path class="cls-8" d="M75.21,205.19A2,2,0,0,0,75,204a1.06,1.06,0,0,0-.91-.39,1.47,1.47,0,0,0-1.58,1.64v3.48h-1V203h.94v1h0a2,2,0,0,1,1.87-1.12,1.66,1.66,0,0,1,1.85,1.9v4h-1Z"/><path class="cls-8" d="M82.86,208.77h-.94v-1h0a2.07,2.07,0,0,1-1.83,1.1c-1.23,0-2.37-.77-2.37-3,0-2,1-3.08,2.5-3.08a1.73,1.73,0,0,1,1.66,1h0V200.1h1Zm-1-3.13c0-1.23-.65-2-1.58-2-1.11,0-1.61.88-1.61,2.24s.38,2.27,1.54,2.27a1.69,1.69,0,0,0,1.65-1.87Z"/><path class="cls-8" d="M84.93,200.1h1v8.67h-1Z"/><path class="cls-8" d="M87.7,204.55c0-1,.81-1.72,2.19-1.72S92,203.43,92,205v2.37c0,.46.1.65.53.66v.8h-.13c-.92,0-1.23-.33-1.33-1h0a1.94,1.94,0,0,1-1.86,1.08,1.61,1.61,0,0,1-1.83-1.66,1.55,1.55,0,0,1,.86-1.47,6.82,6.82,0,0,1,2.81-.47V205c0-1.05-.4-1.46-1.21-1.46a1.05,1.05,0,0,0-1.21,1Zm3.37,1.59V206a4.8,4.8,0,0,0-2.34.42.85.85,0,0,0-.32.72c0,.59.38.91,1,.91A1.68,1.68,0,0,0,91.07,206.14Z"/><path class="cls-8" d="M93.69,209.35h1c.11.49.49.81,1.43.81,1.1,0,1.65-.4,1.65-1.68v-.86h0a2.08,2.08,0,0,1-1.84,1.07c-1.22,0-2.33-.76-2.33-2.9,0-1.92,1-3,2.45-3a1.8,1.8,0,0,1,1.73,1h0V203h.94v5.65c0,1.63-1.06,2.34-2.64,2.34C95,211,93.82,210.55,93.69,209.35Zm4.06-3.8a1.71,1.71,0,0,0-1.65-1.94c-1,0-1.54.87-1.54,2.18s.36,2.15,1.58,2.15a1.68,1.68,0,0,0,1.61-1.8Z"/><path class="cls-8" d="M102.86,208.91c-1.77,0-2.62-1.29-2.62-3s.93-3.06,2.59-3.06,2.42,1.34,2.42,2.8v.51h-4c.06,1.2.55,2,1.63,2a1.19,1.19,0,0,0,1.32-.9h1A2.17,2.17,0,0,1,102.86,208.91Zm1.38-3.62c0-1-.41-1.72-1.42-1.72s-1.43.73-1.55,1.79h3Z"/><path class="cls-8" d="M110.44,205.19a2,2,0,0,0-.21-1.15,1.06,1.06,0,0,0-.91-.39,1.46,1.46,0,0,0-1.57,1.64v3.48h-1V203h.93v1h0a2,2,0,0,1,1.87-1.12,1.66,1.66,0,0,1,1.85,1.9v4h-1Z"/><path class="cls-8" d="M52.61,225.55v3.22h-1v-8.42h2.53c1.63,0,2.9.77,2.9,2.59s-1.26,2.61-3,2.61Zm1.42-.82c1.22,0,1.93-.6,1.93-1.79s-.71-1.76-1.89-1.76H52.61v3.55Z"/><path class="cls-8" d="M58.07,223H59v1.09h0a2.08,2.08,0,0,1,1.83-1.2H61v1h-.18a1.58,1.58,0,0,0-1.72,1.72v3.16h-1Z"/><path class="cls-8" d="M61.74,225.86c0-1.79,1-3,2.61-3s2.59,1.24,2.59,3-1,3-2.61,3S61.74,227.68,61.74,225.86Zm1,0c0,1.42.47,2.28,1.59,2.28s1.55-.86,1.55-2.28-.46-2.27-1.57-2.27S62.77,224.45,62.77,225.86Z"/><path class="cls-8" d="M73.26,228.77h-1v-1h0a2.05,2.05,0,0,1-1.82,1.1c-1.24,0-2.37-.77-2.37-3,0-2,1-3.08,2.5-3.08a1.73,1.73,0,0,1,1.66,1h0V220.1h1Zm-1-3.13c0-1.23-.65-2-1.57-2-1.11,0-1.62.88-1.62,2.24s.39,2.27,1.54,2.27a1.69,1.69,0,0,0,1.65-1.87Z"/><path class="cls-8" d="M76.29,226.53a2.18,2.18,0,0,0,.2,1.18,1.08,1.08,0,0,0,.9.39c1.07,0,1.58-.72,1.58-2V223h1v5.8H79v-1h0a2,2,0,0,1-1.82,1.13,1.67,1.67,0,0,1-1.86-1.9v-4h1Z"/><path class="cls-8" d="M83,228.77H82V220.1h1v5.66L85.43,223h1.15l-1.93,2.18,2.17,3.62H85.67L84,225.91,83,227Z"/><path class="cls-8" d="M89.38,221.29V223h1.43v.76H89.38v3.42c0,.62.25.86.88.86a4.29,4.29,0,0,0,.63-.06v.84a6.82,6.82,0,0,1-.91.06c-1.13,0-1.58-.55-1.58-1.54v-3.58H87.34V223h.18c.78,0,1-.19,1-1.3v-.41Z"/><path class="cls-8" d="M91.88,229.35h1c.11.49.48.81,1.43.81,1.1,0,1.65-.4,1.65-1.68v-.86h0a2.09,2.09,0,0,1-1.85,1.07c-1.21,0-2.32-.76-2.32-2.9,0-1.92,1-3,2.44-3a1.81,1.81,0,0,1,1.74,1h0V223h1v5.65c0,1.63-1.07,2.34-2.64,2.34C93.15,231,92,230.55,91.88,229.35Zm4.06-3.8a1.71,1.71,0,0,0-1.65-1.94c-1,0-1.54.87-1.54,2.18s.37,2.15,1.59,2.15a1.68,1.68,0,0,0,1.6-1.8Z"/><path class="cls-8" d="M101.06,228.91c-1.77,0-2.62-1.29-2.62-3s.92-3.06,2.58-3.06,2.42,1.34,2.42,2.8v.51h-4c.07,1.2.55,2,1.64,2a1.2,1.2,0,0,0,1.32-.9h1A2.17,2.17,0,0,1,101.06,228.91Zm1.37-3.62c0-1-.4-1.72-1.42-1.72s-1.43.73-1.55,1.79h3Z"/><path class="cls-8" d="M107.87,224.42c-.06-.52-.48-.85-1.16-.85a1,1,0,0,0-1.13.94c0,.47.28.69.87.79l.89.13c1.21.19,1.65.69,1.65,1.69,0,1.16-.95,1.79-2.27,1.79s-2.19-.54-2.26-1.78h1c0,.45.3,1,1.32,1,.8,0,1.29-.37,1.29-1,0-.46-.12-.71-.91-.85l-.89-.13c-1-.16-1.59-.59-1.59-1.6s.78-1.76,2.1-1.76,2,.58,2.07,1.59Z"/><path class="cls-8" d="M111.76,221.29V223h1.43v.76h-1.43v3.42c0,.62.25.86.88.86a4.33,4.33,0,0,0,.64-.06v.84a7.08,7.08,0,0,1-.92.06c-1.13,0-1.58-.55-1.58-1.54v-3.58h-1.06V223h.18c.78,0,1-.19,1-1.3v-.41Z"/><path class="cls-8" d="M114.75,224.55c0-1,.81-1.72,2.19-1.72s2.15.6,2.15,2.15v2.37c0,.46.1.65.52.66v.8h-.12c-.92,0-1.23-.33-1.33-1h0a1.94,1.94,0,0,1-1.86,1.08,1.62,1.62,0,0,1-1.84-1.66,1.56,1.56,0,0,1,.87-1.47,6.82,6.82,0,0,1,2.81-.47V225c0-1.05-.4-1.46-1.21-1.46a1.05,1.05,0,0,0-1.21,1Zm3.37,1.59V226a4.85,4.85,0,0,0-2.35.42.87.87,0,0,0-.31.72c0,.59.38.91,1,.91A1.68,1.68,0,0,0,118.12,226.14Z"/><path class="cls-8" d="M121.06,220.1h1v8.67h-1Z"/><path class="cls-8" d="M125.32,221.29V223h1.43v.76h-1.43v3.42c0,.62.26.86.88.86a4.33,4.33,0,0,0,.64-.06v.84a7,7,0,0,1-.91.06c-1.13,0-1.59-.55-1.59-1.54v-3.58h-1V223h.17c.78,0,1-.19,1-1.3v-.41Z"/><path class="cls-8" d="M129.11,226.53a2.09,2.09,0,0,0,.21,1.18,1,1,0,0,0,.89.39c1.08,0,1.58-.72,1.58-2V223h1v5.8h-.94v-1h0a2,2,0,0,1-1.82,1.13,1.68,1.68,0,0,1-1.86-1.9v-4h1Z"/><path class="cls-8" d="M138.52,225.19a2,2,0,0,0-.21-1.15,1,1,0,0,0-.91-.39,1.46,1.46,0,0,0-1.57,1.64v3.48h-1V223h.93v1h0a2,2,0,0,1,1.87-1.12,1.66,1.66,0,0,1,1.85,1.9v4h-1Z"/><path class="cls-8" d="M141.15,229.35h1c.11.49.48.81,1.43.81,1.1,0,1.65-.4,1.65-1.68v-.86h0a2.09,2.09,0,0,1-1.85,1.07c-1.21,0-2.32-.76-2.32-2.9,0-1.92,1-3,2.44-3a1.81,1.81,0,0,1,1.74,1h0V223h.95v5.65c0,1.63-1.07,2.34-2.64,2.34C142.42,231,141.28,230.55,141.15,229.35Zm4.06-3.8a1.71,1.71,0,0,0-1.65-1.94c-1,0-1.54.87-1.54,2.18s.36,2.15,1.58,2.15a1.68,1.68,0,0,0,1.61-1.8Z"/><path class="cls-8" d="M52.61,248.77h-1v-8.42h1v4.32l3.94-4.32h1.23l-3.23,3.53L58,248.77H56.78l-2.93-4.12L52.61,246Z"/><path class="cls-8" d="M58.71,245.86c0-1.79,1-3,2.6-3s2.59,1.24,2.59,3-1,3-2.61,3S58.71,247.68,58.71,245.86Zm1,0c0,1.42.47,2.28,1.6,2.28s1.55-.86,1.55-2.28-.46-2.27-1.58-2.27S59.73,244.45,59.73,245.86Z"/><path class="cls-8" d="M65.46,243h.94v1h0a2,2,0,0,1,1.86-1.12A1.63,1.63,0,0,1,70,244h0a2,2,0,0,1,1.89-1.2,1.66,1.66,0,0,1,1.84,1.9v4h-1v-3.59a2,2,0,0,0-.21-1.15,1,1,0,0,0-.9-.38,1.46,1.46,0,0,0-1.57,1.64v3.48h-1v-3.59a2.05,2.05,0,0,0-.2-1.14,1,1,0,0,0-.91-.39,1.46,1.46,0,0,0-1.56,1.62v3.5h-1Z"/><path class="cls-8" d="M75.79,243h.94v1h0a2,2,0,0,1,1.86-1.12,1.63,1.63,0,0,1,1.75,1.2h0a2,2,0,0,1,1.89-1.2,1.66,1.66,0,0,1,1.84,1.9v4h-1v-3.59a2,2,0,0,0-.21-1.15,1,1,0,0,0-.9-.38,1.46,1.46,0,0,0-1.57,1.64v3.48h-1v-3.59a2,2,0,0,0-.21-1.14,1,1,0,0,0-.9-.39,1.46,1.46,0,0,0-1.56,1.62v3.5h-1Z"/><path class="cls-8" d="M87.08,246.53a2.09,2.09,0,0,0,.21,1.18,1,1,0,0,0,.89.39c1.08,0,1.58-.72,1.58-2V243h1v5.8h-.94v-1h0A2,2,0,0,1,88,248.91,1.68,1.68,0,0,1,86.1,247v-4h1Z"/><path class="cls-8" d="M96.49,245.19a2,2,0,0,0-.21-1.15,1,1,0,0,0-.91-.39,1.46,1.46,0,0,0-1.57,1.64v3.48h-1V243h.93v1h0a2,2,0,0,1,1.87-1.12,1.66,1.66,0,0,1,1.85,1.9v4h-1Z"/><path class="cls-8" d="M99.47,240.58h1v1.07h-1Zm0,2.39h1v5.8h-1Z"/><path class="cls-8" d="M103.55,248.77h-1V240.1h1v5.66L106,243h1.16l-1.94,2.18,2.18,3.62h-1.15l-1.7-2.86-1,1.09Z"/><path class="cls-8" d="M108.43,244.55c0-1,.8-1.72,2.19-1.72s2.14.6,2.14,2.15v2.37c0,.46.1.65.53.66v.8h-.12c-.93,0-1.23-.33-1.33-1h0a1.93,1.93,0,0,1-1.85,1.08,1.61,1.61,0,0,1-1.84-1.66,1.54,1.54,0,0,1,.87-1.47,6.77,6.77,0,0,1,2.8-.47V245c0-1.05-.39-1.46-1.21-1.46a1.07,1.07,0,0,0-1.21,1Zm3.36,1.59V246a4.8,4.8,0,0,0-2.34.42.85.85,0,0,0-.32.72c0,.59.39.91,1,.91A1.68,1.68,0,0,0,111.79,246.14Z"/><path class="cls-8" d="M116,241.29V243h1.43v.76H116v3.42c0,.62.25.86.88.86a4.33,4.33,0,0,0,.64-.06v.84a7,7,0,0,1-.91.06c-1.14,0-1.59-.55-1.59-1.54v-3.58h-1V243h.17c.78,0,1-.19,1-1.3v-.41Z"/><path class="cls-8" d="M118.81,240.58h1v1.07h-1Zm0,2.39h1v5.8h-1Z"/><path class="cls-8" d="M121.38,245.86c0-1.79,1-3,2.61-3s2.59,1.24,2.59,3-1,3-2.61,3S121.38,247.68,121.38,245.86Zm1,0c0,1.42.47,2.28,1.59,2.28s1.55-.86,1.55-2.28-.46-2.27-1.57-2.27S122.41,244.45,122.41,245.86Z"/><path class="cls-8" d="M131.82,245.19a2.07,2.07,0,0,0-.2-1.15,1.06,1.06,0,0,0-.92-.39,1.46,1.46,0,0,0-1.57,1.64v3.48h-1V243h.93v1h0a2,2,0,0,1,1.87-1.12,1.65,1.65,0,0,1,1.84,1.9v4h-1Z"/><path class="cls-8" d="M137.69,244.42c-.06-.52-.48-.85-1.16-.85a1,1,0,0,0-1.13.94c0,.47.29.69.87.79l.89.13c1.21.19,1.65.69,1.65,1.69,0,1.16-.95,1.79-2.27,1.79s-2.19-.54-2.26-1.78h1c0,.45.3,1,1.32,1,.8,0,1.29-.37,1.29-1,0-.46-.12-.71-.91-.85l-.89-.13c-1-.16-1.59-.59-1.59-1.6s.78-1.76,2.1-1.76,2,.58,2.07,1.59Z"/><path class="cls-8" d="M140,249.35h1c.11.49.48.81,1.43.81s1.65-.4,1.65-1.68v-.86h0a2.09,2.09,0,0,1-1.85,1.07c-1.21,0-2.32-.76-2.32-2.9,0-1.92,1-3,2.44-3a1.82,1.82,0,0,1,1.74,1h0V243h1v5.65c0,1.63-1.07,2.34-2.64,2.34C141.31,251,140.17,250.55,140,249.35Zm4.06-3.8a1.71,1.71,0,0,0-1.65-1.94c-1,0-1.54.87-1.54,2.18s.36,2.15,1.58,2.15a1.68,1.68,0,0,0,1.61-1.8Z"/><path class="cls-8" d="M149.22,248.91c-1.78,0-2.62-1.29-2.62-3s.92-3.06,2.58-3.06,2.42,1.34,2.42,2.8v.51h-4c.07,1.2.55,2,1.64,2a1.2,1.2,0,0,0,1.32-.9h1A2.15,2.15,0,0,1,149.22,248.91Zm1.37-3.62c0-1-.41-1.72-1.42-1.72s-1.43.73-1.55,1.79h3Z"/><path class="cls-8" d="M156,244.42c-.05-.52-.47-.85-1.15-.85a1,1,0,0,0-1.13.94c0,.47.28.69.86.79l.9.13c1.21.19,1.65.69,1.65,1.69,0,1.16-1,1.79-2.27,1.79s-2.19-.54-2.27-1.78h1c0,.45.3,1,1.32,1,.79,0,1.29-.37,1.29-1,0-.46-.12-.71-.91-.85l-.9-.13c-1-.16-1.58-.59-1.58-1.6s.78-1.76,2.1-1.76,2,.58,2.07,1.59Z"/><path class="cls-8" d="M159.92,241.29V243h1.43v.76h-1.43v3.42c0,.62.25.86.88.86a4.52,4.52,0,0,0,.64-.06v.84a7.08,7.08,0,0,1-.92.06c-1.13,0-1.58-.55-1.58-1.54v-3.58h-1.06V243h.18c.78,0,1-.19,1-1.3v-.41Z"/><path class="cls-8" d="M162.91,244.55c0-1,.8-1.72,2.19-1.72s2.14.6,2.14,2.15v2.37c0,.46.1.65.53.66v.8h-.12c-.92,0-1.23-.33-1.33-1h0a1.94,1.94,0,0,1-1.86,1.08,1.61,1.61,0,0,1-1.84-1.66,1.56,1.56,0,0,1,.87-1.47,6.82,6.82,0,0,1,2.81-.47V245c0-1.05-.4-1.46-1.21-1.46a1.07,1.07,0,0,0-1.22,1Zm3.37,1.59V246a4.85,4.85,0,0,0-2.35.42.85.85,0,0,0-.32.72c0,.59.39.91,1,.91A1.69,1.69,0,0,0,166.28,246.14Z"/><path class="cls-8" d="M169.21,240.1h1v8.67h-1Z"/><path class="cls-8" d="M173.48,241.29V243h1.43v.76h-1.43v3.42c0,.62.25.86.88.86A4.33,4.33,0,0,0,175,248v.84a7,7,0,0,1-.91.06c-1.14,0-1.59-.55-1.59-1.54v-3.58h-1.06V243h.18c.78,0,1-.19,1-1.3v-.41Z"/><path class="cls-8" d="M177.26,246.53a2.09,2.09,0,0,0,.21,1.18,1.07,1.07,0,0,0,.89.39c1.08,0,1.59-.72,1.59-2V243h1v5.8H180v-1h0a2,2,0,0,1-1.83,1.13,1.68,1.68,0,0,1-1.86-1.9v-4h1Z"/><path class="cls-8" d="M186.68,245.19a2,2,0,0,0-.21-1.15,1.06,1.06,0,0,0-.91-.39,1.47,1.47,0,0,0-1.58,1.64v3.48h-1V243h.94v1h0a2,2,0,0,1,1.87-1.12,1.66,1.66,0,0,1,1.85,1.9v4h-1Z"/><path class="cls-8" d="M189.31,249.35h1c.11.49.48.81,1.43.81,1.1,0,1.65-.4,1.65-1.68v-.86h0a2.06,2.06,0,0,1-1.84,1.07c-1.21,0-2.33-.76-2.33-2.9,0-1.92,1-3,2.45-3a1.83,1.83,0,0,1,1.74,1h0V243h.94v5.65c0,1.63-1.06,2.34-2.64,2.34C190.57,251,189.44,250.55,189.31,249.35Zm4.06-3.8a1.71,1.71,0,0,0-1.65-1.94c-1.05,0-1.54.87-1.54,2.18s.36,2.15,1.58,2.15a1.68,1.68,0,0,0,1.61-1.8Z"/><path class="cls-8" d="M51.59,260.35h1v8.42h-1Z"/><path class="cls-8" d="M58.49,265.19a2,2,0,0,0-.21-1.15,1.06,1.06,0,0,0-.91-.39,1.47,1.47,0,0,0-1.58,1.64v3.48h-1V263h.94v1h0a2,2,0,0,1,1.87-1.12,1.66,1.66,0,0,1,1.85,1.9v4h-1Z"/><path class="cls-8" d="M62.71,261.29V263h1.43v.76H62.71v3.42c0,.62.26.86.88.86a4.33,4.33,0,0,0,.64-.06v.84a7,7,0,0,1-.91.06c-1.14,0-1.59-.55-1.59-1.54v-3.58h-1V263h.17c.78,0,1-.19,1-1.3v-.41Z"/><path class="cls-8" d="M67.69,268.91c-1.77,0-2.61-1.29-2.61-3s.92-3.06,2.58-3.06,2.42,1.34,2.42,2.8v.51h-4c.06,1.2.55,2,1.64,2a1.2,1.2,0,0,0,1.32-.9h1A2.15,2.15,0,0,1,67.69,268.91Zm1.38-3.62c0-1-.41-1.72-1.42-1.72s-1.43.73-1.55,1.79h3Z"/><path class="cls-8" d="M71.59,263h.93v1.09h0a2.08,2.08,0,0,1,1.83-1.2h.1v1h-.19a1.57,1.57,0,0,0-1.71,1.72v3.16h-1Z"/><path class="cls-8" d="M75.56,264.55c0-1,.8-1.72,2.19-1.72s2.14.6,2.14,2.15v2.37c0,.46.1.65.53.66v.8H80.3c-.92,0-1.23-.33-1.33-1h0a1.94,1.94,0,0,1-1.86,1.08,1.61,1.61,0,0,1-1.84-1.66,1.56,1.56,0,0,1,.87-1.47,6.82,6.82,0,0,1,2.81-.47V265c0-1-.4-1.46-1.21-1.46a1.05,1.05,0,0,0-1.21,1Zm3.37,1.59V266a4.85,4.85,0,0,0-2.35.42.85.85,0,0,0-.32.72c0,.59.39.91,1,.91A1.69,1.69,0,0,0,78.93,266.14Z"/><path class="cls-8" d="M82.85,268.77h-1V260.1h1v5.66L85.27,263h1.16l-1.94,2.18,2.18,3.62H85.52l-1.7-2.86-1,1.09Z"/><path class="cls-8" d="M89.22,261.29V263h1.43v.76H89.22v3.42c0,.62.26.86.88.86a4.33,4.33,0,0,0,.64-.06v.84a7,7,0,0,1-.91.06c-1.14,0-1.59-.55-1.59-1.54v-3.58h-1V263h.17c.78,0,1-.19,1-1.3v-.41Z"/><path class="cls-8" d="M92.08,260.58h1v1.07h-1Zm0,2.39h1v5.8h-1Z"/><path class="cls-8" d="M94.65,265.86c0-1.79,1-3,2.61-3s2.59,1.24,2.59,3-1,3.05-2.61,3.05S94.65,267.68,94.65,265.86Zm1,0c0,1.42.47,2.28,1.59,2.28s1.55-.86,1.55-2.28-.46-2.27-1.57-2.27S95.68,264.45,95.68,265.86Z"/><path class="cls-8" d="M105.09,265.19a2.07,2.07,0,0,0-.2-1.15,1.06,1.06,0,0,0-.92-.39,1.46,1.46,0,0,0-1.57,1.64v3.48h-1V263h.93v1h0a2,2,0,0,1,1.87-1.12,1.65,1.65,0,0,1,1.84,1.9v4h-1Z"/><path class="cls-8" d="M111,264.42c-.06-.52-.48-.85-1.16-.85a1,1,0,0,0-1.13.94c0,.47.29.69.87.79l.89.13c1.21.19,1.65.69,1.65,1.69,0,1.16-1,1.79-2.27,1.79s-2.19-.54-2.26-1.78h1c0,.45.29,1,1.32,1,.79,0,1.28-.37,1.28-1s-.12-.71-.91-.85l-.89-.13c-1-.16-1.59-.59-1.59-1.6s.79-1.76,2.11-1.76,2,.58,2.06,1.59Z"/><path class="cls-8" d="M113.31,269.35h1c.11.49.48.81,1.43.81s1.65-.4,1.65-1.68v-.86h0a2.09,2.09,0,0,1-1.85,1.07c-1.21,0-2.32-.76-2.32-2.9,0-1.92,1-3,2.44-3a1.81,1.81,0,0,1,1.74,1.05h0V263h.95v5.65c0,1.63-1.07,2.34-2.64,2.34C114.58,271,113.44,270.55,113.31,269.35Zm4.06-3.8a1.71,1.71,0,0,0-1.65-1.94c-1,0-1.54.87-1.54,2.18s.36,2.15,1.58,2.15a1.68,1.68,0,0,0,1.61-1.8Z"/><path class="cls-8" d="M122.48,268.91c-1.77,0-2.61-1.29-2.61-3s.92-3.06,2.58-3.06,2.42,1.34,2.42,2.8v.51h-4c.06,1.2.55,2,1.64,2a1.2,1.2,0,0,0,1.32-.9h1A2.15,2.15,0,0,1,122.48,268.91Zm1.38-3.62c0-1-.41-1.72-1.42-1.72s-1.43.73-1.55,1.79h3Z"/><path class="cls-8" d="M129.29,264.42c0-.52-.47-.85-1.15-.85a1,1,0,0,0-1.13.94c0,.47.28.69.86.79l.9.13c1.21.19,1.65.69,1.65,1.69,0,1.16-.95,1.79-2.27,1.79s-2.19-.54-2.27-1.78h1c.05.45.3,1,1.32,1,.79,0,1.29-.37,1.29-1s-.12-.71-.91-.85l-.9-.13c-1-.16-1.58-.59-1.58-1.6s.78-1.76,2.1-1.76,2,.58,2.07,1.59Z"/><path class="cls-8" d="M133.19,261.29V263h1.43v.76h-1.43v3.42c0,.62.25.86.88.86a4.52,4.52,0,0,0,.64-.06v.84a7.08,7.08,0,0,1-.92.06c-1.13,0-1.58-.55-1.58-1.54v-3.58h-1.06V263h.18c.78,0,1-.19,1-1.3v-.41Z"/><path class="cls-8" d="M136.18,264.55c0-1,.8-1.72,2.19-1.72s2.14.6,2.14,2.15v2.37c0,.46.1.65.53.66v.8h-.12c-.92,0-1.23-.33-1.33-1h0a1.94,1.94,0,0,1-1.86,1.08,1.61,1.61,0,0,1-1.84-1.66,1.56,1.56,0,0,1,.87-1.47,6.82,6.82,0,0,1,2.81-.47V265c0-1-.4-1.46-1.21-1.46a1.07,1.07,0,0,0-1.22,1Zm3.37,1.59V266a4.85,4.85,0,0,0-2.35.42.85.85,0,0,0-.32.72c0,.59.39.91,1,.91A1.69,1.69,0,0,0,139.55,266.14Z"/><path class="cls-8" d="M142.48,260.1h1v8.67h-1Z"/><path class="cls-8" d="M146.75,261.29V263h1.43v.76h-1.43v3.42c0,.62.25.86.88.86a4.33,4.33,0,0,0,.64-.06v.84a7.08,7.08,0,0,1-.92.06c-1.13,0-1.58-.55-1.58-1.54v-3.58h-1.06V263h.18c.78,0,1-.19,1-1.3v-.41Z"/><path class="cls-8" d="M150.53,266.53a2.09,2.09,0,0,0,.21,1.18,1.07,1.07,0,0,0,.89.39c1.08,0,1.59-.72,1.59-2V263h1v5.8h-1v-1h0a2,2,0,0,1-1.83,1.13,1.68,1.68,0,0,1-1.86-1.9v-4h1Z"/><path class="cls-8" d="M160,265.19a2,2,0,0,0-.21-1.15,1.06,1.06,0,0,0-.91-.39,1.47,1.47,0,0,0-1.58,1.64v3.48h-1V263h.94v1h0a2,2,0,0,1,1.87-1.12,1.66,1.66,0,0,1,1.85,1.9v4h-1Z"/><path class="cls-8" d="M162.58,269.35h1c.11.49.48.81,1.43.81,1.1,0,1.65-.4,1.65-1.68v-.86h0a2.06,2.06,0,0,1-1.84,1.07c-1.21,0-2.32-.76-2.32-2.9,0-1.92,1-3,2.44-3a1.83,1.83,0,0,1,1.74,1.05h0V263h.94v5.65c0,1.63-1.06,2.34-2.64,2.34C163.84,271,162.71,270.55,162.58,269.35Zm4.06-3.8a1.71,1.71,0,0,0-1.65-1.94c-1.05,0-1.54.87-1.54,2.18s.36,2.15,1.58,2.15a1.68,1.68,0,0,0,1.61-1.8Z"/><path class="cls-8" d="M51.59,280.35h1v8.42h-1Z"/><path class="cls-8" d="M58.49,285.19a2,2,0,0,0-.21-1.15,1.06,1.06,0,0,0-.91-.39,1.47,1.47,0,0,0-1.58,1.64v3.48h-1V283h.94v1h0a2,2,0,0,1,1.87-1.12,1.66,1.66,0,0,1,1.85,1.9v4h-1Z"/><path class="cls-8" d="M62.71,281.29V283h1.43v.76H62.71v3.42c0,.62.26.86.88.86a4.33,4.33,0,0,0,.64-.06v.84a7,7,0,0,1-.91.06c-1.14,0-1.59-.55-1.59-1.54v-3.58h-1V283h.17c.78,0,1-.19,1-1.3v-.41Z"/><path class="cls-8" d="M67.69,288.91c-1.77,0-2.61-1.29-2.61-3s.92-3.06,2.58-3.06,2.42,1.34,2.42,2.8v.51h-4c.06,1.2.55,2,1.64,2a1.2,1.2,0,0,0,1.32-.9h1A2.15,2.15,0,0,1,67.69,288.91Zm1.38-3.62c0-1-.41-1.72-1.42-1.72s-1.43.73-1.55,1.79h3Z"/><path class="cls-8" d="M71.59,283h.93v1.09h0a2.08,2.08,0,0,1,1.83-1.2h.1v1h-.19a1.57,1.57,0,0,0-1.71,1.72v3.16h-1Z"/><path class="cls-8" d="M79.47,285.19a2,2,0,0,0-.21-1.15,1.06,1.06,0,0,0-.92-.39,1.47,1.47,0,0,0-1.57,1.64v3.48h-1V283h.94v1h0a2,2,0,0,1,1.87-1.12,1.66,1.66,0,0,1,1.85,1.9v4h-1Z"/><path class="cls-8" d="M84.57,288.91c-1.77,0-2.62-1.29-2.62-3s.92-3.06,2.59-3.06,2.42,1.34,2.42,2.8v.51H83c.07,1.2.55,2,1.64,2a1.2,1.2,0,0,0,1.32-.9h1A2.17,2.17,0,0,1,84.57,288.91Zm1.37-3.62c0-1-.4-1.72-1.42-1.72s-1.43.73-1.55,1.79h3Z"/><path class="cls-8" d="M89.74,281.29V283h1.43v.76H89.74v3.42c0,.62.25.86.88.86a4.33,4.33,0,0,0,.64-.06v.84a7.08,7.08,0,0,1-.92.06c-1.13,0-1.58-.55-1.58-1.54v-3.58H87.7V283h.18c.78,0,1-.19,1-1.3v-.41Z"/><path class="cls-8" d="M100.15,288.77h-.94v-1h0a2.07,2.07,0,0,1-1.83,1.1c-1.23,0-2.37-.77-2.37-3,0-2,1-3.08,2.5-3.08a1.73,1.73,0,0,1,1.66,1h0V280.1h1Zm-1-3.13c0-1.23-.65-2-1.58-2-1.11,0-1.61.88-1.61,2.24s.38,2.27,1.54,2.27a1.69,1.69,0,0,0,1.65-1.87Z"/><path class="cls-8" d="M104.32,288.91c-1.77,0-2.61-1.29-2.61-3s.92-3.06,2.58-3.06,2.42,1.34,2.42,2.8v.51h-4c.06,1.2.55,2,1.64,2a1.2,1.2,0,0,0,1.32-.9h.95A2.15,2.15,0,0,1,104.32,288.91Zm1.38-3.62c0-1-.41-1.72-1.42-1.72s-1.43.73-1.55,1.79h3Z"/><path class="cls-8" d="M108.22,283h.93v1.09h0a2.08,2.08,0,0,1,1.83-1.2h.1v1h-.19a1.57,1.57,0,0,0-1.71,1.72v3.16h-1Z"/><path class="cls-8" d="M115.62,280.35h2.59c2.3,0,4.07,1.12,4.07,4.1s-1.65,4.32-4,4.32h-2.71Zm2.59,7.54c1.78,0,3-.93,3-3.4s-1.24-3.26-2.94-3.26h-1.63v6.66Z"/><path class="cls-8" d="M124,280.58h1v1.07h-1Zm0,2.39h1v5.8h-1Z"/><path class="cls-8" d="M130.8,285.19a2,2,0,0,0-.21-1.15,1.06,1.06,0,0,0-.91-.39,1.46,1.46,0,0,0-1.57,1.64v3.48h-1V283h.93v1h0a2,2,0,0,1,1.87-1.12,1.66,1.66,0,0,1,1.85,1.9v4h-1Z"/><path class="cls-8" d="M133.43,289.35h1c.11.49.48.81,1.43.81,1.1,0,1.65-.4,1.65-1.68v-.86h0a2.09,2.09,0,0,1-1.85,1.07c-1.21,0-2.32-.76-2.32-2.9,0-1.92,1-3,2.44-3a1.82,1.82,0,0,1,1.74,1.05h0V283h.95v5.65c0,1.63-1.07,2.34-2.65,2.34C134.69,291,133.56,290.55,133.43,289.35Zm4.06-3.8a1.71,1.71,0,0,0-1.65-1.94c-1.05,0-1.54.87-1.54,2.18s.36,2.15,1.58,2.15a1.68,1.68,0,0,0,1.61-1.8Z"/><path class="cls-8" d="M142.6,288.91c-1.77,0-2.62-1.29-2.62-3s.93-3.06,2.59-3.06,2.42,1.34,2.42,2.8v.51h-4c.06,1.2.55,2,1.64,2a1.2,1.2,0,0,0,1.32-.9h.95A2.16,2.16,0,0,1,142.6,288.91Zm1.38-3.62c0-1-.41-1.72-1.42-1.72s-1.43.73-1.55,1.79h3Z"/><path class="cls-8" d="M56.19,302.61A1.62,1.62,0,0,0,54.44,301c-1.14,0-1.76.65-1.76,1.46s.42,1.21,1.41,1.39l1.19.21c1.64.3,2.21,1.1,2.21,2.3,0,1.54-1.05,2.53-3.06,2.53s-3.06-1-3.15-2.53h1.07a1.92,1.92,0,0,0,2.1,1.71c1.5,0,2-.73,2-1.62,0-.73-.39-1.23-1.43-1.41l-1.17-.21c-1.65-.31-2.24-1.19-2.24-2.29,0-1.36,1.12-2.35,2.85-2.35s2.71.95,2.78,2.38Z"/><path class="cls-8" d="M60.56,301.29V303H62v.76H60.56v3.42c0,.62.25.86.88.86a4.29,4.29,0,0,0,.63-.06v.84a6.82,6.82,0,0,1-.91.06c-1.13,0-1.58-.55-1.58-1.54v-3.58H58.52V303h.18c.78,0,.95-.19.95-1.3v-.41Z"/><path class="cls-8" d="M63.38,303h.94v1.09h0a2.08,2.08,0,0,1,1.84-1.2h.1v1h-.19a1.58,1.58,0,0,0-1.72,1.72v3.16h-1Z"/><path class="cls-8" d="M67.35,304.55c0-1,.81-1.72,2.19-1.72s2.15.6,2.15,2.15v2.37c0,.46.1.65.53.66v.8H72.1c-.93,0-1.24-.33-1.34-1h0a1.94,1.94,0,0,1-1.86,1.08,1.61,1.61,0,0,1-1.83-1.66,1.55,1.55,0,0,1,.86-1.47,6.82,6.82,0,0,1,2.81-.47V305c0-1-.4-1.46-1.21-1.46a1.05,1.05,0,0,0-1.21,1Zm3.37,1.59V306a4.8,4.8,0,0,0-2.34.42.85.85,0,0,0-.32.72c0,.59.38.91,1,.91A1.68,1.68,0,0,0,70.72,306.14Z"/><path class="cls-8" d="M74.88,301.29V303h1.43v.76H74.88v3.42c0,.62.25.86.88.86a4.33,4.33,0,0,0,.64-.06v.84a7.08,7.08,0,0,1-.92.06c-1.13,0-1.58-.55-1.58-1.54v-3.58H72.84V303H73c.78,0,1-.19,1-1.3v-.41Z"/><path class="cls-8" d="M79.86,308.91c-1.77,0-2.62-1.29-2.62-3s.93-3.06,2.59-3.06,2.42,1.34,2.42,2.8v.51h-4c.07,1.2.55,2,1.64,2a1.2,1.2,0,0,0,1.32-.9h1A2.17,2.17,0,0,1,79.86,308.91Zm1.38-3.62c0-1-.41-1.72-1.42-1.72s-1.43.73-1.55,1.79h3Z"/><path class="cls-8" d="M83.49,309.35h1c.11.49.48.81,1.43.81,1.1,0,1.65-.4,1.65-1.68v-.86h0a2.09,2.09,0,0,1-1.85,1.07c-1.21,0-2.32-.76-2.32-2.9,0-1.92,1-3,2.44-3a1.82,1.82,0,0,1,1.74,1.05h0V303h1v5.65c0,1.63-1.07,2.34-2.65,2.34C84.75,311,83.62,310.55,83.49,309.35Zm4.06-3.8a1.71,1.71,0,0,0-1.65-1.94c-1.05,0-1.54.87-1.54,2.18s.36,2.15,1.58,2.15a1.68,1.68,0,0,0,1.61-1.8Z"/><path class="cls-8" d="M90.54,300.58h1v1.07h-1Zm0,2.39h1v5.8h-1Z"/><path class="cls-8" d="M96.49,304.42c0-.52-.47-.85-1.15-.85a1,1,0,0,0-1.14.94c0,.47.29.69.87.79l.89.13c1.22.19,1.65.69,1.65,1.69,0,1.16-.94,1.79-2.26,1.79s-2.19-.54-2.27-1.78h1c0,.45.3,1,1.32,1,.79,0,1.29-.37,1.29-1s-.12-.71-.92-.85l-.89-.13c-1-.16-1.58-.59-1.58-1.6s.78-1.76,2.1-1.76,2,.58,2.07,1.59Z"/><path class="cls-8" d="M102.63,304.72a1.23,1.23,0,0,0-1.32-1.13c-1,0-1.59.91-1.59,2.26s.4,2.28,1.57,2.28a1.32,1.32,0,0,0,1.42-1.25h.92a2.17,2.17,0,0,1-2.35,2c-1.68,0-2.58-1.17-2.58-3s1-3.06,2.6-3.06a2,2,0,0,1,2.3,1.89Z"/><path class="cls-8" d="M108.75,305.18a2,2,0,0,0-.21-1.14,1.06,1.06,0,0,0-.92-.39,1.47,1.47,0,0,0-1.57,1.64v3.48h-1V300.1h1v3.83h0a1.94,1.94,0,0,1,1.82-1.1,1.66,1.66,0,0,1,1.85,1.9v4h-1Z"/><path class="cls-8" d="M113.85,308.91c-1.77,0-2.62-1.29-2.62-3s.93-3.06,2.59-3.06,2.42,1.34,2.42,2.8v.51h-4c.07,1.2.55,2,1.64,2a1.2,1.2,0,0,0,1.32-.9h1A2.17,2.17,0,0,1,113.85,308.91Zm1.38-3.62c0-1-.41-1.72-1.42-1.72s-1.43.73-1.56,1.79h3Z"/><path class="cls-8" d="M121.58,304.63c0,2.23,1,3.48,2.65,3.48a2.32,2.32,0,0,0,2.54-2.57v-.12h-2.43v-.9h3.44v4.25h-.89v-1.21h0a2.85,2.85,0,0,1-2.63,1.38c-2.12,0-3.71-1.38-3.71-4.34,0-2.75,1.67-4.37,3.84-4.37,1.73,0,3,.87,3.18,2.35h-1.06a2,2,0,0,0-2.12-1.54C122.52,301,121.58,302.47,121.58,304.63Z"/><path class="cls-8" d="M132,308.91c-1.77,0-2.62-1.29-2.62-3s.93-3.06,2.59-3.06,2.42,1.34,2.42,2.8v.51h-4c.07,1.2.55,2,1.64,2a1.2,1.2,0,0,0,1.32-.9h1A2.17,2.17,0,0,1,132,308.91Zm1.37-3.62c0-1-.4-1.72-1.41-1.72s-1.44.73-1.56,1.79h3Z"/><path class="cls-8" d="M138.81,304.42c-.06-.52-.47-.85-1.16-.85a1,1,0,0,0-1.13.94c0,.47.29.69.87.79l.89.13c1.21.19,1.65.69,1.65,1.69,0,1.16-1,1.79-2.27,1.79s-2.18-.54-2.26-1.78h1c0,.45.29,1,1.32,1,.79,0,1.28-.37,1.28-1s-.12-.71-.91-.85l-.89-.13c-1-.16-1.59-.59-1.59-1.6s.79-1.76,2.11-1.76,2,.58,2.06,1.59Z"/><path class="cls-8" d="M142.7,301.29V303h1.43v.76H142.7v3.42c0,.62.26.86.88.86a4.33,4.33,0,0,0,.64-.06v.84a7,7,0,0,1-.91.06c-1.14,0-1.59-.55-1.59-1.54v-3.58h-1.05V303h.17c.78,0,1-.19,1-1.3v-.41Z"/><path class="cls-8" d="M145.69,304.55c0-1,.81-1.72,2.19-1.72s2.15.6,2.15,2.15v2.37c0,.46.1.65.53.66v.8h-.12c-.93,0-1.24-.33-1.34-1h0a1.94,1.94,0,0,1-1.86,1.08,1.61,1.61,0,0,1-1.83-1.66,1.55,1.55,0,0,1,.86-1.47,6.82,6.82,0,0,1,2.81-.47V305c0-1-.4-1.46-1.21-1.46a1.05,1.05,0,0,0-1.21,1Zm3.37,1.59V306a4.8,4.8,0,0,0-2.34.42.85.85,0,0,0-.32.72c0,.59.38.91,1,.91A1.68,1.68,0,0,0,149.06,306.14Z"/><path class="cls-8" d="M152,300.1h1v8.67h-1Z"/><path class="cls-8" d="M156.26,301.29V303h1.43v.76h-1.43v3.42c0,.62.26.86.89.86a4.29,4.29,0,0,0,.63-.06v.84a6.82,6.82,0,0,1-.91.06c-1.13,0-1.58-.55-1.58-1.54v-3.58h-1.06V303h.18c.78,0,1-.19,1-1.3v-.41Z"/><path class="cls-8" d="M160.05,306.53a2.09,2.09,0,0,0,.21,1.18,1.06,1.06,0,0,0,.89.39c1.08,0,1.58-.72,1.58-2V303h1v5.8h-.94v-1h0a2,2,0,0,1-1.82,1.13,1.68,1.68,0,0,1-1.86-1.9v-4h1Z"/><path class="cls-8" d="M169.47,305.19a2,2,0,0,0-.21-1.15,1.06,1.06,0,0,0-.92-.39,1.47,1.47,0,0,0-1.57,1.64v3.48h-1V303h.94v1h0a2,2,0,0,1,1.87-1.12,1.66,1.66,0,0,1,1.85,1.9v4h-1Z"/><path class="cls-8" d="M172.09,309.35h1c.11.49.48.81,1.43.81,1.1,0,1.65-.4,1.65-1.68v-.86h0a2.09,2.09,0,0,1-1.85,1.07c-1.21,0-2.32-.76-2.32-2.9,0-1.92,1-3,2.44-3a1.81,1.81,0,0,1,1.74,1.05h0V303h.95v5.65c0,1.63-1.07,2.34-2.64,2.34C173.36,311,172.23,310.55,172.09,309.35Zm4.06-3.8a1.71,1.71,0,0,0-1.65-1.94c-1,0-1.54.87-1.54,2.18s.37,2.15,1.59,2.15a1.68,1.68,0,0,0,1.6-1.8Z"/><path d="M24.16,27.44c0,2.2.84,3.19,2.26,3.19a2,2,0,0,0,2.14-2.14v-.14H26.42V27.19H30v4.4H28.77V30.43h0a2.69,2.69,0,0,1-2.52,1.34c-2.3,0-3.68-1.56-3.68-4.29s1.62-4.42,3.94-4.42c1.91,0,3.14.92,3.34,2.55H28.25a1.67,1.67,0,0,0-1.78-1.42C25,24.19,24.16,25.38,24.16,27.44Z"/><path d="M31.73,25.73h1.4v1.19h0a2.07,2.07,0,0,1,1.92-1.29h.1V27h-.28c-1,0-1.68.44-1.68,1.57v3H31.73Z"/><path d="M37.68,29.22a1.88,1.88,0,0,0,.19,1,.89.89,0,0,0,.8.36c.88,0,1.31-.6,1.31-1.69v-3.2h1.47v5.86H40v-1h0a2,2,0,0,1-1.84,1.09c-1.31,0-2-.64-2-2v-4h1.47Z"/><path d="M47,28.11a1.84,1.84,0,0,0-.19-1.05.94.94,0,0,0-.81-.35c-.88,0-1.32.56-1.32,1.45v3.43H43.14V25.73h1.42v1h0a2.06,2.06,0,0,1,1.91-1.11c1.31,0,1.94.67,1.94,2.09v3.9H47Z"/><path d="M55.36,31.59H53.94v-.9h0a2,2,0,0,1-1.78,1c-1.44,0-2.45-.9-2.45-3s1.07-3.12,2.55-3.12a1.76,1.76,0,0,1,1.63.95h0V22.93h1.48ZM53.9,28.42c0-1.1-.53-1.76-1.33-1.76s-1.39.7-1.39,2,.38,2,1.33,2a1.43,1.43,0,0,0,1.39-1.61Z"/><path d="M57.06,25.73h1.39v1.19h0a2.06,2.06,0,0,1,1.91-1.29h.1V27h-.28c-1,0-1.68.44-1.68,1.57v3H57.06Z"/><path d="M61.61,23.21h1.51v1.4H61.61Zm0,2.52h1.49v5.86H61.62Z"/><path d="M67.78,27.3c0-.41-.36-.72-1-.72s-.92.31-.92.72.22.59.75.66l1,.14c1.13.15,1.68.67,1.68,1.71,0,1.27-1,1.94-2.45,1.94s-2.4-.66-2.48-1.84h1.38c0,.42.29.85,1.11.85.65,0,1.06-.29,1.06-.77s-.15-.62-.78-.69l-.92-.12c-1.08-.15-1.68-.67-1.68-1.71s.78-1.88,2.32-1.88,2.19.68,2.27,1.71Z"/><path d="M73.55,27.3c0-.41-.37-.72-1-.72s-.93.31-.93.72.22.59.75.66l1,.14c1.13.15,1.68.67,1.68,1.71,0,1.27-1,1.94-2.45,1.94s-2.4-.66-2.48-1.84H71.5c0,.42.3.85,1.11.85.65,0,1.07-.29,1.07-.77s-.16-.62-.78-.69L72,29.18c-1.08-.15-1.68-.67-1.68-1.71s.78-1.88,2.32-1.88,2.19.68,2.28,1.71Z"/><path d="M84.33,31.59H82.91v-.9h0a2,2,0,0,1-1.78,1c-1.44,0-2.45-.9-2.45-3s1.08-3.12,2.55-3.12a1.75,1.75,0,0,1,1.63.95h0V22.93h1.49Zm-1.47-3.17c0-1.1-.53-1.76-1.33-1.76s-1.38.7-1.38,2,.37,2,1.33,2,1.38-.69,1.38-1.61Z"/><path d="M86,25.73h1.4v1.19h0a2.07,2.07,0,0,1,1.91-1.29h.1V27h-.27c-1.05,0-1.69.44-1.69,1.57v3H86Z"/><path d="M90.57,23.21h1.51v1.4H90.57Zm0,2.52h1.49v5.86H90.58Z"/><path d="M95.53,24.07v1.66H96.9v1.06H95.56v2.89c0,.61.23.86.82.86a4,4,0,0,0,.55-.05v1.12a8.28,8.28,0,0,1-1.07.07c-1.15,0-1.77-.51-1.77-1.74V26.79h-.94v-1h.19c.76,0,.91-.16.91-1.25v-.43Z"/><path d="M99.85,24.07v1.66h1.36v1.06H99.87v2.89c0,.61.23.86.82.86a3.79,3.79,0,0,0,.55-.05v1.12a8.23,8.23,0,0,1-1.06.07c-1.16,0-1.78-.51-1.78-1.74V26.79h-.94v-1h.2c.76,0,.9-.16.9-1.25v-.43Z"/><path d="M104.81,31.74c-1.85,0-2.81-1.23-2.81-3.07a2.77,2.77,0,0,1,2.8-3.08c1.92,0,2.7,1.32,2.7,3V29h-4c.06,1.11.49,1.7,1.36,1.7a1,1,0,0,0,1.12-.78h1.46C107.25,31.07,106.31,31.74,104.81,31.74ZM106,28c0-.88-.39-1.47-1.21-1.47s-1.17.58-1.27,1.54H106Z"/><path d="M108.76,25.73h1.39v1.19h0a2,2,0,0,1,1.91-1.29h.1V27h-.28c-1,0-1.68.44-1.68,1.57v3h-1.47Z"/><path d="M120.51,25.46a1.32,1.32,0,0,0-1.44-1.27c-.9,0-1.43.51-1.43,1.17s.34,1,1.21,1.16l1.26.23c1.54.29,2.21,1.08,2.21,2.31,0,1.71-1.17,2.7-3.27,2.7s-3.2-.94-3.29-2.56h1.6a1.58,1.58,0,0,0,1.72,1.42c1.19,0,1.65-.59,1.65-1.3s-.34-1-1.27-1.19l-1.23-.23a2.31,2.31,0,0,1-2.18-2.35c0-1.44,1.12-2.49,3-2.49s2.93,1,3,2.4Z"/><path d="M125.51,24.07v1.66h1.36v1.06h-1.34v2.89c0,.61.23.86.82.86a4,4,0,0,0,.56-.05v1.12a8.59,8.59,0,0,1-1.07.07c-1.16,0-1.77-.51-1.77-1.74V26.79h-.95v-1h.2c.76,0,.9-.16.9-1.25v-.43Z"/><path d="M127.66,28.66a2.76,2.76,0,0,1,2.86-3.07c1.78,0,2.84,1.17,2.84,3.07a2.78,2.78,0,0,1-2.85,3.08C128.7,31.74,127.66,30.55,127.66,28.66Zm1.53,0c0,1.24.39,2,1.33,2s1.31-.83,1.31-2-.36-2.05-1.32-2.05S129.19,27.46,129.19,28.66Z"/><path d="M138.3,27.72a1.09,1.09,0,0,0-1.12-1.11c-1,0-1.33.91-1.33,2s.26,2,1.32,2a1.14,1.14,0,0,0,1.19-1.17h1.43a2.35,2.35,0,0,1-2.63,2.22c-1.82,0-2.83-1.17-2.83-3.07a2.77,2.77,0,0,1,2.85-3.08c1.43,0,2.51.68,2.57,2.13Z"/><path d="M142.45,31.59H141V22.93h1.47v5.38l2.15-2.58h1.61l-2,2.27,2.1,3.59h-1.62L143.25,29l-.8,1Z"/><path class="cls-9" d="M384.81,288.12h-81.9V170.52l41.73,7.39,7.07-16.39,136.84,23.7V220.5h79.8v-110H518c1.35-1.68,2.94-4.27,2.94-7,0-7.47-4.72-11-8.73-12.11l2.1-14.28-17-22.67-29.39-5-25,17.44L345.84,50.16,329.7,47.38,188.37,23.1,170.19,128.87l55.52,9.54V403l313.67.17h31.92V288.12Z"/></g><g id="Rooms-4" data-name="Rooms"><g id="H3Flur"><path class="cls-10" d="M457.75,119l-17.05-2.93-2.35-.4L310,93.61l-9.43,54.48v17.18l3.18.56,38,6.74,5.58-12.94,1.49-3.44,5.61-32.7,2.35.4-.59,3.45,31.93,5.44L383,162.11l46,8,5.09-29.63,2.33.4,29.48,5h0l30.58,5.13,4.22-24.54ZM332.45,155.7l-17-2.92,2.45-14.13L335,141.6Z"/></g><g id="H3Senat"><g class="cls-11"><polygon class="cls-12" points="434.63 112.62 441.7 71.46 352.58 56.15 345.62 97.33 434.63 112.62"/></g></g><g id="H3Bib"><g class="cls-11"><path class="cls-12" d="M502.67,115.22l.3-1.6.21-1.19h0l.37-2h8.29l2.39-3a7.44,7.44,0,0,0,1.89-4c0-5.26-3.3-7-5.26-7.53l-4-1.13.61-4.15,1.82-12.31L494.57,58.81,469,54.42,445.62,70.74l-1.57,1.09L437,113l21.18,3.64,43,7.38,1.57-8.82Z"/></g></g></g><g id="Grundriss-5" data-name="Grundriss"><g id="Treppe"><line class="cls-13" x1="332.49" y1="153.75" x2="349.4" y2="156.75"/><line class="cls-13" x1="333.13" y1="152.25" x2="349.68" y2="155.09"/><line class="cls-13" x1="333.41" y1="150.59" x2="349.97" y2="153.44"/><line class="cls-13" x1="333.7" y1="148.94" x2="350.25" y2="151.78"/><line class="cls-13" x1="333.98" y1="147.28" x2="350.54" y2="150.13"/><line class="cls-13" x1="334.26" y1="145.62" x2="350.82" y2="148.47"/><line class="cls-13" x1="334.55" y1="143.97" x2="351.11" y2="146.81"/><line class="cls-13" x1="319.89" y1="139.81" x2="302.06" y2="136.64"/><line class="cls-13" x1="319.66" y1="141.38" x2="301.81" y2="138.31"/><line class="cls-13" x1="319.38" y1="143.03" x2="301.53" y2="139.96"/><line class="cls-13" x1="319.09" y1="144.69" x2="301.25" y2="141.62"/><line class="cls-13" x1="318.81" y1="146.34" x2="300.96" y2="143.28"/><line class="cls-13" x1="318.52" y1="148" x2="300.68" y2="144.93"/><line class="cls-13" x1="318.24" y1="149.66" x2="300.39" y2="146.59"/><line class="cls-13" x1="332.49" y1="153.75" x2="349.4" y2="156.75"/><line class="cls-13" x1="333.13" y1="152.25" x2="349.68" y2="155.09"/><line class="cls-13" x1="333.41" y1="150.59" x2="349.97" y2="153.44"/><line class="cls-13" x1="333.7" y1="148.94" x2="350.25" y2="151.78"/><line class="cls-13" x1="333.98" y1="147.28" x2="350.54" y2="150.13"/><line class="cls-13" x1="334.26" y1="145.62" x2="350.82" y2="148.47"/><line class="cls-13" x1="334.55" y1="143.97" x2="351.11" y2="146.81"/><line class="cls-13" x1="334.83" y1="142.31" x2="351.39" y2="145.16"/><line class="cls-13" x1="319.66" y1="141.38" x2="301.81" y2="138.31"/><line class="cls-13" x1="319.38" y1="143.03" x2="301.53" y2="139.96"/><line class="cls-13" x1="319.09" y1="144.69" x2="301.25" y2="141.62"/><line class="cls-13" x1="318.81" y1="146.34" x2="300.96" y2="143.28"/><line class="cls-13" x1="318.52" y1="148" x2="300.68" y2="144.93"/><line class="cls-13" x1="318.24" y1="149.66" x2="300.39" y2="146.59"/><line class="cls-13" x1="318.1" y1="151.41" x2="300.25" y2="148.34"/><line class="cls-13" x1="325.54" y1="153.75" x2="322.26" y2="172.79"/><line class="cls-13" x1="323.88" y1="153.46" x2="320.61" y2="172.5"/><line class="cls-13" x1="322.23" y1="153.18" x2="318.95" y2="172.22"/><line class="cls-13" x1="320.57" y1="152.89" x2="317.3" y2="171.94"/><line class="cls-13" x1="318.91" y1="152.61" x2="315.64" y2="171.65"/><line class="cls-13" x1="317.26" y1="152.33" x2="313.99" y2="171.37"/><line class="cls-13" x1="330.5" y1="154.6" x2="327.23" y2="173.64"/><line class="cls-13" x1="328.85" y1="154.32" x2="325.58" y2="173.36"/><line class="cls-13" x1="327.19" y1="154.03" x2="323.92" y2="173.07"/><line class="cls-13" x1="325.54" y1="153.75" x2="322.26" y2="172.79"/><line class="cls-13" x1="323.88" y1="153.46" x2="320.61" y2="172.5"/><line class="cls-13" x1="322.23" y1="153.18" x2="318.95" y2="172.22"/><line class="cls-13" x1="320.57" y1="152.89" x2="317.3" y2="171.94"/><line class="cls-13" x1="318.91" y1="152.61" x2="315.64" y2="171.65"/><line class="cls-13" x1="317.26" y1="152.33" x2="313.99" y2="171.37"/><line class="cls-13" x1="330.5" y1="154.6" x2="327.23" y2="173.64"/><line class="cls-13" x1="328.85" y1="154.32" x2="325.58" y2="173.36"/><line class="cls-13" x1="327.19" y1="154.03" x2="323.92" y2="173.07"/></g><g id="Wand"><path class="cls-14" d="M298.15,169.68l46.49,8.23,7.07-16.39,136.84,23.7V220.5h79.8v-110H518c1.35-1.68,2.94-4.27,2.94-7,0-7.47-4.72-11-8.73-12.11l2.1-14.28-17-22.67-29.39-5-25,17.44L345.84,50.16,329.7,47.38,188.37,23.1,170.19,128.87l60.29,10.36v-2.31h0L298.23,149Zm-22.21-27.09,9.36-53.21,22.34,3.83-9.24,53.42Zm75.23,14,4.62-26.9,29.58,5-4.67,27ZM383,162.11l5.09-29.33-31.93-5.44.59-3.45-2.35-.4-5.61,32.7-1.49,3.44-5.58,12.94-38-6.74-3.18-.56V148.09L310,93.61l128.36,22.07h0l19.4,3.33,42.95,7.38-4.22,24.54L465.9,145.8h0l-29.48-5-2.33-.4L429,170.07Zm48.31,8.37L436,143.19l27.14,4.53-4.69,27.46Zm58,10.05-28.56-4.95,4.68-27.44,30.59,5.14-4.74,27.59Zm27.38-65.31h46.84V215.74H493.31V183.53h0l10-57.93,1.85-10.38Zm-72.7-43.39,1.57-1.09L469,54.42l25.59,4.39,14.69,19.57-1.82,12.31-.61,4.15,4,1.13c2,.55,5.26,2.27,5.26,7.53a7.44,7.44,0,0,1-1.89,4l-2.39,3h-8.29l-.37,2h0l-.21,1.19-.3,1.6h0L501.11,124l-43-7.38L437,113Zm-2.35-.37-7.07,41.16-89-15.29,7-41.18ZM328.89,52.08,345,54.85l5.19.89-7,41.19-23.85-4.1,7.07-41.16Zm-4.75-.82-7.07,41.16L285.71,87,293,45.9ZM175.69,125,192.25,28.6,290.6,45.5l-17,96.67-43.12-7.77-4-.68Z"/><polygon class="cls-9" points="343.27 96.92 350.23 55.74 345.04 54.85 328.89 52.08 326.49 51.66 319.42 92.83 343.27 96.92"/><polygon class="cls-9" points="290.6 45.5 192.25 28.6 175.69 124.99 226.52 133.72 230.47 134.4 230.47 134.4 273.6 142.17 290.6 45.5"/><polygon class="cls-9" points="275.94 142.59 298.4 146.63 307.64 93.21 285.3 89.38 275.94 142.59"/><polygon class="cls-9" points="355.79 129.69 351.17 156.59 380.7 161.71 385.37 134.72 355.79 129.69"/><polygon class="cls-9" points="285.71 87.04 317.07 92.42 324.14 51.26 292.95 45.9 285.71 87.04"/><polygon class="cls-9" points="436.01 143.19 431.35 170.48 458.46 175.18 463.15 147.72 436.01 143.19"/><polygon class="cls-9" points="517.95 115.22 516.75 115.22 516.75 115.22 505.1 115.22 503.25 125.6 493.3 183.53 493.31 183.53 493.31 185.22 493.31 215.74 563.59 215.74 563.59 115.22 517.95 115.22"/><polygon class="cls-9" points="489.37 180.53 491.34 180.87 496.08 153.28 465.49 148.14 460.81 175.58 489.37 180.53"/><line class="cls-15" x1="351.17" y1="156.59" x2="356.79" y2="123.89"/><line class="cls-15" x1="230.9" y1="134.47" x2="298.83" y2="146.71"/><line class="cls-15" x1="273.6" y1="142.17" x2="276.51" y2="125.59"/><line class="cls-15" x1="298.4" y1="146.63" x2="300.47" y2="134.15"/><path class="cls-14" d="M317.86,138.65l-2.45,14.13,17,2.92L335,141.6ZM330.52,153l-12.36-2.12,1.64-9.44,12.4,2.14Z"/><rect class="cls-16" x="480.6" y="106.64" width="5.46" height="5.46" transform="translate(672.97 -348.46) rotate(99.75)"/><rect class="cls-16" x="459.91" y="103.08" width="5.46" height="5.46" transform="translate(645.26 -332.22) rotate(99.75)"/><path class="cls-16" d="M298.15,169.68l46.49,8.23,7.07-16.39,136.84,23.7V220.5h79.8v-110H518c1.35-1.68,2.94-4.27,2.94-7,0-7.47-4.72-11-8.73-12.11l2.1-14.28-17-22.67-29.39-5-25,17.44L345.84,50.16,329.7,47.38,188.37,23.1,170.19,128.87l60.29,10.36v-2.31h0L298.23,149Zm-22.21-27.09,9.36-53.21,22.34,3.83-9.24,53.42Zm75.23,14,4.62-26.9,29.58,5-4.67,27ZM383,162.11l5.09-29.33-31.93-5.44.59-3.45-2.35-.4-5.61,32.7-1.49,3.44-5.58,12.94-38-6.74-3.18-.56V148.09L310,93.61l128.36,22.07h0l19.4,3.33,42.95,7.38-4.22,24.54L465.9,145.8h0l-29.48-5-2.33-.4L429,170.07Zm48.31,8.37L436,143.19l27.14,4.53-4.69,27.46Zm58,10.05-28.56-4.95,4.68-27.44,30.59,5.14-4.74,27.59Zm27.38-65.31h46.84V215.74H493.31V183.53h0l10-57.93,1.85-10.38Zm-72.7-43.39,1.57-1.09L469,54.42l25.59,4.39,14.69,19.57-1.82,12.31-.61,4.15,4,1.13c2,.55,5.26,2.27,5.26,7.53a7.44,7.44,0,0,1-1.89,4l-2.39,3h-8.29l-.37,2h0l-.21,1.19-.3,1.6h0L501.11,124l-43-7.38L437,113Zm-2.35-.37-7.07,41.16-89-15.29,7-41.18ZM328.89,52.08,345,54.85l5.19.89-7,41.19-23.85-4.1,7.07-41.16Zm-4.75-.82-7.07,41.16L285.71,87,293,45.9ZM175.69,125,192.25,28.6,290.6,45.5l-17,96.67-43.12-7.77-4-.68Z"/><path class="cls-16" d="M317.86,138.65l-1.23,7.06-1.22,7.07,8.52,1.46,8.52,1.46,1.26-7L335,141.6l-8.56-1.48ZM330.52,153l-6.18-1.06-6.18-1.06.82-4.72.82-4.72,6.2,1.07,6.2,1.07-.84,4.71Z"/></g><g id="Schatten"><polygon class="cls-17" points="587.25 135.66 568.35 110.46 568.35 220.5 488.55 220.5 507.45 245.7 587.25 245.7 587.25 135.66"/><polygon class="cls-17" points="321.81 195.72 363.54 203.11 370.61 186.72 488.55 207.15 488.55 185.22 351.71 161.52 344.64 177.91 302.91 170.52 302.91 288.12 321.81 288.12 321.81 195.72"/><path class="cls-17" d="M512.16,91.39c4,1.13,8.73,4.64,8.73,12.11,0,2.69-1.59,5.28-2.94,7h14l1.2-8.15-17-22.67-1.89-2.53Z"/><polygon class="cls-17" points="571.29 288.12 571.29 403.2 539.37 403.2 226.6 402.25 244.6 428.23 558.27 428.4 590.19 428.4 590.19 313.32 571.29 288.12"/><polygon class="cls-17" points="225.71 138.41 170.19 128.87 189.09 154.07 225.71 160.37 225.71 138.41"/><polygon class="cls-17" points="332.79 60.06 335.19 60.48 349.03 62.85 350.23 55.74 345.04 54.85 328.89 52.08 326.49 51.66 319.42 92.83 326.94 94.12 332.79 60.06"/><polygon class="cls-17" points="358.88 64.55 440.48 78.57 441.7 71.46 352.58 56.15 345.62 97.33 353.12 98.62 358.88 64.55"/><polygon class="cls-17" points="201.7 41.2 288.73 56.15 290.6 45.5 192.25 28.6 175.69 124.99 186.97 126.92 201.7 41.2"/><polygon class="cls-17" points="291.6 97.78 306.42 100.32 307.64 93.21 285.3 89.38 275.94 142.59 283.48 143.94 291.6 97.78"/><polygon class="cls-17" points="362.09 138.09 384.14 141.84 385.37 134.72 355.79 129.69 351.17 156.59 358.69 157.9 362.09 138.09"/><polygon class="cls-17" points="299.25 54.3 322.92 58.37 324.14 51.26 292.95 45.9 285.71 87.04 293.26 88.33 299.25 54.3"/><polygon class="cls-17" points="442.31 151.59 461.93 154.87 463.15 147.72 436.01 143.19 431.35 170.48 438.86 171.78 442.31 151.59"/><polygon class="cls-17" points="471.79 156.54 494.85 160.41 496.08 153.28 465.49 148.14 460.81 175.58 468.32 176.88 471.79 156.54"/><polygon class="cls-17" points="493.31 215.74 499.62 215.74 499.62 193.62 499.62 191.93 499.6 191.93 509.55 134 511.4 123.62 523.05 123.62 523.05 123.62 524.25 123.62 563.59 123.62 563.59 115.22 517.95 115.22 516.75 115.22 516.75 115.22 505.1 115.22 503.25 125.6 493.3 183.53 493.31 183.53 493.31 185.22 493.31 215.74"/><path class="cls-17" d="M513.63,96.59l-6.8-1.75,6.3,8.4,2.93.82a3,3,0,0,0,.07-.56A10.64,10.64,0,0,0,513.63,96.59Z"/><polygon class="cls-17" points="450.35 80.23 451.92 79.14 475.28 62.82 500.87 67.21 509.25 78.38 509.26 78.38 494.57 58.81 468.98 54.42 445.62 70.74 444.05 71.83 436.98 113.02 444.5 114.32 450.35 80.23"/><polygon class="cls-17" points="306.86 156.49 316.29 102.01 444.65 124.08 447 124.48 464.05 127.41 499.48 133.5 500.7 126.39 457.75 119.01 440.7 116.08 438.35 115.68 309.99 93.61 300.56 148.09 300.56 165.27 303.74 165.83 306.86 166.38 306.86 156.49"/><polygon class="cls-17" points="394.43 141.18 388.13 132.78 383.04 162.11 390.57 163.42 394.43 141.18"/><polygon class="cls-17" points="486.48 120 480.18 111.6 485.56 112.52 486.49 107.14 492.79 115.54 491.86 120.92 486.48 120"/><polygon class="cls-17" points="465.78 116.44 459.48 108.04 464.86 108.96 465.79 103.58 472.09 111.98 471.16 117.36 465.78 116.44"/><polygon class="cls-17" points="359.94 128.09 356.79 123.89 356.2 127.34 359.94 128.09"/></g><g id="Dach"><polygon class="cls-18" points="539.37 402.36 226.54 402.19 226.55 134.7 302.07 146.65 302.07 288.96 570.45 288.96 570.45 402.36 539.37 402.36"/><path class="cls-16" d="M227.39,135.69l73.84,11.68V289.8H569.61V401.52H539.37l-312-.17V135.69m-1.68-2V403l313.67.17h31.92V288.12H302.91V145.94l-77.2-12.22Z"/><polyline class="cls-19" points="514.59 345.24 283.59 345.24 226.6 402.25"/><line class="cls-13" x1="334.62" y1="345.66" x2="334.62" y2="401.52"/><line class="cls-13" x1="337.14" y1="345.66" x2="337.14" y2="401.52"/><line class="cls-13" x1="339.66" y1="345.66" x2="339.66" y2="401.52"/><line class="cls-13" x1="342.18" y1="345.66" x2="342.18" y2="401.52"/><line class="cls-13" x1="344.7" y1="345.66" x2="344.7" y2="401.52"/><line class="cls-13" x1="347.22" y1="345.66" x2="347.22" y2="401.52"/><line class="cls-13" x1="349.74" y1="345.66" x2="349.74" y2="401.52"/><line class="cls-13" x1="352.26" y1="345.66" x2="352.26" y2="401.52"/><line class="cls-13" x1="354.78" y1="345.66" x2="354.78" y2="401.52"/><line class="cls-13" x1="357.3" y1="345.66" x2="357.3" y2="401.52"/><line class="cls-13" x1="359.82" y1="345.66" x2="359.82" y2="401.52"/><line class="cls-13" x1="362.34" y1="345.66" x2="362.34" y2="401.52"/><line class="cls-13" x1="364.86" y1="345.66" x2="364.86" y2="401.52"/><line class="cls-13" x1="367.38" y1="345.66" x2="367.38" y2="401.52"/><line class="cls-13" x1="369.9" y1="345.66" x2="369.9" y2="401.52"/><line class="cls-13" x1="372.42" y1="345.66" x2="372.42" y2="401.52"/><line class="cls-13" x1="374.94" y1="345.66" x2="374.94" y2="401.52"/><line class="cls-13" x1="377.46" y1="345.66" x2="377.46" y2="401.52"/><line class="cls-13" x1="379.98" y1="345.66" x2="379.98" y2="401.52"/><line class="cls-13" x1="382.5" y1="345.66" x2="382.5" y2="401.52"/><line class="cls-13" x1="385.02" y1="345.66" x2="385.02" y2="401.52"/><line class="cls-13" x1="387.54" y1="345.66" x2="387.54" y2="401.52"/><line class="cls-13" x1="390.06" y1="345.66" x2="390.06" y2="401.52"/><line class="cls-13" x1="392.58" y1="345.66" x2="392.58" y2="401.52"/><line class="cls-13" x1="395.1" y1="345.66" x2="395.1" y2="401.52"/><line class="cls-13" x1="397.62" y1="345.66" x2="397.62" y2="401.52"/><line class="cls-13" x1="400.14" y1="345.66" x2="400.14" y2="401.52"/><line class="cls-13" x1="402.66" y1="345.66" x2="402.66" y2="401.52"/><line class="cls-13" x1="405.18" y1="345.66" x2="405.18" y2="401.52"/><line class="cls-13" x1="407.7" y1="345.66" x2="407.7" y2="401.52"/><line class="cls-13" x1="410.22" y1="345.66" x2="410.22" y2="401.52"/><line class="cls-13" x1="412.74" y1="345.66" x2="412.74" y2="401.52"/><line class="cls-13" x1="415.26" y1="345.66" x2="415.26" y2="401.52"/><line class="cls-13" x1="417.78" y1="345.66" x2="417.78" y2="401.52"/><line class="cls-13" x1="420.3" y1="345.66" x2="420.3" y2="401.52"/><line class="cls-13" x1="422.82" y1="345.66" x2="422.82" y2="401.52"/><line class="cls-13" x1="425.34" y1="345.66" x2="425.34" y2="401.52"/><line class="cls-13" x1="427.86" y1="345.66" x2="427.86" y2="401.52"/><line class="cls-13" x1="430.38" y1="345.66" x2="430.38" y2="401.52"/><line class="cls-13" x1="432.9" y1="345.66" x2="432.9" y2="401.52"/><line class="cls-13" x1="435.42" y1="345.66" x2="435.42" y2="401.52"/><line class="cls-13" x1="437.94" y1="345.66" x2="437.94" y2="401.52"/><line class="cls-13" x1="440.46" y1="345.66" x2="440.46" y2="401.52"/><line class="cls-13" x1="442.98" y1="345.66" x2="442.98" y2="401.52"/><line class="cls-13" x1="445.5" y1="345.66" x2="445.5" y2="401.52"/><line class="cls-13" x1="448.02" y1="345.66" x2="448.02" y2="401.52"/><line class="cls-13" x1="450.54" y1="345.66" x2="450.54" y2="401.52"/><line class="cls-13" x1="453.06" y1="345.66" x2="453.06" y2="401.52"/><line class="cls-13" x1="455.58" y1="345.66" x2="455.58" y2="401.52"/><line class="cls-13" x1="458.1" y1="345.66" x2="458.1" y2="401.52"/><line class="cls-13" x1="460.62" y1="345.66" x2="460.62" y2="401.52"/><line class="cls-13" x1="463.14" y1="345.66" x2="463.14" y2="401.52"/><line class="cls-13" x1="465.66" y1="345.66" x2="465.66" y2="401.52"/><line class="cls-13" x1="468.18" y1="345.66" x2="468.18" y2="401.52"/><line class="cls-13" x1="470.7" y1="345.66" x2="470.7" y2="401.52"/><line class="cls-13" x1="473.22" y1="345.66" x2="473.22" y2="401.52"/><line class="cls-13" x1="475.74" y1="345.66" x2="475.74" y2="401.52"/><line class="cls-13" x1="478.26" y1="345.66" x2="478.26" y2="401.52"/><line class="cls-13" x1="480.78" y1="345.66" x2="480.78" y2="401.52"/><line class="cls-13" x1="483.3" y1="345.66" x2="483.3" y2="401.52"/><line class="cls-13" x1="485.82" y1="345.66" x2="485.82" y2="401.52"/><line class="cls-13" x1="488.34" y1="345.66" x2="488.34" y2="401.52"/><line class="cls-13" x1="490.86" y1="345.66" x2="490.86" y2="401.52"/><line class="cls-13" x1="493.38" y1="345.66" x2="493.38" y2="401.52"/><line class="cls-13" x1="495.9" y1="345.66" x2="495.9" y2="401.52"/><line class="cls-13" x1="498.42" y1="345.66" x2="498.42" y2="401.52"/><line class="cls-13" x1="500.94" y1="345.66" x2="500.94" y2="401.52"/><line class="cls-13" x1="503.46" y1="345.66" x2="503.46" y2="401.52"/><line class="cls-13" x1="505.98" y1="345.66" x2="505.98" y2="401.52"/><line class="cls-13" x1="508.5" y1="345.66" x2="508.5" y2="401.52"/><line class="cls-13" x1="511.02" y1="345.66" x2="511.02" y2="401.52"/><line class="cls-13" x1="513.54" y1="345.66" x2="513.54" y2="401.52"/><line class="cls-13" x1="516.06" y1="346.92" x2="516.06" y2="401.52"/><line class="cls-13" x1="518.58" y1="349.44" x2="518.58" y2="401.52"/><line class="cls-13" x1="521.1" y1="351.96" x2="521.1" y2="401.52"/><line class="cls-13" x1="523.62" y1="354.48" x2="523.62" y2="401.52"/><line class="cls-13" x1="526.14" y1="357.42" x2="526.14" y2="401.52"/><line class="cls-13" x1="528.66" y1="359.52" x2="528.66" y2="401.52"/><line class="cls-13" x1="531.18" y1="362.04" x2="531.18" y2="401.52"/><line class="cls-13" x1="533.7" y1="364.98" x2="533.7" y2="401.52"/><line class="cls-13" x1="536.22" y1="367.08" x2="536.22" y2="401.52"/><line class="cls-13" x1="538.74" y1="369.6" x2="538.74" y2="401.52"/><line class="cls-13" x1="541.26" y1="371.7" x2="541.26" y2="401.52"/><line class="cls-13" x1="543.78" y1="374.64" x2="543.78" y2="401.52"/><line class="cls-13" x1="546.3" y1="377.58" x2="546.3" y2="401.52"/><line class="cls-13" x1="548.82" y1="379.68" x2="548.82" y2="401.52"/><line class="cls-13" x1="551.34" y1="382.2" x2="551.34" y2="401.52"/><line class="cls-13" x1="553.86" y1="384.72" x2="553.86" y2="401.52"/><line class="cls-13" x1="556.38" y1="386.82" x2="556.38" y2="401.52"/><line class="cls-13" x1="558.9" y1="389.34" x2="558.9" y2="401.52"/><line class="cls-13" x1="561.42" y1="391.86" x2="561.42" y2="401.52"/><line class="cls-13" x1="563.94" y1="394.38" x2="563.94" y2="401.52"/><line class="cls-13" x1="566.46" y1="397.32" x2="566.46" y2="401.52"/><line class="cls-13" x1="516.06" y1="346.92" x2="570.66" y2="346.92"/><line class="cls-13" x1="518.58" y1="349.44" x2="570.66" y2="349.44"/><line class="cls-13" x1="521.1" y1="351.96" x2="570.66" y2="351.96"/><line class="cls-13" x1="523.62" y1="354.48" x2="570.66" y2="354.48"/><line class="cls-13" x1="526.56" y1="357" x2="570.66" y2="357"/><line class="cls-13" x1="528.66" y1="359.52" x2="570.66" y2="359.52"/><line class="cls-13" x1="531.18" y1="362.04" x2="570.66" y2="362.04"/><line class="cls-13" x1="534.12" y1="364.56" x2="570.66" y2="364.56"/><line class="cls-13" x1="536.22" y1="367.08" x2="570.66" y2="367.08"/><line class="cls-13" x1="538.74" y1="369.6" x2="570.66" y2="369.6"/><line class="cls-13" x1="540.84" y1="372.12" x2="570.66" y2="372.12"/><line class="cls-13" x1="543.78" y1="374.64" x2="570.66" y2="374.64"/><line class="cls-13" x1="546.72" y1="377.16" x2="570.66" y2="377.16"/><line class="cls-13" x1="548.82" y1="379.68" x2="570.66" y2="379.68"/><line class="cls-13" x1="551.34" y1="382.2" x2="570.66" y2="382.2"/><line class="cls-13" x1="553.86" y1="384.72" x2="570.66" y2="384.72"/><line class="cls-13" x1="555.96" y1="387.24" x2="570.66" y2="387.24"/><line class="cls-13" x1="558.48" y1="389.76" x2="570.66" y2="389.76"/><line class="cls-13" x1="561" y1="392.28" x2="570.66" y2="392.28"/><line class="cls-13" x1="563.52" y1="394.8" x2="570.66" y2="394.8"/><line class="cls-13" x1="566.46" y1="397.32" x2="570.66" y2="397.32"/><line class="cls-13" x1="515.15" y1="344.39" x2="570.64" y2="344.39"/><line class="cls-13" x1="517.67" y1="341.87" x2="570.64" y2="341.87"/><line class="cls-13" x1="520.19" y1="339.35" x2="570.64" y2="339.35"/><line class="cls-13" x1="522.71" y1="336.83" x2="570.64" y2="336.83"/><line class="cls-13" x1="525.65" y1="334.31" x2="570.64" y2="334.31"/><line class="cls-13" x1="527.75" y1="331.79" x2="570.64" y2="331.79"/><line class="cls-13" x1="530.27" y1="329.27" x2="570.64" y2="329.27"/><line class="cls-13" x1="533.21" y1="326.75" x2="570.64" y2="326.75"/><line class="cls-13" x1="535.31" y1="324.23" x2="570.64" y2="324.23"/><line class="cls-13" x1="537.83" y1="321.71" x2="570.64" y2="321.71"/><line class="cls-13" x1="539.93" y1="319.19" x2="570.64" y2="319.19"/><line class="cls-13" x1="542.87" y1="316.67" x2="570.64" y2="316.67"/><line class="cls-13" x1="545.81" y1="314.15" x2="570.64" y2="314.15"/><line class="cls-13" x1="547.91" y1="311.63" x2="570.64" y2="311.63"/><line class="cls-13" x1="550.43" y1="309.11" x2="570.64" y2="309.11"/><line class="cls-13" x1="552.95" y1="306.59" x2="570.64" y2="306.59"/><line class="cls-13" x1="555.05" y1="304.07" x2="570.64" y2="304.07"/><line class="cls-13" x1="557.57" y1="301.55" x2="570.64" y2="301.55"/><line class="cls-13" x1="560.09" y1="299.03" x2="570.64" y2="299.03"/><line class="cls-13" x1="562.61" y1="296.51" x2="570.64" y2="296.51"/><line class="cls-13" x1="565.55" y1="293.99" x2="570.64" y2="293.99"/><line class="cls-19" x1="569.61" y1="289.8" x2="514.17" y2="345.24"/><line class="cls-19" x1="571.03" y1="401.89" x2="514.17" y2="345.03"/><line class="cls-19" x1="264.27" y1="326.76" x2="264.27" y2="140.59"/><polyline class="cls-19" points="302.91 288.12 264.27 326.76 283.59 345.24"/><line class="cls-13" x1="332.1" y1="345.66" x2="332.1" y2="401.52"/><line class="cls-13" x1="329.58" y1="345.66" x2="329.58" y2="401.52"/><line class="cls-13" x1="327.06" y1="345.66" x2="327.06" y2="401.52"/><line class="cls-13" x1="324.54" y1="345.66" x2="324.54" y2="401.52"/><line class="cls-13" x1="322.02" y1="345.66" x2="322.02" y2="401.52"/><line class="cls-13" x1="319.5" y1="345.66" x2="319.5" y2="401.52"/><line class="cls-13" x1="316.98" y1="345.66" x2="316.98" y2="401.52"/><line class="cls-13" x1="314.46" y1="345.66" x2="314.46" y2="401.52"/><line class="cls-13" x1="311.94" y1="345.66" x2="311.94" y2="401.52"/><line class="cls-13" x1="309.42" y1="345.66" x2="309.42" y2="401.52"/><line class="cls-13" x1="306.9" y1="345.66" x2="306.9" y2="401.52"/><line class="cls-13" x1="304.38" y1="345.66" x2="304.38" y2="401.52"/><line class="cls-13" x1="301.86" y1="345.66" x2="301.86" y2="401.52"/><line class="cls-13" x1="299.34" y1="345.66" x2="299.34" y2="401.52"/><line class="cls-13" x1="296.82" y1="345.66" x2="296.82" y2="401.52"/><line class="cls-13" x1="294.3" y1="345.66" x2="294.3" y2="401.52"/><line class="cls-13" x1="291.78" y1="345.66" x2="291.78" y2="401.52"/><line class="cls-13" x1="289.26" y1="345.66" x2="289.26" y2="401.52"/><line class="cls-13" x1="286.74" y1="345.66" x2="286.74" y2="401.52"/><line class="cls-13" x1="284.22" y1="345.66" x2="284.22" y2="401.52"/><line class="cls-13" x1="281.7" y1="346.92" x2="281.7" y2="401.52"/><line class="cls-13" x1="279.18" y1="349.44" x2="279.18" y2="401.52"/><line class="cls-13" x1="276.66" y1="351.96" x2="276.66" y2="401.52"/><line class="cls-13" x1="274.14" y1="354.48" x2="274.14" y2="401.52"/><line class="cls-13" x1="271.62" y1="357.42" x2="271.62" y2="401.52"/><line class="cls-13" x1="269.1" y1="359.52" x2="269.1" y2="401.52"/><line class="cls-13" x1="266.58" y1="362.04" x2="266.58" y2="401.52"/><line class="cls-13" x1="264.06" y1="364.98" x2="264.06" y2="401.52"/><line class="cls-13" x1="261.54" y1="367.08" x2="261.54" y2="401.52"/><line class="cls-13" x1="259.02" y1="369.6" x2="259.02" y2="401.52"/><line class="cls-13" x1="256.5" y1="371.7" x2="256.5" y2="401.52"/><line class="cls-13" x1="253.98" y1="374.64" x2="253.98" y2="401.52"/><line class="cls-13" x1="251.46" y1="377.58" x2="251.46" y2="401.52"/><line class="cls-13" x1="248.94" y1="379.68" x2="248.94" y2="401.52"/><line class="cls-13" x1="246.42" y1="382.2" x2="246.42" y2="401.52"/><line class="cls-13" x1="243.9" y1="384.72" x2="243.9" y2="401.52"/><line class="cls-13" x1="241.38" y1="386.82" x2="241.38" y2="401.52"/><line class="cls-13" x1="238.86" y1="389.34" x2="238.86" y2="401.52"/><line class="cls-13" x1="236.34" y1="391.86" x2="236.34" y2="401.52"/><line class="cls-13" x1="233.82" y1="394.38" x2="233.82" y2="401.52"/><line class="cls-13" x1="231.3" y1="397.32" x2="231.3" y2="401.52"/><line class="cls-13" x1="301.93" y1="239.15" x2="264.27" y2="239.15"/><line class="cls-13" x1="301.93" y1="241.67" x2="264.27" y2="241.67"/><line class="cls-13" x1="301.93" y1="244.19" x2="264.27" y2="244.19"/><line class="cls-13" x1="301.93" y1="246.71" x2="264.27" y2="246.71"/><line class="cls-13" x1="301.93" y1="249.23" x2="264.27" y2="249.23"/><line class="cls-13" x1="301.93" y1="251.75" x2="264.27" y2="251.75"/><line class="cls-13" x1="301.93" y1="254.27" x2="264.27" y2="254.27"/><line class="cls-13" x1="301.93" y1="256.79" x2="264.27" y2="256.79"/><line class="cls-13" x1="301.93" y1="259.31" x2="264.27" y2="259.31"/><line class="cls-13" x1="301.93" y1="261.83" x2="264.27" y2="261.83"/><line class="cls-13" x1="301.93" y1="264.35" x2="264.27" y2="264.35"/><line class="cls-13" x1="301.93" y1="266.87" x2="264.27" y2="266.87"/><line class="cls-13" x1="301.93" y1="269.39" x2="264.27" y2="269.39"/><line class="cls-13" x1="301.93" y1="271.91" x2="264.27" y2="271.91"/><line class="cls-13" x1="301.93" y1="274.43" x2="264.27" y2="274.43"/><line class="cls-13" x1="301.93" y1="276.95" x2="264.27" y2="276.95"/><line class="cls-13" x1="301.93" y1="279.47" x2="264.27" y2="279.47"/><line class="cls-13" x1="301.93" y1="281.99" x2="264.27" y2="281.99"/><line class="cls-13" x1="301.93" y1="284.51" x2="264.27" y2="284.51"/><line class="cls-13" x1="301.93" y1="287.03" x2="264.27" y2="287.03"/><line class="cls-13" x1="301.93" y1="191.27" x2="264.27" y2="191.27"/><line class="cls-13" x1="301.93" y1="193.79" x2="264.27" y2="193.79"/><line class="cls-13" x1="301.93" y1="196.31" x2="264.27" y2="196.31"/><line class="cls-13" x1="301.93" y1="198.83" x2="264.27" y2="198.83"/><line class="cls-13" x1="301.93" y1="201.35" x2="264.27" y2="201.35"/><line class="cls-13" x1="301.93" y1="203.87" x2="264.27" y2="203.87"/><line class="cls-13" x1="301.93" y1="206.39" x2="264.27" y2="206.39"/><line class="cls-13" x1="301.93" y1="208.91" x2="264.27" y2="208.91"/><line class="cls-13" x1="301.93" y1="211.43" x2="264.27" y2="211.43"/><line class="cls-13" x1="301.93" y1="213.95" x2="264.27" y2="213.95"/><line class="cls-13" x1="301.93" y1="216.47" x2="264.27" y2="216.47"/><line class="cls-13" x1="301.93" y1="218.99" x2="264.27" y2="218.99"/><line class="cls-13" x1="301.93" y1="221.51" x2="264.27" y2="221.51"/><line class="cls-13" x1="301.93" y1="224.03" x2="264.27" y2="224.03"/><line class="cls-13" x1="301.93" y1="226.55" x2="264.27" y2="226.55"/><line class="cls-13" x1="301.93" y1="229.07" x2="264.27" y2="229.07"/><line class="cls-13" x1="301.93" y1="231.59" x2="264.27" y2="231.59"/><line class="cls-13" x1="301.93" y1="234.11" x2="264.27" y2="234.11"/><line class="cls-13" x1="301.93" y1="236.63" x2="264.27" y2="236.63"/><line class="cls-13" x1="296.08" y1="145.91" x2="264.27" y2="145.91"/><line class="cls-13" x1="301.93" y1="148.43" x2="264.27" y2="148.43"/><line class="cls-13" x1="281.51" y1="143.39" x2="264.27" y2="143.39"/><line class="cls-13" x1="301.93" y1="150.95" x2="264.27" y2="150.95"/><line class="cls-13" x1="301.93" y1="153.47" x2="264.27" y2="153.47"/><line class="cls-13" x1="301.93" y1="155.99" x2="264.27" y2="155.99"/><line class="cls-13" x1="301.93" y1="158.51" x2="264.27" y2="158.51"/><line class="cls-13" x1="301.93" y1="161.03" x2="264.27" y2="161.03"/><line class="cls-13" x1="301.93" y1="163.55" x2="264.27" y2="163.55"/><line class="cls-20" x1="301.93" y1="166.07" x2="264.27" y2="166.07"/><line class="cls-13" x1="301.93" y1="168.59" x2="264.27" y2="168.59"/><line class="cls-13" x1="301.93" y1="171.11" x2="264.27" y2="171.11"/><line class="cls-13" x1="301.93" y1="173.63" x2="264.27" y2="173.63"/><line class="cls-13" x1="301.93" y1="176.15" x2="264.27" y2="176.15"/><line class="cls-13" x1="301.93" y1="178.67" x2="264.27" y2="178.67"/><line class="cls-13" x1="301.93" y1="181.19" x2="264.27" y2="181.19"/><line class="cls-13" x1="301.93" y1="183.71" x2="264.27" y2="183.71"/><line class="cls-13" x1="301.93" y1="186.23" x2="264.27" y2="186.23"/><line class="cls-13" x1="301.93" y1="188.75" x2="264.27" y2="188.75"/><line class="cls-13" x1="300.81" y1="289.55" x2="264.27" y2="289.55"/><line class="cls-13" x1="298.71" y1="292.07" x2="264.27" y2="292.07"/><line class="cls-13" x1="296.19" y1="294.59" x2="264.27" y2="294.59"/><line class="cls-13" x1="294.09" y1="297.11" x2="264.27" y2="297.11"/><line class="cls-13" x1="291.15" y1="299.63" x2="264.27" y2="299.63"/><line class="cls-13" x1="288.21" y1="302.15" x2="264.27" y2="302.15"/><line class="cls-13" x1="286.11" y1="304.67" x2="264.27" y2="304.67"/><line class="cls-13" x1="283.59" y1="307.19" x2="264.27" y2="307.19"/><line class="cls-13" x1="281.07" y1="309.71" x2="264.27" y2="309.71"/><line class="cls-13" x1="278.97" y1="312.23" x2="264.27" y2="312.23"/><line class="cls-13" x1="276.45" y1="314.75" x2="264.27" y2="314.75"/><line class="cls-13" x1="273.93" y1="317.27" x2="264.27" y2="317.27"/><line class="cls-13" x1="271.41" y1="319.79" x2="264.27" y2="319.79"/><line class="cls-13" x1="268.47" y1="322.31" x2="264.27" y2="322.31"/></g><g id="Marker-3" data-name="Marker"><rect class="cls-7" x="467.55" y="77.23" width="18" height="18"/><path class="cls-9" d="M475.9,86.76V85.53h.58a1.32,1.32,0,0,0,1.4-1.34,1.28,1.28,0,0,0-1.37-1.31A1.36,1.36,0,0,0,475,84.34h-1.59c0-1.37.94-2.71,3.11-2.71,1.91,0,3,1.06,3,2.39A2.07,2.07,0,0,1,478,86v0a2.09,2.09,0,0,1,1.72,2.18c0,1.38-1.13,2.59-3.21,2.59-2.27,0-3.13-1.32-3.22-2.73H475a1.53,1.53,0,0,0,1.6,1.46,1.42,1.42,0,0,0,1.55-1.4,1.34,1.34,0,0,0-1.53-1.4Z"/></g></g></g></g></svg>