<svg xmlns="http://www.w3.org/2000/svg" viewBox="0 0 600 430"><defs><style>.cls-1,.cls-22,.cls-34{fill:#fff;}.cls-1{opacity:0.95;}.cls-2{fill:#009bf5;}.cls-3{fill:#ff6400;}.cls-4{fill:#232323;}.cls-5{fill:#7dc300;}.cls-6{fill:#463ca0;}.cls-7{fill:#b40097;}.cls-19,.cls-8{font-size:11px;}.cls-8{fill:#1d1d1b;font-family:AtlasGrotesk-Regular, Atlas Grotesk;}.cls-9{letter-spacing:0em;}.cls-10{letter-spacing:0em;}.cls-11{letter-spacing:0em;}.cls-12{letter-spacing:-0.04em;}.cls-13{letter-spacing:-0.01em;}.cls-14{letter-spacing:0.01em;}.cls-15{letter-spacing:0.04em;}.cls-16{letter-spacing:0em;}.cls-17{letter-spacing:0.01em;}.cls-18{letter-spacing:0.04em;}.cls-19,.cls-34{font-family:AtlasGrotesk-Medium, Atlas Grotesk;font-weight:500;}.cls-20{letter-spacing:0em;}.cls-21{letter-spacing:0.01em;}.cls-23{fill:#b3b3b3;}.cls-23,.cls-24{opacity:0.65;}.cls-25{fill:#737373;}.cls-26,.cls-28,.cls-32,.cls-33{fill:none;}.cls-26{stroke:#666;}.cls-26,.cls-32,.cls-33{stroke-miterlimit:10;}.cls-26,.cls-33{stroke-width:0.25px;}.cls-27{fill:#7c7c7c;}.cls-29,.cls-30{fill:#595959;}.cls-30{opacity:0.1;}.cls-31{fill:#fdfefd;}.cls-32,.cls-33{stroke:#595959;}.cls-32{stroke-width:0.84px;}.cls-34{font-size:12px;}</style></defs><title>Zeichenfläche 29</title><g id="Klein"><g id="H3"><g id="H3Hintergrund"><rect class="cls-1" width="600" height="430"/><rect class="cls-2" x="21.91" y="219.77" width="20" height="10"/><rect class="cls-3" x="21.91" y="239.77" width="20" height="10"/><rect class="cls-4" x="21.91" y="199.77" width="20" height="10"/><rect class="cls-5" x="21.91" y="259.77" width="20" height="10"/><rect class="cls-6" x="21.91" y="279.77" width="20" height="10"/><rect class="cls-7" x="21.91" y="299.77" width="20" height="10"/><text class="cls-8" transform="translate(50.45 208.77)">G<tspan class="cls-9" x="9.11" y="0">r</tspan><tspan class="cls-10" x="13.35" y="0">und</tspan><tspan class="cls-9" x="33.45" y="0">l</tspan><tspan class="cls-11" x="36.44" y="0">a</tspan><tspan x="42.58" y="0">g</tspan><tspan class="cls-9" x="49.28" y="0">e</tspan><tspan x="55.27" y="0">n</tspan><tspan class="cls-12" x="0" y="20">P</tspan><tspan class="cls-13" x="6.59" y="20">r</tspan><tspan class="cls-14" x="10.78" y="20">o</tspan><tspan x="17.13" y="20">duk</tspan><tspan class="cls-14" x="36.67" y="20">t</tspan><tspan x="40.78" y="20">ges</tspan><tspan class="cls-15" x="59.06" y="20">t</tspan><tspan x="63.49" y="20">al</tspan><tspan class="cls-11" x="72.62" y="20">t</tspan><tspan x="76.67" y="20">ung</tspan><tspan class="cls-13" x="0" y="40">K</tspan><tspan class="cls-16" x="7.74" y="40">ommuni</tspan><tspan class="cls-9" x="51.08" y="40">k</tspan><tspan x="57.17" y="40">a</tspan><tspan class="cls-17" x="63.25" y="40">t</tspan><tspan class="cls-16" x="67.35" y="40">ion</tspan><tspan class="cls-11" x="83.35" y="40">s</tspan><tspan x="88.93" y="40">ges</tspan><tspan class="cls-15" x="107.21" y="40">t</tspan><tspan x="111.65" y="40">al</tspan><tspan class="cls-11" x="120.78" y="40">t</tspan><tspan x="124.83" y="40">ung</tspan><tspan x="0" y="60">In</tspan><tspan class="cls-14" x="10.01" y="60">t</tspan><tspan class="cls-9" x="14.11" y="60">e</tspan><tspan class="cls-13" x="20.11" y="60">r</tspan><tspan x="24.3" y="60">ak</tspan><tspan class="cls-14" x="36.52" y="60">t</tspan><tspan x="40.62" y="60">ion</tspan><tspan class="cls-11" x="56.62" y="60">s</tspan><tspan class="cls-16" x="62.2" y="60">ges</tspan><tspan class="cls-18" x="80.49" y="60">t</tspan><tspan x="84.92" y="60">al</tspan><tspan class="cls-11" x="94.05" y="60">t</tspan><tspan x="98.1" y="60">ung</tspan><tspan x="0" y="80">In</tspan><tspan class="cls-14" x="10.01" y="80">t</tspan><tspan class="cls-9" x="14.11" y="80">e</tspan><tspan class="cls-13" x="20.11" y="80">r</tspan><tspan x="24.3" y="80">net d</tspan><tspan class="cls-9" x="50.74" y="80">e</tspan><tspan x="56.74" y="80">r Dinge</tspan><tspan x="0" y="100">S</tspan><tspan class="cls-11" x="7.85" y="100">t</tspan><tspan class="cls-13" x="11.9" y="100">r</tspan><tspan x="16.09" y="100">a</tspan><tspan class="cls-14" x="22.18" y="100">t</tspan><tspan class="cls-11" x="26.28" y="100">e</tspan><tspan x="32.38" y="100">gi</tspan><tspan class="cls-11" x="42.15" y="100">s</tspan><tspan class="cls-9" x="47.74" y="100">c</tspan><tspan x="53.58" y="100">he Ges</tspan><tspan class="cls-18" x="90" y="100">t</tspan><tspan x="94.43" y="100">al</tspan><tspan class="cls-11" x="103.56" y="100">t</tspan><tspan class="cls-10" x="107.61" y="100">ung</tspan></text><text class="cls-19" transform="translate(21.91 31.59)">G<tspan class="cls-20" x="8.98" y="0">r</tspan><tspan class="cls-16" x="13.49" y="0">undriss dri</tspan><tspan class="cls-21" x="71.01" y="0">tt</tspan><tspan class="cls-9" x="79.64" y="0">e</tspan><tspan x="86" y="0">r S</tspan><tspan class="cls-11" x="100.99" y="0">to</tspan><tspan class="cls-9" x="111.97" y="0">c</tspan><tspan class="cls-10" x="118.23" y="0">k</tspan></text><path class="cls-22" d="M384.81,288.12h-81.9V170.52l41.73,7.39,7.07-16.39,136.84,23.7V220.5h79.8v-110H518c1.35-1.68,2.94-4.27,2.94-7,0-7.47-4.72-11-8.73-12.11l2.1-14.28-17-22.67-29.39-5-25,17.44L345.84,50.16,329.7,47.38,188.37,23.1,170.19,128.87l55.52,9.54V403l313.67.17h31.92V288.12Z"/></g><g id="Rooms-4" data-name="Rooms"><g id="H3Flur"><path class="cls-23" d="M457.75,119l-17.05-2.93-2.35-.4L310,93.61l-9.43,54.48v17.18l3.18.56,38,6.74,5.58-12.94,1.49-3.44,5.61-32.7,2.35.4-.59,3.45,31.93,5.44L383,162.11l46,8,5.09-29.63,2.33.4,29.48,5h0l30.58,5.13,4.22-24.54ZM332.45,155.7l-17-2.92,2.45-14.13L335,141.6Z"/></g><g id="H3Senat"><g class="cls-24"><polygon class="cls-25" points="434.63 112.62 441.7 71.46 352.58 56.15 345.62 97.33 434.63 112.62"/></g></g><g id="H3Bib"><g class="cls-24"><path class="cls-25" d="M502.67,115.22l.3-1.6.21-1.19h0l.37-2h8.29l2.39-3a7.44,7.44,0,0,0,1.89-4c0-5.26-3.3-7-5.26-7.53l-4-1.13.61-4.15,1.82-12.31L494.57,58.81,469,54.42,445.62,70.74l-1.57,1.09L437,113l21.18,3.64,43,7.38,1.57-8.82Z"/></g></g></g><g id="Grundriss-5" data-name="Grundriss"><g id="Treppe"><line class="cls-26" x1="332.49" y1="153.75" x2="349.4" y2="156.75"/><line class="cls-26" x1="333.13" y1="152.25" x2="349.68" y2="155.09"/><line class="cls-26" x1="333.41" y1="150.59" x2="349.97" y2="153.44"/><line class="cls-26" x1="333.7" y1="148.94" x2="350.25" y2="151.78"/><line class="cls-26" x1="333.98" y1="147.28" x2="350.54" y2="150.13"/><line class="cls-26" x1="334.26" y1="145.62" x2="350.82" y2="148.47"/><line class="cls-26" x1="334.55" y1="143.97" x2="351.11" y2="146.81"/><line class="cls-26" x1="319.89" y1="139.81" x2="302.06" y2="136.64"/><line class="cls-26" x1="319.66" y1="141.38" x2="301.81" y2="138.31"/><line class="cls-26" x1="319.38" y1="143.03" x2="301.53" y2="139.96"/><line class="cls-26" x1="319.09" y1="144.69" x2="301.25" y2="141.62"/><line class="cls-26" x1="318.81" y1="146.34" x2="300.96" y2="143.28"/><line class="cls-26" x1="318.52" y1="148" x2="300.68" y2="144.93"/><line class="cls-26" x1="318.24" y1="149.66" x2="300.39" y2="146.59"/><line class="cls-26" x1="332.49" y1="153.75" x2="349.4" y2="156.75"/><line class="cls-26" x1="333.13" y1="152.25" x2="349.68" y2="155.09"/><line class="cls-26" x1="333.41" y1="150.59" x2="349.97" y2="153.44"/><line class="cls-26" x1="333.7" y1="148.94" x2="350.25" y2="151.78"/><line class="cls-26" x1="333.98" y1="147.28" x2="350.54" y2="150.13"/><line class="cls-26" x1="334.26" y1="145.62" x2="350.82" y2="148.47"/><line class="cls-26" x1="334.55" y1="143.97" x2="351.11" y2="146.81"/><line class="cls-26" x1="334.83" y1="142.31" x2="351.39" y2="145.16"/><line class="cls-26" x1="319.66" y1="141.38" x2="301.81" y2="138.31"/><line class="cls-26" x1="319.38" y1="143.03" x2="301.53" y2="139.96"/><line class="cls-26" x1="319.09" y1="144.69" x2="301.25" y2="141.62"/><line class="cls-26" x1="318.81" y1="146.34" x2="300.96" y2="143.28"/><line class="cls-26" x1="318.52" y1="148" x2="300.68" y2="144.93"/><line class="cls-26" x1="318.24" y1="149.66" x2="300.39" y2="146.59"/><line class="cls-26" x1="318.1" y1="151.41" x2="300.25" y2="148.34"/><line class="cls-26" x1="325.54" y1="153.75" x2="322.26" y2="172.79"/><line class="cls-26" x1="323.88" y1="153.46" x2="320.61" y2="172.5"/><line class="cls-26" x1="322.23" y1="153.18" x2="318.95" y2="172.22"/><line class="cls-26" x1="320.57" y1="152.89" x2="317.3" y2="171.94"/><line class="cls-26" x1="318.91" y1="152.61" x2="315.64" y2="171.65"/><line class="cls-26" x1="317.26" y1="152.33" x2="313.99" y2="171.37"/><line class="cls-26" x1="330.5" y1="154.6" x2="327.23" y2="173.64"/><line class="cls-26" x1="328.85" y1="154.32" x2="325.58" y2="173.36"/><line class="cls-26" x1="327.19" y1="154.03" x2="323.92" y2="173.07"/><line class="cls-26" x1="325.54" y1="153.75" x2="322.26" y2="172.79"/><line class="cls-26" x1="323.88" y1="153.46" x2="320.61" y2="172.5"/><line class="cls-26" x1="322.23" y1="153.18" x2="318.95" y2="172.22"/><line class="cls-26" x1="320.57" y1="152.89" x2="317.3" y2="171.94"/><line class="cls-26" x1="318.91" y1="152.61" x2="315.64" y2="171.65"/><line class="cls-26" x1="317.26" y1="152.33" x2="313.99" y2="171.37"/><line class="cls-26" x1="330.5" y1="154.6" x2="327.23" y2="173.64"/><line class="cls-26" x1="328.85" y1="154.32" x2="325.58" y2="173.36"/><line class="cls-26" x1="327.19" y1="154.03" x2="323.92" y2="173.07"/></g><g id="Wand"><path class="cls-27" d="M298.15,169.68l46.49,8.23,7.07-16.39,136.84,23.7V220.5h79.8v-110H518c1.35-1.68,2.94-4.27,2.94-7,0-7.47-4.72-11-8.73-12.11l2.1-14.28-17-22.67-29.39-5-25,17.44L345.84,50.16,329.7,47.38,188.37,23.1,170.19,128.87l60.29,10.36v-2.31h0L298.23,149Zm-22.21-27.09,9.36-53.21,22.34,3.83-9.24,53.42Zm75.23,14,4.62-26.9,29.58,5-4.67,27ZM383,162.11l5.09-29.33-31.93-5.44.59-3.45-2.35-.4-5.61,32.7-1.49,3.44-5.58,12.94-38-6.74-3.18-.56V148.09L310,93.61l128.36,22.07h0l19.4,3.33,42.95,7.38-4.22,24.54L465.9,145.8h0l-29.48-5-2.33-.4L429,170.07Zm48.31,8.37L436,143.19l27.14,4.53-4.69,27.46Zm58,10.05-28.56-4.95,4.68-27.44,30.59,5.14-4.74,27.59Zm27.38-65.31h46.84V215.74H493.31V183.53h0l10-57.93,1.85-10.38Zm-72.7-43.39,1.57-1.09L469,54.42l25.59,4.39,14.69,19.57-1.82,12.31-.61,4.15,4,1.13c2,.55,5.26,2.27,5.26,7.53a7.44,7.44,0,0,1-1.89,4l-2.39,3h-8.29l-.37,2h0l-.21,1.19-.3,1.6h0L501.11,124l-43-7.38L437,113Zm-2.35-.37-7.07,41.16-89-15.29,7-41.18ZM328.89,52.08,345,54.85l5.19.89-7,41.19-23.85-4.1,7.07-41.16Zm-4.75-.82-7.07,41.16L285.71,87,293,45.9ZM175.69,125,192.25,28.6,290.6,45.5l-17,96.67-43.12-7.77-4-.68Z"/><polygon class="cls-22" points="343.27 96.92 350.23 55.74 345.04 54.85 328.89 52.08 326.49 51.66 319.42 92.83 343.27 96.92"/><polygon class="cls-22" points="290.6 45.5 192.25 28.6 175.69 124.99 226.52 133.72 230.47 134.4 230.47 134.4 273.6 142.17 290.6 45.5"/><polygon class="cls-22" points="275.94 142.59 298.4 146.63 307.64 93.21 285.3 89.38 275.94 142.59"/><polygon class="cls-22" points="355.79 129.69 351.17 156.59 380.7 161.71 385.37 134.72 355.79 129.69"/><polygon class="cls-22" points="285.71 87.04 317.07 92.42 324.14 51.26 292.95 45.9 285.71 87.04"/><polygon class="cls-22" points="436.01 143.19 431.35 170.48 458.46 175.18 463.15 147.72 436.01 143.19"/><polygon class="cls-22" points="517.95 115.22 516.75 115.22 516.75 115.22 505.1 115.22 503.25 125.6 493.3 183.53 493.31 183.53 493.31 185.22 493.31 215.74 563.59 215.74 563.59 115.22 517.95 115.22"/><polygon class="cls-22" points="489.37 180.53 491.34 180.87 496.08 153.28 465.49 148.14 460.81 175.58 489.37 180.53"/><line class="cls-28" x1="351.17" y1="156.59" x2="356.79" y2="123.89"/><line class="cls-28" x1="230.9" y1="134.47" x2="298.83" y2="146.71"/><line class="cls-28" x1="273.6" y1="142.17" x2="276.51" y2="125.59"/><line class="cls-28" x1="298.4" y1="146.63" x2="300.47" y2="134.15"/><path class="cls-27" d="M317.86,138.65l-2.45,14.13,17,2.92L335,141.6ZM330.52,153l-12.36-2.12,1.64-9.44,12.4,2.14Z"/><rect class="cls-29" x="480.6" y="106.64" width="5.46" height="5.46" transform="translate(672.97 -348.46) rotate(99.75)"/><rect class="cls-29" x="459.91" y="103.08" width="5.46" height="5.46" transform="translate(645.26 -332.22) rotate(99.75)"/><path class="cls-29" d="M298.15,169.68l46.49,8.23,7.07-16.39,136.84,23.7V220.5h79.8v-110H518c1.35-1.68,2.94-4.27,2.94-7,0-7.47-4.72-11-8.73-12.11l2.1-14.28-17-22.67-29.39-5-25,17.44L345.84,50.16,329.7,47.38,188.37,23.1,170.19,128.87l60.29,10.36v-2.31h0L298.23,149Zm-22.21-27.09,9.36-53.21,22.34,3.83-9.24,53.42Zm75.23,14,4.62-26.9,29.58,5-4.67,27ZM383,162.11l5.09-29.33-31.93-5.44.59-3.45-2.35-.4-5.61,32.7-1.49,3.44-5.58,12.94-38-6.74-3.18-.56V148.09L310,93.61l128.36,22.07h0l19.4,3.33,42.95,7.38-4.22,24.54L465.9,145.8h0l-29.48-5-2.33-.4L429,170.07Zm48.31,8.37L436,143.19l27.14,4.53-4.69,27.46Zm58,10.05-28.56-4.95,4.68-27.44,30.59,5.14-4.74,27.59Zm27.38-65.31h46.84V215.74H493.31V183.53h0l10-57.93,1.85-10.38Zm-72.7-43.39,1.57-1.09L469,54.42l25.59,4.39,14.69,19.57-1.82,12.31-.61,4.15,4,1.13c2,.55,5.26,2.27,5.26,7.53a7.44,7.44,0,0,1-1.89,4l-2.39,3h-8.29l-.37,2h0l-.21,1.19-.3,1.6h0L501.11,124l-43-7.38L437,113Zm-2.35-.37-7.07,41.16-89-15.29,7-41.18ZM328.89,52.08,345,54.85l5.19.89-7,41.19-23.85-4.1,7.07-41.16Zm-4.75-.82-7.07,41.16L285.71,87,293,45.9ZM175.69,125,192.25,28.6,290.6,45.5l-17,96.67-43.12-7.77-4-.68Z"/><path class="cls-29" d="M317.86,138.65l-1.23,7.06-1.22,7.07,8.52,1.46,8.52,1.46,1.26-7L335,141.6l-8.56-1.48ZM330.52,153l-6.18-1.06-6.18-1.06.82-4.72.82-4.72,6.2,1.07,6.2,1.07-.84,4.71Z"/></g><g id="Schatten"><polygon class="cls-30" points="587.25 135.66 568.35 110.46 568.35 220.5 488.55 220.5 507.45 245.7 587.25 245.7 587.25 135.66"/><polygon class="cls-30" points="321.81 195.72 363.54 203.11 370.61 186.72 488.55 207.15 488.55 185.22 351.71 161.52 344.64 177.91 302.91 170.52 302.91 288.12 321.81 288.12 321.81 195.72"/><path class="cls-30" d="M512.16,91.39c4,1.13,8.73,4.64,8.73,12.11,0,2.69-1.59,5.28-2.94,7h14l1.2-8.15-17-22.67-1.89-2.53Z"/><polygon class="cls-30" points="571.29 288.12 571.29 403.2 539.37 403.2 226.6 402.25 244.6 428.23 558.27 428.4 590.19 428.4 590.19 313.32 571.29 288.12"/><polygon class="cls-30" points="225.71 138.41 170.19 128.87 189.09 154.07 225.71 160.37 225.71 138.41"/><polygon class="cls-30" points="332.79 60.06 335.19 60.48 349.03 62.85 350.23 55.74 345.04 54.85 328.89 52.08 326.49 51.66 319.42 92.83 326.94 94.12 332.79 60.06"/><polygon class="cls-30" points="358.88 64.55 440.48 78.57 441.7 71.46 352.58 56.15 345.62 97.33 353.12 98.62 358.88 64.55"/><polygon class="cls-30" points="201.7 41.2 288.73 56.15 290.6 45.5 192.25 28.6 175.69 124.99 186.97 126.92 201.7 41.2"/><polygon class="cls-30" points="291.6 97.78 306.42 100.32 307.64 93.21 285.3 89.38 275.94 142.59 283.48 143.94 291.6 97.78"/><polygon class="cls-30" points="362.09 138.09 384.14 141.84 385.37 134.72 355.79 129.69 351.17 156.59 358.69 157.9 362.09 138.09"/><polygon class="cls-30" points="299.25 54.3 322.92 58.37 324.14 51.26 292.95 45.9 285.71 87.04 293.26 88.33 299.25 54.3"/><polygon class="cls-30" points="442.31 151.59 461.93 154.87 463.15 147.72 436.01 143.19 431.35 170.48 438.86 171.78 442.31 151.59"/><polygon class="cls-30" points="471.79 156.54 494.85 160.41 496.08 153.28 465.49 148.14 460.81 175.58 468.32 176.88 471.79 156.54"/><polygon class="cls-30" points="493.31 215.74 499.62 215.74 499.62 193.62 499.62 191.93 499.6 191.93 509.55 134 511.4 123.62 523.05 123.62 523.05 123.62 524.25 123.62 563.59 123.62 563.59 115.22 517.95 115.22 516.75 115.22 516.75 115.22 505.1 115.22 503.25 125.6 493.3 183.53 493.31 183.53 493.31 185.22 493.31 215.74"/><path class="cls-30" d="M513.63,96.59l-6.8-1.75,6.3,8.4,2.93.82a3,3,0,0,0,.07-.56A10.64,10.64,0,0,0,513.63,96.59Z"/><polygon class="cls-30" points="450.35 80.23 451.92 79.14 475.28 62.82 500.87 67.21 509.25 78.38 509.26 78.38 494.57 58.81 468.98 54.42 445.62 70.74 444.05 71.83 436.98 113.02 444.5 114.32 450.35 80.23"/><polygon class="cls-30" points="306.86 156.49 316.29 102.01 444.65 124.08 447 124.48 464.05 127.41 499.48 133.5 500.7 126.39 457.75 119.01 440.7 116.08 438.35 115.68 309.99 93.61 300.56 148.09 300.56 165.27 303.74 165.83 306.86 166.38 306.86 156.49"/><polygon class="cls-30" points="394.43 141.18 388.13 132.78 383.04 162.11 390.57 163.42 394.43 141.18"/><polygon class="cls-30" points="486.48 120 480.18 111.6 485.56 112.52 486.49 107.14 492.79 115.54 491.86 120.92 486.48 120"/><polygon class="cls-30" points="465.78 116.44 459.48 108.04 464.86 108.96 465.79 103.58 472.09 111.98 471.16 117.36 465.78 116.44"/><polygon class="cls-30" points="359.94 128.09 356.79 123.89 356.2 127.34 359.94 128.09"/></g><g id="Dach"><polygon class="cls-31" points="539.37 402.36 226.54 402.19 226.55 134.7 302.07 146.65 302.07 288.96 570.45 288.96 570.45 402.36 539.37 402.36"/><path class="cls-29" d="M227.39,135.69l73.84,11.68V289.8H569.61V401.52H539.37l-312-.17V135.69m-1.68-2V403l313.67.17h31.92V288.12H302.91V145.94l-77.2-12.22Z"/><polyline class="cls-32" points="514.59 345.24 283.59 345.24 226.6 402.25"/><line class="cls-26" x1="334.62" y1="345.66" x2="334.62" y2="401.52"/><line class="cls-26" x1="337.14" y1="345.66" x2="337.14" y2="401.52"/><line class="cls-26" x1="339.66" y1="345.66" x2="339.66" y2="401.52"/><line class="cls-26" x1="342.18" y1="345.66" x2="342.18" y2="401.52"/><line class="cls-26" x1="344.7" y1="345.66" x2="344.7" y2="401.52"/><line class="cls-26" x1="347.22" y1="345.66" x2="347.22" y2="401.52"/><line class="cls-26" x1="349.74" y1="345.66" x2="349.74" y2="401.52"/><line class="cls-26" x1="352.26" y1="345.66" x2="352.26" y2="401.52"/><line class="cls-26" x1="354.78" y1="345.66" x2="354.78" y2="401.52"/><line class="cls-26" x1="357.3" y1="345.66" x2="357.3" y2="401.52"/><line class="cls-26" x1="359.82" y1="345.66" x2="359.82" y2="401.52"/><line class="cls-26" x1="362.34" y1="345.66" x2="362.34" y2="401.52"/><line class="cls-26" x1="364.86" y1="345.66" x2="364.86" y2="401.52"/><line class="cls-26" x1="367.38" y1="345.66" x2="367.38" y2="401.52"/><line class="cls-26" x1="369.9" y1="345.66" x2="369.9" y2="401.52"/><line class="cls-26" x1="372.42" y1="345.66" x2="372.42" y2="401.52"/><line class="cls-26" x1="374.94" y1="345.66" x2="374.94" y2="401.52"/><line class="cls-26" x1="377.46" y1="345.66" x2="377.46" y2="401.52"/><line class="cls-26" x1="379.98" y1="345.66" x2="379.98" y2="401.52"/><line class="cls-26" x1="382.5" y1="345.66" x2="382.5" y2="401.52"/><line class="cls-26" x1="385.02" y1="345.66" x2="385.02" y2="401.52"/><line class="cls-26" x1="387.54" y1="345.66" x2="387.54" y2="401.52"/><line class="cls-26" x1="390.06" y1="345.66" x2="390.06" y2="401.52"/><line class="cls-26" x1="392.58" y1="345.66" x2="392.58" y2="401.52"/><line class="cls-26" x1="395.1" y1="345.66" x2="395.1" y2="401.52"/><line class="cls-26" x1="397.62" y1="345.66" x2="397.62" y2="401.52"/><line class="cls-26" x1="400.14" y1="345.66" x2="400.14" y2="401.52"/><line class="cls-26" x1="402.66" y1="345.66" x2="402.66" y2="401.52"/><line class="cls-26" x1="405.18" y1="345.66" x2="405.18" y2="401.52"/><line class="cls-26" x1="407.7" y1="345.66" x2="407.7" y2="401.52"/><line class="cls-26" x1="410.22" y1="345.66" x2="410.22" y2="401.52"/><line class="cls-26" x1="412.74" y1="345.66" x2="412.74" y2="401.52"/><line class="cls-26" x1="415.26" y1="345.66" x2="415.26" y2="401.52"/><line class="cls-26" x1="417.78" y1="345.66" x2="417.78" y2="401.52"/><line class="cls-26" x1="420.3" y1="345.66" x2="420.3" y2="401.52"/><line class="cls-26" x1="422.82" y1="345.66" x2="422.82" y2="401.52"/><line class="cls-26" x1="425.34" y1="345.66" x2="425.34" y2="401.52"/><line class="cls-26" x1="427.86" y1="345.66" x2="427.86" y2="401.52"/><line class="cls-26" x1="430.38" y1="345.66" x2="430.38" y2="401.52"/><line class="cls-26" x1="432.9" y1="345.66" x2="432.9" y2="401.52"/><line class="cls-26" x1="435.42" y1="345.66" x2="435.42" y2="401.52"/><line class="cls-26" x1="437.94" y1="345.66" x2="437.94" y2="401.52"/><line class="cls-26" x1="440.46" y1="345.66" x2="440.46" y2="401.52"/><line class="cls-26" x1="442.98" y1="345.66" x2="442.98" y2="401.52"/><line class="cls-26" x1="445.5" y1="345.66" x2="445.5" y2="401.52"/><line class="cls-26" x1="448.02" y1="345.66" x2="448.02" y2="401.52"/><line class="cls-26" x1="450.54" y1="345.66" x2="450.54" y2="401.52"/><line class="cls-26" x1="453.06" y1="345.66" x2="453.06" y2="401.52"/><line class="cls-26" x1="455.58" y1="345.66" x2="455.58" y2="401.52"/><line class="cls-26" x1="458.1" y1="345.66" x2="458.1" y2="401.52"/><line class="cls-26" x1="460.62" y1="345.66" x2="460.62" y2="401.52"/><line class="cls-26" x1="463.14" y1="345.66" x2="463.14" y2="401.52"/><line class="cls-26" x1="465.66" y1="345.66" x2="465.66" y2="401.52"/><line class="cls-26" x1="468.18" y1="345.66" x2="468.18" y2="401.52"/><line class="cls-26" x1="470.7" y1="345.66" x2="470.7" y2="401.52"/><line class="cls-26" x1="473.22" y1="345.66" x2="473.22" y2="401.52"/><line class="cls-26" x1="475.74" y1="345.66" x2="475.74" y2="401.52"/><line class="cls-26" x1="478.26" y1="345.66" x2="478.26" y2="401.52"/><line class="cls-26" x1="480.78" y1="345.66" x2="480.78" y2="401.52"/><line class="cls-26" x1="483.3" y1="345.66" x2="483.3" y2="401.52"/><line class="cls-26" x1="485.82" y1="345.66" x2="485.82" y2="401.52"/><line class="cls-26" x1="488.34" y1="345.66" x2="488.34" y2="401.52"/><line class="cls-26" x1="490.86" y1="345.66" x2="490.86" y2="401.52"/><line class="cls-26" x1="493.38" y1="345.66" x2="493.38" y2="401.52"/><line class="cls-26" x1="495.9" y1="345.66" x2="495.9" y2="401.52"/><line class="cls-26" x1="498.42" y1="345.66" x2="498.42" y2="401.52"/><line class="cls-26" x1="500.94" y1="345.66" x2="500.94" y2="401.52"/><line class="cls-26" x1="503.46" y1="345.66" x2="503.46" y2="401.52"/><line class="cls-26" x1="505.98" y1="345.66" x2="505.98" y2="401.52"/><line class="cls-26" x1="508.5" y1="345.66" x2="508.5" y2="401.52"/><line class="cls-26" x1="511.02" y1="345.66" x2="511.02" y2="401.52"/><line class="cls-26" x1="513.54" y1="345.66" x2="513.54" y2="401.52"/><line class="cls-26" x1="516.06" y1="346.92" x2="516.06" y2="401.52"/><line class="cls-26" x1="518.58" y1="349.44" x2="518.58" y2="401.52"/><line class="cls-26" x1="521.1" y1="351.96" x2="521.1" y2="401.52"/><line class="cls-26" x1="523.62" y1="354.48" x2="523.62" y2="401.52"/><line class="cls-26" x1="526.14" y1="357.42" x2="526.14" y2="401.52"/><line class="cls-26" x1="528.66" y1="359.52" x2="528.66" y2="401.52"/><line class="cls-26" x1="531.18" y1="362.04" x2="531.18" y2="401.52"/><line class="cls-26" x1="533.7" y1="364.98" x2="533.7" y2="401.52"/><line class="cls-26" x1="536.22" y1="367.08" x2="536.22" y2="401.52"/><line class="cls-26" x1="538.74" y1="369.6" x2="538.74" y2="401.52"/><line class="cls-26" x1="541.26" y1="371.7" x2="541.26" y2="401.52"/><line class="cls-26" x1="543.78" y1="374.64" x2="543.78" y2="401.52"/><line class="cls-26" x1="546.3" y1="377.58" x2="546.3" y2="401.52"/><line class="cls-26" x1="548.82" y1="379.68" x2="548.82" y2="401.52"/><line class="cls-26" x1="551.34" y1="382.2" x2="551.34" y2="401.52"/><line class="cls-26" x1="553.86" y1="384.72" x2="553.86" y2="401.52"/><line class="cls-26" x1="556.38" y1="386.82" x2="556.38" y2="401.52"/><line class="cls-26" x1="558.9" y1="389.34" x2="558.9" y2="401.52"/><line class="cls-26" x1="561.42" y1="391.86" x2="561.42" y2="401.52"/><line class="cls-26" x1="563.94" y1="394.38" x2="563.94" y2="401.52"/><line class="cls-26" x1="566.46" y1="397.32" x2="566.46" y2="401.52"/><line class="cls-26" x1="516.06" y1="346.92" x2="570.66" y2="346.92"/><line class="cls-26" x1="518.58" y1="349.44" x2="570.66" y2="349.44"/><line class="cls-26" x1="521.1" y1="351.96" x2="570.66" y2="351.96"/><line class="cls-26" x1="523.62" y1="354.48" x2="570.66" y2="354.48"/><line class="cls-26" x1="526.56" y1="357" x2="570.66" y2="357"/><line class="cls-26" x1="528.66" y1="359.52" x2="570.66" y2="359.52"/><line class="cls-26" x1="531.18" y1="362.04" x2="570.66" y2="362.04"/><line class="cls-26" x1="534.12" y1="364.56" x2="570.66" y2="364.56"/><line class="cls-26" x1="536.22" y1="367.08" x2="570.66" y2="367.08"/><line class="cls-26" x1="538.74" y1="369.6" x2="570.66" y2="369.6"/><line class="cls-26" x1="540.84" y1="372.12" x2="570.66" y2="372.12"/><line class="cls-26" x1="543.78" y1="374.64" x2="570.66" y2="374.64"/><line class="cls-26" x1="546.72" y1="377.16" x2="570.66" y2="377.16"/><line class="cls-26" x1="548.82" y1="379.68" x2="570.66" y2="379.68"/><line class="cls-26" x1="551.34" y1="382.2" x2="570.66" y2="382.2"/><line class="cls-26" x1="553.86" y1="384.72" x2="570.66" y2="384.72"/><line class="cls-26" x1="555.96" y1="387.24" x2="570.66" y2="387.24"/><line class="cls-26" x1="558.48" y1="389.76" x2="570.66" y2="389.76"/><line class="cls-26" x1="561" y1="392.28" x2="570.66" y2="392.28"/><line class="cls-26" x1="563.52" y1="394.8" x2="570.66" y2="394.8"/><line class="cls-26" x1="566.46" y1="397.32" x2="570.66" y2="397.32"/><line class="cls-26" x1="515.15" y1="344.39" x2="570.64" y2="344.39"/><line class="cls-26" x1="517.67" y1="341.87" x2="570.64" y2="341.87"/><line class="cls-26" x1="520.19" y1="339.35" x2="570.64" y2="339.35"/><line class="cls-26" x1="522.71" y1="336.83" x2="570.64" y2="336.83"/><line class="cls-26" x1="525.65" y1="334.31" x2="570.64" y2="334.31"/><line class="cls-26" x1="527.75" y1="331.79" x2="570.64" y2="331.79"/><line class="cls-26" x1="530.27" y1="329.27" x2="570.64" y2="329.27"/><line class="cls-26" x1="533.21" y1="326.75" x2="570.64" y2="326.75"/><line class="cls-26" x1="535.31" y1="324.23" x2="570.64" y2="324.23"/><line class="cls-26" x1="537.83" y1="321.71" x2="570.64" y2="321.71"/><line class="cls-26" x1="539.93" y1="319.19" x2="570.64" y2="319.19"/><line class="cls-26" x1="542.87" y1="316.67" x2="570.64" y2="316.67"/><line class="cls-26" x1="545.81" y1="314.15" x2="570.64" y2="314.15"/><line class="cls-26" x1="547.91" y1="311.63" x2="570.64" y2="311.63"/><line class="cls-26" x1="550.43" y1="309.11" x2="570.64" y2="309.11"/><line class="cls-26" x1="552.95" y1="306.59" x2="570.64" y2="306.59"/><line class="cls-26" x1="555.05" y1="304.07" x2="570.64" y2="304.07"/><line class="cls-26" x1="557.57" y1="301.55" x2="570.64" y2="301.55"/><line class="cls-26" x1="560.09" y1="299.03" x2="570.64" y2="299.03"/><line class="cls-26" x1="562.61" y1="296.51" x2="570.64" y2="296.51"/><line class="cls-26" x1="565.55" y1="293.99" x2="570.64" y2="293.99"/><line class="cls-32" x1="569.61" y1="289.8" x2="514.17" y2="345.24"/><line class="cls-32" x1="571.03" y1="401.89" x2="514.17" y2="345.03"/><line class="cls-32" x1="264.27" y1="326.76" x2="264.27" y2="140.59"/><polyline class="cls-32" points="302.91 288.12 264.27 326.76 283.59 345.24"/><line class="cls-26" x1="332.1" y1="345.66" x2="332.1" y2="401.52"/><line class="cls-26" x1="329.58" y1="345.66" x2="329.58" y2="401.52"/><line class="cls-26" x1="327.06" y1="345.66" x2="327.06" y2="401.52"/><line class="cls-26" x1="324.54" y1="345.66" x2="324.54" y2="401.52"/><line class="cls-26" x1="322.02" y1="345.66" x2="322.02" y2="401.52"/><line class="cls-26" x1="319.5" y1="345.66" x2="319.5" y2="401.52"/><line class="cls-26" x1="316.98" y1="345.66" x2="316.98" y2="401.52"/><line class="cls-26" x1="314.46" y1="345.66" x2="314.46" y2="401.52"/><line class="cls-26" x1="311.94" y1="345.66" x2="311.94" y2="401.52"/><line class="cls-26" x1="309.42" y1="345.66" x2="309.42" y2="401.52"/><line class="cls-26" x1="306.9" y1="345.66" x2="306.9" y2="401.52"/><line class="cls-26" x1="304.38" y1="345.66" x2="304.38" y2="401.52"/><line class="cls-26" x1="301.86" y1="345.66" x2="301.86" y2="401.52"/><line class="cls-26" x1="299.34" y1="345.66" x2="299.34" y2="401.52"/><line class="cls-26" x1="296.82" y1="345.66" x2="296.82" y2="401.52"/><line class="cls-26" x1="294.3" y1="345.66" x2="294.3" y2="401.52"/><line class="cls-26" x1="291.78" y1="345.66" x2="291.78" y2="401.52"/><line class="cls-26" x1="289.26" y1="345.66" x2="289.26" y2="401.52"/><line class="cls-26" x1="286.74" y1="345.66" x2="286.74" y2="401.52"/><line class="cls-26" x1="284.22" y1="345.66" x2="284.22" y2="401.52"/><line class="cls-26" x1="281.7" y1="346.92" x2="281.7" y2="401.52"/><line class="cls-26" x1="279.18" y1="349.44" x2="279.18" y2="401.52"/><line class="cls-26" x1="276.66" y1="351.96" x2="276.66" y2="401.52"/><line class="cls-26" x1="274.14" y1="354.48" x2="274.14" y2="401.52"/><line class="cls-26" x1="271.62" y1="357.42" x2="271.62" y2="401.52"/><line class="cls-26" x1="269.1" y1="359.52" x2="269.1" y2="401.52"/><line class="cls-26" x1="266.58" y1="362.04" x2="266.58" y2="401.52"/><line class="cls-26" x1="264.06" y1="364.98" x2="264.06" y2="401.52"/><line class="cls-26" x1="261.54" y1="367.08" x2="261.54" y2="401.52"/><line class="cls-26" x1="259.02" y1="369.6" x2="259.02" y2="401.52"/><line class="cls-26" x1="256.5" y1="371.7" x2="256.5" y2="401.52"/><line class="cls-26" x1="253.98" y1="374.64" x2="253.98" y2="401.52"/><line class="cls-26" x1="251.46" y1="377.58" x2="251.46" y2="401.52"/><line class="cls-26" x1="248.94" y1="379.68" x2="248.94" y2="401.52"/><line class="cls-26" x1="246.42" y1="382.2" x2="246.42" y2="401.52"/><line class="cls-26" x1="243.9" y1="384.72" x2="243.9" y2="401.52"/><line class="cls-26" x1="241.38" y1="386.82" x2="241.38" y2="401.52"/><line class="cls-26" x1="238.86" y1="389.34" x2="238.86" y2="401.52"/><line class="cls-26" x1="236.34" y1="391.86" x2="236.34" y2="401.52"/><line class="cls-26" x1="233.82" y1="394.38" x2="233.82" y2="401.52"/><line class="cls-26" x1="231.3" y1="397.32" x2="231.3" y2="401.52"/><line class="cls-26" x1="301.93" y1="239.15" x2="264.27" y2="239.15"/><line class="cls-26" x1="301.93" y1="241.67" x2="264.27" y2="241.67"/><line class="cls-26" x1="301.93" y1="244.19" x2="264.27" y2="244.19"/><line class="cls-26" x1="301.93" y1="246.71" x2="264.27" y2="246.71"/><line class="cls-26" x1="301.93" y1="249.23" x2="264.27" y2="249.23"/><line class="cls-26" x1="301.93" y1="251.75" x2="264.27" y2="251.75"/><line class="cls-26" x1="301.93" y1="254.27" x2="264.27" y2="254.27"/><line class="cls-26" x1="301.93" y1="256.79" x2="264.27" y2="256.79"/><line class="cls-26" x1="301.93" y1="259.31" x2="264.27" y2="259.31"/><line class="cls-26" x1="301.93" y1="261.83" x2="264.27" y2="261.83"/><line class="cls-26" x1="301.93" y1="264.35" x2="264.27" y2="264.35"/><line class="cls-26" x1="301.93" y1="266.87" x2="264.27" y2="266.87"/><line class="cls-26" x1="301.93" y1="269.39" x2="264.27" y2="269.39"/><line class="cls-26" x1="301.93" y1="271.91" x2="264.27" y2="271.91"/><line class="cls-26" x1="301.93" y1="274.43" x2="264.27" y2="274.43"/><line class="cls-26" x1="301.93" y1="276.95" x2="264.27" y2="276.95"/><line class="cls-26" x1="301.93" y1="279.47" x2="264.27" y2="279.47"/><line class="cls-26" x1="301.93" y1="281.99" x2="264.27" y2="281.99"/><line class="cls-26" x1="301.93" y1="284.51" x2="264.27" y2="284.51"/><line class="cls-26" x1="301.93" y1="287.03" x2="264.27" y2="287.03"/><line class="cls-26" x1="301.93" y1="191.27" x2="264.27" y2="191.27"/><line class="cls-26" x1="301.93" y1="193.79" x2="264.27" y2="193.79"/><line class="cls-26" x1="301.93" y1="196.31" x2="264.27" y2="196.31"/><line class="cls-26" x1="301.93" y1="198.83" x2="264.27" y2="198.83"/><line class="cls-26" x1="301.93" y1="201.35" x2="264.27" y2="201.35"/><line class="cls-26" x1="301.93" y1="203.87" x2="264.27" y2="203.87"/><line class="cls-26" x1="301.93" y1="206.39" x2="264.27" y2="206.39"/><line class="cls-26" x1="301.93" y1="208.91" x2="264.27" y2="208.91"/><line class="cls-26" x1="301.93" y1="211.43" x2="264.27" y2="211.43"/><line class="cls-26" x1="301.93" y1="213.95" x2="264.27" y2="213.95"/><line class="cls-26" x1="301.93" y1="216.47" x2="264.27" y2="216.47"/><line class="cls-26" x1="301.93" y1="218.99" x2="264.27" y2="218.99"/><line class="cls-26" x1="301.93" y1="221.51" x2="264.27" y2="221.51"/><line class="cls-26" x1="301.93" y1="224.03" x2="264.27" y2="224.03"/><line class="cls-26" x1="301.93" y1="226.55" x2="264.27" y2="226.55"/><line class="cls-26" x1="301.93" y1="229.07" x2="264.27" y2="229.07"/><line class="cls-26" x1="301.93" y1="231.59" x2="264.27" y2="231.59"/><line class="cls-26" x1="301.93" y1="234.11" x2="264.27" y2="234.11"/><line class="cls-26" x1="301.93" y1="236.63" x2="264.27" y2="236.63"/><line class="cls-26" x1="296.08" y1="145.91" x2="264.27" y2="145.91"/><line class="cls-26" x1="301.93" y1="148.43" x2="264.27" y2="148.43"/><line class="cls-26" x1="281.51" y1="143.39" x2="264.27" y2="143.39"/><line class="cls-26" x1="301.93" y1="150.95" x2="264.27" y2="150.95"/><line class="cls-26" x1="301.93" y1="153.47" x2="264.27" y2="153.47"/><line class="cls-26" x1="301.93" y1="155.99" x2="264.27" y2="155.99"/><line class="cls-26" x1="301.93" y1="158.51" x2="264.27" y2="158.51"/><line class="cls-26" x1="301.93" y1="161.03" x2="264.27" y2="161.03"/><line class="cls-26" x1="301.93" y1="163.55" x2="264.27" y2="163.55"/><line class="cls-33" x1="301.93" y1="166.07" x2="264.27" y2="166.07"/><line class="cls-26" x1="301.93" y1="168.59" x2="264.27" y2="168.59"/><line class="cls-26" x1="301.93" y1="171.11" x2="264.27" y2="171.11"/><line class="cls-26" x1="301.93" y1="173.63" x2="264.27" y2="173.63"/><line class="cls-26" x1="301.93" y1="176.15" x2="264.27" y2="176.15"/><line class="cls-26" x1="301.93" y1="178.67" x2="264.27" y2="178.67"/><line class="cls-26" x1="301.93" y1="181.19" x2="264.27" y2="181.19"/><line class="cls-26" x1="301.93" y1="183.71" x2="264.27" y2="183.71"/><line class="cls-26" x1="301.93" y1="186.23" x2="264.27" y2="186.23"/><line class="cls-26" x1="301.93" y1="188.75" x2="264.27" y2="188.75"/><line class="cls-26" x1="300.81" y1="289.55" x2="264.27" y2="289.55"/><line class="cls-26" x1="298.71" y1="292.07" x2="264.27" y2="292.07"/><line class="cls-26" x1="296.19" y1="294.59" x2="264.27" y2="294.59"/><line class="cls-26" x1="294.09" y1="297.11" x2="264.27" y2="297.11"/><line class="cls-26" x1="291.15" y1="299.63" x2="264.27" y2="299.63"/><line class="cls-26" x1="288.21" y1="302.15" x2="264.27" y2="302.15"/><line class="cls-26" x1="286.11" y1="304.67" x2="264.27" y2="304.67"/><line class="cls-26" x1="283.59" y1="307.19" x2="264.27" y2="307.19"/><line class="cls-26" x1="281.07" y1="309.71" x2="264.27" y2="309.71"/><line class="cls-26" x1="278.97" y1="312.23" x2="264.27" y2="312.23"/><line class="cls-26" x1="276.45" y1="314.75" x2="264.27" y2="314.75"/><line class="cls-26" x1="273.93" y1="317.27" x2="264.27" y2="317.27"/><line class="cls-26" x1="271.41" y1="319.79" x2="264.27" y2="319.79"/><line class="cls-26" x1="268.47" y1="322.31" x2="264.27" y2="322.31"/></g><g id="Marker-3" data-name="Marker"><rect class="cls-7" x="467.55" y="77.23" width="18" height="18"/><text class="cls-34" transform="translate(472.7 90.65)">3</text></g></g></g></g></svg>