<svg xmlns="http://www.w3.org/2000/svg" viewBox="0 0 600 430"><defs><style>.cls-1,.cls-25,.cls-33{fill:#fff;}.cls-1{opacity:0.95;}.cls-2{fill:#009bf5;}.cls-3{fill:#ff6400;}.cls-4{fill:#232323;}.cls-5{fill:#7dc300;}.cls-6{fill:#463ca0;}.cls-7{fill:#b40097;}.cls-26,.cls-8{opacity:0.65;}.cls-9{fill:#737373;}.cls-10,.cls-22{font-size:11px;}.cls-10{fill:#1d1d1b;font-family:AtlasGrotesk-Regular, Atlas Grotesk;}.cls-11{letter-spacing:0em;}.cls-12{letter-spacing:0em;}.cls-13{letter-spacing:0em;}.cls-14{letter-spacing:-0.04em;}.cls-15{letter-spacing:-0.01em;}.cls-16{letter-spacing:0.01em;}.cls-17{letter-spacing:0.04em;}.cls-18{letter-spacing:0em;}.cls-19{letter-spacing:0.01em;}.cls-20{letter-spacing:0.04em;}.cls-21{letter-spacing:-0.03em;}.cls-22,.cls-33{font-family:AtlasGrotesk-Medium, Atlas Grotesk;font-weight:500;}.cls-23{letter-spacing:0em;}.cls-24{letter-spacing:0.01em;}.cls-26{fill:#b3b3b3;}.cls-27{fill:#d9d9d9;opacity:0.4;}.cls-28{fill:none;stroke:#666;stroke-miterlimit:10;stroke-width:0.3px;}.cls-29{fill:#fcfffd;}.cls-30{fill:#595959;}.cls-31,.cls-32{opacity:0.1;}.cls-33{font-size:12px;}</style></defs><title>Zeichenfläche 25</title><g id="Klein"><g id="Hu"><g id="HuHintergrund"><rect class="cls-1" width="600" height="430"/><rect class="cls-2" x="21.91" y="219.77" width="20" height="10"/><rect class="cls-3" x="21.91" y="239.77" width="20" height="10"/><rect class="cls-4" x="21.91" y="199.77" width="20" height="10"/><rect class="cls-5" x="21.91" y="259.77" width="20" height="10"/><rect class="cls-6" x="21.91" y="279.77" width="20" height="10"/><rect class="cls-7" x="21.91" y="299.77" width="20" height="10"/><g class="cls-8"><rect class="cls-9" x="21.91" y="339.77" width="20" height="10"/></g><text class="cls-10" transform="translate(50.45 208.77)">G<tspan class="cls-11" x="9.11" y="0">r</tspan><tspan class="cls-12" x="13.35" y="0">und</tspan><tspan class="cls-11" x="33.45" y="0">l</tspan><tspan class="cls-13" x="36.44" y="0">a</tspan><tspan x="42.58" y="0">g</tspan><tspan class="cls-11" x="49.28" y="0">e</tspan><tspan x="55.27" y="0">n</tspan><tspan class="cls-14" x="0" y="20">P</tspan><tspan class="cls-15" x="6.59" y="20">r</tspan><tspan class="cls-16" x="10.78" y="20">o</tspan><tspan x="17.13" y="20">duk</tspan><tspan class="cls-16" x="36.67" y="20">t</tspan><tspan x="40.78" y="20">ges</tspan><tspan class="cls-17" x="59.06" y="20">t</tspan><tspan x="63.49" y="20">al</tspan><tspan class="cls-13" x="72.62" y="20">t</tspan><tspan x="76.67" y="20">ung</tspan><tspan class="cls-15" x="0" y="40">K</tspan><tspan class="cls-18" x="7.74" y="40">ommuni</tspan><tspan class="cls-11" x="51.08" y="40">k</tspan><tspan x="57.17" y="40">a</tspan><tspan class="cls-19" x="63.25" y="40">t</tspan><tspan class="cls-18" x="67.35" y="40">ion</tspan><tspan class="cls-13" x="83.35" y="40">s</tspan><tspan x="88.93" y="40">ges</tspan><tspan class="cls-17" x="107.21" y="40">t</tspan><tspan x="111.65" y="40">al</tspan><tspan class="cls-13" x="120.78" y="40">t</tspan><tspan x="124.83" y="40">ung</tspan><tspan x="0" y="60">In</tspan><tspan class="cls-16" x="10.01" y="60">t</tspan><tspan class="cls-11" x="14.11" y="60">e</tspan><tspan class="cls-15" x="20.11" y="60">r</tspan><tspan x="24.3" y="60">ak</tspan><tspan class="cls-16" x="36.52" y="60">t</tspan><tspan x="40.62" y="60">ion</tspan><tspan class="cls-13" x="56.62" y="60">s</tspan><tspan class="cls-18" x="62.2" y="60">ges</tspan><tspan class="cls-20" x="80.49" y="60">t</tspan><tspan x="84.92" y="60">al</tspan><tspan class="cls-13" x="94.05" y="60">t</tspan><tspan x="98.1" y="60">ung</tspan><tspan x="0" y="80">In</tspan><tspan class="cls-16" x="10.01" y="80">t</tspan><tspan class="cls-11" x="14.11" y="80">e</tspan><tspan class="cls-15" x="20.11" y="80">r</tspan><tspan x="24.3" y="80">net d</tspan><tspan class="cls-11" x="50.74" y="80">e</tspan><tspan x="56.74" y="80">r Dinge</tspan><tspan x="0" y="100">S</tspan><tspan class="cls-13" x="7.85" y="100">t</tspan><tspan class="cls-15" x="11.9" y="100">r</tspan><tspan x="16.09" y="100">a</tspan><tspan class="cls-16" x="22.18" y="100">t</tspan><tspan class="cls-13" x="26.28" y="100">e</tspan><tspan x="32.38" y="100">gi</tspan><tspan class="cls-13" x="42.15" y="100">s</tspan><tspan class="cls-11" x="47.74" y="100">c</tspan><tspan x="53.58" y="100">he Ges</tspan><tspan class="cls-20" x="90" y="100">t</tspan><tspan x="94.43" y="100">al</tspan><tspan class="cls-13" x="103.56" y="100">t</tspan><tspan class="cls-12" x="107.61" y="100">ung</tspan><tspan class="cls-21" x="0" y="140">W</tspan><tspan class="cls-11" x="11.42" y="140">e</tspan><tspan x="17.41" y="140">rks</tspan><tspan class="cls-20" x="33.38" y="140">t</tspan><tspan x="37.82" y="140">ä</tspan><tspan class="cls-19" x="43.9" y="140">tt</tspan><tspan class="cls-11" x="52.11" y="140">e</tspan><tspan x="58.1" y="140">n</tspan></text><text class="cls-22" transform="translate(21.91 31.59)">G<tspan class="cls-23" x="8.98" y="0">r</tspan><tspan class="cls-18" x="13.49" y="0">undriss Un</tspan><tspan class="cls-13" x="71.57" y="0">t</tspan><tspan class="cls-11" x="75.88" y="0">e</tspan><tspan class="cls-15" x="82.24" y="0">r</tspan><tspan x="86.69" y="0">ge</tspan><tspan class="cls-24" x="100.07" y="0">s</tspan><tspan class="cls-11" x="105.88" y="0">c</tspan><tspan x="112.14" y="0">h</tspan><tspan class="cls-13" x="119.06" y="0">o</tspan><tspan x="125.73" y="0">ss</tspan></text><path class="cls-25" d="M384.55,301.56h-81.9v-131l41.73,7.39,7.07-16.4,136.84,23.71V220.5h79.8v-110h-50.4c1.35-1.69,2.94-4.27,2.94-7,0-7.48-4.72-11-8.74-12.12L514,77.1,497,54.44l-29.39-5-25,17.44L345.58,50.15l-16.14-2.77L188.11,23.1,169.93,128.87l55.52,9.54v215c-5,1.61-19.74,7.38-19.74,24.87,0,12,7.13,18.18,12.8,21.28a32,32,0,0,0,12.4,3.6l184.31,1.43V289.55l-30.66-1.43ZM301.28,165.44l.32.05-.74-.13Z"/><path class="cls-25" d="M566.27,403.2H571V288.12H508.45v15.12H445v100H566.27"/></g><g id="Rooms"><g id="HuFlur01"><rect class="cls-26" x="449.79" y="334.07" width="116.48" height="19.04"/></g><g id="HuFlur02"><polygon class="cls-26" points="297.89 311.95 297.89 306.32 297.89 301.56 297.89 227.18 277.21 227.18 277.21 311.95 281.06 311.95 281.06 314.33 277.21 314.33 277.21 355.87 338.6 355.87 338.6 354.54 410.45 354.54 410.45 334.07 310.53 334.07 310.53 331.69 312.91 331.69 312.91 331.69 321.03 331.69 321.03 306.32 300.51 306.32 300.27 306.32 300.27 332.88 297.89 332.88 297.89 314.33 294.92 314.33 294.92 311.95 297.89 311.95"/></g><g id="HuFlur03"><polygon class="cls-26" points="251.08 110.43 282.22 115.76 277.21 143.69 277.21 227.18 297.89 227.18 297.89 170.51 297.89 164.84 301.28 165.44 303.48 165.83 341.5 172.56 347.08 159.63 348.56 156.18 353.03 128.66 339.87 126.26 337.61 139.41 336.99 143.02 334.8 155.78 303.9 150.37 304.01 149.74 303.99 149.74 309.34 118.73 337.09 123.5 341.32 99.36 219.8 78.49 216.93 95.19 252.61 101.74 251.08 110.43"/></g><g id="HuMet01"><g id="HuMet01-2" data-name="HuMet01" class="cls-8"><polygon class="cls-9" points="539.11 398.43 541.49 398.43 541.49 355.49 497.71 355.49 497.73 398.43 539.11 398.43"/></g></g><g id="HuMet02"><g class="cls-8"><polygon class="cls-9" points="566.27 331.69 566.27 292.88 513.21 292.88 513.21 303.24 513.21 308 513.21 308 513.21 331.69 566.27 331.69"/></g></g><g id="HuMet03"><g class="cls-8"><rect class="cls-9" x="449.79" y="308" width="34.62" height="23.69"/></g></g><g id="HuMet04"><g class="cls-8"><rect class="cls-9" x="370.87" y="356.92" width="39.58" height="41.51"/></g></g><g id="HuMet05"><g class="cls-8"><rect class="cls-9" x="349.87" y="356.92" width="18.62" height="41.51"/></g></g><g id="HuMet06"><g class="cls-8"><polygon class="cls-9" points="338.6 356.92 338.6 355.87 277.21 355.87 277.21 356.92 265.87 356.92 265.87 398.43 347.49 398.43 347.49 356.92 338.6 356.92"/></g></g><g id="HuMet07"><g class="cls-8"><rect class="cls-9" x="230.21" y="226.97" width="44.62" height="127.57"/></g></g><g id="HuGips01"><g class="cls-8"><polygon class="cls-9" points="311.28 121.48 306.67 148.44 332.85 153.03 337.53 125.85 311.28 121.48"/></g></g><g id="HuGips02"><g class="cls-8"><polygon class="cls-9" points="230.21 134.4 243.62 136.73 249.85 103.66 216.53 97.54 215.88 101.33 215.85 101.32 210.5 131.01 226.26 133.72 230.21 134.4 230.21 134.4"/></g></g><g id="HuGips03"><g class="cls-8"><polygon class="cls-9" points="214.13 97.45 218.52 71.88 185.53 66.23 175.43 124.98 208.15 130.6 214.13 97.45"/></g></g><g id="HuGips04"><g class="cls-8"><polygon class="cls-9" points="227.33 34.67 220.21 76.14 241.91 79.86 283.26 86.97 290.39 45.5 227.33 34.67"/></g></g><g id="HuAussen"><polygon id="HuAussen-2" data-name="HuAussen" class="cls-27" points="445.03 288.12 415.21 288.12 415.21 403.19 445.03 403.19 445.03 303.24 508.45 303.24 508.45 288.12 445.03 288.12"/></g></g><g id="Grundriss"><g id="Treppe"><line class="cls-28" x1="300.07" y1="328.26" x2="320.96" y2="328.26"/><line class="cls-28" x1="300.07" y1="326.58" x2="320.96" y2="326.58"/><line class="cls-28" x1="300.07" y1="324.9" x2="320.96" y2="324.9"/><line class="cls-28" x1="300.07" y1="323.22" x2="320.96" y2="323.22"/><line class="cls-28" x1="300.07" y1="321.54" x2="320.96" y2="321.54"/><line class="cls-28" x1="300.07" y1="319.86" x2="320.96" y2="319.86"/><line class="cls-28" x1="300.07" y1="318.18" x2="320.96" y2="318.18"/><line class="cls-28" x1="300.07" y1="316.5" x2="320.96" y2="316.5"/><line class="cls-28" x1="300.07" y1="314.82" x2="320.96" y2="314.82"/><line class="cls-28" x1="300.07" y1="313.14" x2="320.96" y2="313.14"/><line class="cls-28" x1="310.53" y1="334.07" x2="310.53" y2="313.14"/><line class="cls-28" x1="327.37" y1="153.39" x2="324.1" y2="172.43"/><line class="cls-28" x1="325.71" y1="153.11" x2="322.44" y2="172.15"/><line class="cls-28" x1="324.06" y1="152.82" x2="320.79" y2="171.86"/><line class="cls-28" x1="322.4" y1="152.54" x2="319.13" y2="171.58"/><line class="cls-28" x1="320.75" y1="152.25" x2="317.48" y2="171.29"/><line class="cls-28" x1="319.09" y1="151.97" x2="315.82" y2="171.01"/><line class="cls-28" x1="317.44" y1="151.68" x2="314.16" y2="170.72"/><line class="cls-28" x1="315.78" y1="151.4" x2="312.51" y2="170.44"/><line class="cls-28" x1="314.12" y1="151.11" x2="310.85" y2="170.16"/><line class="cls-28" x1="312.47" y1="150.83" x2="309.2" y2="169.87"/><line class="cls-28" x1="310.81" y1="150.55" x2="307.54" y2="169.59"/><line class="cls-28" x1="309.16" y1="150.26" x2="305.89" y2="169.3"/><line class="cls-28" x1="307.5" y1="149.98" x2="304.23" y2="169.02"/><line class="cls-28" x1="305.85" y1="149.69" x2="302.57" y2="168.73"/><line class="cls-28" x1="304.19" y1="149.41" x2="300.92" y2="168.45"/><line class="cls-28" x1="333.56" y1="153.96" x2="350.78" y2="156.9"/><line class="cls-28" x1="334.19" y1="152.46" x2="350.75" y2="155.3"/><line class="cls-28" x1="334.48" y1="150.8" x2="351.04" y2="153.65"/><line class="cls-28" x1="334.76" y1="149.15" x2="351.32" y2="151.99"/><line class="cls-28" x1="335.05" y1="147.49" x2="351.61" y2="150.34"/><line class="cls-28" x1="335.33" y1="145.84" x2="351.89" y2="148.68"/><line class="cls-28" x1="335.62" y1="144.18" x2="352.17" y2="147.02"/><line class="cls-28" x1="335.9" y1="142.52" x2="352.46" y2="145.37"/><line class="cls-28" x1="336.19" y1="140.87" x2="352.74" y2="143.71"/><line class="cls-28" x1="336.47" y1="139.21" x2="353.03" y2="142.06"/><line class="cls-28" x1="332.34" y1="154.24" x2="329.07" y2="173.28"/><line class="cls-28" x1="330.68" y1="153.96" x2="327.41" y2="173"/><line class="cls-28" x1="329.03" y1="153.67" x2="325.75" y2="172.72"/></g><g id="Wand"><path class="cls-29" d="M563.33,115.22H507.77l6.21-7.74a7.47,7.47,0,0,0,1.89-4c0-5.27-3.3-7-5.27-7.53l-4-1.14.61-4.14L509,78.37,494.31,58.81l-25.59-4.4L445.36,70.73l-1.61,1.13-1.93-.34L351.21,56l-7.13,41.47h0l-4.64,26.49,16.61,2.85-.41,2.35-44.36-7.63-4.63,27,26.2,4.59,1.79-10.42.93.16.53-3.51,17.67,3-2.42,14.44.91.16,136.84,23.7,3.95.69v34.52h70.28Z"/><path class="cls-29" d="M563.33,115.22H507.77l6.21-7.74a7.47,7.47,0,0,0,1.89-4c0-5.27-3.3-7-5.27-7.53l-4-1.14.61-4.14L509,78.37,494.31,58.81l-25.59-4.4L445.36,70.73l-1.61,1.13-1.93-.34L351.21,56l-7.13,41.47h0l-4.64,26.49,16.61,2.85-.41,2.35-44.36-7.63-4.63,27,26.2,4.59,1.79-10.42.93.16.53-3.51,17.67,3-2.42,14.44.91.16,136.84,23.7,3.95.69v34.52h70.28Z"/><polygon class="cls-29" points="303.99 149.74 304.01 149.74 309.34 118.73 303.99 149.74"/><polygon class="cls-29" points="510.83 331.69 510.83 308 508.45 308 486.79 308 486.79 331.69 510.83 331.69"/><polygon class="cls-29" points="543.87 355.49 543.87 398.43 543.87 398.43 543.87 403.19 543.87 403.19 566.27 403.19 566.27 355.49 543.87 355.49"/><polygon class="cls-29" points="449.79 355.49 449.79 398.43 495.35 398.43 495.33 355.49 449.79 355.49"/><polygon class="cls-29" points="323.41 306.32 323.41 331.69 410.45 331.69 410.45 292.88 389.31 292.88 389.31 301.56 389.31 306.32 384.55 306.32 323.41 306.32"/><polygon class="cls-29" points="285.61 87.38 341.73 97.02 348.86 55.55 344.78 54.85 328.63 52.07 292.74 45.91 285.61 87.38"/><path class="cls-29" d="M263.49,398.43V356.92H230.2L226.9,358a28.09,28.09,0,0,0-10.05,5.51c-4.3,3.82-6.39,8.67-6.39,14.83,0,7.61,3.47,13.36,10.33,17.1a26.93,26.93,0,0,0,10.27,3Z"/><polygon class="cls-29" points="230.21 224.59 274.83 224.59 274.83 144.57 230.21 136.81 230.21 224.59"/><path class="cls-29" d="M212.89,360.67h0Z"/><path class="cls-29" d="M563.33,115.22H507.77l6.21-7.74a7.47,7.47,0,0,0,1.89-4c0-5.27-3.3-7-5.27-7.53l-4-1.14.61-4.14L509,78.37,494.31,58.81l-25.59-4.4L445.36,70.73l-1.61,1.13-1.93-.34L351.21,56l-7.13,41.47h0l-4.64,26.49,16.61,2.85-.41,2.35-44.36-7.63-4.63,27,26.2,4.59,1.79-10.42.93.16.53-3.51,17.67,3-2.42,14.44.91.16,136.84,23.7,3.95.69v34.52h70.28Z"/><path class="cls-29" d="M563.33,115.22H507.77l6.21-7.74a7.47,7.47,0,0,0,1.89-4c0-5.27-3.3-7-5.27-7.53l-4-1.14.61-4.14L509,78.37,494.31,58.81l-25.59-4.4L445.36,70.73l-1.61,1.13-1.93-.34L351.21,56l-7.13,41.47h0l-4.64,26.49,16.61,2.85-.41,2.35-44.36-7.63-4.63,27,26.2,4.59,1.79-10.42.93.16.53-3.51,17.67,3-2.42,14.44.91.16,136.84,23.7,3.95.69v34.52h70.28Z"/><polygon class="cls-29" points="303.99 149.74 304.01 149.74 309.34 118.73 303.99 149.74"/><path class="cls-29" d="M563.33,115.22H507.77l6.21-7.74a7.47,7.47,0,0,0,1.89-4c0-5.27-3.3-7-5.27-7.53l-4-1.14.61-4.14L509,78.37,494.31,58.81l-25.59-4.4L445.36,70.73l-1.61,1.13-1.93-.34L351.21,56l-7.13,41.47h0l-4.64,26.49,16.61,2.85-.41,2.35-44.36-7.63-4.63,27,26.2,4.59,1.79-10.42.93.16.53-3.51,17.67,3-2.42,14.44.91.16,136.84,23.7,3.95.69v34.52h70.28Z"/><path class="cls-29" d="M563.33,115.22H507.77l6.21-7.74a7.47,7.47,0,0,0,1.89-4c0-5.27-3.3-7-5.27-7.53l-4-1.14.61-4.14L509,78.37,494.31,58.81l-25.59-4.4L445.36,70.73l-1.61,1.13-1.93-.34L351.21,56l-7.13,41.47h0l-4.64,26.49,16.61,2.85-.41,2.35-44.36-7.63-4.63,27,26.2,4.59,1.79-10.42.93.16.53-3.51,17.67,3-2.42,14.44.91.16,136.84,23.7,3.95.69v34.52h70.28Z"/><polygon class="cls-29" points="303.99 149.74 304.01 149.74 309.34 118.73 303.99 149.74"/><polygon class="cls-29" points="210.99 68.17 210.99 68.17 218.93 69.53 224.99 34.27 191.99 28.59 185.93 63.88 210.99 68.17"/><polygon class="cls-25" points="250.67 112.77 245.97 137.14 275.08 142.2 279.4 117.69 250.67 112.77"/><g id="Wand-2" data-name="Wand"><path class="cls-30" d="M384.55,301.56h-81.9v-131l41.73,7.39,7.07-16.4,136.84,23.71V220.5h79.8v-110h-50.4c1.35-1.69,2.94-4.27,2.94-7,0-7.48-4.72-11-8.74-12.12L514,77.1,497,54.44l-29.39-5-25,17.44L345.58,50.15l-16.14-2.77L188.11,23.1,169.93,128.87l55.52,9.54v215c-5,1.61-19.74,7.38-19.74,24.87,0,12,7.13,18.18,12.8,21.28a32,32,0,0,0,12.4,3.6l184.31,1.43V288.12H384.55ZM328.63,52.07l16.15,2.78,4.08.7L341.73,97l-56.12-9.65,7.13-41.46ZM290.39,45.5,283.26,87l-41.35-7.1-21.7-3.73,7.12-41.47ZM192,28.6l33,5.66-6.06,35.27L211,68.17h0l-25.06-4.29Zm-6.46,37.63,33,5.65-4.39,25.57-6,33.15L175.43,125Zm25,64.78,5.35-29.69h0l.65-3.79,33.32,6.12-6.23,33.07-13.41-2.34h0l-4-.67Zm19.71,93.58V136.81l44.62,7.77v80ZM274.83,227V354.54H230.2V227ZM246,137.14l4.7-24.37,28.74,4.92-4.33,24.51Zm17.52,261.29H231.06a26.93,26.93,0,0,1-10.27-3c-6.86-3.74-10.33-9.49-10.33-17.1,0-6.16,2.09-11,6.39-14.83A28.09,28.09,0,0,1,226.9,358l3.3-1.06h33.29Zm105,0H349.87V356.92h18.62Zm42,0H370.87V356.92h39.58Zm0-43.89H338.6v2.38h8.89v41.51H265.87V356.92h11.34V314.33h3.85V312h-3.85V143.69l5-27.93-31.14-5.33,1.53-8.69-35.68-6.55,2.87-16.7L341.32,99.36l-4.23,24.14-27.75-4.77-5.44,31.64,30.89,5.41,5.08-29.52-2.34-.41L332.85,153l-26.2-4.6,4.63-26.95,44.36,7.63.41-2.35-16.61-2.85,4.64-26.49h0L351.21,56l90.61,15.57,1.93.34,1.61-1.13,23.36-16.32,25.59,4.4L509,78.37l-1.81,12.32-.61,4.14,4,1.14c2,.55,5.27,2.26,5.27,7.53a7.47,7.47,0,0,1-1.89,4l-2.39,3H504.5l-.89,4.76h59.72V215.73H493.05V181.21l-3.95-.69-136.84-23.7-3.7-.64-1.48,3.45-5.58,12.93-38-6.73-5.59-1V306.32h0V312h-3v2.38h3v18.55h2.38V306.32H321v25.37h-10.5v2.38h99.92Zm-21.14-53v-8.68h21.14v38.81h-87V306.32h65.9Z"/><path class="cls-30" d="M508.45,288.12v15.12H445v100h98.84v-4.77h0V355.49h22.4V403.2H571V288.12ZM486.79,308h24v23.69h-24Zm-37,0h34.62v23.69H449.79Zm0,90.43V355.49h45.54v42.94Zm91.7,0H497.73l0-42.94h43.78Zm24.78-45.32H449.79v-19H566.27Zm0-21.42H513.21V308h0V292.88h53.06Z"/><rect class="cls-30" x="480.17" y="106.46" width="5.46" height="5.46" transform="translate(293.51 566.62) rotate(-80.25)"/><polygon class="cls-30" points="465.36 103.4 463.91 103.15 472.67 52.19 470.18 51.77 461.42 102.73 459.98 102.48 459.05 107.86 464.43 108.78 465.36 103.4"/><path class="cls-30" d="M495.24,169.08l7.84-44.64-66.26-11.32,8.4-44.95-2.48-.46-8.4,45L344.08,97.42l-.41,2.35,14.17,2.42L348,159.66l2.48.43,4.24-24.68,106.67,18.32-3.84,22.35,2.43.76L464,153l4.17.71.93-5.38-4.18-.72,4.54-26.39,30.66,5.24-9.74,55.42,2.48.43,1.89-10.75h71.87v-2.52Zm-33.45-17.83-27.29-4.69.69-4-5.38-.93-.69,4-41.81-7.19.69-4-5.38-.92-.69,4-26.81-4.61,5.21-30.31L467,120.84Z"/><polygon class="cls-30" points="374.02 56.9 371.53 56.48 367.98 77.17 347.55 73.67 347.13 76.15 370.03 80.08 374.02 56.9"/></g></g><g id="Schatten"><g class="cls-31"><path d="M520.63,103.5c0,2.69-1.59,5.27-2.94,7h6.68a8,8,0,0,0,.15-1.46c0-4.91-4.1-11.86-6.64-13.8C518.32,96.52,520.63,101.78,520.63,103.5Z"/><polygon points="488.29 185.22 351.45 161.51 344.38 177.91 302.65 170.51 302.65 301.56 306.54 301.56 306.54 176.01 348.27 183.41 355.34 167.01 488.29 190.04 488.29 185.22"/><path d="M511.89,91.38a12.52,12.52,0,0,1,4.37,2.23l1.62-11L514,77.37Z"/><polygon points="568.09 110.45 568.09 220.5 488.29 220.5 492.18 226 571.98 226 571.98 115.95 568.09 110.45"/><polygon points="225.45 138.41 169.93 128.87 173.82 134.37 225.45 143.24 225.45 138.41"/><path d="M415.21,404.63,230.9,403.2a32,32,0,0,1-12.4-3.6c-2.12-1.16-7.26-6.62-9.34-8.77,2.58,5.19,9.61,12.29,13.23,14.27a32,32,0,0,0,12.4,3.6l184.31,1.43V293.62l-3.89-5.5Z"/></g><polygon class="cls-32" points="571.03 288.12 571.03 403.19 566.27 403.19 566.27 403.19 445.03 403.19 448.92 408.69 570.16 408.69 570.16 408.69 574.92 408.69 574.92 293.62 571.03 288.12"/><polygon class="cls-32" points="349.97 108.17 356.62 109.3 357.85 102.19 343.67 99.77 339.44 123.91 346.99 125.2 349.97 108.17"/><polygon class="cls-32" points="366.63 111.01 465.79 127.95 467.01 120.84 360.33 102.61 355.12 132.92 362.64 134.22 366.63 111.01"/><polygon class="cls-32" points="317.58 129.88 336.31 133.11 337.53 126 311.28 121.48 306.65 148.44 314.17 149.75 317.58 129.88"/><polygon class="cls-32" points="499.35 193.62 499.35 189.9 501.09 180 563.33 180 563.33 171.6 494.79 171.6 493.05 181.5 493.05 185.22 493.05 215.73 499.35 215.73 499.35 193.62"/><polygon class="cls-32" points="470.34 161.44 474.51 162.15 475.44 156.77 472.09 151.25 475.8 129.66 498.91 133.61 500.16 126.5 469.5 121.26 464.96 147.66 469.14 148.37 468.21 153.75 464.04 153.04 460.18 175.51 467.69 176.81 470.34 161.44"/><polygon class="cls-32" points="359.83 150.58 359.83 150.58 360.99 143.81 460.14 160.84 461.36 153.73 354.69 135.41 353.53 142.18 351.05 156.61 352.26 156.82 358.6 157.92 359.83 150.58"/><polygon class="cls-32" points="357.51 64.35 369.82 66.47 371.04 59.36 351.21 55.95 348.14 73.77 355.67 75.06 357.51 64.35"/><polygon class="cls-32" points="354.02 84.65 376.33 88.48 379.82 68.19 440.7 78.65 442.03 71.56 441.82 71.52 373.52 59.79 370.03 80.08 347.72 76.25 344.08 97.42 344.08 97.42 351.6 98.69 354.02 84.65"/><polygon class="cls-32" points="514.07 123.62 523.99 123.62 563.33 123.62 563.33 115.22 503.62 115.22 514.07 123.62"/><polygon class="cls-32" points="463.91 103.15 465.36 103.4 464.43 108.78 459.05 107.86 465.35 116.26 470.73 117.18 471.66 111.8 470.5 109.86 478.48 63.41 500.61 67.21 508.99 78.38 508.99 78.37 494.31 58.81 472.18 55.01 470.27 66.13 463.91 103.15"/><path class="cls-32" d="M513.49,96.35l-6.92-1.52,6.3,8.4,2.93.83a3,3,0,0,0,.07-.56C515.87,100.64,514.69,97.5,513.49,96.35Z"/><polygon class="cls-32" points="509.38 132.84 503.08 124.44 495.24 169.08 503.01 169.08 509.38 132.84"/><polygon class="cls-32" points="450.95 79.63 451.65 79.13 467.36 68.16 469.7 54.58 468.72 54.41 445.36 70.73 444.65 71.22 436.82 113.12 444.45 114.42 450.95 79.63"/><polygon class="cls-32" points="492.35 115.36 486.05 106.96 485.13 112.34 479.75 111.42 486.05 119.81 491.43 120.74 492.35 115.36"/><polygon class="cls-32" points="391.57 139.19 388 134.43 387.31 138.45 391.57 139.19"/><polygon class="cls-32" points="438.76 147.29 435.19 142.54 434.5 146.56 438.76 147.29"/><polygon class="cls-32" points="493.09 316.4 510.83 316.4 510.83 308 508.45 308 486.79 308 486.79 331.69 493.09 331.69 493.09 316.4"/><polygon class="cls-32" points="519.51 316.4 519.51 316.4 519.51 311.63 519.51 301.28 566.27 301.28 566.27 292.88 513.21 292.88 513.21 303.24 513.21 308 513.21 308 513.21 331.69 519.51 331.69 519.51 316.4"/><polygon class="cls-32" points="550.17 403.19 550.17 363.89 566.27 363.89 566.27 355.49 543.87 355.49 543.87 398.43 543.87 398.43 543.87 403.19 550.17 403.19"/><polygon class="cls-32" points="456.09 316.4 484.41 316.4 484.41 308 449.79 308 449.79 331.69 456.09 331.69 456.09 316.4"/><polygon class="cls-32" points="504.01 363.89 541.49 363.89 541.49 355.49 497.71 355.49 497.73 398.43 504.02 398.43 504.01 363.89"/><polygon class="cls-32" points="456.09 342.47 566.27 342.47 566.27 334.07 449.79 334.07 449.79 353.11 456.09 353.11 456.09 342.47"/><polygon class="cls-32" points="456.09 363.89 495.33 363.89 495.33 355.49 449.79 355.49 449.79 398.43 456.09 398.43 456.09 363.89"/><polygon class="cls-32" points="377.17 365.32 410.45 365.32 410.45 356.92 370.87 356.92 370.87 398.43 377.17 398.43 377.17 365.32"/><polygon class="cls-32" points="329.71 314.72 390.85 314.72 395.61 314.72 395.61 309.95 395.61 301.28 410.45 301.28 410.45 292.88 389.31 292.88 389.31 301.56 389.31 306.32 384.55 306.32 323.41 306.32 323.41 331.69 329.71 331.69 329.71 314.72"/><polygon class="cls-32" points="236.51 235.37 274.83 235.37 274.83 226.97 230.21 226.97 230.2 354.54 236.5 354.54 236.51 235.37"/><polygon class="cls-32" points="356.17 365.32 368.49 365.32 368.49 356.92 349.87 356.92 349.87 398.43 356.17 398.43 356.17 365.32"/><polygon class="cls-32" points="299.04 54.31 334.93 60.47 347.64 62.66 348.86 55.55 344.78 54.85 328.63 52.07 292.74 45.91 285.61 87.38 293.13 88.67 299.04 54.31"/><path class="cls-32" d="M216.76,386.72c0-6.16,2.09-11,6.39-14.83a28.09,28.09,0,0,1,10-5.51l3.3-1.06h27v-8.4H230.2L226.9,358a28.09,28.09,0,0,0-10.05,5.51c-4.3,3.82-6.39,8.67-6.39,14.83a18.06,18.06,0,0,0,7.4,15.22A20.45,20.45,0,0,1,216.76,386.72Z"/><polygon class="cls-32" points="233.63 43.07 289.17 52.61 290.39 45.5 227.33 34.67 220.21 76.14 227.73 77.43 233.63 43.07"/><polygon class="cls-32" points="236.51 145.21 274.83 151.88 274.83 144.57 230.21 136.81 230.21 224.59 236.51 224.59 236.51 145.21"/><polygon class="cls-32" points="226.1 86.89 340.08 106.47 341.32 99.36 219.8 78.49 216.93 95.19 224.44 96.57 226.1 86.89"/><polygon class="cls-32" points="304.19 306.32 300.27 306.32 300.27 332.88 297.89 332.88 304.19 341.28 306.57 341.28 306.57 328.26 303.52 313.14 303.52 310.52 321.03 310.52 321.03 306.32 304.19 306.32"/><polygon class="cls-32" points="316.83 342.47 410.45 342.47 410.45 334.07 310.19 334.07 316.83 342.47"/><polygon class="cls-32" points="258.91 110.14 252.61 101.74 251.08 110.43 258.63 111.72 258.91 110.14"/><polygon class="cls-32" points="283.51 322.73 287.36 322.73 287.36 320.35 283.51 314.82 283.51 152.09 288.52 124.16 282.22 115.76 277.21 143.69 277.21 311.95 281.06 311.95 281.06 314.33 277.21 314.33 277.21 355.87 283.51 355.87 283.51 322.73"/><polygon class="cls-32" points="222.15 109.72 222.18 109.73 222.83 105.94 248.53 110.66 249.85 103.66 216.53 97.54 215.88 101.33 215.85 101.32 210.5 131.01 218.08 132.31 222.15 109.72"/><polygon class="cls-32" points="256.29 124.95 256.32 124.96 256.97 121.17 278.17 124.7 279.4 117.69 250.67 112.77 250.02 116.56 249.99 116.55 245.97 137.14 253.54 138.44 256.29 124.95"/><polygon class="cls-32" points="198.29 36.99 223.77 41.37 224.99 34.27 191.99 28.59 185.93 63.88 193.45 65.17 198.29 36.99"/><polygon class="cls-32" points="191.83 74.63 217.3 78.99 218.52 71.88 185.53 66.23 175.43 124.98 182.95 126.27 191.83 74.63"/><polygon class="cls-32" points="283.51 355.87 277.21 355.87 277.21 356.92 265.87 356.92 265.87 398.43 272.17 398.43 272.17 365.32 283.51 365.32 283.51 364.27 283.51 355.87"/><polygon class="cls-32" points="347.49 365.32 347.49 356.92 338.6 356.92 344.9 365.32 347.49 365.32"/><polygon class="cls-32" points="331.57 158.71 310.2 158.77 303.9 150.37 334.8 155.78 337.61 139.41 338.79 154.85 337.94 159.99 331.57 158.71"/></g><g id="Marker"><rect class="cls-2" x="236.3" y="51.82" width="18" height="18"/><text class="cls-33" transform="translate(241.39 65.24)">4</text><rect class="cls-2" x="256.3" y="51.82" width="18" height="18"/><text class="cls-33" transform="translate(261.37 65.24)">6</text></g></g></g></g></svg>