<svg xmlns="http://www.w3.org/2000/svg" viewBox="0 0 600 430"><defs><style>.cls-1,.cls-11{fill:#fff;}.cls-1{opacity:0.95;}.cls-2{fill:#009bf5;}.cls-3{fill:#ff6400;}.cls-4{fill:#232323;}.cls-5{fill:#7dc300;}.cls-6{fill:#463ca0;}.cls-7{fill:#b40097;}.cls-12,.cls-8{opacity:0.65;}.cls-9{fill:#737373;}.cls-10{fill:#1d1d1b;}.cls-12{fill:#b3b3b3;}.cls-13{fill:#d9d9d9;opacity:0.4;}.cls-14{fill:none;stroke:#666;stroke-miterlimit:10;stroke-width:0.3px;}.cls-15{fill:#fcfffd;}.cls-16{fill:#595959;}.cls-17,.cls-18{opacity:0.1;}</style></defs><title>Zeichenfläche 25</title><g id="Klein"><g id="Hu"><g id="HuHintergrund"><rect class="cls-1" width="600" height="430"/><rect class="cls-2" x="21.91" y="219.77" width="20" height="10"/><rect class="cls-3" x="21.91" y="239.77" width="20" height="10"/><rect class="cls-4" x="21.91" y="199.77" width="20" height="10"/><rect class="cls-5" x="21.91" y="259.77" width="20" height="10"/><rect class="cls-6" x="21.91" y="279.77" width="20" height="10"/><rect class="cls-7" x="21.91" y="299.77" width="20" height="10"/><g class="cls-8"><rect class="cls-9" x="21.91" y="339.77" width="20" height="10"/></g><path class="cls-10" d="M52.27,204.63c0,2.23.95,3.48,2.66,3.48a2.33,2.33,0,0,0,2.54-2.57v-.12H55v-.9h3.43v4.25h-.89v-1.21h0a2.83,2.83,0,0,1-2.63,1.38c-2.12,0-3.7-1.38-3.7-4.34,0-2.75,1.66-4.37,3.84-4.37,1.72,0,3,.87,3.18,2.35H57.15A2,2,0,0,0,55,201C53.21,201,52.27,202.47,52.27,204.63Z"/><path class="cls-10" d="M60.59,203h.94v1.09h0a2.08,2.08,0,0,1,1.83-1.2h.1v1H63.3a1.58,1.58,0,0,0-1.72,1.72v3.16h-1Z"/><path class="cls-10" d="M65.79,206.53a2.09,2.09,0,0,0,.21,1.18,1.07,1.07,0,0,0,.89.39c1.08,0,1.59-.72,1.59-2V203h1v5.8h-1v-1h0a2,2,0,0,1-1.83,1.13,1.68,1.68,0,0,1-1.86-1.9v-4h1Z"/><path class="cls-10" d="M75.21,205.19A2,2,0,0,0,75,204a1.06,1.06,0,0,0-.91-.39,1.47,1.47,0,0,0-1.58,1.64v3.48h-1V203h.94v1h0a2,2,0,0,1,1.87-1.12,1.66,1.66,0,0,1,1.85,1.9v4h-1Z"/><path class="cls-10" d="M82.86,208.77h-.94v-1h0a2.07,2.07,0,0,1-1.83,1.1c-1.23,0-2.37-.77-2.37-3,0-2,1-3.08,2.5-3.08a1.73,1.73,0,0,1,1.66,1h0V200.1h1Zm-1-3.13c0-1.23-.65-2-1.58-2-1.11,0-1.61.88-1.61,2.24s.38,2.27,1.54,2.27a1.69,1.69,0,0,0,1.65-1.87Z"/><path class="cls-10" d="M84.93,200.1h1v8.67h-1Z"/><path class="cls-10" d="M87.7,204.55c0-1,.81-1.72,2.19-1.72S92,203.43,92,205v2.37c0,.46.1.65.53.66v.8h-.12c-.93,0-1.24-.33-1.34-1h0a1.94,1.94,0,0,1-1.86,1.08,1.61,1.61,0,0,1-1.83-1.66,1.54,1.54,0,0,1,.87-1.47,6.73,6.73,0,0,1,2.8-.47V205c0-1.05-.4-1.46-1.21-1.46a1.05,1.05,0,0,0-1.21,1Zm3.37,1.59V206a4.8,4.8,0,0,0-2.34.42.85.85,0,0,0-.32.72c0,.59.38.91,1,.91A1.68,1.68,0,0,0,91.07,206.14Z"/><path class="cls-10" d="M93.69,209.35h1c.11.49.48.81,1.43.81,1.1,0,1.65-.4,1.65-1.68v-.86h0a2.06,2.06,0,0,1-1.84,1.07c-1.21,0-2.33-.76-2.33-2.9,0-1.92,1-3,2.45-3a1.83,1.83,0,0,1,1.74,1h0V203h.94v5.65c0,1.63-1.06,2.34-2.64,2.34C95,211,93.82,210.55,93.69,209.35Zm4.06-3.8a1.71,1.71,0,0,0-1.65-1.94c-1,0-1.54.87-1.54,2.18s.36,2.15,1.58,2.15a1.68,1.68,0,0,0,1.61-1.8Z"/><path class="cls-10" d="M102.86,208.91c-1.77,0-2.62-1.29-2.62-3s.93-3.06,2.59-3.06,2.42,1.34,2.42,2.8v.51h-4c.06,1.2.55,2,1.64,2a1.2,1.2,0,0,0,1.32-.9h1A2.16,2.16,0,0,1,102.86,208.91Zm1.38-3.62c0-1-.41-1.72-1.42-1.72s-1.43.73-1.55,1.79h3Z"/><path class="cls-10" d="M110.44,205.19a2,2,0,0,0-.21-1.15,1.06,1.06,0,0,0-.91-.39,1.46,1.46,0,0,0-1.57,1.64v3.48h-1V203h.93v1h0a2,2,0,0,1,1.87-1.12,1.66,1.66,0,0,1,1.85,1.9v4h-1Z"/><path class="cls-10" d="M52.61,225.55v3.22h-1v-8.42h2.53c1.63,0,2.9.77,2.9,2.59s-1.26,2.61-3,2.61Zm1.42-.82c1.23,0,1.93-.6,1.93-1.79s-.7-1.76-1.89-1.76H52.61v3.55Z"/><path class="cls-10" d="M58.07,223H59v1.09h0a2.08,2.08,0,0,1,1.83-1.2H61v1h-.18a1.58,1.58,0,0,0-1.72,1.72v3.16h-1Z"/><path class="cls-10" d="M61.74,225.86c0-1.79,1-3,2.61-3s2.59,1.24,2.59,3-1,3-2.61,3S61.74,227.68,61.74,225.86Zm1,0c0,1.42.47,2.28,1.59,2.28s1.55-.86,1.55-2.28-.46-2.27-1.57-2.27S62.77,224.45,62.77,225.86Z"/><path class="cls-10" d="M73.26,228.77h-.94v-1h0a2,2,0,0,1-1.82,1.1c-1.23,0-2.37-.77-2.37-3,0-2,1-3.08,2.5-3.08a1.73,1.73,0,0,1,1.66,1h0V220.1h1Zm-1-3.13c0-1.23-.64-2-1.57-2-1.11,0-1.62.88-1.62,2.24s.39,2.27,1.54,2.27a1.69,1.69,0,0,0,1.65-1.87Z"/><path class="cls-10" d="M76.29,226.53a2.09,2.09,0,0,0,.21,1.18,1,1,0,0,0,.89.39c1.08,0,1.58-.72,1.58-2V223h1v5.8H79v-1h0a2,2,0,0,1-1.82,1.13,1.68,1.68,0,0,1-1.86-1.9v-4h1Z"/><path class="cls-10" d="M83,228.77H82V220.1h1v5.66L85.43,223h1.15l-1.93,2.18,2.17,3.62H85.67L84,225.91,83,227Z"/><path class="cls-10" d="M89.38,221.29V223h1.43v.76H89.38v3.42c0,.62.25.86.88.86a4.52,4.52,0,0,0,.64-.06v.84a7.08,7.08,0,0,1-.92.06c-1.13,0-1.58-.55-1.58-1.54v-3.58H87.34V223h.18c.78,0,1-.19,1-1.3v-.41Z"/><path class="cls-10" d="M91.88,229.35h1c.11.49.49.81,1.43.81,1.1,0,1.65-.4,1.65-1.68v-.86h0a2.09,2.09,0,0,1-1.85,1.07c-1.21,0-2.32-.76-2.32-2.9,0-1.92,1-3,2.44-3a1.81,1.81,0,0,1,1.74,1h0V223h1v5.65c0,1.63-1.07,2.34-2.64,2.34C93.15,231,92,230.55,91.88,229.35Zm4.06-3.8a1.71,1.71,0,0,0-1.65-1.94c-1,0-1.54.87-1.54,2.18s.37,2.15,1.59,2.15a1.68,1.68,0,0,0,1.6-1.8Z"/><path class="cls-10" d="M101.06,228.91c-1.77,0-2.62-1.29-2.62-3s.92-3.06,2.59-3.06,2.42,1.34,2.42,2.8v.51h-4c.07,1.2.55,2,1.64,2a1.2,1.2,0,0,0,1.32-.9h1A2.17,2.17,0,0,1,101.06,228.91Zm1.37-3.62c0-1-.4-1.72-1.41-1.72s-1.44.73-1.56,1.79h3Z"/><path class="cls-10" d="M107.87,224.42c-.06-.52-.47-.85-1.16-.85a1,1,0,0,0-1.13.94c0,.47.29.69.87.79l.89.13c1.21.19,1.65.69,1.65,1.69,0,1.16-.95,1.79-2.27,1.79s-2.19-.54-2.26-1.78h1c0,.45.29,1,1.32,1,.79,0,1.28-.37,1.28-1,0-.46-.12-.71-.91-.85l-.89-.13c-1-.16-1.59-.59-1.59-1.6s.79-1.76,2.11-1.76,2,.58,2.06,1.59Z"/><path class="cls-10" d="M111.76,221.29V223h1.43v.76h-1.43v3.42c0,.62.25.86.88.86a4.33,4.33,0,0,0,.64-.06v.84a7,7,0,0,1-.91.06c-1.14,0-1.59-.55-1.59-1.54v-3.58h-1V223h.17c.78,0,1-.19,1-1.3v-.41Z"/><path class="cls-10" d="M114.75,224.55c0-1,.81-1.72,2.19-1.72s2.15.6,2.15,2.15v2.37c0,.46.1.65.53.66v.8h-.13c-.92,0-1.23-.33-1.33-1h0a1.94,1.94,0,0,1-1.86,1.08,1.61,1.61,0,0,1-1.83-1.66,1.55,1.55,0,0,1,.86-1.47,6.82,6.82,0,0,1,2.81-.47V225c0-1.05-.4-1.46-1.21-1.46a1.05,1.05,0,0,0-1.21,1Zm3.37,1.59V226a4.8,4.8,0,0,0-2.34.42.85.85,0,0,0-.32.72c0,.59.38.91,1,.91A1.68,1.68,0,0,0,118.12,226.14Z"/><path class="cls-10" d="M121.06,220.1h1v8.67h-1Z"/><path class="cls-10" d="M125.32,221.29V223h1.43v.76h-1.43v3.42c0,.62.26.86.88.86a4.33,4.33,0,0,0,.64-.06v.84a6.82,6.82,0,0,1-.91.06c-1.13,0-1.58-.55-1.58-1.54v-3.58h-1.06V223h.18c.78,0,1-.19,1-1.3v-.41Z"/><path class="cls-10" d="M129.11,226.53a2.09,2.09,0,0,0,.21,1.18,1.06,1.06,0,0,0,.89.39c1.08,0,1.58-.72,1.58-2V223h1v5.8h-.94v-1h0a2,2,0,0,1-1.82,1.13,1.68,1.68,0,0,1-1.86-1.9v-4h1Z"/><path class="cls-10" d="M138.52,225.19a2.07,2.07,0,0,0-.2-1.15,1.06,1.06,0,0,0-.92-.39,1.46,1.46,0,0,0-1.57,1.64v3.48h-1V223h.93v1h0a2,2,0,0,1,1.87-1.12,1.65,1.65,0,0,1,1.84,1.9v4h-1Z"/><path class="cls-10" d="M141.15,229.35h1c.11.49.48.81,1.43.81,1.1,0,1.65-.4,1.65-1.68v-.86h0a2.09,2.09,0,0,1-1.85,1.07c-1.21,0-2.32-.76-2.32-2.9,0-1.92,1-3,2.44-3a1.81,1.81,0,0,1,1.74,1h0V223h.95v5.65c0,1.63-1.07,2.34-2.64,2.34C142.42,231,141.28,230.55,141.15,229.35Zm4.06-3.8a1.71,1.71,0,0,0-1.65-1.94c-1,0-1.54.87-1.54,2.18s.36,2.15,1.59,2.15a1.68,1.68,0,0,0,1.6-1.8Z"/><path class="cls-10" d="M52.61,248.77h-1v-8.42h1v4.32l3.94-4.32h1.24l-3.24,3.53L58,248.77H56.78l-2.93-4.12L52.61,246Z"/><path class="cls-10" d="M58.71,245.86c0-1.79,1-3,2.61-3s2.58,1.24,2.58,3-1,3-2.61,3S58.71,247.68,58.71,245.86Zm1,0c0,1.42.48,2.28,1.6,2.28s1.55-.86,1.55-2.28-.46-2.27-1.57-2.27S59.73,244.45,59.73,245.86Z"/><path class="cls-10" d="M65.46,243h.94v1h0a2,2,0,0,1,1.86-1.12A1.63,1.63,0,0,1,70,244h0a2,2,0,0,1,1.89-1.2,1.66,1.66,0,0,1,1.84,1.9v4h-1v-3.59a2,2,0,0,0-.21-1.15,1,1,0,0,0-.9-.38,1.46,1.46,0,0,0-1.56,1.64v3.48h-1v-3.59a2,2,0,0,0-.21-1.14,1,1,0,0,0-.9-.39,1.46,1.46,0,0,0-1.57,1.62v3.5h-1Z"/><path class="cls-10" d="M75.79,243h.94v1h0a2,2,0,0,1,1.86-1.12,1.63,1.63,0,0,1,1.75,1.2h0a2,2,0,0,1,1.89-1.2,1.66,1.66,0,0,1,1.84,1.9v4h-1v-3.59a2,2,0,0,0-.21-1.15,1,1,0,0,0-.9-.38,1.46,1.46,0,0,0-1.56,1.64v3.48h-1v-3.59a2.05,2.05,0,0,0-.2-1.14,1,1,0,0,0-.91-.39,1.46,1.46,0,0,0-1.56,1.62v3.5h-1Z"/><path class="cls-10" d="M87.08,246.53a2.09,2.09,0,0,0,.21,1.18,1.06,1.06,0,0,0,.89.39c1.08,0,1.58-.72,1.58-2V243h1v5.8h-.94v-1h0A2,2,0,0,1,88,248.91,1.68,1.68,0,0,1,86.1,247v-4h1Z"/><path class="cls-10" d="M96.49,245.19a2,2,0,0,0-.21-1.15,1,1,0,0,0-.91-.39,1.46,1.46,0,0,0-1.57,1.64v3.48h-1V243h.93v1h0a2,2,0,0,1,1.87-1.12,1.65,1.65,0,0,1,1.84,1.9v4h-1Z"/><path class="cls-10" d="M99.47,240.58h1v1.07h-1Zm0,2.39h1v5.8h-1Z"/><path class="cls-10" d="M103.56,248.77h-1V240.1h1v5.66L106,243h1.15l-1.94,2.18,2.18,3.62h-1.15l-1.7-2.86-1,1.09Z"/><path class="cls-10" d="M108.43,244.55c0-1,.8-1.72,2.19-1.72s2.14.6,2.14,2.15v2.37c0,.46.1.65.53.66v.8h-.12c-.92,0-1.23-.33-1.33-1h0a1.94,1.94,0,0,1-1.86,1.08,1.61,1.61,0,0,1-1.84-1.66,1.56,1.56,0,0,1,.87-1.47,6.77,6.77,0,0,1,2.8-.47V245c0-1.05-.39-1.46-1.21-1.46a1.07,1.07,0,0,0-1.21,1Zm3.36,1.59V246a4.8,4.8,0,0,0-2.34.42.85.85,0,0,0-.32.72c0,.59.39.91,1,.91A1.68,1.68,0,0,0,111.79,246.14Z"/><path class="cls-10" d="M116,241.29V243h1.43v.76H116v3.42c0,.62.26.86.88.86a4.33,4.33,0,0,0,.64-.06v.84a7,7,0,0,1-.91.06c-1.14,0-1.59-.55-1.59-1.54v-3.58h-1V243h.17c.78,0,1-.19,1-1.3v-.41Z"/><path class="cls-10" d="M118.81,240.58h1v1.07h-1Zm0,2.39h1v5.8h-1Z"/><path class="cls-10" d="M121.39,245.86c0-1.79,1-3,2.6-3s2.59,1.24,2.59,3-1,3-2.61,3S121.39,247.68,121.39,245.86Zm1,0c0,1.42.47,2.28,1.59,2.28s1.56-.86,1.56-2.28-.47-2.27-1.58-2.27S122.41,244.45,122.41,245.86Z"/><path class="cls-10" d="M131.83,245.19a2,2,0,0,0-.21-1.15,1.06,1.06,0,0,0-.92-.39,1.47,1.47,0,0,0-1.57,1.64v3.48h-1V243h.94v1h0a2,2,0,0,1,1.87-1.12,1.66,1.66,0,0,1,1.85,1.9v4h-1Z"/><path class="cls-10" d="M137.69,244.42c-.06-.52-.47-.85-1.16-.85a1,1,0,0,0-1.13.94c0,.47.29.69.87.79l.89.13c1.21.19,1.65.69,1.65,1.69,0,1.16-.95,1.79-2.27,1.79s-2.18-.54-2.26-1.78h1c0,.45.29,1,1.32,1,.79,0,1.28-.37,1.28-1,0-.46-.12-.71-.91-.85l-.89-.13c-1-.16-1.59-.59-1.59-1.6s.79-1.76,2.11-1.76,2,.58,2.06,1.59Z"/><path class="cls-10" d="M140,249.35h1c.11.49.48.81,1.43.81s1.65-.4,1.65-1.68v-.86h0a2.09,2.09,0,0,1-1.85,1.07c-1.21,0-2.32-.76-2.32-2.9,0-1.92,1-3,2.44-3a1.81,1.81,0,0,1,1.74,1h0V243h1v5.65c0,1.63-1.07,2.34-2.64,2.34C141.31,251,140.17,250.55,140,249.35Zm4.06-3.8a1.71,1.71,0,0,0-1.65-1.94c-1,0-1.54.87-1.54,2.18s.36,2.15,1.58,2.15a1.68,1.68,0,0,0,1.61-1.8Z"/><path class="cls-10" d="M149.22,248.91c-1.77,0-2.62-1.29-2.62-3s.92-3.06,2.58-3.06,2.42,1.34,2.42,2.8v.51h-4c.07,1.2.55,2,1.64,2a1.2,1.2,0,0,0,1.32-.9h1A2.17,2.17,0,0,1,149.22,248.91Zm1.37-3.62c0-1-.41-1.72-1.42-1.72s-1.43.73-1.55,1.79h3Z"/><path class="cls-10" d="M156,244.42c-.06-.52-.48-.85-1.16-.85a1,1,0,0,0-1.13.94c0,.47.28.69.87.79l.89.13c1.21.19,1.65.69,1.65,1.69,0,1.16-1,1.79-2.27,1.79s-2.19-.54-2.27-1.78h1c0,.45.3,1,1.32,1,.8,0,1.29-.37,1.29-1,0-.46-.12-.71-.91-.85l-.89-.13c-1-.16-1.59-.59-1.59-1.6s.78-1.76,2.1-1.76,2,.58,2.07,1.59Z"/><path class="cls-10" d="M159.92,241.29V243h1.43v.76h-1.43v3.42c0,.62.25.86.88.86a4.33,4.33,0,0,0,.64-.06v.84a7.08,7.08,0,0,1-.92.06c-1.13,0-1.58-.55-1.58-1.54v-3.58h-1.06V243h.18c.78,0,1-.19,1-1.3v-.41Z"/><path class="cls-10" d="M162.91,244.55c0-1,.8-1.72,2.19-1.72s2.14.6,2.14,2.15v2.37c0,.46.1.65.53.66v.8h-.12c-.92,0-1.23-.33-1.33-1h0a1.94,1.94,0,0,1-1.86,1.08,1.61,1.61,0,0,1-1.84-1.66,1.56,1.56,0,0,1,.87-1.47,6.82,6.82,0,0,1,2.81-.47V245c0-1.05-.4-1.46-1.21-1.46a1.05,1.05,0,0,0-1.21,1Zm3.37,1.59V246a4.85,4.85,0,0,0-2.35.42.85.85,0,0,0-.32.72c0,.59.39.91,1,.91A1.69,1.69,0,0,0,166.28,246.14Z"/><path class="cls-10" d="M169.21,240.1h1v8.67h-1Z"/><path class="cls-10" d="M173.48,241.29V243h1.43v.76h-1.43v3.42c0,.62.26.86.88.86A4.33,4.33,0,0,0,175,248v.84a7,7,0,0,1-.91.06c-1.14,0-1.59-.55-1.59-1.54v-3.58h-1.05V243h.17c.78,0,1-.19,1-1.3v-.41Z"/><path class="cls-10" d="M177.27,246.53a2.18,2.18,0,0,0,.2,1.18,1.08,1.08,0,0,0,.9.39c1.07,0,1.58-.72,1.58-2V243h1v5.8H180v-1h0a2,2,0,0,1-1.82,1.13,1.67,1.67,0,0,1-1.86-1.9v-4h1Z"/><path class="cls-10" d="M186.68,245.19a2,2,0,0,0-.21-1.15,1.06,1.06,0,0,0-.91-.39,1.46,1.46,0,0,0-1.57,1.64v3.48h-1V243h.93v1h0a2,2,0,0,1,1.87-1.12,1.66,1.66,0,0,1,1.85,1.9v4h-1Z"/><path class="cls-10" d="M189.31,249.35h1c.11.49.48.81,1.43.81,1.1,0,1.65-.4,1.65-1.68v-.86h0a2.09,2.09,0,0,1-1.85,1.07c-1.21,0-2.32-.76-2.32-2.9,0-1.92,1-3,2.44-3a1.82,1.82,0,0,1,1.74,1h0V243h.95v5.65c0,1.63-1.07,2.34-2.65,2.34C190.57,251,189.44,250.55,189.31,249.35Zm4.06-3.8a1.71,1.71,0,0,0-1.65-1.94c-1.05,0-1.54.87-1.54,2.18s.36,2.15,1.58,2.15a1.68,1.68,0,0,0,1.61-1.8Z"/><path class="cls-10" d="M51.59,260.35h1v8.42h-1Z"/><path class="cls-10" d="M58.49,265.19a2,2,0,0,0-.21-1.15,1.06,1.06,0,0,0-.91-.39,1.47,1.47,0,0,0-1.58,1.64v3.48h-1V263h.94v1h0a2,2,0,0,1,1.87-1.12,1.66,1.66,0,0,1,1.85,1.9v4h-1Z"/><path class="cls-10" d="M62.71,261.29V263h1.43v.76H62.71v3.42c0,.62.26.86.88.86a4.33,4.33,0,0,0,.64-.06v.84a7,7,0,0,1-.91.06c-1.13,0-1.59-.55-1.59-1.54v-3.58h-1V263h.17c.78,0,1-.19,1-1.3v-.41Z"/><path class="cls-10" d="M67.7,268.91c-1.78,0-2.62-1.29-2.62-3s.92-3.06,2.58-3.06,2.42,1.34,2.42,2.8v.51h-4c.07,1.2.55,2,1.64,2a1.2,1.2,0,0,0,1.32-.9h1A2.17,2.17,0,0,1,67.7,268.91Zm1.37-3.62c0-1-.41-1.72-1.42-1.72s-1.43.73-1.55,1.79h3Z"/><path class="cls-10" d="M71.59,263h.94v1.09h0a2.08,2.08,0,0,1,1.83-1.2h.1v1H74.3a1.58,1.58,0,0,0-1.72,1.72v3.16h-1Z"/><path class="cls-10" d="M75.56,264.55c0-1,.8-1.72,2.19-1.72s2.15.6,2.15,2.15v2.37c0,.46.09.65.52.66v.8H80.3c-.92,0-1.23-.33-1.33-1h0a1.94,1.94,0,0,1-1.86,1.08,1.62,1.62,0,0,1-1.84-1.66,1.56,1.56,0,0,1,.87-1.47,6.82,6.82,0,0,1,2.81-.47V265c0-1-.4-1.46-1.21-1.46a1.05,1.05,0,0,0-1.21,1Zm3.37,1.59V266a4.85,4.85,0,0,0-2.35.42.84.84,0,0,0-.31.72c0,.59.38.91,1,.91A1.69,1.69,0,0,0,78.93,266.14Z"/><path class="cls-10" d="M82.85,268.77h-1V260.1h1v5.66L85.27,263h1.16l-1.94,2.18,2.18,3.62H85.52l-1.7-2.86-1,1.09Z"/><path class="cls-10" d="M89.22,261.29V263h1.43v.76H89.22v3.42c0,.62.26.86.88.86a4.33,4.33,0,0,0,.64-.06v.84a7,7,0,0,1-.91.06c-1.13,0-1.59-.55-1.59-1.54v-3.58h-1V263h.17c.78,0,1-.19,1-1.3v-.41Z"/><path class="cls-10" d="M92.08,260.58h1v1.07h-1Zm0,2.39h1v5.8h-1Z"/><path class="cls-10" d="M94.66,265.86c0-1.79,1-3,2.6-3s2.59,1.24,2.59,3-1,3.05-2.61,3.05S94.66,267.68,94.66,265.86Zm1,0c0,1.42.47,2.28,1.6,2.28s1.55-.86,1.55-2.28-.47-2.27-1.58-2.27S95.68,264.45,95.68,265.86Z"/><path class="cls-10" d="M105.1,265.19a2,2,0,0,0-.21-1.15,1.06,1.06,0,0,0-.92-.39,1.47,1.47,0,0,0-1.57,1.64v3.48h-1V263h.94v1h0a2,2,0,0,1,1.87-1.12,1.66,1.66,0,0,1,1.85,1.9v4h-1Z"/><path class="cls-10" d="M111,264.42c-.06-.52-.47-.85-1.16-.85a1,1,0,0,0-1.13.94c0,.47.29.69.87.79l.89.13c1.21.19,1.65.69,1.65,1.69,0,1.16-1,1.79-2.27,1.79s-2.18-.54-2.26-1.78h1c0,.45.29,1,1.32,1,.79,0,1.28-.37,1.28-1s-.12-.71-.91-.85l-.89-.13c-1-.16-1.58-.59-1.58-1.6s.78-1.76,2.1-1.76,2,.58,2.06,1.59Z"/><path class="cls-10" d="M113.31,269.35h1c.11.49.48.81,1.43.81s1.65-.4,1.65-1.68v-.86h0a2.09,2.09,0,0,1-1.85,1.07c-1.21,0-2.32-.76-2.32-2.9,0-1.92,1-3,2.44-3a1.81,1.81,0,0,1,1.74,1.05h0V263h.95v5.65c0,1.63-1.07,2.34-2.64,2.34C114.58,271,113.44,270.55,113.31,269.35Zm4.06-3.8a1.71,1.71,0,0,0-1.65-1.94c-1,0-1.54.87-1.54,2.18s.36,2.15,1.59,2.15a1.68,1.68,0,0,0,1.6-1.8Z"/><path class="cls-10" d="M122.49,268.91c-1.78,0-2.62-1.29-2.62-3s.92-3.06,2.58-3.06,2.42,1.34,2.42,2.8v.51h-4c.07,1.2.55,2,1.64,2a1.2,1.2,0,0,0,1.32-.9h1A2.17,2.17,0,0,1,122.49,268.91Zm1.37-3.62c0-1-.41-1.72-1.42-1.72s-1.43.73-1.55,1.79h3Z"/><path class="cls-10" d="M129.29,264.42c0-.52-.47-.85-1.15-.85a1,1,0,0,0-1.13.94c0,.47.28.69.87.79l.89.13c1.21.19,1.65.69,1.65,1.69,0,1.16-.95,1.79-2.27,1.79s-2.19-.54-2.27-1.78h1c.05.45.3,1,1.32,1,.79,0,1.29-.37,1.29-1s-.12-.71-.91-.85l-.9-.13c-1-.16-1.58-.59-1.58-1.6s.78-1.76,2.1-1.76,2,.58,2.07,1.59Z"/><path class="cls-10" d="M133.19,261.29V263h1.43v.76h-1.43v3.42c0,.62.25.86.88.86a4.33,4.33,0,0,0,.64-.06v.84a7.08,7.08,0,0,1-.92.06c-1.13,0-1.58-.55-1.58-1.54v-3.58h-1.06V263h.18c.78,0,1-.19,1-1.3v-.41Z"/><path class="cls-10" d="M136.18,264.55c0-1,.8-1.72,2.19-1.72s2.14.6,2.14,2.15v2.37c0,.46.1.65.53.66v.8h-.12c-.92,0-1.23-.33-1.33-1h0a1.94,1.94,0,0,1-1.86,1.08,1.61,1.61,0,0,1-1.84-1.66,1.56,1.56,0,0,1,.87-1.47,6.82,6.82,0,0,1,2.81-.47V265c0-1-.4-1.46-1.21-1.46a1.05,1.05,0,0,0-1.21,1Zm3.37,1.59V266a4.85,4.85,0,0,0-2.35.42.85.85,0,0,0-.32.72c0,.59.39.91,1,.91A1.69,1.69,0,0,0,139.55,266.14Z"/><path class="cls-10" d="M142.48,260.1h1v8.67h-1Z"/><path class="cls-10" d="M146.75,261.29V263h1.43v.76h-1.43v3.42c0,.62.25.86.88.86a4.33,4.33,0,0,0,.64-.06v.84a7,7,0,0,1-.91.06c-1.14,0-1.59-.55-1.59-1.54v-3.58h-1.05V263h.17c.78,0,1-.19,1-1.3v-.41Z"/><path class="cls-10" d="M150.53,266.53a2.09,2.09,0,0,0,.21,1.18,1.08,1.08,0,0,0,.9.39c1.07,0,1.58-.72,1.58-2V263h1v5.8h-1v-1h0a2,2,0,0,1-1.83,1.13,1.67,1.67,0,0,1-1.85-1.9v-4h1Z"/><path class="cls-10" d="M160,265.19a2,2,0,0,0-.21-1.15,1.06,1.06,0,0,0-.91-.39,1.46,1.46,0,0,0-1.57,1.64v3.48h-1V263h.93v1h0a2,2,0,0,1,1.87-1.12,1.66,1.66,0,0,1,1.85,1.9v4h-1Z"/><path class="cls-10" d="M162.58,269.35h1c.11.49.48.81,1.43.81,1.1,0,1.65-.4,1.65-1.68v-.86h0a2.09,2.09,0,0,1-1.85,1.07c-1.21,0-2.32-.76-2.32-2.9,0-1.92,1-3,2.44-3a1.82,1.82,0,0,1,1.74,1.05h0V263h1v5.65c0,1.63-1.07,2.34-2.64,2.34C163.84,271,162.71,270.55,162.58,269.35Zm4.06-3.8a1.71,1.71,0,0,0-1.65-1.94c-1.05,0-1.54.87-1.54,2.18s.36,2.15,1.58,2.15a1.68,1.68,0,0,0,1.61-1.8Z"/><path class="cls-10" d="M51.59,280.35h1v8.42h-1Z"/><path class="cls-10" d="M58.49,285.19a2,2,0,0,0-.21-1.15,1.06,1.06,0,0,0-.91-.39,1.47,1.47,0,0,0-1.58,1.64v3.48h-1V283h.94v1h0a2,2,0,0,1,1.87-1.12,1.66,1.66,0,0,1,1.85,1.9v4h-1Z"/><path class="cls-10" d="M62.71,281.29V283h1.43v.76H62.71v3.42c0,.62.26.86.88.86a4.33,4.33,0,0,0,.64-.06v.84a7,7,0,0,1-.91.06c-1.13,0-1.59-.55-1.59-1.54v-3.58h-1V283h.17c.78,0,1-.19,1-1.3v-.41Z"/><path class="cls-10" d="M67.7,288.91c-1.78,0-2.62-1.29-2.62-3s.92-3.06,2.58-3.06,2.42,1.34,2.42,2.8v.51h-4c.07,1.2.55,2,1.64,2a1.2,1.2,0,0,0,1.32-.9h1A2.17,2.17,0,0,1,67.7,288.91Zm1.37-3.62c0-1-.41-1.72-1.42-1.72s-1.43.73-1.55,1.79h3Z"/><path class="cls-10" d="M71.59,283h.94v1.09h0a2.08,2.08,0,0,1,1.83-1.2h.1v1H74.3a1.58,1.58,0,0,0-1.72,1.72v3.16h-1Z"/><path class="cls-10" d="M79.47,285.19a2,2,0,0,0-.21-1.15,1.06,1.06,0,0,0-.92-.39,1.47,1.47,0,0,0-1.57,1.64v3.48h-1V283h.94v1h0a2,2,0,0,1,1.87-1.12,1.66,1.66,0,0,1,1.85,1.9v4h-1Z"/><path class="cls-10" d="M84.57,288.91c-1.77,0-2.62-1.29-2.62-3s.93-3.06,2.59-3.06,2.42,1.34,2.42,2.8v.51H83c.07,1.2.55,2,1.64,2a1.2,1.2,0,0,0,1.32-.9h1A2.17,2.17,0,0,1,84.57,288.91ZM86,285.29c0-1-.41-1.72-1.42-1.72s-1.43.73-1.56,1.79h3Z"/><path class="cls-10" d="M89.74,281.29V283h1.43v.76H89.74v3.42c0,.62.25.86.88.86a4.33,4.33,0,0,0,.64-.06v.84a7.08,7.08,0,0,1-.92.06c-1.13,0-1.58-.55-1.58-1.54v-3.58H87.7V283h.18c.78,0,1-.19,1-1.3v-.41Z"/><path class="cls-10" d="M100.16,288.77h-1v-1h0a2.07,2.07,0,0,1-1.83,1.1c-1.23,0-2.36-.77-2.36-3,0-2,1-3.08,2.49-3.08a1.73,1.73,0,0,1,1.66,1h0V280.1h1Zm-1-3.13c0-1.23-.65-2-1.58-2-1.11,0-1.61.88-1.61,2.24s.38,2.27,1.54,2.27a1.69,1.69,0,0,0,1.65-1.87Z"/><path class="cls-10" d="M104.33,288.91c-1.78,0-2.62-1.29-2.62-3s.92-3.06,2.58-3.06,2.42,1.34,2.42,2.8v.51h-4c.07,1.2.55,2,1.64,2a1.2,1.2,0,0,0,1.32-.9h1A2.17,2.17,0,0,1,104.33,288.91Zm1.37-3.62c0-1-.41-1.72-1.42-1.72s-1.43.73-1.55,1.79h3Z"/><path class="cls-10" d="M108.22,283h.93v1.09h0a2.08,2.08,0,0,1,1.83-1.2h.1v1h-.18a1.58,1.58,0,0,0-1.72,1.72v3.16h-1Z"/><path class="cls-10" d="M115.62,280.35h2.59c2.3,0,4.07,1.12,4.07,4.1s-1.65,4.32-4,4.32h-2.71Zm2.59,7.54c1.78,0,3-.93,3-3.4s-1.24-3.26-2.94-3.26h-1.63v6.66Z"/><path class="cls-10" d="M124,280.58h1v1.07h-1Zm0,2.39h1v5.8h-1Z"/><path class="cls-10" d="M130.8,285.19a2,2,0,0,0-.21-1.15,1,1,0,0,0-.91-.39,1.46,1.46,0,0,0-1.57,1.64v3.48h-1V283h.93v1h0a2,2,0,0,1,1.87-1.12,1.66,1.66,0,0,1,1.85,1.9v4h-1Z"/><path class="cls-10" d="M133.43,289.35h1c.11.49.48.81,1.43.81,1.1,0,1.65-.4,1.65-1.68v-.86h0a2.09,2.09,0,0,1-1.85,1.07c-1.21,0-2.32-.76-2.32-2.9,0-1.92,1-3,2.44-3a1.82,1.82,0,0,1,1.74,1.05h0V283h.95v5.65c0,1.63-1.07,2.34-2.64,2.34C134.7,291,133.56,290.55,133.43,289.35Zm4.06-3.8a1.71,1.71,0,0,0-1.65-1.94c-1.05,0-1.54.87-1.54,2.18s.36,2.15,1.58,2.15a1.68,1.68,0,0,0,1.61-1.8Z"/><path class="cls-10" d="M142.61,288.91c-1.78,0-2.62-1.29-2.62-3s.92-3.06,2.58-3.06,2.42,1.34,2.42,2.8v.51h-4c.07,1.2.55,2,1.64,2a1.2,1.2,0,0,0,1.32-.9h.95A2.15,2.15,0,0,1,142.61,288.91Zm1.37-3.62c0-1-.41-1.72-1.42-1.72s-1.43.73-1.55,1.79h3Z"/><path class="cls-10" d="M56.19,302.61A1.62,1.62,0,0,0,54.44,301c-1.14,0-1.76.65-1.76,1.46s.42,1.21,1.41,1.39l1.19.21c1.64.3,2.21,1.1,2.21,2.3,0,1.54-1.05,2.53-3.06,2.53s-3.06-1-3.15-2.53h1.07a1.92,1.92,0,0,0,2.1,1.71c1.5,0,2-.73,2-1.62,0-.73-.39-1.23-1.43-1.41l-1.17-.21c-1.65-.31-2.24-1.19-2.24-2.29,0-1.36,1.13-2.35,2.85-2.35s2.71.95,2.79,2.38Z"/><path class="cls-10" d="M60.56,301.29V303H62v.76H60.56v3.42c0,.62.25.86.88.86a4.29,4.29,0,0,0,.63-.06v.84a6.82,6.82,0,0,1-.91.06c-1.13,0-1.58-.55-1.58-1.54v-3.58H58.52V303h.18c.78,0,.95-.19.95-1.3v-.41Z"/><path class="cls-10" d="M63.38,303h.94v1.09h0a2.08,2.08,0,0,1,1.84-1.2h.1v1h-.19a1.58,1.58,0,0,0-1.72,1.72v3.16h-1Z"/><path class="cls-10" d="M67.36,304.55c0-1,.8-1.72,2.18-1.72s2.15.6,2.15,2.15v2.37c0,.46.1.65.53.66v.8H72.1c-.93,0-1.24-.33-1.33-1h0a1.93,1.93,0,0,1-1.86,1.08,1.61,1.61,0,0,1-1.83-1.66,1.54,1.54,0,0,1,.87-1.47,6.73,6.73,0,0,1,2.8-.47V305c0-1-.4-1.46-1.21-1.46a1.05,1.05,0,0,0-1.21,1Zm3.36,1.59V306a4.8,4.8,0,0,0-2.34.42.85.85,0,0,0-.32.72c0,.59.38.91,1,.91A1.68,1.68,0,0,0,70.72,306.14Z"/><path class="cls-10" d="M74.88,301.29V303h1.43v.76H74.88v3.42c0,.62.25.86.88.86a4.33,4.33,0,0,0,.64-.06v.84a7.08,7.08,0,0,1-.92.06c-1.13,0-1.58-.55-1.58-1.54v-3.58H72.84V303H73c.78,0,1-.19,1-1.3v-.41Z"/><path class="cls-10" d="M79.86,308.91c-1.77,0-2.62-1.29-2.62-3s.93-3.06,2.59-3.06,2.42,1.34,2.42,2.8v.51h-4c.06,1.2.55,2,1.64,2a1.18,1.18,0,0,0,1.31-.9h1A2.16,2.16,0,0,1,79.86,308.91Zm1.38-3.62c0-1-.41-1.72-1.42-1.72s-1.43.73-1.55,1.79h3Z"/><path class="cls-10" d="M83.49,309.35h1c.11.49.48.81,1.43.81,1.1,0,1.65-.4,1.65-1.68v-.86h0a2.09,2.09,0,0,1-1.85,1.07c-1.21,0-2.32-.76-2.32-2.9,0-1.92,1-3,2.44-3a1.81,1.81,0,0,1,1.74,1.05h0V303h1v5.65c0,1.63-1.07,2.34-2.64,2.34C84.76,311,83.62,310.55,83.49,309.35Zm4.06-3.8a1.71,1.71,0,0,0-1.65-1.94c-1,0-1.54.87-1.54,2.18s.36,2.15,1.58,2.15a1.68,1.68,0,0,0,1.61-1.8Z"/><path class="cls-10" d="M90.54,300.58h1v1.07h-1Zm0,2.39h1v5.8h-1Z"/><path class="cls-10" d="M96.49,304.42c0-.52-.47-.85-1.15-.85a1,1,0,0,0-1.13.94c0,.47.28.69.86.79l.9.13c1.21.19,1.65.69,1.65,1.69,0,1.16-1,1.79-2.27,1.79s-2.19-.54-2.27-1.78h1c0,.45.3,1,1.32,1,.79,0,1.29-.37,1.29-1s-.12-.71-.91-.85l-.9-.13c-1-.16-1.58-.59-1.58-1.6s.78-1.76,2.1-1.76,2,.58,2.07,1.59Z"/><path class="cls-10" d="M102.63,304.72a1.22,1.22,0,0,0-1.32-1.13c-1,0-1.59.91-1.59,2.26s.4,2.28,1.57,2.28a1.32,1.32,0,0,0,1.42-1.25h.92a2.17,2.17,0,0,1-2.35,2c-1.67,0-2.58-1.17-2.58-3s1-3.06,2.6-3.06a2,2,0,0,1,2.3,1.89Z"/><path class="cls-10" d="M108.75,305.18a2,2,0,0,0-.21-1.14,1.06,1.06,0,0,0-.91-.39,1.47,1.47,0,0,0-1.58,1.64v3.48h-1V300.1h1v3.83h0a1.94,1.94,0,0,1,1.82-1.1,1.66,1.66,0,0,1,1.85,1.9v4h-1Z"/><path class="cls-10" d="M113.85,308.91c-1.77,0-2.62-1.29-2.62-3s.93-3.06,2.59-3.06,2.42,1.34,2.42,2.8v.51h-4c.07,1.2.55,2,1.64,2a1.19,1.19,0,0,0,1.32-.9h1A2.17,2.17,0,0,1,113.85,308.91Zm1.38-3.62c0-1-.41-1.72-1.42-1.72s-1.43.73-1.55,1.79h3Z"/><path class="cls-10" d="M121.58,304.63c0,2.23,1,3.48,2.66,3.48a2.33,2.33,0,0,0,2.54-2.57v-.12h-2.43v-.9h3.43v4.25h-.89v-1.21h0a2.83,2.83,0,0,1-2.63,1.38c-2.12,0-3.7-1.38-3.7-4.34,0-2.75,1.66-4.37,3.84-4.37,1.72,0,3,.87,3.18,2.35h-1.07a2,2,0,0,0-2.11-1.54C122.52,301,121.58,302.47,121.58,304.63Z"/><path class="cls-10" d="M132,308.91c-1.77,0-2.62-1.29-2.62-3s.93-3.06,2.59-3.06,2.42,1.34,2.42,2.8v.51h-4c.07,1.2.55,2,1.64,2a1.2,1.2,0,0,0,1.32-.9h1A2.17,2.17,0,0,1,132,308.91Zm1.38-3.62c0-1-.41-1.72-1.42-1.72s-1.43.73-1.56,1.79h3Z"/><path class="cls-10" d="M138.81,304.42c-.06-.52-.47-.85-1.16-.85a1,1,0,0,0-1.13.94c0,.47.29.69.87.79l.89.13c1.21.19,1.65.69,1.65,1.69,0,1.16-.94,1.79-2.27,1.79s-2.18-.54-2.26-1.78h1c0,.45.29,1,1.32,1,.79,0,1.28-.37,1.28-1s-.12-.71-.91-.85l-.89-.13c-1-.16-1.58-.59-1.58-1.6s.78-1.76,2.1-1.76,2,.58,2.07,1.59Z"/><path class="cls-10" d="M142.7,301.29V303h1.43v.76H142.7v3.42c0,.62.26.86.88.86a4.33,4.33,0,0,0,.64-.06v.84a7,7,0,0,1-.91.06c-1.13,0-1.59-.55-1.59-1.54v-3.58h-1.05V303h.17c.78,0,1-.19,1-1.3v-.41Z"/><path class="cls-10" d="M145.7,304.55c0-1,.8-1.72,2.18-1.72s2.15.6,2.15,2.15v2.37c0,.46.1.65.53.66v.8h-.12c-.93,0-1.24-.33-1.33-1h0a1.93,1.93,0,0,1-1.86,1.08,1.61,1.61,0,0,1-1.83-1.66,1.54,1.54,0,0,1,.87-1.47,6.73,6.73,0,0,1,2.8-.47V305c0-1-.4-1.46-1.21-1.46a1.05,1.05,0,0,0-1.21,1Zm3.36,1.59V306a4.8,4.8,0,0,0-2.34.42.85.85,0,0,0-.32.72c0,.59.38.91,1,.91A1.68,1.68,0,0,0,149.06,306.14Z"/><path class="cls-10" d="M152,300.1h1v8.67h-1Z"/><path class="cls-10" d="M156.27,301.29V303h1.43v.76h-1.43v3.42c0,.62.25.86.88.86a4.29,4.29,0,0,0,.63-.06v.84a6.82,6.82,0,0,1-.91.06c-1.13,0-1.58-.55-1.58-1.54v-3.58h-1.06V303h.18c.78,0,1-.19,1-1.3v-.41Z"/><path class="cls-10" d="M160.05,306.53a2.09,2.09,0,0,0,.21,1.18,1.06,1.06,0,0,0,.89.39c1.08,0,1.58-.72,1.58-2V303h1v5.8h-.94v-1h0a2,2,0,0,1-1.83,1.13,1.68,1.68,0,0,1-1.86-1.9v-4h1Z"/><path class="cls-10" d="M169.47,305.19a2,2,0,0,0-.21-1.15,1.06,1.06,0,0,0-.92-.39,1.47,1.47,0,0,0-1.57,1.64v3.48h-1V303h.94v1h0a2,2,0,0,1,1.87-1.12,1.66,1.66,0,0,1,1.85,1.9v4h-1Z"/><path class="cls-10" d="M172.09,309.35h1c.11.49.49.81,1.43.81,1.1,0,1.65-.4,1.65-1.68v-.86h0a2.09,2.09,0,0,1-1.85,1.07c-1.21,0-2.32-.76-2.32-2.9,0-1.92,1-3,2.44-3a1.81,1.81,0,0,1,1.74,1.05h0V303h.95v5.65c0,1.63-1.07,2.34-2.64,2.34C173.36,311,172.23,310.55,172.09,309.35Zm4.06-3.8a1.71,1.71,0,0,0-1.65-1.94c-1,0-1.54.87-1.54,2.18s.37,2.15,1.59,2.15a1.68,1.68,0,0,0,1.6-1.8Z"/><path class="cls-10" d="M53.26,348.77l-2.4-8.42h1l1.65,6a12.28,12.28,0,0,1,.3,1.35h0a13,13,0,0,1,.29-1.34l1.61-6H57l1.63,6a11.31,11.31,0,0,1,.31,1.35h0a9.07,9.07,0,0,1,.28-1.34l1.64-6h1l-2.41,8.42H58.29l-1.65-5.87a9.52,9.52,0,0,1-.3-1.35h0a9.93,9.93,0,0,1-.29,1.34l-1.63,5.88Z"/><path class="cls-10" d="M65,348.91c-1.77,0-2.62-1.29-2.62-3s.93-3.06,2.59-3.06,2.42,1.34,2.42,2.8v.51h-4c.06,1.2.55,2,1.63,2a1.19,1.19,0,0,0,1.32-.9h1A2.17,2.17,0,0,1,65,348.91Zm1.38-3.62c0-1-.41-1.72-1.42-1.72s-1.43.73-1.55,1.79h3Z"/><path class="cls-10" d="M68.9,343h.93v1.09h0a2.09,2.09,0,0,1,1.84-1.2h.1v1H71.6a1.57,1.57,0,0,0-1.71,1.72v3.16h-1Z"/><path class="cls-10" d="M74.19,348.77h-1V340.1h1v5.66L76.61,343h1.15l-1.94,2.18L78,348.77H76.85l-1.7-2.86-1,1.09Z"/><path class="cls-10" d="M82.19,344.42c0-.52-.47-.85-1.15-.85a1,1,0,0,0-1.13.94c0,.47.28.69.87.79l.89.13c1.21.19,1.65.69,1.65,1.69,0,1.16-.95,1.79-2.27,1.79s-2.19-.54-2.27-1.78h1c0,.45.3,1,1.32,1,.79,0,1.29-.37,1.29-1s-.12-.71-.91-.85l-.9-.13c-1-.16-1.58-.59-1.58-1.6s.78-1.76,2.1-1.76,2,.58,2.07,1.59Z"/><path class="cls-10" d="M86.09,341.29V343h1.43v.76H86.09v3.42c0,.62.25.86.88.86a4.33,4.33,0,0,0,.64-.06v.84a7.08,7.08,0,0,1-.92.06c-1.13,0-1.58-.55-1.58-1.54v-3.58H84.05V343h.18c.78,0,1-.19,1-1.3v-.41Z"/><path class="cls-10" d="M89.08,344.55c0-1,.8-1.72,2.19-1.72s2.14.6,2.14,2.15v2.37c0,.46.1.65.53.66v.8h-.12c-.92,0-1.23-.33-1.33-1h0a1.94,1.94,0,0,1-1.86,1.08,1.61,1.61,0,0,1-1.84-1.66,1.56,1.56,0,0,1,.87-1.47,6.82,6.82,0,0,1,2.81-.47V345c0-1-.4-1.46-1.21-1.46a1.05,1.05,0,0,0-1.21,1Zm.64-4h1v1.09h-1Zm2.73,5.57V346a4.85,4.85,0,0,0-2.35.42.85.85,0,0,0-.32.72c0,.59.39.91,1,.91A1.69,1.69,0,0,0,92.45,346.14Zm-.58-5.57h1v1.09h-1Z"/><path class="cls-10" d="M96.6,341.29V343H98v.76H96.6v3.42c0,.62.26.86.88.86a4.33,4.33,0,0,0,.64-.06v.84a7,7,0,0,1-.91.06c-1.13,0-1.59-.55-1.59-1.54v-3.58H94.57V343h.17c.79,0,1-.19,1-1.3v-.41Z"/><path class="cls-10" d="M100.71,341.29V343h1.43v.76h-1.43v3.42c0,.62.25.86.88.86a4.52,4.52,0,0,0,.64-.06v.84a7.08,7.08,0,0,1-.92.06c-1.13,0-1.58-.55-1.58-1.54v-3.58H98.67V343h.18c.78,0,1-.19,1-1.3v-.41Z"/><path class="cls-10" d="M105.69,348.91c-1.77,0-2.62-1.29-2.62-3s.93-3.06,2.59-3.06,2.42,1.34,2.42,2.8v.51h-4c.07,1.2.55,2,1.64,2a1.2,1.2,0,0,0,1.32-.9h1A2.17,2.17,0,0,1,105.69,348.91Zm1.38-3.62c0-1-.41-1.72-1.42-1.72s-1.43.73-1.56,1.79h3Z"/><path class="cls-10" d="M113.27,345.19a2,2,0,0,0-.21-1.15,1.06,1.06,0,0,0-.91-.39,1.47,1.47,0,0,0-1.58,1.64v3.48h-1V343h.94v1h0a2,2,0,0,1,1.87-1.12,1.66,1.66,0,0,1,1.85,1.9v4h-1Z"/><path d="M24.16,27.44c0,2.2.84,3.19,2.26,3.19a2,2,0,0,0,2.14-2.14v-.14H26.42V27.19H30v4.4H28.77V30.43h0a2.69,2.69,0,0,1-2.52,1.34c-2.3,0-3.68-1.56-3.68-4.29s1.62-4.42,3.94-4.42c1.91,0,3.14.92,3.34,2.55H28.25a1.67,1.67,0,0,0-1.78-1.42C25,24.19,24.16,25.38,24.16,27.44Z"/><path d="M31.73,25.73h1.4v1.19h0a2.07,2.07,0,0,1,1.92-1.29h.1V27h-.28c-1,0-1.68.44-1.68,1.57v3H31.73Z"/><path d="M37.68,29.22a1.88,1.88,0,0,0,.19,1,.89.89,0,0,0,.8.36c.88,0,1.31-.6,1.31-1.69v-3.2h1.47v5.86H40v-1h0a2,2,0,0,1-1.84,1.09c-1.31,0-2-.64-2-2v-4h1.47Z"/><path d="M47,28.11a1.84,1.84,0,0,0-.19-1.05.94.94,0,0,0-.81-.35c-.88,0-1.32.56-1.32,1.45v3.43H43.14V25.73h1.42v1h0a2.06,2.06,0,0,1,1.91-1.11c1.31,0,1.94.67,1.94,2.09v3.9H47Z"/><path d="M55.36,31.59H53.94v-.9h0a2,2,0,0,1-1.78,1c-1.44,0-2.45-.9-2.45-3s1.07-3.12,2.55-3.12a1.76,1.76,0,0,1,1.63.95h0V22.93h1.48ZM53.9,28.42c0-1.1-.53-1.76-1.33-1.76s-1.39.7-1.39,2,.38,2,1.33,2a1.43,1.43,0,0,0,1.39-1.61Z"/><path d="M57.06,25.73h1.39v1.19h0a2.06,2.06,0,0,1,1.91-1.29h.1V27h-.28c-1,0-1.68.44-1.68,1.57v3H57.06Z"/><path d="M61.61,23.21h1.51v1.4H61.61Zm0,2.52h1.49v5.86H61.62Z"/><path d="M67.78,27.3c0-.41-.36-.72-1-.72s-.92.31-.92.72.22.59.75.66l1,.14c1.13.15,1.68.67,1.68,1.71,0,1.27-1,1.94-2.45,1.94s-2.4-.66-2.48-1.84h1.38c0,.42.29.85,1.11.85.65,0,1.06-.29,1.06-.77s-.15-.62-.78-.69l-.92-.12c-1.08-.15-1.68-.67-1.68-1.71s.78-1.88,2.32-1.88,2.19.68,2.27,1.71Z"/><path d="M73.55,27.3c0-.41-.37-.72-1-.72s-.93.31-.93.72.22.59.75.66l1,.14c1.13.15,1.68.67,1.68,1.71,0,1.27-1,1.94-2.45,1.94s-2.4-.66-2.48-1.84H71.5c0,.42.3.85,1.11.85.65,0,1.07-.29,1.07-.77s-.16-.62-.78-.69L72,29.18c-1.08-.15-1.68-.67-1.68-1.71s.78-1.88,2.32-1.88,2.19.68,2.28,1.71Z"/><path d="M79,23.18h1.53v4.88a3.28,3.28,0,0,0,.35,1.87,2.1,2.1,0,0,0,3,0,3.2,3.2,0,0,0,.33-1.87V23.18h1.5V28.7c0,2.12-1.34,3.06-3.35,3.06S79,30.84,79,28.7Z"/><path d="M91.21,28.11A1.93,1.93,0,0,0,91,27.06a1,1,0,0,0-.82-.35c-.88,0-1.32.56-1.32,1.45v3.43H87.4V25.73h1.42v1h0a2,2,0,0,1,1.9-1.11c1.31,0,2,.67,2,2.09v3.9H91.21Z"/><path d="M96.08,24.07v1.66h1.37v1.06H96.11v2.89c0,.61.23.86.82.86a3.79,3.79,0,0,0,.55-.05v1.12a8.28,8.28,0,0,1-1.07.07c-1.15,0-1.77-.51-1.77-1.74V26.79H93.7v-1h.2c.75,0,.9-.16.9-1.25v-.43Z"/><path d="M101.05,31.74c-1.85,0-2.81-1.23-2.81-3.07A2.77,2.77,0,0,1,101,25.59c1.93,0,2.71,1.32,2.71,3V29h-4c.06,1.11.49,1.7,1.36,1.7a1,1,0,0,0,1.12-.78h1.45C103.49,31.07,102.55,31.74,101.05,31.74ZM102.23,28c0-.88-.39-1.47-1.21-1.47s-1.17.58-1.27,1.54h2.48Z"/><path d="M105,25.73h1.4v1.19h0a2.07,2.07,0,0,1,1.92-1.29h.1V27h-.28c-1,0-1.68.44-1.68,1.57v3H105Z"/><path d="M109.23,32h1.43c.11.47.41.74,1.23.74s1.4-.38,1.4-1.52v-.83h0a1.91,1.91,0,0,1-1.76,1c-1.43,0-2.45-.85-2.45-2.89s1.08-3,2.51-3a1.79,1.79,0,0,1,1.71,1h0v-.85h1.42v5.51c0,1.73-1,2.54-2.85,2.54C110.3,33.78,109.34,33.17,109.23,32Zm4.07-3.71c0-1-.55-1.67-1.38-1.67s-1.35.7-1.35,1.92.39,1.9,1.37,1.9a1.41,1.41,0,0,0,1.36-1.53Z"/><path d="M118.82,31.74c-1.85,0-2.8-1.23-2.8-3.07a2.77,2.77,0,0,1,2.79-3.08c1.93,0,2.71,1.32,2.71,3V29h-4c.07,1.11.5,1.7,1.37,1.7a1,1,0,0,0,1.12-.78h1.45C121.26,31.07,120.33,31.74,118.82,31.74ZM120,28c-.06-.88-.4-1.47-1.21-1.47s-1.18.58-1.28,1.54H120Z"/><path d="M125.79,27.3c0-.41-.36-.72-1-.72s-.93.31-.93.72.22.59.75.66l1,.14c1.13.15,1.68.67,1.68,1.71,0,1.27-1,1.94-2.45,1.94s-2.4-.66-2.48-1.84h1.38c0,.42.3.85,1.11.85.65,0,1.07-.29,1.07-.77s-.16-.62-.78-.69l-.93-.12c-1.08-.15-1.68-.67-1.68-1.71s.78-1.88,2.32-1.88,2.19.68,2.28,1.71Z"/><path d="M132.22,27.72a1.09,1.09,0,0,0-1.12-1.11c-1,0-1.33.91-1.33,2s.26,2,1.32,2a1.12,1.12,0,0,0,1.18-1.17h1.43a2.34,2.34,0,0,1-2.63,2.22c-1.81,0-2.82-1.17-2.82-3.07a2.77,2.77,0,0,1,2.85-3.08c1.43,0,2.51.68,2.57,2.13Z"/><path d="M138.71,28.1a1.8,1.8,0,0,0-.19-1,.94.94,0,0,0-.81-.35c-.88,0-1.32.56-1.32,1.45v3.43H134.9V22.93h1.49v3.75h0a2,2,0,0,1,1.84-1.08c1.31,0,1.94.67,1.94,2.09v3.9h-1.48Z"/><path d="M141.43,28.66a2.75,2.75,0,0,1,2.86-3.07c1.77,0,2.83,1.17,2.83,3.07a2.78,2.78,0,0,1-2.84,3.08C142.46,31.74,141.43,30.55,141.43,28.66Zm1.52,0c0,1.24.39,2,1.34,2s1.31-.83,1.31-2-.37-2.05-1.32-2.05S143,27.46,143,28.66Z"/><path d="M151.46,27.3c0-.41-.37-.72-1-.72s-.92.31-.92.72.22.59.74.66l1,.14c1.13.15,1.69.67,1.69,1.71,0,1.27-1,1.94-2.46,1.94s-2.4-.66-2.47-1.84h1.37c.05.42.3.85,1.11.85.65,0,1.07-.29,1.07-.77s-.15-.62-.78-.69l-.93-.12c-1.07-.15-1.68-.67-1.68-1.71s.78-1.88,2.32-1.88,2.19.68,2.28,1.71Z"/><path d="M157.22,27.3c0-.41-.36-.72-1-.72s-.92.31-.92.72.22.59.75.66l1,.14c1.13.15,1.68.67,1.68,1.71,0,1.27-1,1.94-2.45,1.94s-2.4-.66-2.48-1.84h1.38c0,.42.29.85,1.11.85.65,0,1.06-.29,1.06-.77s-.15-.62-.78-.69l-.92-.12c-1.08-.15-1.68-.67-1.68-1.71s.78-1.88,2.32-1.88,2.19.68,2.27,1.71Z"/><path class="cls-11" d="M384.55,301.56h-81.9v-131l41.73,7.39,7.07-16.4,136.84,23.71V220.5h79.8v-110h-50.4c1.35-1.69,2.94-4.27,2.94-7,0-7.48-4.72-11-8.74-12.12L514,77.1,497,54.44l-29.39-5-25,17.44L345.58,50.15l-16.14-2.77L188.11,23.1,169.93,128.87l55.52,9.54v215c-5,1.61-19.74,7.38-19.74,24.87,0,12,7.13,18.18,12.8,21.28a32,32,0,0,0,12.4,3.6l184.31,1.43V289.55l-30.66-1.43ZM301.28,165.44l.32.05-.74-.13Z"/><path class="cls-11" d="M566.27,403.2H571V288.12H508.45v15.12H445v100H566.27"/></g><g id="Rooms"><g id="HuFlur01"><rect class="cls-12" x="449.79" y="334.07" width="116.48" height="19.04"/></g><g id="HuFlur02"><polygon class="cls-12" points="297.89 311.95 297.89 306.32 297.89 301.56 297.89 227.18 277.21 227.18 277.21 311.95 281.06 311.95 281.06 314.33 277.21 314.33 277.21 355.87 338.6 355.87 338.6 354.54 410.45 354.54 410.45 334.07 310.53 334.07 310.53 331.69 312.91 331.69 312.91 331.69 321.03 331.69 321.03 306.32 300.51 306.32 300.27 306.32 300.27 332.88 297.89 332.88 297.89 314.33 294.92 314.33 294.92 311.95 297.89 311.95"/></g><g id="HuFlur03"><polygon class="cls-12" points="251.08 110.43 282.22 115.76 277.21 143.69 277.21 227.18 297.89 227.18 297.89 170.51 297.89 164.84 301.28 165.44 303.48 165.83 341.5 172.56 347.08 159.63 348.56 156.18 353.03 128.66 339.87 126.26 337.61 139.41 336.99 143.02 334.8 155.78 303.9 150.37 304.01 149.74 303.99 149.74 309.34 118.73 337.09 123.5 341.32 99.36 219.8 78.49 216.93 95.19 252.61 101.74 251.08 110.43"/></g><g id="HuMet01"><g id="HuMet01-2" data-name="HuMet01" class="cls-8"><polygon class="cls-9" points="539.11 398.43 541.49 398.43 541.49 355.49 497.71 355.49 497.73 398.43 539.11 398.43"/></g></g><g id="HuMet02"><g class="cls-8"><polygon class="cls-9" points="566.27 331.69 566.27 292.88 513.21 292.88 513.21 303.24 513.21 308 513.21 308 513.21 331.69 566.27 331.69"/></g></g><g id="HuMet03"><g class="cls-8"><rect class="cls-9" x="449.79" y="308" width="34.62" height="23.69"/></g></g><g id="HuMet04"><g class="cls-8"><rect class="cls-9" x="370.87" y="356.92" width="39.58" height="41.51"/></g></g><g id="HuMet05"><g class="cls-8"><rect class="cls-9" x="349.87" y="356.92" width="18.62" height="41.51"/></g></g><g id="HuMet06"><g class="cls-8"><polygon class="cls-9" points="338.6 356.92 338.6 355.87 277.21 355.87 277.21 356.92 265.87 356.92 265.87 398.43 347.49 398.43 347.49 356.92 338.6 356.92"/></g></g><g id="HuMet07"><g class="cls-8"><rect class="cls-9" x="230.21" y="226.97" width="44.62" height="127.57"/></g></g><g id="HuGips01"><g class="cls-8"><polygon class="cls-9" points="311.28 121.48 306.67 148.44 332.85 153.03 337.53 125.85 311.28 121.48"/></g></g><g id="HuGips02"><g class="cls-8"><polygon class="cls-9" points="230.21 134.4 243.62 136.73 249.85 103.66 216.53 97.54 215.88 101.33 215.85 101.32 210.5 131.01 226.26 133.72 230.21 134.4 230.21 134.4"/></g></g><g id="HuGips03"><g class="cls-8"><polygon class="cls-9" points="214.13 97.45 218.52 71.88 185.53 66.23 175.43 124.98 208.15 130.6 214.13 97.45"/></g></g><g id="HuGips04"><g class="cls-8"><polygon class="cls-9" points="227.33 34.67 220.21 76.14 241.91 79.86 283.26 86.97 290.39 45.5 227.33 34.67"/></g></g><g id="HuAussen"><polygon id="HuAussen-2" data-name="HuAussen" class="cls-13" points="445.03 288.12 415.21 288.12 415.21 403.19 445.03 403.19 445.03 303.24 508.45 303.24 508.45 288.12 445.03 288.12"/></g></g><g id="Grundriss"><g id="Treppe"><line class="cls-14" x1="300.07" y1="328.26" x2="320.96" y2="328.26"/><line class="cls-14" x1="300.07" y1="326.58" x2="320.96" y2="326.58"/><line class="cls-14" x1="300.07" y1="324.9" x2="320.96" y2="324.9"/><line class="cls-14" x1="300.07" y1="323.22" x2="320.96" y2="323.22"/><line class="cls-14" x1="300.07" y1="321.54" x2="320.96" y2="321.54"/><line class="cls-14" x1="300.07" y1="319.86" x2="320.96" y2="319.86"/><line class="cls-14" x1="300.07" y1="318.18" x2="320.96" y2="318.18"/><line class="cls-14" x1="300.07" y1="316.5" x2="320.96" y2="316.5"/><line class="cls-14" x1="300.07" y1="314.82" x2="320.96" y2="314.82"/><line class="cls-14" x1="300.07" y1="313.14" x2="320.96" y2="313.14"/><line class="cls-14" x1="310.53" y1="334.07" x2="310.53" y2="313.14"/><line class="cls-14" x1="327.37" y1="153.39" x2="324.1" y2="172.43"/><line class="cls-14" x1="325.71" y1="153.11" x2="322.44" y2="172.15"/><line class="cls-14" x1="324.06" y1="152.82" x2="320.79" y2="171.86"/><line class="cls-14" x1="322.4" y1="152.54" x2="319.13" y2="171.58"/><line class="cls-14" x1="320.75" y1="152.25" x2="317.48" y2="171.29"/><line class="cls-14" x1="319.09" y1="151.97" x2="315.82" y2="171.01"/><line class="cls-14" x1="317.44" y1="151.68" x2="314.16" y2="170.72"/><line class="cls-14" x1="315.78" y1="151.4" x2="312.51" y2="170.44"/><line class="cls-14" x1="314.12" y1="151.11" x2="310.85" y2="170.16"/><line class="cls-14" x1="312.47" y1="150.83" x2="309.2" y2="169.87"/><line class="cls-14" x1="310.81" y1="150.55" x2="307.54" y2="169.59"/><line class="cls-14" x1="309.16" y1="150.26" x2="305.89" y2="169.3"/><line class="cls-14" x1="307.5" y1="149.98" x2="304.23" y2="169.02"/><line class="cls-14" x1="305.85" y1="149.69" x2="302.57" y2="168.73"/><line class="cls-14" x1="304.19" y1="149.41" x2="300.92" y2="168.45"/><line class="cls-14" x1="333.56" y1="153.96" x2="350.78" y2="156.9"/><line class="cls-14" x1="334.19" y1="152.46" x2="350.75" y2="155.3"/><line class="cls-14" x1="334.48" y1="150.8" x2="351.04" y2="153.65"/><line class="cls-14" x1="334.76" y1="149.15" x2="351.32" y2="151.99"/><line class="cls-14" x1="335.05" y1="147.49" x2="351.61" y2="150.34"/><line class="cls-14" x1="335.33" y1="145.84" x2="351.89" y2="148.68"/><line class="cls-14" x1="335.62" y1="144.18" x2="352.17" y2="147.02"/><line class="cls-14" x1="335.9" y1="142.52" x2="352.46" y2="145.37"/><line class="cls-14" x1="336.19" y1="140.87" x2="352.74" y2="143.71"/><line class="cls-14" x1="336.47" y1="139.21" x2="353.03" y2="142.06"/><line class="cls-14" x1="332.34" y1="154.24" x2="329.07" y2="173.28"/><line class="cls-14" x1="330.68" y1="153.96" x2="327.41" y2="173"/><line class="cls-14" x1="329.03" y1="153.67" x2="325.75" y2="172.72"/></g><g id="Wand"><path class="cls-15" d="M563.33,115.22H507.77l6.21-7.74a7.47,7.47,0,0,0,1.89-4c0-5.27-3.3-7-5.27-7.53l-4-1.14.61-4.14L509,78.37,494.31,58.81l-25.59-4.4L445.36,70.73l-1.61,1.13-1.93-.34L351.21,56l-7.13,41.47h0l-4.64,26.49,16.61,2.85-.41,2.35-44.36-7.63-4.63,27,26.2,4.59,1.79-10.42.93.16.53-3.51,17.67,3-2.42,14.44.91.16,136.84,23.7,3.95.69v34.52h70.28Z"/><path class="cls-15" d="M563.33,115.22H507.77l6.21-7.74a7.47,7.47,0,0,0,1.89-4c0-5.27-3.3-7-5.27-7.53l-4-1.14.61-4.14L509,78.37,494.31,58.81l-25.59-4.4L445.36,70.73l-1.61,1.13-1.93-.34L351.21,56l-7.13,41.47h0l-4.64,26.49,16.61,2.85-.41,2.35-44.36-7.63-4.63,27,26.2,4.59,1.79-10.42.93.16.53-3.51,17.67,3-2.42,14.44.91.16,136.84,23.7,3.95.69v34.52h70.28Z"/><polygon class="cls-15" points="303.99 149.74 304.01 149.74 309.34 118.73 303.99 149.74"/><polygon class="cls-15" points="510.83 331.69 510.83 308 508.45 308 486.79 308 486.79 331.69 510.83 331.69"/><polygon class="cls-15" points="543.87 355.49 543.87 398.43 543.87 398.43 543.87 403.19 543.87 403.19 566.27 403.19 566.27 355.49 543.87 355.49"/><polygon class="cls-15" points="449.79 355.49 449.79 398.43 495.35 398.43 495.33 355.49 449.79 355.49"/><polygon class="cls-15" points="323.41 306.32 323.41 331.69 410.45 331.69 410.45 292.88 389.31 292.88 389.31 301.56 389.31 306.32 384.55 306.32 323.41 306.32"/><polygon class="cls-15" points="285.61 87.38 341.73 97.02 348.86 55.55 344.78 54.85 328.63 52.07 292.74 45.91 285.61 87.38"/><path class="cls-15" d="M263.49,398.43V356.92H230.2L226.9,358a28.09,28.09,0,0,0-10.05,5.51c-4.3,3.82-6.39,8.67-6.39,14.83,0,7.61,3.47,13.36,10.33,17.1a26.93,26.93,0,0,0,10.27,3Z"/><polygon class="cls-15" points="230.21 224.59 274.83 224.59 274.83 144.57 230.21 136.81 230.21 224.59"/><path class="cls-15" d="M212.89,360.67h0Z"/><path class="cls-15" d="M563.33,115.22H507.77l6.21-7.74a7.47,7.47,0,0,0,1.89-4c0-5.27-3.3-7-5.27-7.53l-4-1.14.61-4.14L509,78.37,494.31,58.81l-25.59-4.4L445.36,70.73l-1.61,1.13-1.93-.34L351.21,56l-7.13,41.47h0l-4.64,26.49,16.61,2.85-.41,2.35-44.36-7.63-4.63,27,26.2,4.59,1.79-10.42.93.16.53-3.51,17.67,3-2.42,14.44.91.16,136.84,23.7,3.95.69v34.52h70.28Z"/><path class="cls-15" d="M563.33,115.22H507.77l6.21-7.74a7.47,7.47,0,0,0,1.89-4c0-5.27-3.3-7-5.27-7.53l-4-1.14.61-4.14L509,78.37,494.31,58.81l-25.59-4.4L445.36,70.73l-1.61,1.13-1.93-.34L351.21,56l-7.13,41.47h0l-4.64,26.49,16.61,2.85-.41,2.35-44.36-7.63-4.63,27,26.2,4.59,1.79-10.42.93.16.53-3.51,17.67,3-2.42,14.44.91.16,136.84,23.7,3.95.69v34.52h70.28Z"/><polygon class="cls-15" points="303.99 149.74 304.01 149.74 309.34 118.73 303.99 149.74"/><path class="cls-15" d="M563.33,115.22H507.77l6.21-7.74a7.47,7.47,0,0,0,1.89-4c0-5.27-3.3-7-5.27-7.53l-4-1.14.61-4.14L509,78.37,494.31,58.81l-25.59-4.4L445.36,70.73l-1.61,1.13-1.93-.34L351.21,56l-7.13,41.47h0l-4.64,26.49,16.61,2.85-.41,2.35-44.36-7.63-4.63,27,26.2,4.59,1.79-10.42.93.16.53-3.51,17.67,3-2.42,14.44.91.16,136.84,23.7,3.95.69v34.52h70.28Z"/><path class="cls-15" d="M563.33,115.22H507.77l6.21-7.74a7.47,7.47,0,0,0,1.89-4c0-5.27-3.3-7-5.27-7.53l-4-1.14.61-4.14L509,78.37,494.31,58.81l-25.59-4.4L445.36,70.73l-1.61,1.13-1.93-.34L351.21,56l-7.13,41.47h0l-4.64,26.49,16.61,2.85-.41,2.35-44.36-7.63-4.63,27,26.2,4.59,1.79-10.42.93.16.53-3.51,17.67,3-2.42,14.44.91.16,136.84,23.7,3.95.69v34.52h70.28Z"/><polygon class="cls-15" points="303.99 149.74 304.01 149.74 309.34 118.73 303.99 149.74"/><polygon class="cls-15" points="210.99 68.17 210.99 68.17 218.93 69.53 224.99 34.27 191.99 28.59 185.93 63.88 210.99 68.17"/><polygon class="cls-11" points="250.67 112.77 245.97 137.14 275.08 142.2 279.4 117.69 250.67 112.77"/><g id="Wand-2" data-name="Wand"><path class="cls-16" d="M384.55,301.56h-81.9v-131l41.73,7.39,7.07-16.4,136.84,23.71V220.5h79.8v-110h-50.4c1.35-1.69,2.94-4.27,2.94-7,0-7.48-4.72-11-8.74-12.12L514,77.1,497,54.44l-29.39-5-25,17.44L345.58,50.15l-16.14-2.77L188.11,23.1,169.93,128.87l55.52,9.54v215c-5,1.61-19.74,7.38-19.74,24.87,0,12,7.13,18.18,12.8,21.28a32,32,0,0,0,12.4,3.6l184.31,1.43V288.12H384.55ZM328.63,52.07l16.15,2.78,4.08.7L341.73,97l-56.12-9.65,7.13-41.46ZM290.39,45.5,283.26,87l-41.35-7.1-21.7-3.73,7.12-41.47ZM192,28.6l33,5.66-6.06,35.27L211,68.17h0l-25.06-4.29Zm-6.46,37.63,33,5.65-4.39,25.57-6,33.15L175.43,125Zm25,64.78,5.35-29.69h0l.65-3.79,33.32,6.12-6.23,33.07-13.41-2.34h0l-4-.67Zm19.71,93.58V136.81l44.62,7.77v80ZM274.83,227V354.54H230.2V227ZM246,137.14l4.7-24.37,28.74,4.92-4.33,24.51Zm17.52,261.29H231.06a26.93,26.93,0,0,1-10.27-3c-6.86-3.74-10.33-9.49-10.33-17.1,0-6.16,2.09-11,6.39-14.83A28.09,28.09,0,0,1,226.9,358l3.3-1.06h33.29Zm105,0H349.87V356.92h18.62Zm42,0H370.87V356.92h39.58Zm0-43.89H338.6v2.38h8.89v41.51H265.87V356.92h11.34V314.33h3.85V312h-3.85V143.69l5-27.93-31.14-5.33,1.53-8.69-35.68-6.55,2.87-16.7L341.32,99.36l-4.23,24.14-27.75-4.77-5.44,31.64,30.89,5.41,5.08-29.52-2.34-.41L332.85,153l-26.2-4.6,4.63-26.95,44.36,7.63.41-2.35-16.61-2.85,4.64-26.49h0L351.21,56l90.61,15.57,1.93.34,1.61-1.13,23.36-16.32,25.59,4.4L509,78.37l-1.81,12.32-.61,4.14,4,1.14c2,.55,5.27,2.26,5.27,7.53a7.47,7.47,0,0,1-1.89,4l-2.39,3H504.5l-.89,4.76h59.72V215.73H493.05V181.21l-3.95-.69-136.84-23.7-3.7-.64-1.48,3.45-5.58,12.93-38-6.73-5.59-1V306.32h0V312h-3v2.38h3v18.55h2.38V306.32H321v25.37h-10.5v2.38h99.92Zm-21.14-53v-8.68h21.14v38.81h-87V306.32h65.9Z"/><path class="cls-16" d="M508.45,288.12v15.12H445v100h98.84v-4.77h0V355.49h22.4V403.2H571V288.12ZM486.79,308h24v23.69h-24Zm-37,0h34.62v23.69H449.79Zm0,90.43V355.49h45.54v42.94Zm91.7,0H497.73l0-42.94h43.78Zm24.78-45.32H449.79v-19H566.27Zm0-21.42H513.21V308h0V292.88h53.06Z"/><rect class="cls-16" x="480.17" y="106.46" width="5.46" height="5.46" transform="translate(293.51 566.62) rotate(-80.25)"/><polygon class="cls-16" points="465.36 103.4 463.91 103.15 472.67 52.19 470.18 51.77 461.42 102.73 459.98 102.48 459.05 107.86 464.43 108.78 465.36 103.4"/><path class="cls-16" d="M495.24,169.08l7.84-44.64-66.26-11.32,8.4-44.95-2.48-.46-8.4,45L344.08,97.42l-.41,2.35,14.17,2.42L348,159.66l2.48.43,4.24-24.68,106.67,18.32-3.84,22.35,2.43.76L464,153l4.17.71.93-5.38-4.18-.72,4.54-26.39,30.66,5.24-9.74,55.42,2.48.43,1.89-10.75h71.87v-2.52Zm-33.45-17.83-27.29-4.69.69-4-5.38-.93-.69,4-41.81-7.19.69-4-5.38-.92-.69,4-26.81-4.61,5.21-30.31L467,120.84Z"/><polygon class="cls-16" points="374.02 56.9 371.53 56.48 367.98 77.17 347.55 73.67 347.13 76.15 370.03 80.08 374.02 56.9"/></g></g><g id="Schatten"><g class="cls-17"><path d="M520.63,103.5c0,2.69-1.59,5.27-2.94,7h6.68a8,8,0,0,0,.15-1.46c0-4.91-4.1-11.86-6.64-13.8C518.32,96.52,520.63,101.78,520.63,103.5Z"/><polygon points="488.29 185.22 351.45 161.51 344.38 177.91 302.65 170.51 302.65 301.56 306.54 301.56 306.54 176.01 348.27 183.41 355.34 167.01 488.29 190.04 488.29 185.22"/><path d="M511.89,91.38a12.52,12.52,0,0,1,4.37,2.23l1.62-11L514,77.37Z"/><polygon points="568.09 110.45 568.09 220.5 488.29 220.5 492.18 226 571.98 226 571.98 115.95 568.09 110.45"/><polygon points="225.45 138.41 169.93 128.87 173.82 134.37 225.45 143.24 225.45 138.41"/><path d="M415.21,404.63,230.9,403.2a32,32,0,0,1-12.4-3.6c-2.12-1.16-7.26-6.62-9.34-8.77,2.58,5.19,9.61,12.29,13.23,14.27a32,32,0,0,0,12.4,3.6l184.31,1.43V293.62l-3.89-5.5Z"/></g><polygon class="cls-18" points="571.03 288.12 571.03 403.19 566.27 403.19 566.27 403.19 445.03 403.19 448.92 408.69 570.16 408.69 570.16 408.69 574.92 408.69 574.92 293.62 571.03 288.12"/><polygon class="cls-18" points="349.97 108.17 356.62 109.3 357.85 102.19 343.67 99.77 339.44 123.91 346.99 125.2 349.97 108.17"/><polygon class="cls-18" points="366.63 111.01 465.79 127.95 467.01 120.84 360.33 102.61 355.12 132.92 362.64 134.22 366.63 111.01"/><polygon class="cls-18" points="317.58 129.88 336.31 133.11 337.53 126 311.28 121.48 306.65 148.44 314.17 149.75 317.58 129.88"/><polygon class="cls-18" points="499.35 193.62 499.35 189.9 501.09 180 563.33 180 563.33 171.6 494.79 171.6 493.05 181.5 493.05 185.22 493.05 215.73 499.35 215.73 499.35 193.62"/><polygon class="cls-18" points="470.34 161.44 474.51 162.15 475.44 156.77 472.09 151.25 475.8 129.66 498.91 133.61 500.16 126.5 469.5 121.26 464.96 147.66 469.14 148.37 468.21 153.75 464.04 153.04 460.18 175.51 467.69 176.81 470.34 161.44"/><polygon class="cls-18" points="359.83 150.58 359.83 150.58 360.99 143.81 460.14 160.84 461.36 153.73 354.69 135.41 353.53 142.18 351.05 156.61 352.26 156.82 358.6 157.92 359.83 150.58"/><polygon class="cls-18" points="357.51 64.35 369.82 66.47 371.04 59.36 351.21 55.95 348.14 73.77 355.67 75.06 357.51 64.35"/><polygon class="cls-18" points="354.02 84.65 376.33 88.48 379.82 68.19 440.7 78.65 442.03 71.56 441.82 71.52 373.52 59.79 370.03 80.08 347.72 76.25 344.08 97.42 344.08 97.42 351.6 98.69 354.02 84.65"/><polygon class="cls-18" points="514.07 123.62 523.99 123.62 563.33 123.62 563.33 115.22 503.62 115.22 514.07 123.62"/><polygon class="cls-18" points="463.91 103.15 465.36 103.4 464.43 108.78 459.05 107.86 465.35 116.26 470.73 117.18 471.66 111.8 470.5 109.86 478.48 63.41 500.61 67.21 508.99 78.38 508.99 78.37 494.31 58.81 472.18 55.01 470.27 66.13 463.91 103.15"/><path class="cls-18" d="M513.49,96.35l-6.92-1.52,6.3,8.4,2.93.83a3,3,0,0,0,.07-.56C515.87,100.64,514.69,97.5,513.49,96.35Z"/><polygon class="cls-18" points="509.38 132.84 503.08 124.44 495.24 169.08 503.01 169.08 509.38 132.84"/><polygon class="cls-18" points="450.95 79.63 451.65 79.13 467.36 68.16 469.7 54.58 468.72 54.41 445.36 70.73 444.65 71.22 436.82 113.12 444.45 114.42 450.95 79.63"/><polygon class="cls-18" points="492.35 115.36 486.05 106.96 485.13 112.34 479.75 111.42 486.05 119.81 491.43 120.74 492.35 115.36"/><polygon class="cls-18" points="391.57 139.19 388 134.43 387.31 138.45 391.57 139.19"/><polygon class="cls-18" points="438.76 147.29 435.19 142.54 434.5 146.56 438.76 147.29"/><polygon class="cls-18" points="493.09 316.4 510.83 316.4 510.83 308 508.45 308 486.79 308 486.79 331.69 493.09 331.69 493.09 316.4"/><polygon class="cls-18" points="519.51 316.4 519.51 316.4 519.51 311.63 519.51 301.28 566.27 301.28 566.27 292.88 513.21 292.88 513.21 303.24 513.21 308 513.21 308 513.21 331.69 519.51 331.69 519.51 316.4"/><polygon class="cls-18" points="550.17 403.19 550.17 363.89 566.27 363.89 566.27 355.49 543.87 355.49 543.87 398.43 543.87 398.43 543.87 403.19 550.17 403.19"/><polygon class="cls-18" points="456.09 316.4 484.41 316.4 484.41 308 449.79 308 449.79 331.69 456.09 331.69 456.09 316.4"/><polygon class="cls-18" points="504.01 363.89 541.49 363.89 541.49 355.49 497.71 355.49 497.73 398.43 504.02 398.43 504.01 363.89"/><polygon class="cls-18" points="456.09 342.47 566.27 342.47 566.27 334.07 449.79 334.07 449.79 353.11 456.09 353.11 456.09 342.47"/><polygon class="cls-18" points="456.09 363.89 495.33 363.89 495.33 355.49 449.79 355.49 449.79 398.43 456.09 398.43 456.09 363.89"/><polygon class="cls-18" points="377.17 365.32 410.45 365.32 410.45 356.92 370.87 356.92 370.87 398.43 377.17 398.43 377.17 365.32"/><polygon class="cls-18" points="329.71 314.72 390.85 314.72 395.61 314.72 395.61 309.95 395.61 301.28 410.45 301.28 410.45 292.88 389.31 292.88 389.31 301.56 389.31 306.32 384.55 306.32 323.41 306.32 323.41 331.69 329.71 331.69 329.71 314.72"/><polygon class="cls-18" points="236.51 235.37 274.83 235.37 274.83 226.97 230.21 226.97 230.2 354.54 236.5 354.54 236.51 235.37"/><polygon class="cls-18" points="356.17 365.32 368.49 365.32 368.49 356.92 349.87 356.92 349.87 398.43 356.17 398.43 356.17 365.32"/><polygon class="cls-18" points="299.04 54.31 334.93 60.47 347.64 62.66 348.86 55.55 344.78 54.85 328.63 52.07 292.74 45.91 285.61 87.38 293.13 88.67 299.04 54.31"/><path class="cls-18" d="M216.76,386.72c0-6.16,2.09-11,6.39-14.83a28.09,28.09,0,0,1,10-5.51l3.3-1.06h27v-8.4H230.2L226.9,358a28.09,28.09,0,0,0-10.05,5.51c-4.3,3.82-6.39,8.67-6.39,14.83a18.06,18.06,0,0,0,7.4,15.22A20.45,20.45,0,0,1,216.76,386.72Z"/><polygon class="cls-18" points="233.63 43.07 289.17 52.61 290.39 45.5 227.33 34.67 220.21 76.14 227.73 77.43 233.63 43.07"/><polygon class="cls-18" points="236.51 145.21 274.83 151.88 274.83 144.57 230.21 136.81 230.21 224.59 236.51 224.59 236.51 145.21"/><polygon class="cls-18" points="226.1 86.89 340.08 106.47 341.32 99.36 219.8 78.49 216.93 95.19 224.44 96.57 226.1 86.89"/><polygon class="cls-18" points="304.19 306.32 300.27 306.32 300.27 332.88 297.89 332.88 304.19 341.28 306.57 341.28 306.57 328.26 303.52 313.14 303.52 310.52 321.03 310.52 321.03 306.32 304.19 306.32"/><polygon class="cls-18" points="316.83 342.47 410.45 342.47 410.45 334.07 310.19 334.07 316.83 342.47"/><polygon class="cls-18" points="258.91 110.14 252.61 101.74 251.08 110.43 258.63 111.72 258.91 110.14"/><polygon class="cls-18" points="283.51 322.73 287.36 322.73 287.36 320.35 283.51 314.82 283.51 152.09 288.52 124.16 282.22 115.76 277.21 143.69 277.21 311.95 281.06 311.95 281.06 314.33 277.21 314.33 277.21 355.87 283.51 355.87 283.51 322.73"/><polygon class="cls-18" points="222.15 109.72 222.18 109.73 222.83 105.94 248.53 110.66 249.85 103.66 216.53 97.54 215.88 101.33 215.85 101.32 210.5 131.01 218.08 132.31 222.15 109.72"/><polygon class="cls-18" points="256.29 124.95 256.32 124.96 256.97 121.17 278.17 124.7 279.4 117.69 250.67 112.77 250.02 116.56 249.99 116.55 245.97 137.14 253.54 138.44 256.29 124.95"/><polygon class="cls-18" points="198.29 36.99 223.77 41.37 224.99 34.27 191.99 28.59 185.93 63.88 193.45 65.17 198.29 36.99"/><polygon class="cls-18" points="191.83 74.63 217.3 78.99 218.52 71.88 185.53 66.23 175.43 124.98 182.95 126.27 191.83 74.63"/><polygon class="cls-18" points="283.51 355.87 277.21 355.87 277.21 356.92 265.87 356.92 265.87 398.43 272.17 398.43 272.17 365.32 283.51 365.32 283.51 364.27 283.51 355.87"/><polygon class="cls-18" points="347.49 365.32 347.49 356.92 338.6 356.92 344.9 365.32 347.49 365.32"/><polygon class="cls-18" points="331.57 158.71 310.2 158.77 303.9 150.37 334.8 155.78 337.61 139.41 338.79 154.85 337.94 159.99 331.57 158.71"/></g><g id="Marker"><rect class="cls-2" x="236.3" y="51.82" width="18" height="18"/><path class="cls-11" d="M247.6,63.21v2H246v-2h-4.19V62l3.9-5.68h1.87v5.57h1.1v1.28ZM246.05,62V57.87h0a5.68,5.68,0,0,1-.53,1L243.4,62Z"/><rect class="cls-2" x="256.3" y="51.82" width="18" height="18"/><path class="cls-11" d="M266.85,58.4a1.17,1.17,0,0,0-1.27-1c-1.23,0-1.83,1.21-1.87,3.23h0a2.33,2.33,0,0,1,2.14-1.18,2.64,2.64,0,0,1,2.72,2.86,3,3,0,0,1-3.22,3.11c-1.86,0-3.34-1-3.34-4.17,0-3.31,1.26-5,3.55-5,1.8,0,2.63.91,2.76,2.18Zm.11,4a1.54,1.54,0,0,0-1.54-1.74c-.9,0-1.55.56-1.55,1.74a1.56,1.56,0,1,0,3.09,0Z"/></g></g></g></g></svg>