<?xml version="1.0" encoding="UTF-8"?>
<svg width="24px" height="24px" viewBox="0 0 24 24" version="1.1" xmlns="http://www.w3.org/2000/svg" xmlns:xlink="http://www.w3.org/1999/xlink">
    <title>search</title>
    <g id="search" stroke="none" stroke-width="1" fill="none" fill-rule="evenodd">
        <path d="M11.3783614,15.3063335 C14.2934816,15.3063335 16.6566535,12.9431617 16.6566535,10.0280415 C16.6566535,7.11292132 14.2934816,4.7497495 11.3783614,4.7497495 C8.46324127,4.7497495 6.10006945,7.11292132 6.10006945,10.0280415 C6.10006945,12.9431617 8.46324127,15.3063335 11.3783614,15.3063335 Z M11.3783614,16.8063335 C7.63481415,16.8063335 4.60006945,13.7715888 4.60006945,10.0280415 C4.60006945,6.2844942 7.63481415,3.2497495 11.3783614,3.2497495 C15.1219088,3.2497495 18.1566535,6.2844942 18.1566535,10.0280415 C18.1566535,13.7715888 15.1219088,16.8063335 11.3783614,16.8063335 Z M15.3746039,13.7088529 L19.576166,18.5507275 L18.423834,19.5110041 L14.2222719,14.6691295 L15.3746039,13.7088529 Z" id="Combined-Shape" fill="#000000" fill-rule="nonzero"/>
    </g>
</svg>