<svg id="Layer_1" data-name="Layer 1" xmlns="http://www.w3.org/2000/svg" xmlns:xlink="http://www.w3.org/1999/xlink" viewBox="0 0 720 600"><defs><style>.cls-1,.cls-3,.cls-4{fill:none;}.cls-2{clip-path:url(#clip-path);}.cls-3,.cls-4{stroke:#fff;stroke-width:2px;}.cls-3{stroke-linecap:square;}.cls-5,.cls-6{fill:#fff;}.cls-6{fill-opacity:0.7;}</style><clipPath id="clip-path"><rect class="cls-1" width="600" height="411"/></clipPath></defs><title>Artboard 1</title><g class="cls-2"><rect y="347" width="260" height="64"/><path class="cls-3" d="M207,378.61h25.32"/><path class="cls-4" d="M223,367l9.93,11.56L223,390.11"/><path class="cls-5" d="M27.07,377.71V373h2.48a2.35,2.35,0,1,1-.05,4.68ZM32.2,385H35l-3.08-6v0a3.79,3.79,0,0,0,2.78-3.8,3.55,3.55,0,0,0-2.13-3.44,6.64,6.64,0,0,0-2.72-.54H24.55V385h2.52v-5.45h2.45Zm6.89-9.59H36.7v6.49c0,2.25,1.06,3.3,3.2,3.3a3.18,3.18,0,0,0,3-1.78h0V385h2.32v-9.59H42.86v5.23c0,1.79-.71,2.76-2.15,2.76a1.45,1.45,0,0,1-1.29-.58,3,3,0,0,1-.33-1.71ZM54,385h2.43v-6.39c0-2.32-1-3.42-3.18-3.42A3.34,3.34,0,0,0,50.15,377h0v-1.6H47.79V385h2.43v-5.62c0-1.45.72-2.37,2.16-2.37a1.57,1.57,0,0,1,1.33.57,3,3,0,0,1,.3,1.71Zm11.13-4.1c0,1.51-.83,2.64-2.27,2.64s-2.18-1.29-2.18-3.31.81-3.31,2.27-3.31c1.31,0,2.18,1.08,2.18,2.88Zm2.39-10.08H65.1v5.92h0a2.85,2.85,0,0,0-2.66-1.55c-2.41,0-4.18,1.76-4.18,5.11s1.66,4.93,4,4.93a3.19,3.19,0,0,0,2.91-1.71h.06V385h2.32Zm8.82,9.82a2.32,2.32,0,0,1-2.24,2.51c-1.6,0-2.23-1.19-2.23-3.12s.83-3.13,2.22-3.13,2.25,1,2.25,2.72ZM74,388.58c3,0,4.66-1.33,4.66-4.16v-9H76.35v1.38h0a2.94,2.94,0,0,0-2.79-1.6c-2.34,0-4.1,1.71-4.1,4.84,0,3.35,1.65,4.74,4,4.74a3.1,3.1,0,0,0,2.88-1.71h0v1.36c0,1.86-.74,2.49-2.29,2.49-1.35,0-1.83-.45-2-1.21H69.69C69.87,387.57,71.43,388.58,74,388.58Zm10.23-5.07a1.25,1.25,0,0,1-1.4-1.3,1.15,1.15,0,0,1,.49-1,6.35,6.35,0,0,1,3.09-.6v.27C86.42,382.71,85.31,383.51,84.24,383.51Zm-1.06-5.33a1.42,1.42,0,0,1,1.62-1.39c1.1,0,1.6.6,1.6,1.89v.49a11.43,11.43,0,0,0-4.53.74,2.52,2.52,0,0,0-1.44,2.41c0,1.76,1.2,2.81,3.17,2.81a3.17,3.17,0,0,0,3-1.55h0c.25,1.1.87,1.46,2.29,1.46h.68v-1.75c-.63,0-.81-.23-.81-.85v-3.52c0-2.56-1.1-3.73-3.94-3.73-2.43,0-3.89,1.15-4,3ZM97.48,385h2.43v-6.39c0-2.32-1-3.42-3.19-3.42A3.34,3.34,0,0,0,93.61,377h0v-1.6H91.25V385h2.43v-5.62c0-1.45.72-2.37,2.16-2.37a1.56,1.56,0,0,1,1.33.57,3,3,0,0,1,.31,1.71Zm11.14-4.36a2.32,2.32,0,0,1-2.23,2.51c-1.61,0-2.24-1.19-2.24-3.12s.83-3.13,2.22-3.13,2.25,1,2.25,2.72Zm-2.34,7.94c3,0,4.66-1.33,4.66-4.16v-9h-2.32v1.38h0a2.94,2.94,0,0,0-2.79-1.6c-2.34,0-4.1,1.71-4.1,4.84,0,3.35,1.65,4.74,4,4.74a3.1,3.1,0,0,0,2.88-1.71h0v1.36c0,1.86-.74,2.49-2.29,2.49-1.35,0-1.83-.45-2-1.21H102C102.14,387.57,103.7,388.58,106.28,388.58ZM124.65,378c-.14-1.69-1.33-2.81-3.72-2.81s-3.8,1.41-3.8,3.08,1,2.56,2.75,2.79l1.51.2c1,.12,1.28.48,1.28,1.13s-.68,1.26-1.74,1.26c-1.33,0-1.75-.7-1.82-1.38h-2.25c.13,1.92,1.53,3,4,3,2.34,0,4-1.1,4-3.17,0-1.71-.9-2.55-2.75-2.8l-1.57-.22c-.86-.13-1.22-.45-1.22-1.08s.56-1.19,1.51-1.19,1.51.51,1.57,1.19Zm2.82-5.29v.7c0,1.78-.23,2.05-1.48,2.05h-.32v1.69h1.55v5.17c0,2,1,2.84,2.9,2.84a13.64,13.64,0,0,0,1.74-.12V383.2a7.34,7.34,0,0,1-.9.07c-1,0-1.35-.41-1.35-1.4v-4.74h2.2v-1.72h-2.23v-2.72Zm9.45,10.82a1.25,1.25,0,0,1-1.4-1.3,1.16,1.16,0,0,1,.48-1,6.43,6.43,0,0,1,3.1-.6v.27C139.1,382.71,138,383.51,136.92,383.51Zm-1.06-5.33a1.42,1.42,0,0,1,1.62-1.39c1.1,0,1.6.6,1.6,1.89v.49a11.49,11.49,0,0,0-4.54.74,2.52,2.52,0,0,0-1.44,2.41c0,1.76,1.21,2.81,3.17,2.81a3.18,3.18,0,0,0,3-1.55h.05c.25,1.1.86,1.46,2.29,1.46h.68v-1.75c-.63,0-.81-.23-.81-.85v-3.52c0-2.56-1.1-3.73-3.94-3.73-2.43,0-3.89,1.15-4,3Zm8.07,6.82h2.41v-4.91c0-1.86,1-2.58,2.75-2.58h.45v-2.27h-.16a3.37,3.37,0,0,0-3.13,2.11h0v-1.94h-2.28Zm8.17-12.31v.7c0,1.78-.24,2.05-1.48,2.05h-.33v1.69h1.55v5.17c0,2,1,2.84,2.9,2.84a14,14,0,0,0,1.75-.12V383.2a7.57,7.57,0,0,1-.9.07c-1,0-1.35-.41-1.35-1.4v-4.74h2.19v-1.72H154.2v-2.72Zm11.9,6.59h-4.07c.17-1.57.85-2.52,2.09-2.52s1.89,1,2,2.41Zm2.36,3H164a1.65,1.65,0,0,1-1.84,1.26c-1.42,0-2.13-.95-2.23-2.77h6.55V380c0-2.68-1.28-4.84-4.43-4.84-2.9,0-4.57,2.13-4.57,5s1.57,5,4.59,5C164.52,385.23,166.05,384.14,166.36,382.3Zm8.14,2.7h2.43v-6.39c0-2.32-1.05-3.42-3.19-3.42a3.34,3.34,0,0,0-3.11,1.82h0v-1.6h-2.32V385h2.43v-5.62c0-1.45.72-2.37,2.16-2.37a1.56,1.56,0,0,1,1.33.57,3,3,0,0,1,.31,1.71Z"/><rect class="cls-6" width="600" height="328"/><path d="M39.39,78l5.14-19.63a34.22,34.22,0,0,0,1.1-5.71h.1a35.17,35.17,0,0,0,1.1,5.76L52,78h9.21L70.5,41.28H61.71L57.82,59.47a61.58,61.58,0,0,0-1,6.29h0a64.68,64.68,0,0,0-1.44-6.34L50.24,41.28H42L37,59.47a39.6,39.6,0,0,0-1.25,6.29h-.09a48.62,48.62,0,0,0-1-6.34l-4-18.14H20.58L29.89,78Zm34.3-29.71h9.4V40.18h-9.4Zm0,29.71h9.4V52h-9.4Zm14.57,0h9.41V40.18H88.26Zm14.58,0h9.41V40.18h-9.41Zm23.8-6.14,2.54-3.22L134.27,78h9.93l-8.73-15.55L144.16,52h-9.7l-7.82,9.7V40.18h-9.22V78h9.22Zm32.05,6.81c8.07,0,13.92-5,13.92-13.63,0-8.88-5.9-13.63-13.92-13.63-8.59,0-14,4.85-14,13.63S150.2,78.67,158.69,78.67Zm0-21.17c3.17,0,4.18,3.27,4.18,7.54,0,4-.82,7.54-4.18,7.54-3.17,0-4.22-3.22-4.22-7.54C154.47,61.06,155.33,57.5,158.69,57.5ZM176.58,78H186V63.26c0-3.5,1.59-5.18,4-5.18a3.25,3.25,0,0,1,2.88,1.34,7.22,7.22,0,0,1,.67,3.84V78h9.41V63.26c0-3.5,1.58-5.18,4-5.18a3.23,3.23,0,0,1,2.88,1.34,7.22,7.22,0,0,1,.67,3.84V78h9.41V61.78c0-6.53-2.25-10.23-9-10.23a9.19,9.19,0,0,0-8.64,5.38h-.1c-1-3.07-3-5.38-8.21-5.38a9,9,0,0,0-8.21,4.71h-.09V52h-9.07Zm48.18,0h9.41V63.26c0-3.5,1.59-5.18,4-5.18A3.25,3.25,0,0,1,241,59.42a7.32,7.32,0,0,1,.67,3.84V78h9.41V63.26c0-3.5,1.58-5.18,4-5.18A3.23,3.23,0,0,1,258,59.42a7.22,7.22,0,0,1,.67,3.84V78h9.41V61.78c0-6.53-2.26-10.23-9-10.23a9.21,9.21,0,0,0-8.64,5.38h-.09c-1-3.07-3-5.38-8.21-5.38a9,9,0,0,0-8.21,4.71h-.09V52h-9.08Zm64.56-15.74h-8c.29-3.56,1.54-5.28,4-5.28s3.65,1.63,3.94,4.94ZM298.73,70h-9.31c-.49,1.59-1.4,2.55-3.75,2.55-2.5,0-4-1.3-4.27-5.48h17.47V65.23c0-8.16-4-13.82-13.54-13.82-8.35,0-13.39,5.37-13.39,13.49,0,8.64,4.8,13.77,13.39,13.77C293.45,78.67,298,75.65,298.73,70Zm21.5,8h9.41V61.78c0-6.53-2.16-10.23-9.07-10.23-4.61,0-7,2.11-8.5,4.71H312V52H302.9V78h9.41V63.26c0-3.5,1.59-5.18,4.27-5.18a3.35,3.35,0,0,1,3,1.34,7.22,7.22,0,0,1,.67,3.84ZM21.58,101.1h7l-7.37,9V112h10v-1.78H23.7l7.41-9V99.35H21.58Zm15.16-1.75H34.61v8.81c0,3,1.63,4.15,4,4.15a4.26,4.26,0,0,0,4-2.47h0V112h2.07V99.35H42.6v6.84c0,2.79-1.11,4.35-3.46,4.35a2.29,2.29,0,0,1-1.94-.84,4.56,4.56,0,0,1-.46-2.57Zm21.14,0H55.75v8.81c0,3,1.63,4.15,4,4.15a4.26,4.26,0,0,0,4-2.47h.05V112H65.9V99.35H63.74v6.84c0,2.79-1.1,4.35-3.46,4.35a2.29,2.29,0,0,1-1.94-.84,4.56,4.56,0,0,1-.46-2.57ZM78.44,112H80.6v-8.81c0-3-1.61-4.15-4-4.15a4.42,4.42,0,0,0-4.08,2.45h0V99.35h-2V112h2.16v-7.58c0-2.07,1.08-3.58,3.43-3.58a2.31,2.31,0,0,1,2,.84,4.38,4.38,0,0,1,.46,2.52Zm14.86-9.48c-.21-2.21-1.77-3.48-4.51-3.48s-4.58,1.61-4.58,3.84,1.2,3.14,3.45,3.5l2,.29c1.72.29,2,.84,2,1.85,0,1.32-1.08,2.14-2.81,2.14-2.23,0-2.78-1.25-2.88-2.24H83.8c.17,2.72,2.33,3.89,4.94,3.89,2.88,0,5-1.37,5-3.91,0-2.18-1-3.26-3.6-3.67l-2-.29c-1.27-.22-1.89-.7-1.89-1.73s1-2,2.47-2,2.4.72,2.52,1.85Zm11.47,2H98.29c.26-2.3,1.37-3.89,3.38-3.89,2.21,0,3,1.63,3.1,3.75Zm2,4.13h-2.09a2.61,2.61,0,0,1-2.88,2c-2.37,0-3.43-1.78-3.57-4.4H107v-1.1C107,102,105.49,99,101.7,99c-3.63,0-5.64,2.95-5.64,6.7s1.85,6.57,5.71,6.57C104.48,112.31,106.35,110.87,106.81,108.69Zm3.45,3.31h2.16v-6.89a3.43,3.43,0,0,1,3.75-3.74h.41V99.11h-.22a4.58,4.58,0,0,0-4,2.62h0V99.35h-2ZM127,104.56h-6.48c.26-2.3,1.37-3.89,3.38-3.89,2.21,0,3,1.63,3.1,3.75Zm2,4.13h-2.09a2.62,2.62,0,0,1-2.88,2c-2.38,0-3.43-1.78-3.58-4.4h8.72v-1.1c0-3.19-1.49-6.12-5.28-6.12-3.63,0-5.64,2.95-5.64,6.7s1.84,6.57,5.71,6.57C126.7,112.31,128.57,110.87,129,108.69Zm3.45,3.31h2.16v-6.89a3.43,3.43,0,0,1,3.75-3.74h.4V99.11h-.21a4.58,4.58,0,0,0-4,2.62h0V99.35h-2Zm18.65,0h2.28l4.39-12.65h-2.06l-2.81,8.14c-.36,1-.62,2-.62,2h-.05s-.26-1-.62-2l-2.74-8.14h-2.21Zm9.45-15.53h2.28V94.14h-2.28Zm0,15.53h2.19V99.35h-2.19Zm6.7,0h2.16v-6.89a3.43,3.43,0,0,1,3.75-3.74h.41V99.11h-.22a4.58,4.58,0,0,0-4,2.62h0V99.35h-2Zm10.43-16.32v.91c0,2.43-.39,2.83-2.09,2.83h-.38V101h2.3v7.82c0,2.16,1,3.36,3.45,3.36a14.34,14.34,0,0,0,2-.14v-1.83a10.42,10.42,0,0,1-1.39.12c-1.37,0-1.92-.52-1.92-1.87V101h3.12V99.35h-3.12V95.68ZM188,99.35h-2.14v8.81c0,3,1.63,4.15,4.05,4.15a4.26,4.26,0,0,0,4-2.47h.05V112H196V99.35h-2.16v6.84c0,2.79-1.1,4.35-3.46,4.35a2.29,2.29,0,0,1-1.94-.84,4.64,4.64,0,0,1-.45-2.57Zm20.09,5.21H201.6c.27-2.3,1.37-3.89,3.39-3.89,2.2,0,3,1.63,3.09,3.75Zm2,4.13H208a2.61,2.61,0,0,1-2.88,2c-2.37,0-3.43-1.78-3.57-4.4h8.71v-1.1C210.29,102,208.8,99,205,99c-3.62,0-5.64,2.95-5.64,6.7s1.85,6.57,5.71,6.57C207.79,112.31,209.67,110.87,210.12,108.69Zm3.57,3.31h2.16V93.09h-2.16Zm6.66,0h2.16V93.09h-2.16Zm14.24-7.44h-6.48c.26-2.3,1.37-3.89,3.38-3.89,2.21,0,3,1.63,3.1,3.75Zm2,4.13h-2.09a2.61,2.61,0,0,1-2.88,2c-2.37,0-3.43-1.78-3.57-4.4h8.71v-1.1c0-3.19-1.49-6.12-5.28-6.12-3.63,0-5.64,2.95-5.64,6.7s1.85,6.57,5.71,6.57C234.3,112.31,236.17,110.87,236.63,108.69ZM248.12,112h2.16v-8.81c0-3-1.6-4.15-4-4.15a4.42,4.42,0,0,0-4.08,2.45h0V99.35h-2V112h2.16v-7.58c0-2.07,1.08-3.58,3.44-3.58a2.31,2.31,0,0,1,2,.84,4.47,4.47,0,0,1,.45,2.52Zm25.66-13.44c-.17-3.12-2.19-5.18-6.08-5.18s-6.21,2.16-6.21,5.13c0,2.4,1.27,4.32,4.87,5l2.57.46c2.25.38,3.12,1.49,3.12,3.07,0,2-1.08,3.53-4.35,3.53-2.95,0-4.31-1.75-4.58-3.72h-2.33c.19,3.24,2.62,5.52,6.87,5.52s6.67-2.16,6.67-5.52c0-2.62-1.25-4.37-4.82-5l-2.6-.45c-2.16-.41-3.07-1.37-3.07-3.05s1.34-3.17,3.84-3.17a3.54,3.54,0,0,1,3.82,3.41Zm12.16,6h-6.48c.27-2.3,1.37-3.89,3.39-3.89,2.2,0,3,1.63,3.09,3.75Zm2,4.13h-2.09a2.61,2.61,0,0,1-2.88,2c-2.37,0-3.43-1.78-3.57-4.4h8.71v-1.1c0-3.19-1.49-6.12-5.28-6.12-3.62,0-5.64,2.95-5.64,6.7s1.85,6.57,5.71,6.57C285.65,112.31,287.53,110.87,288,108.69Zm3.46,3.31h2.16v-7.63c0-2,1-3.53,3.4-3.53a2.27,2.27,0,0,1,2,.84,4.33,4.33,0,0,1,.46,2.5V112h2.16v-7.58c0-2.07,1.05-3.58,3.41-3.58a2.24,2.24,0,0,1,2,.82,4.4,4.4,0,0,1,.46,2.52V112h2.16v-8.81c0-3-1.63-4.15-4-4.15a4.37,4.37,0,0,0-4.13,2.62h0c-.46-1.76-1.9-2.62-3.82-2.62a4.36,4.36,0,0,0-4.06,2.45h0V99.35h-2Zm30.13-7.44h-6.48c.26-2.3,1.36-3.89,3.38-3.89,2.21,0,3,1.63,3.1,3.75Zm2,4.13h-2.09a2.62,2.62,0,0,1-2.88,2c-2.38,0-3.43-1.78-3.58-4.4h8.71v-1.1c0-3.19-1.48-6.12-5.28-6.12-3.62,0-5.63,2.95-5.63,6.7s1.84,6.57,5.71,6.57C321.28,112.31,323.15,110.87,323.61,108.69Zm11.87-6.17c-.21-2.21-1.77-3.48-4.51-3.48s-4.58,1.61-4.58,3.84,1.2,3.14,3.45,3.5l2,.29c1.72.29,2,.84,2,1.85,0,1.32-1.08,2.14-2.81,2.14-2.23,0-2.78-1.25-2.88-2.24H326c.17,2.72,2.33,3.89,4.94,3.89,2.88,0,4.95-1.37,4.95-3.91,0-2.18-1-3.26-3.6-3.67l-1.95-.29c-1.27-.22-1.89-.7-1.89-1.73s1-2,2.47-2,2.4.72,2.52,1.85Zm4.46-6.84v.91c0,2.43-.38,2.83-2.08,2.83h-.39V101h2.31v7.82c0,2.16,1,3.36,3.45,3.36a14.1,14.1,0,0,0,2-.14v-1.83a10.21,10.21,0,0,1-1.39.12c-1.37,0-1.92-.52-1.92-1.87V101H345V99.35h-3.12V95.68Zm15.85,8.88H349.3c.27-2.3,1.37-3.89,3.39-3.89,2.21,0,3.05,1.63,3.1,3.75Zm2,4.13h-2.09a2.62,2.62,0,0,1-2.88,2c-2.38,0-3.44-1.78-3.58-4.4H358v-1.1c0-3.19-1.48-6.12-5.28-6.12-3.62,0-5.64,2.95-5.64,6.7s1.85,6.57,5.72,6.57C355.5,112.31,357.37,110.87,357.83,108.69Zm3.45,3.31h2.16v-6.89a3.43,3.43,0,0,1,3.74-3.74h.41V99.11h-.21a4.56,4.56,0,0,0-4,2.62h-.05V99.35h-2Zm12.4-1.54c-1.36,0-2.2-.69-2.2-2a1.82,1.82,0,0,1,.69-1.56c.82-.6,2.38-.81,5.11-.93v.28C377.28,109.38,375.29,110.46,373.68,110.46ZM372,102.81c.08-1.08.77-2.16,2.64-2.16s2.64.89,2.64,3.17v.55c-2.83.09-4.8.33-6.12,1a3.36,3.36,0,0,0-1.89,3.19c0,2.26,1.49,3.63,4,3.63a4.22,4.22,0,0,0,4.05-2.36h.05c.22,1.52.89,2.24,2.9,2.24h.27v-1.76c-.94,0-1.15-.43-1.15-1.44v-5.16c0-3.38-1.54-4.7-4.68-4.7s-4.73,1.54-4.78,3.77Zm13.77-3.46h-2.13v8.81c0,3,1.63,4.15,4.05,4.15a4.26,4.26,0,0,0,4-2.47h.05V112h2.06V99.35h-2.16v6.84c0,2.79-1.1,4.35-3.46,4.35a2.29,2.29,0,0,1-1.94-.84,4.56,4.56,0,0,1-.46-2.57Zm20.82,3.17c-.21-2.21-1.77-3.48-4.51-3.48s-4.59,1.61-4.59,3.84,1.21,3.14,3.46,3.5l1.94.29c1.73.29,2,.84,2,1.85,0,1.32-1.08,2.14-2.81,2.14-2.23,0-2.78-1.25-2.88-2.24h-2.11c.17,2.72,2.33,3.89,4.94,3.89,2.88,0,5-1.37,5-3.91,0-2.18-1-3.26-3.6-3.67l-1.95-.29c-1.27-.22-1.89-.7-1.89-1.73s1-2,2.47-2,2.4.72,2.52,1.85Zm12.07,0c-.21-2.21-1.77-3.48-4.51-3.48s-4.58,1.61-4.58,3.84,1.2,3.14,3.45,3.5l2,.29c1.72.29,2,.84,2,1.85,0,1.32-1.08,2.14-2.81,2.14-2.23,0-2.78-1.25-2.88-2.24h-2.11c.17,2.72,2.33,3.89,4.94,3.89,2.88,0,4.95-1.37,4.95-3.91,0-2.18-1-3.26-3.6-3.67l-1.95-.29c-1.27-.22-1.89-.7-1.89-1.73s1-2,2.47-2,2.4.72,2.52,1.85Zm4.46-6.84v.91c0,2.43-.38,2.83-2.08,2.83h-.39V101H423v7.82c0,2.16,1,3.36,3.45,3.36a14.1,14.1,0,0,0,2-.14v-1.83a10.21,10.21,0,0,1-1.39.12c-1.37,0-1.92-.52-1.92-1.87V101h3.12V99.35h-3.12V95.68ZM439,104.56h-6.48c.27-2.3,1.37-3.89,3.39-3.89,2.21,0,3.05,1.63,3.09,3.75Zm2.05,4.13h-2.09a2.62,2.62,0,0,1-2.88,2c-2.38,0-3.43-1.78-3.58-4.4h8.71v-1.1c0-3.19-1.49-6.12-5.28-6.12-3.62,0-5.64,2.95-5.64,6.7s1.85,6.57,5.71,6.57C438.68,112.31,440.55,110.87,441,108.69Zm3.57,3.31h2.16V93.09h-2.16Zm6.65,0h2.16V93.09h-2.16ZM460,99.35h-2.14v8.81c0,3,1.63,4.15,4.06,4.15a4.26,4.26,0,0,0,4-2.47h.05V112H468V99.35h-2.16v6.84c0,2.79-1.1,4.35-3.45,4.35a2.31,2.31,0,0,1-1.95-.84,4.64,4.64,0,0,1-.45-2.57ZM480.53,112h2.16v-8.81c0-3-1.61-4.15-4-4.15a4.41,4.41,0,0,0-4.08,2.45h-.05V99.35h-2V112h2.16v-7.58c0-2.07,1.08-3.58,3.43-3.58a2.31,2.31,0,0,1,2,.84,4.38,4.38,0,0,1,.46,2.52Zm14.6-5.74a3.68,3.68,0,0,1-3.5,3.94c-2.67,0-3.46-1.92-3.46-4.7s1.08-4.76,3.36-4.76,3.6,1.73,3.6,4.25Zm-3.69,10.52c3.43,0,5.76-1.54,5.76-5.09V99.35h-2.07v2h-.05a4,4,0,0,0-3.79-2.3c-3.12,0-5.33,2.28-5.33,6.46,0,4.68,2.43,6.33,5.07,6.33a4.54,4.54,0,0,0,4-2.33h0v1.88c0,2.78-1.2,3.67-3.6,3.67-2.06,0-2.88-.7-3.12-1.78h-2.08C486.56,115.89,489,116.78,491.44,116.78Zm9.41-4.78h2.93v-2.93h-2.93ZM22.5,180H34.35v-2H24.73V171.7h8.73v-1.95H24.73v-6.12h9.5v-2H22.5Zm23.69,0h2.16v-8.81c0-3-1.61-4.15-4-4.15a4.42,4.42,0,0,0-4.08,2.45h0v-2.14h-2V180h2.16v-7.58c0-2.07,1.08-3.58,3.43-3.58a2.31,2.31,0,0,1,2,.84,4.38,4.38,0,0,1,.46,2.52Zm7.25-16.32v.91c0,2.43-.38,2.83-2.08,2.83H51V169h2.31v7.82c0,2.16,1,3.36,3.45,3.36a14.1,14.1,0,0,0,2-.14v-1.83a10.21,10.21,0,0,1-1.39.12c-1.37,0-1.92-.52-1.92-1.87V169h3.12v-1.66H55.41v-3.67Zm16.3,10.85c0,2.3-1.37,4.08-3.6,4.08-2.52,0-3.36-2.09-3.36-5s1.11-4.89,3.53-4.89c2,0,3.43,1.73,3.43,4.41Zm2.11-13.44H69.69v8.18h0A3.8,3.8,0,0,0,66,167c-3.19,0-5.45,2.38-5.45,6.72,0,4.87,2.48,6.55,5.16,6.55a4.48,4.48,0,0,0,4-2.4h.07V180h2.06ZM84,172.56H77.48c.26-2.3,1.37-3.89,3.38-3.89,2.21,0,3,1.63,3.1,3.75Zm2,4.13H83.91a2.62,2.62,0,0,1-2.88,2c-2.38,0-3.43-1.78-3.58-4.4h8.72v-1.1c0-3.19-1.49-6.12-5.28-6.12-3.63,0-5.64,3-5.64,6.7s1.84,6.57,5.71,6.57C83.67,180.31,85.54,178.87,86,176.69Zm13.24-5.52c-.22-3-2.5-4.13-5-4.13-3.55,0-5.66,2.83-5.66,6.7s2,6.55,5.61,6.55c2.74,0,4.83-1.49,5.14-4.42h-2a2.86,2.86,0,0,1-3.09,2.74c-2.55,0-3.43-2-3.43-5s1.2-4.94,3.48-4.94a2.69,2.69,0,0,1,2.88,2.47Zm5.36,5,2.11-2.38L110.4,180h2.52l-4.75-7.9,4.23-4.75h-2.52l-5.28,6.1V161.09h-2.16V180h2.16Zm18.45-3.58h-6.48c.26-2.3,1.37-3.89,3.39-3.89,2.2,0,3,1.63,3.09,3.75Zm2,4.13H123a2.61,2.61,0,0,1-2.88,2c-2.37,0-3.43-1.78-3.57-4.4h8.71v-1.1c0-3.19-1.49-6.12-5.28-6.12-3.62,0-5.64,3-5.64,6.7s1.85,6.57,5.71,6.57C122.76,180.31,124.64,178.87,125.09,176.69Zm11.5,3.31h2.15v-8.81c0-3-1.6-4.15-4-4.15a4.42,4.42,0,0,0-4.08,2.45h0v-2.14h-2.05V180h2.17v-7.58c0-2.07,1.08-3.58,3.43-3.58a2.31,2.31,0,0,1,2,.84,4.38,4.38,0,0,1,.46,2.52Zm25.65-13.44c-.17-3.12-2.19-5.18-6.07-5.18s-6.22,2.16-6.22,5.13c0,2.4,1.27,4.32,4.87,5l2.57.46c2.26.38,3.12,1.49,3.12,3.07,0,1.95-1.08,3.53-4.34,3.53-3,0-4.32-1.75-4.59-3.72h-2.33c.2,3.24,2.62,5.52,6.87,5.52s6.67-2.16,6.67-5.52c0-2.62-1.25-4.37-4.82-5l-2.6-.45c-2.16-.41-3.07-1.37-3.07-3.05s1.35-3.17,3.84-3.17a3.54,3.54,0,0,1,3.82,3.41Zm4.53-2.09h2.28v-2.33h-2.28Zm0,15.53H169V167.35h-2.18Zm14.29-7.44h-6.48c.26-2.3,1.36-3.89,3.38-3.89,2.21,0,3.05,1.63,3.1,3.75Zm2,4.13h-2.09a2.62,2.62,0,0,1-2.88,2c-2.38,0-3.43-1.78-3.58-4.4h8.71v-1.1c0-3.19-1.48-6.12-5.28-6.12-3.62,0-5.64,3-5.64,6.7s1.85,6.57,5.72,6.57C180.82,180.31,182.69,178.87,183.15,176.69Zm18.15-2.16c0,2.3-1.37,4.08-3.6,4.08-2.52,0-3.36-2.09-3.36-5s1.1-4.89,3.52-4.89c2,0,3.44,1.73,3.44,4.41Zm2.11-13.44h-2.16v8.18h-.05a3.79,3.79,0,0,0-3.62-2.23c-3.2,0-5.45,2.38-5.45,6.72,0,4.87,2.47,6.55,5.16,6.55a4.48,4.48,0,0,0,4-2.4h.07V180h2.07Zm4.47,3.38h2.28v-2.33h-2.28Zm.05,15.53h2.18V167.35h-2.18Zm14.28-7.44h-6.47c.26-2.3,1.36-3.89,3.38-3.89,2.21,0,3,1.63,3.09,3.75Zm2,4.13h-2.09a2.62,2.62,0,0,1-2.88,2c-2.38,0-3.44-1.78-3.58-4.4h8.71v-1.1c0-3.19-1.49-6.12-5.28-6.12-3.62,0-5.64,3-5.64,6.7s1.85,6.57,5.71,6.57C221.93,180.31,223.8,178.87,224.26,176.69Zm12.58-5h9.62V180h2.23V161.64h-2.23v8.09h-9.62v-8.09H234.6V180h2.24Zm21,8.59c3.55,0,5.69-2.69,5.69-6.65s-1.88-6.62-5.64-6.62c-3.53,0-5.69,2.71-5.69,6.62S254.12,180.31,257.84,180.31Zm0-11.61c2.43,0,3.43,1.89,3.43,5s-1,5-3.38,5-3.48-1.87-3.48-5S255.56,168.7,257.86,168.7Zm18.87,2.47c-.22-3-2.5-4.13-5-4.13-3.55,0-5.66,2.83-5.66,6.7s2,6.55,5.62,6.55c2.73,0,4.82-1.49,5.13-4.42h-2a2.88,2.88,0,0,1-3.1,2.74c-2.54,0-3.43-2-3.43-5s1.2-4.94,3.48-4.94a2.69,2.69,0,0,1,2.88,2.47ZM288,180h2.16v-8.81c0-3-1.61-4.15-4-4.15a4.21,4.21,0,0,0-4,2.4h-.05v-8.35h-2.16V180h2.16v-7.58c0-2.07,1.08-3.58,3.43-3.58a2.31,2.31,0,0,1,2,.84,4.3,4.3,0,0,1,.46,2.5Zm14.86-9.48c-.21-2.21-1.77-3.48-4.51-3.48s-4.58,1.61-4.58,3.84,1.2,3.14,3.45,3.5l1.95.29c1.72.29,2,.84,2,1.85,0,1.32-1.08,2.14-2.81,2.14-2.23,0-2.78-1.25-2.88-2.24h-2.11c.17,2.72,2.33,3.89,4.94,3.89,2.88,0,5-1.37,5-3.91,0-2.18-1-3.26-3.6-3.67l-1.95-.29c-1.27-.22-1.89-.7-1.89-1.73s1-2,2.47-2,2.4.72,2.52,1.85Zm13.44.65c-.22-3-2.5-4.13-5-4.13-3.55,0-5.66,2.83-5.66,6.7s2,6.55,5.61,6.55c2.74,0,4.83-1.49,5.14-4.42h-2a2.88,2.88,0,0,1-3.1,2.74c-2.55,0-3.43-2-3.43-5s1.2-4.94,3.48-4.94a2.69,2.69,0,0,1,2.88,2.47ZM327.51,180h2.16v-8.81c0-3-1.61-4.15-4-4.15a4.23,4.23,0,0,0-4,2.4h0v-8.35h-2.16V180h2.16v-7.58c0-2.07,1.08-3.58,3.43-3.58a2.31,2.31,0,0,1,2,.84,4.3,4.3,0,0,1,.46,2.5Zm8.65-12.65H334v8.81c0,3,1.63,4.15,4.06,4.15a4.26,4.26,0,0,0,4-2.47h.05V180h2.06V167.35H342v6.84c0,2.79-1.1,4.35-3.45,4.35a2.33,2.33,0,0,1-1.95-.84,4.64,4.64,0,0,1-.45-2.57ZM348.67,180h2.16V161.09h-2.16Zm14.24-7.44h-6.48c.26-2.3,1.37-3.89,3.38-3.89,2.21,0,3.05,1.63,3.1,3.75Zm2,4.13h-2.09a2.61,2.61,0,0,1-2.88,2c-2.37,0-3.43-1.78-3.57-4.4h8.71v-1.1c0-3.19-1.49-6.12-5.28-6.12-3.63,0-5.64,3-5.64,6.7s1.85,6.57,5.71,6.57C362.62,180.31,364.49,178.87,365,176.69ZM377.73,169h3v-1.66h-3v-2.57c0-1.51.6-2,1.84-2a6.13,6.13,0,0,1,1.18.09v-1.77a6.91,6.91,0,0,0-1.35-.12c-2.35,0-3.83.91-3.83,3.5v2.83h-2.31V169h2.31v11h2.16Zm7.9-1.66H383.5v8.81c0,3,1.63,4.15,4.05,4.15a4.26,4.26,0,0,0,4-2.47h0V180h2.07V167.35h-2.16v6.84c0,2.79-1.1,4.35-3.46,4.35a2.29,2.29,0,0,1-1.94-.84,4.56,4.56,0,0,1-.46-2.57Zm4.18-2.85H392v-2.38h-2.21Zm-4.7,0h2.2v-2.38h-2.2Zm13,15.5h2.16v-6.89a3.43,3.43,0,0,1,3.74-3.74h.41v-2.26h-.22a4.58,4.58,0,0,0-4,2.62h0v-2.38h-2Zm23.66-16.85c2.4,0,4.3,1.27,4.61,3.36h2.33c-.46-3.24-3.17-5.13-6.94-5.13-4.75,0-8.37,3.52-8.37,9.52,0,6.46,3.45,9.48,8.08,9.48a6.18,6.18,0,0,0,5.74-3h.1V180h1.94v-9.26h-7.49v2h5.31V173c0,3.6-2.07,5.59-5.55,5.59-3.72,0-5.78-2.71-5.78-7.58C415.79,166.27,417.83,163.15,421.81,163.15Zm19.71,9.41H435c.26-2.3,1.37-3.89,3.38-3.89,2.21,0,3.05,1.63,3.1,3.75Zm2,4.13h-2.09a2.61,2.61,0,0,1-2.88,2c-2.37,0-3.43-1.78-3.57-4.4h8.71v-1.1c0-3.19-1.49-6.12-5.28-6.12-3.63,0-5.64,3-5.64,6.7s1.85,6.57,5.71,6.57C441.23,180.31,443.1,178.87,443.56,176.69Zm11.87-6.17c-.21-2.21-1.77-3.48-4.51-3.48s-4.58,1.61-4.58,3.84,1.2,3.14,3.46,3.5l1.94.29c1.73.29,2,.84,2,1.85,0,1.32-1.08,2.14-2.81,2.14-2.23,0-2.78-1.25-2.88-2.24h-2.11c.17,2.72,2.33,3.89,4.95,3.89,2.88,0,4.94-1.37,4.94-3.91,0-2.18-1-3.26-3.6-3.67l-2-.29c-1.27-.22-1.89-.7-1.89-1.73s1-2,2.47-2,2.4.72,2.52,1.85Zm4.47-6.84v.91c0,2.43-.39,2.83-2.09,2.83h-.39V169h2.31v7.82c0,2.16,1,3.36,3.45,3.36a14.34,14.34,0,0,0,2-.14v-1.83a10.42,10.42,0,0,1-1.39.12c-1.37,0-1.93-.52-1.93-1.87V169H465v-1.66h-3.12v-3.67Zm12.24,14.78c-1.36,0-2.2-.69-2.2-2a1.82,1.82,0,0,1,.69-1.56c.82-.6,2.38-.81,5.11-.93v.28C475.74,177.38,473.75,178.46,472.14,178.46Zm-1.68-7.65c.08-1.08.77-2.16,2.65-2.16s2.63.89,2.63,3.17v.55c-2.83.09-4.79.33-6.12,1a3.36,3.36,0,0,0-1.89,3.19c0,2.26,1.49,3.63,4,3.63a4.22,4.22,0,0,0,4.05-2.36h0c.22,1.52.89,2.24,2.9,2.24H479v-1.76c-.94,0-1.15-.43-1.15-1.44v-5.16c0-3.38-1.54-4.7-4.68-4.7s-4.73,1.54-4.78,3.77ZM482.15,180h2.16V161.09h-2.16Zm7.35-16.32v.91c0,2.43-.39,2.83-2.09,2.83H487V169h2.3v7.82c0,2.16,1,3.36,3.46,3.36a14.28,14.28,0,0,0,2-.14v-1.83a10.21,10.21,0,0,1-1.39.12c-1.37,0-1.92-.52-1.92-1.87V169h3.12v-1.66h-3.12v-3.67Zm10.23,3.67h-2.14v8.81c0,3,1.63,4.15,4.06,4.15a4.26,4.26,0,0,0,4-2.47h.05V180h2.06V167.35h-2.16v6.84c0,2.79-1.1,4.35-3.45,4.35a2.31,2.31,0,0,1-1.95-.84,4.64,4.64,0,0,1-.45-2.57ZM520.28,180h2.16v-8.81c0-3-1.61-4.15-4-4.15a4.41,4.41,0,0,0-4.08,2.45h-.05v-2.14h-2V180h2.16v-7.58c0-2.07,1.08-3.58,3.43-3.58a2.31,2.31,0,0,1,2,.84,4.38,4.38,0,0,1,.46,2.52Zm14.6-5.74a3.68,3.68,0,0,1-3.5,3.94c-2.67,0-3.46-1.92-3.46-4.7s1.08-4.76,3.36-4.76,3.6,1.73,3.6,4.25Zm-3.69,10.52c3.43,0,5.76-1.54,5.76-5.09V167.35h-2.07v2h0A4,4,0,0,0,531,167c-3.12,0-5.33,2.28-5.33,6.46,0,4.68,2.43,6.33,5.07,6.33a4.54,4.54,0,0,0,4-2.33h0v1.88c0,2.78-1.2,3.67-3.6,3.67-2.06,0-2.88-.7-3.12-1.78H526C526.31,183.89,528.79,184.78,531.19,184.78ZM34.81,200.56c-.17-3.12-2.19-5.18-6.07-5.18s-6.22,2.16-6.22,5.13c0,2.4,1.27,4.32,4.87,5L30,206c2.26.38,3.12,1.49,3.12,3.07,0,1.95-1.08,3.53-4.34,3.53-3,0-4.32-1.75-4.59-3.72H21.82c.2,3.24,2.62,5.52,6.87,5.52s6.67-2.16,6.67-5.52c0-2.62-1.25-4.37-4.82-5l-2.6-.45c-2.16-.41-3.07-1.37-3.07-3.05s1.35-3.17,3.84-3.17a3.54,3.54,0,0,1,3.82,3.41Zm14.13,4.61c-.22-3-2.5-4.13-5-4.13-3.55,0-5.66,2.83-5.66,6.7s2,6.55,5.62,6.55c2.73,0,4.82-1.49,5.13-4.42H47a2.88,2.88,0,0,1-3.1,2.74c-2.54,0-3.43-2-3.43-5s1.2-4.94,3.48-4.94a2.69,2.69,0,0,1,2.88,2.47ZM60.18,214h2.16v-8.81c0-3-1.61-4.15-4-4.15a4.21,4.21,0,0,0-4,2.4H54.3v-8.35H52.14V214H54.3v-7.58c0-2.07,1.08-3.58,3.43-3.58a2.31,2.31,0,0,1,2,.84,4.3,4.3,0,0,1,.46,2.5ZM69,214h2.28l2.33-7.44c.36-1.15.79-2.69.79-2.69h0s.43,1.51.79,2.69l2.3,7.44h2.28l3.91-12.65H81.58l-2.5,8.55c-.22.74-.41,1.58-.41,1.58h0s-.21-.84-.45-1.58l-2.67-8.55H73.3l-2.69,8.55c-.24.74-.48,1.58-.48,1.58h0s-.19-.82-.41-1.61l-2.45-8.52H65Zm20.77-1.54c-1.37,0-2.21-.69-2.21-2a1.82,1.82,0,0,1,.69-1.56c.82-.6,2.38-.81,5.12-.93v.28C93.32,211.38,91.32,212.46,89.72,212.46ZM88,204.81c.07-1.08.76-2.16,2.64-2.16s2.64.89,2.64,3.17v.55c-2.84.09-4.8.33-6.12,1a3.35,3.35,0,0,0-1.9,3.19c0,2.26,1.49,3.63,4,3.63a4.22,4.22,0,0,0,4-2.36h0c.22,1.52.89,2.24,2.91,2.24h.26v-1.76c-.94,0-1.15-.43-1.15-1.44v-5.16c0-3.38-1.54-4.7-4.68-4.7S86,202.58,86,204.81Zm4-6.31h2.21v-2.38H92.07Zm-4.71,0h2.21v-2.38H87.36ZM99.72,214h2v-2h0a4.32,4.32,0,0,0,4,2.33c2.86,0,5.21-2.21,5.21-6.81,0-4.8-2.4-6.46-5.08-6.46a4.36,4.36,0,0,0-4,2.4h0v-8.35H99.72Zm5.71-1.39c-2.4,0-3.62-2-3.62-4.47V206.8c0-2.14,1.31-4,3.59-4,2.6,0,3.39,2,3.39,4.73C108.79,210.81,107.68,212.61,105.43,212.61Zm8.91-14.14h2.28v-2.33h-2.28Zm0,15.53h2.18V201.35h-2.18Zm15-9.48c-.22-2.21-1.78-3.48-4.52-3.48s-4.58,1.61-4.58,3.84,1.2,3.14,3.46,3.5l1.94.29c1.73.29,2,.84,2,1.85,0,1.32-1.08,2.14-2.81,2.14-2.23,0-2.78-1.25-2.88-2.24h-2.11c.17,2.72,2.33,3.89,5,3.89,2.88,0,4.94-1.37,4.94-3.91,0-2.18-1-3.26-3.6-3.67l-1.94-.29c-1.28-.22-1.9-.7-1.9-1.73s1-2,2.47-2,2.4.72,2.52,1.85Zm13.43.65c-.21-3-2.49-4.13-5-4.13-3.56,0-5.67,2.83-5.67,6.7s2,6.55,5.62,6.55c2.73,0,4.82-1.49,5.13-4.42h-2a2.87,2.87,0,0,1-3.1,2.74c-2.54,0-3.43-2-3.43-5s1.2-4.94,3.48-4.94a2.69,2.69,0,0,1,2.88,2.47ZM154.07,214h2.16v-8.81c0-3-1.61-4.15-4-4.15a4.21,4.21,0,0,0-4,2.4h-.05v-8.35H146V214h2.16v-7.58c0-2.07,1.08-3.58,3.43-3.58a2.31,2.31,0,0,1,2,.84,4.3,4.3,0,0,1,.46,2.5Zm20.85-16.85c2.4,0,4.3,1.27,4.61,3.36h2.33c-.46-3.24-3.17-5.13-6.94-5.13-4.75,0-8.37,3.52-8.37,9.52,0,6.46,3.45,9.48,8.08,9.48a6.18,6.18,0,0,0,5.74-3h.1V214h1.94v-9.26h-7.49v2h5.31V207c0,3.6-2.07,5.59-5.55,5.59-3.72,0-5.78-2.71-5.78-7.58C168.9,200.27,170.94,197.15,174.92,197.15ZM187,214h2.17v-7.63c0-2,1-3.53,3.4-3.53a2.27,2.27,0,0,1,2,.84,4.33,4.33,0,0,1,.46,2.5V214h2.16v-7.58c0-2.07,1.05-3.58,3.4-3.58a2.25,2.25,0,0,1,2,.82,4.4,4.4,0,0,1,.46,2.52V214h2.16v-8.81c0-3-1.63-4.15-4-4.15a4.37,4.37,0,0,0-4.13,2.62h0c-.46-1.76-1.9-2.62-3.82-2.62a4.36,4.36,0,0,0-4.06,2.45h0v-2.14H187Zm24.64-12.65h-2.14v8.81c0,3,1.64,4.15,4.06,4.15a4.24,4.24,0,0,0,4-2.47h0V214h2.07V201.35h-2.16v6.84c0,2.79-1.11,4.35-3.46,4.35a2.29,2.29,0,0,1-1.94-.84,4.56,4.56,0,0,1-.46-2.57Zm4.18-2.85h2.2v-2.38h-2.2Zm-4.71,0h2.21v-2.38h-2.21ZM232.23,214h2.16v-8.81c0-3-1.6-4.15-4-4.15a4.42,4.42,0,0,0-4.08,2.45h-.05v-2.14h-2V214h2.16v-7.58c0-2.07,1.08-3.58,3.44-3.58a2.31,2.31,0,0,1,2,.84,4.47,4.47,0,0,1,.45,2.52Zm14.61-5.47c0,2.3-1.37,4.08-3.6,4.08-2.53,0-3.36-2.09-3.36-5s1.1-4.89,3.52-4.89c2,0,3.44,1.73,3.44,4.41ZM249,195.09h-2.16v8.18h0a3.79,3.79,0,0,0-3.62-2.23c-3.2,0-5.45,2.38-5.45,6.72,0,4.87,2.47,6.55,5.16,6.55a4.48,4.48,0,0,0,4-2.4h.07V214H249Zm11,3.38h2.28v-2.33H260ZM260,214h2.18V201.35H260Zm14.74,0h2.16v-8.81c0-3-1.61-4.15-4-4.15a4.41,4.41,0,0,0-4.08,2.45h-.05v-2.14h-2V214h2.16v-7.58c0-2.07,1.08-3.58,3.43-3.58a2.31,2.31,0,0,1,2,.84,4.38,4.38,0,0,1,.46,2.52Zm20.68-7.44H289c.27-2.3,1.37-3.89,3.39-3.89,2.21,0,3.05,1.63,3.09,3.75Zm2,4.13h-2.08a2.62,2.62,0,0,1-2.88,2c-2.38,0-3.44-1.78-3.58-4.4h8.71v-1.1c0-3.19-1.49-6.12-5.28-6.12-3.62,0-5.64,3-5.64,6.7s1.85,6.57,5.71,6.57C295.15,214.31,297,212.87,297.47,210.69ZM301,198.47h2.28v-2.33H301Zm.05,15.53h2.18V201.35h-2.18Zm14.74,0H318v-8.81c0-3-1.61-4.15-4-4.15a4.41,4.41,0,0,0-4.08,2.45h0v-2.14h-2V214h2.16v-7.58c0-2.07,1.08-3.58,3.43-3.58a2.31,2.31,0,0,1,2,.84,4.38,4.38,0,0,1,.46,2.52Zm14.14-7.44h-6.48c.27-2.3,1.37-3.89,3.39-3.89,2.21,0,3.05,1.63,3.09,3.75Zm2,4.13h-2.08a2.62,2.62,0,0,1-2.88,2c-2.38,0-3.44-1.78-3.58-4.4h8.71v-1.1c0-3.19-1.49-6.12-5.28-6.12-3.62,0-5.64,3-5.64,6.7s1.85,6.57,5.71,6.57C329.65,214.31,331.52,212.87,332,210.69Zm3.46,3.31h2.16v-7.63c0-2,1.05-3.53,3.41-3.53a2.25,2.25,0,0,1,2,.84,4.33,4.33,0,0,1,.46,2.5V214h2.16v-7.58c0-2.07,1.06-3.58,3.41-3.58a2.27,2.27,0,0,1,2,.82,4.48,4.48,0,0,1,.45,2.52V214h2.16v-8.81c0-3-1.63-4.15-4-4.15a4.37,4.37,0,0,0-4.12,2.62h-.05c-.46-1.76-1.9-2.62-3.82-2.62a4.34,4.34,0,0,0-4.05,2.45h0v-2.14h-2Zm34.48-8c2.33,0,3.7,1.2,3.7,3.31s-1.66,3.27-3.7,3.27a3.78,3.78,0,0,1-4-3.53h-2.18c.14,2.85,1.92,5.35,6,5.35,3.84,0,6-2.35,6-5.09a4.36,4.36,0,0,0-3.46-4.46v-.05a4.51,4.51,0,0,0,3-4c0-2.74-2-4.78-5.43-4.78-3.79,0-5.76,2.47-5.76,5.35h2.16c.1-2.42,1.39-3.52,3.6-3.52a3,3,0,0,1,3.27,3.07,3.11,3.11,0,0,1-3.2,3.12H369v2Zm20.65-5.9c-.27-2.6-2-4.11-5.16-4.11-4.42,0-6.56,3.46-6.56,10.18s3,8.23,6.2,8.23a5.76,5.76,0,0,0,6-6.1c0-4-2.78-5.68-5.45-5.68a5,5,0,0,0-4.49,2.47H381c.12-4.11,1.2-7.42,4.37-7.42a2.82,2.82,0,0,1,3.09,2.43Zm-5.5,12.48c-1.9,0-3.74-1.23-3.74-4.08s1.58-4,3.74-4,3.74,1.42,3.74,4A3.71,3.71,0,0,1,385.06,212.54Zm9.16-7.37c0,6.17,2.42,9.21,6.36,9.21s6.41-3,6.41-9.21-2.52-9.22-6.41-9.22S394.22,199,394.22,205.17Zm6.36,7.44c-2.54,0-4-2.47-4-7.39,0-5.07,1.53-7.47,4-7.47s4.08,2.52,4.08,7.47S403.08,212.61,400.58,212.61Zm24.61-15.46c2.4,0,4.29,1.27,4.61,3.36h2.32c-.45-3.24-3.16-5.13-6.93-5.13-4.75,0-8.38,3.52-8.38,9.52,0,6.46,3.46,9.48,8.09,9.48a6.19,6.19,0,0,0,5.74-3h.09V214h1.95v-9.26h-7.49v2h5.3V207c0,3.6-2.06,5.59-5.54,5.59-3.72,0-5.79-2.71-5.79-7.58C419.16,200.27,421.2,197.15,425.19,197.15ZM437.31,214h2.16v-6.89a3.43,3.43,0,0,1,3.74-3.74h.41v-2.26h-.21a4.58,4.58,0,0,0-4,2.62h0v-2.38h-2Zm12.4-1.54c-1.36,0-2.2-.69-2.2-2a1.82,1.82,0,0,1,.69-1.56c.82-.6,2.38-.81,5.12-.93v.28C453.32,211.38,451.32,212.46,449.71,212.46ZM448,204.81c.07-1.08.76-2.16,2.63-2.16s2.65.89,2.65,3.17v.55c-2.84.09-4.8.33-6.12,1a3.35,3.35,0,0,0-1.9,3.19c0,2.26,1.49,3.63,4,3.63a4.22,4.22,0,0,0,4.05-2.36h.05c.22,1.52.89,2.24,2.91,2.24h.26v-1.76c-.94,0-1.15-.43-1.15-1.44v-5.16c0-3.38-1.54-4.7-4.68-4.7s-4.73,1.54-4.78,3.77Zm19.83,3.72c0,2.3-1.36,4.08-3.6,4.08-2.52,0-3.36-2.09-3.36-5s1.11-4.89,3.53-4.89c2,0,3.43,1.73,3.43,4.41ZM470,195.09h-2.16v8.18h-.05a3.8,3.8,0,0,0-3.63-2.23c-3.19,0-5.44,2.38-5.44,6.72,0,4.87,2.47,6.55,5.16,6.55a4.48,4.48,0,0,0,4-2.4h.07V214H470ZM24.73,238.38v-6.92h4.32c2.11,0,3.67,1.11,3.67,3.36,0,2.52-1.61,3.56-3.77,3.56ZM32.6,248h2.59l-4-8.09v0a4.81,4.81,0,0,0,3.93-5.06,4.62,4.62,0,0,0-2.37-4.34,7.6,7.6,0,0,0-3.56-.82H22.5V248h2.23v-7.78h4.08Zm8.24-12.65H38.71v8.81c0,3,1.63,4.15,4,4.15a4.26,4.26,0,0,0,4-2.47h0V248h2.06V235.35H46.7v6.84c0,2.79-1.1,4.35-3.46,4.35a2.29,2.29,0,0,1-1.94-.84,4.56,4.56,0,0,1-.46-2.57ZM61.4,248h2.16v-8.81c0-3-1.61-4.15-4-4.15a4.41,4.41,0,0,0-4.08,2.45H55.4v-2.14h-2V248h2.16v-7.58c0-2.07,1.08-3.58,3.43-3.58a2.31,2.31,0,0,1,2,.84,4.38,4.38,0,0,1,.46,2.52ZM76,242.53c0,2.3-1.37,4.08-3.6,4.08-2.52,0-3.36-2.09-3.36-5s1.1-4.89,3.53-4.89c2,0,3.43,1.73,3.43,4.41Zm2.11-13.44H76v8.18h0A3.78,3.78,0,0,0,72.28,235c-3.19,0-5.45,2.38-5.45,6.72,0,4.87,2.47,6.55,5.16,6.55a4.49,4.49,0,0,0,4-2.4h.07V248h2.06Zm12.56,13.17a3.68,3.68,0,0,1-3.5,3.94c-2.67,0-3.46-1.92-3.46-4.7s1.08-4.76,3.36-4.76,3.6,1.73,3.6,4.25ZM87,252.78c3.44,0,5.77-1.54,5.77-5.09V235.35H90.67v2h0a4,4,0,0,0-3.79-2.3c-3.12,0-5.33,2.28-5.33,6.46,0,4.68,2.43,6.33,5.07,6.33a4.54,4.54,0,0,0,4-2.33h0v1.88c0,2.78-1.2,3.67-3.6,3.67-2.06,0-2.88-.7-3.12-1.78H81.82C82.1,251.89,84.57,252.78,87,252.78Zm13.55-6.32c-1.37,0-2.21-.69-2.21-2a1.83,1.83,0,0,1,.7-1.56c.81-.6,2.37-.81,5.11-.93v.28C104.12,245.38,102.13,246.46,100.52,246.46Zm-1.68-7.65c.07-1.08.77-2.16,2.64-2.16s2.64.89,2.64,3.17v.55c-2.83.09-4.8.33-6.12,1a3.35,3.35,0,0,0-1.9,3.19c0,2.26,1.49,3.63,4,3.63a4.23,4.23,0,0,0,4.06-2.36h0c.21,1.52.88,2.24,2.9,2.24h.26v-1.76c-.93,0-1.15-.43-1.15-1.44v-5.16c0-3.38-1.53-4.7-4.68-4.7s-4.73,1.54-4.77,3.77ZM118.56,248h2.16v-8.81c0-3-1.61-4.15-4-4.15a4.41,4.41,0,0,0-4.08,2.45h0v-2.14h-2V248h2.16v-7.58c0-2.07,1.08-3.58,3.43-3.58a2.34,2.34,0,0,1,2,.84,4.47,4.47,0,0,1,.45,2.52Zm14.6-5.74a3.68,3.68,0,0,1-3.5,3.94c-2.66,0-3.46-1.92-3.46-4.7s1.08-4.76,3.36-4.76,3.6,1.73,3.6,4.25Zm-3.69,10.52c3.43,0,5.76-1.54,5.76-5.09V235.35h-2.07v2h0a4,4,0,0,0-3.8-2.3c-3.12,0-5.32,2.28-5.32,6.46,0,4.68,2.42,6.33,5.06,6.33a4.53,4.53,0,0,0,4-2.33h0v1.88c0,2.78-1.21,3.67-3.61,3.67-2.06,0-2.87-.7-3.12-1.78h-2.08C124.6,251.89,127.07,252.78,129.47,252.78Zm9.41-4.78h2.93v-2.93h-2.93Z"/></g></svg>